<?xml version="1.0" standalone="no"?>
<!DOCTYPE svg PUBLIC "-//W3C//DTD SVG 20010904//EN"
 "http://www.w3.org/TR/2001/REC-SVG-20010904/DTD/svg10.dtd">
<svg version="1.0" xmlns="http://www.w3.org/2000/svg"
 width="1024.000000pt" height="1024.000000pt" viewBox="0 0 1024.000000 1024.000000"
 preserveAspectRatio="xMidYMid meet">

<g transform="translate(0.000000,1024.000000) scale(0.100000,-0.100000)"
fill="#000000" stroke="none">
<path d="M4416 9054 c-133 -32 -250 -127 -306 -247 -36 -76 -55 -233 -47 -373
4 -50 4 -107 0 -126 l-5 -36 -307 -5 c-276 -4 -313 -6 -379 -26 -148 -43 -294
-135 -414 -259 -173 -179 -273 -389 -281 -593 -2 -52 -10 -88 -26 -121 -21
-45 -23 -59 -22 -234 1 -209 11 -244 75 -286 25 -16 36 -32 40 -58 11 -67 7
-1378 -5 -1385 -21 -13 -103 -152 -155 -260 -28 -60 -73 -173 -98 -250 -46
-139 -70 -190 -85 -180 -5 2 -14 32 -20 65 -30 151 -120 269 -259 337 -66 33
-85 38 -167 41 -148 7 -249 -31 -340 -129 -93 -99 -132 -249 -103 -395 33
-166 105 -307 222 -432 198 -212 453 -307 715 -268 91 14 145 31 289 93 9 4
12 -59 12 -295 0 -294 -1 -302 -22 -339 -40 -67 -26 -241 32 -396 52 -138 219
-342 356 -435 198 -133 319 -162 682 -162 l202 0 0 -164 c0 -268 41 -454 143
-650 38 -73 71 -119 122 -172 91 -93 137 -116 241 -122 72 -4 89 -1 135 20 60
28 131 94 159 148 29 57 41 135 50 320 12 243 45 390 125 550 l32 65 106 3
106 3 42 -63 c253 -374 562 -586 999 -684 110 -25 364 -25 445 -1 118 37 184
88 230 181 52 103 24 248 -65 337 -47 46 -78 69 -242 170 -49 29 -88 56 -88
59 0 3 69 5 153 5 170 0 231 11 356 61 266 107 488 351 561 617 28 101 31 259
7 305 -15 27 -17 48 -11 136 l7 103 71 -5 c97 -6 167 21 246 94 93 87 130 188
131 360 2 270 -154 572 -395 764 l-56 45 0 973 0 973 29 25 c16 13 39 44 51
69 20 41 21 57 18 227 -3 167 -5 186 -24 213 -16 23 -22 51 -27 125 -7 101
-46 250 -87 330 -71 139 -219 309 -338 389 -76 51 -209 116 -283 138 -45 14
-123 17 -451 20 l-398 4 0 177 c0 205 -11 286 -46 360 -59 121 -198 227 -328
251 -96 18 -1235 13 -1310 -5z m1180 -148 c58 -27 113 -87 152 -166 26 -53 27
-61 30 -256 l3 -201 -53 -6 c-29 -4 -87 -7 -129 -7 l-77 0 -4 148 c-6 181 -21
231 -76 259 -34 17 -69 18 -442 18 -390 0 -406 -1 -440 -20 -32 -19 -83 -81
-89 -109 -2 -6 -4 -71 -6 -144 -2 -74 -5 -135 -7 -137 -2 -1 -61 -5 -132 -9
l-129 -7 7 205 c4 129 12 223 21 254 24 80 101 155 194 188 28 10 161 13 581
13 l545 1 51 -24z m-218 -481 c2 -27 1 -74 -3 -102 l-6 -53 -284 0 c-217 0
-284 3 -287 13 -2 6 -2 54 0 105 l4 92 287 -2 286 -3 3 -50z m852 -324 c25
-13 56 -30 70 -37 14 -8 19 -14 11 -14 -9 0 -12 -8 -9 -25 4 -16 0 -25 -11
-28 -13 -4 -13 -5 2 -6 10 0 20 6 23 14 4 10 10 12 18 6 6 -5 25 -11 41 -14
25 -3 23 -4 -11 -6 -47 -1 -78 -26 -53 -42 30 -19 99 -5 99 19 0 13 3 13 12 4
10 -10 10 -15 -2 -22 -13 -9 -13 -11 0 -20 11 -7 16 -5 18 5 2 8 6 15 9 15 6
0 63 -57 63 -64 0 -14 -137 -16 -1163 -19 -1174 -4 -1120 -2 -1129 -52 -7 -46
-44 -45 1596 -46 l1546 0 21 -22 c58 -62 128 -259 129 -359 l0 -38 -2346 0
-2346 0 7 66 c14 129 51 235 114 322 l31 42 103 0 c106 0 127 7 127 41 0 34
-28 49 -93 49 l-61 0 39 41 c55 56 150 123 226 159 136 63 44 59 1524 57
l1350 -2 45 -24z m693 -1 c20 -8 37 -17 37 -21 0 -5 6 -6 13 -4 18 7 158 -73
217 -124 28 -23 60 -51 73 -62 22 -18 18 -18 -213 -18 -278 1 -336 6 -332 31
2 13 -2 16 -15 11 -16 -6 -16 -5 -5 10 13 15 15 15 30 1 13 -13 13 -17 1 -25
-9 -6 -1 -9 28 -9 23 0 45 5 49 11 3 6 17 8 30 5 14 -4 24 -2 24 4 0 5 -5 10
-11 10 -6 0 -18 8 -27 17 -16 16 -17 15 -20 -10 -2 -19 -9 -27 -23 -27 -16 0
-18 5 -13 25 3 14 2 24 -2 23 -5 -2 -9 2 -9 7 0 6 3 9 8 8 4 -2 7 5 7 16 0 26
-54 34 -76 10 -10 -11 -12 -19 -5 -24 6 -3 11 1 11 9 0 9 5 16 10 16 18 0 11
-29 -10 -42 -11 -7 -20 -18 -20 -25 0 -19 -3 -17 -51 31 -34 33 -44 50 -42 72
1 16 -1 21 -3 12 -8 -27 -21 -22 -109 33 l-80 50 245 -4 c165 -3 257 -9 283
-17z m-562 -77 c13 -15 12 -15 -8 -4 -24 12 -29 21 -14 21 5 0 15 -7 22 -17z
m14 -53 c4 -6 -7 -10 -24 -10 -17 0 -31 5 -31 10 0 6 11 10 24 10 14 0 28 -4
31 -10z m1167 -760 c22 -18 23 -24 23 -168 0 -111 -3 -153 -14 -165 -12 -16
-192 -17 -2387 -17 -2336 0 -2373 0 -2384 19 -5 11 -10 85 -10 167 0 124 3
150 17 166 16 18 92 18 2374 18 2279 -1 2359 -2 2381 -20z m-4630 -531 c6 -4
10 -22 10 -42 0 -29 4 -35 19 -34 10 1 19 5 19 9 0 17 27 7 50 -17 21 -23 25
-24 30 -9 6 15 8 15 25 -2 30 -30 64 -44 105 -42 22 1 46 -5 55 -12 12 -10 19
-10 27 -2 8 8 7 13 -5 18 -14 5 -14 8 -2 20 7 8 21 14 30 14 9 0 19 9 22 20 6
24 21 27 19 3 -2 -27 32 -28 37 -1 4 20 4 20 6 -4 1 -26 5 -28 44 -30 l42 -1
-40 -4 c-22 -3 -42 -8 -45 -12 -3 -5 -18 -12 -34 -18 -17 -5 -32 -16 -34 -24
-3 -8 -1 -11 3 -7 4 4 19 2 34 -4 17 -7 320 -11 929 -13 757 -2 904 0 909 11
6 16 30 19 35 4 5 -15 78 -25 78 -11 0 6 -9 11 -19 11 -19 0 -35 23 -24 34 9
9 43 7 43 -2 0 -11 173 -32 184 -22 4 5 -14 11 -40 15 -69 9 -76 13 -25 14 37
1 42 4 37 19 -5 14 -3 14 11 -3 26 -29 51 -30 64 -1 7 15 17 22 26 19 13 -5
13 -7 -1 -15 -11 -6 -15 -16 -11 -28 5 -15 2 -17 -15 -13 -15 4 -19 2 -14 -10
3 -9 13 -15 22 -15 9 0 36 -3 60 -7 28 -5 42 -4 42 3 0 17 -18 24 -24 10 -3
-7 -3 -3 0 10 3 12 1 22 -5 22 -6 0 -8 6 -5 14 4 10 11 8 30 -11 24 -24 50
-23 40 2 -7 19 24 12 36 -8 5 -9 13 -17 18 -17 16 0 11 27 -6 34 -8 3 -12 10
-9 16 9 15 25 12 25 -5 0 -8 7 -15 15 -15 8 0 15 -8 16 -17 0 -14 2 -13 9 5 5
12 14 22 20 22 6 0 8 5 5 10 -10 16 -25 12 -25 -7 0 -9 -2 -14 -5 -11 -4 3 -3
18 1 33 6 26 8 27 20 10 7 -10 26 -18 43 -19 16 -1 27 -4 24 -9 -11 -18 28
-17 48 2 25 23 39 27 39 10 0 -6 7 -9 15 -5 9 3 15 0 15 -9 0 -18 26 -20 33
-2 3 6 4 -4 1 -23 -3 -26 -2 -29 4 -11 16 51 73 53 80 2 2 -11 10 -21 18 -21
8 0 14 -4 14 -10 0 -5 11 -10 25 -10 20 0 25 5 25 25 0 16 -6 25 -15 25 -8 0
-15 7 -15 15 0 8 9 15 20 15 20 0 25 -17 21 -62 -1 -10 3 -18 8 -18 6 0 11 18
11 40 0 36 3 40 25 40 16 0 25 -6 25 -16 0 -8 -5 -12 -10 -9 -15 9 -23 -21
-11 -42 6 -10 11 -13 11 -8 0 6 28 11 63 11 45 1 56 -1 39 -7 -13 -5 -20 -14
-16 -20 4 -8 9 -7 15 2 6 10 9 11 9 2 0 -7 5 -13 11 -13 5 0 7 5 4 10 -3 6 1
10 9 10 9 0 15 -5 13 -11 -1 -6 3 -13 10 -16 7 -3 11 3 8 14 -3 16 2 19 26 15
28 -4 29 -6 14 -21 -8 -10 -15 -23 -15 -29 0 -15 -17 -16 -22 -1 -2 6 -4 -17
-4 -52 -1 -35 1 -46 3 -24 4 45 36 76 56 56 8 -8 5 -11 -11 -11 -25 0 -25 -5
-16 -99 4 -33 11 -61 16 -61 13 0 38 -26 38 -40 0 -20 -32 -44 -58 -46 -14 0
-28 -7 -30 -15 -3 -11 -1 -11 7 1 9 13 11 13 11 -2 0 -9 -4 -20 -10 -23 -5 -3
-10 -11 -10 -16 0 -6 4 -8 9 -5 5 4 11 1 13 -5 4 -13 55 -2 61 14 2 7 3 4 2
-5 -2 -10 0 -18 3 -18 4 0 7 -20 7 -44 0 -31 -4 -42 -12 -39 -8 3 -13 22 -13
44 0 21 -4 39 -10 39 -6 0 -10 -35 -10 -86 0 -71 3 -89 18 -100 16 -13 16 -15
0 -28 -13 -9 -18 -27 -18 -62 0 -32 3 -44 9 -35 7 10 15 11 37 3 l29 -10 -27
-1 -28 -1 0 -80 c0 -47 4 -80 10 -80 6 0 10 -4 10 -10 0 -5 -7 -10 -15 -10 -8
0 -15 -9 -15 -20 0 -11 7 -20 15 -20 8 0 15 -4 15 -10 0 -5 23 -10 50 -10 49
0 66 -12 34 -24 -9 -3 -31 -6 -50 -6 -24 0 -34 -5 -34 -15 0 -8 -6 -15 -14
-15 -8 0 -17 -7 -20 -16 -10 -25 -7 -84 4 -84 6 0 10 18 10 40 0 22 5 40 10
40 16 0 12 -72 -5 -84 -8 -6 -18 -26 -21 -45 -7 -31 -5 -34 14 -29 12 4 22 2
22 -3 0 -5 -6 -9 -14 -9 -24 0 -30 -21 -7 -27 24 -6 28 -21 6 -29 -19 -8 -20
-34 -1 -34 17 0 26 22 26 66 0 19 5 34 10 34 6 0 10 -18 10 -40 0 -22 5 -40
10 -40 6 0 10 20 10 45 0 29 4 45 13 45 8 0 11 -13 9 -43 l-4 -42 49 1 48 2
-45 -6 c-41 -6 -43 -8 -25 -19 18 -11 18 -12 3 -13 -14 0 -18 -9 -18 -37 0
-20 -3 -33 -7 -29 -4 4 -6 27 -4 51 1 27 -2 45 -8 45 -6 0 -11 -18 -11 -40 0
-22 -4 -40 -10 -40 -5 0 -10 18 -10 40 0 22 -4 40 -10 40 -5 0 -10 -15 -10
-34 0 -44 -9 -66 -26 -66 -8 0 -14 -9 -14 -20 0 -11 7 -20 15 -20 8 0 15 -4
15 -10 0 -5 -4 -10 -10 -10 -5 0 -10 -18 -10 -40 0 -29 -4 -40 -15 -40 -11 0
-15 -11 -15 -40 0 -35 -3 -40 -22 -41 -22 0 -22 -1 2 -10 20 -8 22 -12 10 -20
-13 -8 -13 -10 0 -18 12 -8 10 -12 -10 -20 -14 -5 -19 -10 -12 -10 7 -1 12
-15 12 -35 0 -44 9 -66 26 -66 8 0 14 -9 14 -20 0 -11 -7 -20 -15 -20 -22 0
-19 -10 12 -36 l27 -23 -21 -21 c-12 -11 -28 -20 -35 -20 -8 1 -7 5 5 14 23
17 22 38 -3 54 -22 14 -26 38 -7 45 8 4 9 8 1 14 -6 4 -14 15 -17 23 -4 8 -4
-7 -2 -35 3 -27 7 -63 8 -80 4 -44 16 -72 32 -79 17 -6 21 -36 5 -36 -5 0 -10
-18 -10 -39 0 -29 5 -41 18 -45 9 -3 0 -4 -20 -3 l-38 3 2 -41 c1 -36 2 -37 5
-7 4 34 15 37 63 22 22 -7 21 -8 -13 -9 -46 -1 -41 -20 6 -22 30 -2 30 -2 -8
-9 -22 -4 -30 -8 -18 -9 16 -1 21 -6 16 -17 -4 -10 1 -17 16 -21 24 -6 29 -33
6 -33 -8 0 -15 -5 -15 -11 0 -7 -11 -8 -30 -4 -30 6 -30 6 -30 -35 0 -39 1
-41 17 -24 13 13 14 19 5 22 -14 4 -16 32 -2 32 6 0 10 -7 10 -15 0 -8 7 -15
15 -15 20 0 19 -17 -2 -29 -16 -9 -16 -10 5 -11 19 0 22 -5 22 -40 0 -22 5
-40 10 -40 6 0 10 5 10 10 0 6 5 10 10 10 22 0 8 -19 -21 -29 -30 -10 -32 -31
-3 -31 25 0 15 -21 -16 -33 -26 -10 -30 -16 -30 -49 0 -23 -5 -38 -12 -39 -7
0 -3 -4 10 -10 24 -9 22 -29 -4 -29 -20 0 -18 -18 4 -24 15 -5 17 -21 14 -170
-3 -151 -1 -165 15 -169 14 -3 12 -6 -9 -11 -17 -5 -28 -15 -28 -26 0 -11 11
-21 28 -25 15 -4 21 -10 15 -12 -7 -3 -13 -12 -13 -21 0 -9 -7 -30 -15 -45
l-14 -28 32 5 c68 11 97 10 97 -4 0 -6 -610 -10 -1751 -10 -964 0 -1776 -3
-1805 -6 -29 -4 -63 -4 -76 -1 l-23 6 3 1562 c1 859 6 1567 11 1573 11 15 11
136 0 136 -5 0 -9 24 -8 53 0 28 3 45 6 37 3 -8 10 -18 15 -21z m91 24 c-7 -2
-19 -2 -25 0 -7 3 -2 5 12 5 14 0 19 -2 13 -5z m2234 1 c-3 -3 -12 -4 -19 -1
-8 3 -5 6 6 6 11 1 17 -2 13 -5z m1623 -34 c6 10 12 10 25 -3 15 -15 15 -18 1
-33 -21 -21 -20 -51 2 -63 15 -9 15 -10 -5 -11 -17 0 -23 6 -24 23 l-2 22 -4
-22 c-2 -13 -9 -23 -15 -23 -5 0 -7 7 -4 16 3 9 6 37 7 62 0 26 3 41 6 33 4
-11 7 -11 13 -1z m83 3 c-7 -2 -21 -2 -30 0 -10 3 -4 5 12 5 17 0 24 -2 18 -5z
m-1676 -9 c-3 -3 -12 -4 -19 -1 -8 3 -5 6 6 6 11 1 17 -2 13 -5z m-2267 -8 c0
-9 -50 -12 -62 -5 -8 6 1 9 25 9 20 0 37 -2 37 -4z m1505 -6 c3 -5 1 -10 -4
-10 -6 0 -11 5 -11 10 0 6 2 10 4 10 3 0 8 -4 11 -10z m1355 6 c0 -2 -7 -9
-15 -16 -13 -11 -14 -10 -9 4 5 14 24 23 24 12z m1085 -17 c1 -8 6 -13 13 -11
7 1 12 -5 12 -13 0 -8 -7 -15 -15 -15 -8 0 -15 5 -15 10 0 14 -38 12 -43 -2
-2 -7 -8 -10 -12 -6 -10 10 13 38 32 38 8 0 11 5 7 11 -4 7 -1 10 7 7 8 -3 14
-11 14 -19z m-288 -21 c-3 -7 -5 -2 -5 12 0 14 2 19 5 13 2 -7 2 -19 0 -25z
m-3617 12 c0 -5 -2 -10 -4 -10 -3 0 -8 5 -11 10 -3 6 -1 10 4 10 6 0 11 -4 11
-10z m3965 -25 c-1 -19 -4 -37 -7 -40 -4 -5 -4 65 1 73 5 8 7 -3 6 -33z
m-2659 -12 c-10 -10 -19 5 -10 18 6 11 8 11 12 0 2 -7 1 -15 -2 -18z m51 -40
c9 -14 11 -23 5 -23 -16 0 -32 34 -31 62 1 20 2 20 6 3 3 -10 12 -29 20 -42z
m1600 35 c-3 -8 -6 -5 -6 6 -1 11 2 17 5 13 3 -3 4 -12 1 -19z m-2822 2 c3 -5
-3 -10 -15 -10 -12 0 -18 5 -15 10 3 6 10 10 15 10 5 0 12 -4 15 -10z m3475
-10 c-6 -11 -15 -20 -20 -20 -6 0 -5 9 2 20 7 11 16 20 21 20 4 0 3 -9 -3 -20z
m280 10 c0 -5 -4 -10 -10 -10 -5 0 -10 5 -10 10 0 6 5 10 10 10 6 0 10 -4 10
-10z m115 0 c3 -5 1 -10 -4 -10 -6 0 -11 5 -11 10 0 6 2 10 4 10 3 0 8 -4 11
-10z m-3497 -48 c-27 -5 -34 4 -18 23 11 14 14 13 26 -2 11 -16 10 -18 -8 -21z
m3422 23 c0 -9 -6 -12 -16 -8 -13 5 -13 7 -2 14 17 11 18 11 18 -6z m-2470 -5
c-8 -5 -19 -10 -25 -10 -5 0 -3 5 5 10 8 5 20 10 25 10 6 0 3 -5 -5 -10z m720
-1 c12 -9 10 -10 -9 -6 -17 4 -25 1 -28 -14 -7 -25 -29 -25 -36 0 -3 15 1 21
17 24 36 7 41 7 56 -4z m1468 -3 c-7 -8 -15 -12 -17 -11 -5 6 10 25 20 25 5 0
4 -6 -3 -14z m-3193 -6 c3 -5 -3 -10 -15 -10 -12 0 -18 5 -15 10 3 6 10 10 15
10 5 0 12 -4 15 -10z m1439 -6 c9 -23 8 -24 -14 -24 -11 0 -20 2 -20 4 0 12
13 36 20 36 4 0 11 -7 14 -16z m118 -32 c-8 -22 -21 6 -14 31 5 20 6 20 12 1
4 -10 5 -25 2 -32z m1268 32 c0 -8 -5 -12 -10 -9 -6 4 -8 11 -5 16 9 14 15 11
15 -7z m-1450 -4 c24 -15 7 -18 -20 -3 -14 7 -18 13 -10 13 8 0 22 -4 30 -10z
m-1150 -10 c0 -5 7 -10 15 -10 8 0 15 5 15 12 0 6 2 9 5 6 8 -8 -6 -38 -17
-38 -10 0 -38 25 -38 34 0 3 5 6 10 6 6 0 10 -4 10 -10z m173 3 c-7 -2 -19 -2
-25 0 -7 3 -2 5 12 5 14 0 19 -2 13 -5z m587 -3 c0 -5 -2 -10 -4 -10 -3 0 -8
5 -11 10 -3 6 -1 10 4 10 6 0 11 -4 11 -10z m327 -5 c8 -9 12 -19 8 -23 -4 -4
-10 -1 -12 6 -3 6 -11 12 -19 12 -8 0 -14 5 -14 10 0 15 19 12 37 -5z m297 0
c-4 -8 -8 -15 -10 -15 -2 0 -4 7 -4 15 0 8 4 15 10 15 5 0 7 -7 4 -15z m466 5
c0 -5 -5 -10 -11 -10 -5 0 -7 5 -4 10 3 6 8 10 11 10 2 0 4 -4 4 -10z m700 -6
c0 -8 -5 -12 -10 -9 -6 4 -8 11 -5 16 9 14 15 11 15 -7z m-2620 -4 c0 -5 -4
-10 -10 -10 -5 0 -10 5 -10 10 0 6 5 10 10 10 6 0 10 -4 10 -10z m145 1 c3 -5
1 -12 -5 -16 -5 -3 -10 1 -10 9 0 18 6 21 15 7z m42 -13 c-3 -8 -6 -5 -6 6 -1
11 2 17 5 13 3 -3 4 -12 1 -19z m613 12 c13 -9 13 -11 0 -20 -22 -14 -34 -12
-21 4 9 11 9 15 -1 19 -7 3 -8 6 -3 6 6 0 17 -4 25 -9z m1970 0 c0 -5 -7 -10
-15 -10 -8 0 -15 5 -15 10 0 6 7 10 15 10 8 0 15 -4 15 -10z m590 0 c0 -5 -4
-10 -10 -10 -5 0 -10 5 -10 10 0 6 5 10 10 10 6 0 10 -4 10 -10z m-3447 -7
c-24 -2 -62 -2 -85 0 -24 2 -5 4 42 4 47 0 66 -2 43 -4z m3835 -43 l62 -12 0
-794 c0 -437 -3 -794 -7 -793 -5 0 -46 19 -93 42 -74 36 -85 45 -82 65 5 31
-15 52 -47 52 -20 0 -23 -2 -11 -10 13 -8 12 -10 -2 -10 -21 0 -24 -16 -5 -24
24 -11 -49 6 -89 20 -54 19 -108 26 -231 31 -101 4 -116 1 -200 -39 -3 -2 -7
9 -9 24 -2 25 21 47 35 32 3 -4 0 -9 -7 -11 -20 -7 -4 -22 18 -16 15 4 18 9
10 18 -11 13 -6 14 83 16 31 1 57 5 57 10 0 5 -7 9 -15 9 -8 0 -15 5 -15 10 0
6 7 10 15 10 8 0 15 -4 15 -8 0 -9 115 -37 192 -47 14 -1 31 -6 36 -9 6 -3 13
0 16 6 4 7 4 3 2 -9 -4 -20 -1 -22 22 -17 43 10 62 23 63 42 0 14 2 14 9 -3 8
-18 9 -17 9 8 1 35 19 35 23 0 2 -14 9 -28 16 -31 9 -3 12 146 12 722 0 504
-3 726 -11 726 -5 0 -7 -4 -4 -10 3 -5 1 -10 -4 -10 -13 0 -14 13 -4 24 9 8
46 5 141 -14z m-835 -70 c-4 -4 -17 -4 -28 1 -18 9 -18 9 3 5 20 -4 22 0 24
37 l1 42 4 -39 c3 -21 1 -42 -4 -46z m47 40 c0 -22 -4 -40 -10 -40 -5 0 -10
18 -10 40 0 22 5 40 10 40 6 0 10 -18 10 -40z m27 -22 c-2 -13 -4 -3 -4 22 0
25 2 35 4 23 2 -13 2 -33 0 -45z m33 47 c0 -8 -4 -15 -10 -15 -5 0 -10 7 -10
15 0 8 5 15 10 15 6 0 10 -7 10 -15z m230 11 c0 -3 -4 -8 -10 -11 -5 -3 -10
-1 -10 4 0 6 5 11 10 11 6 0 10 -2 10 -4z m-423 -48 c-3 -8 -6 -5 -6 6 -1 11
2 17 5 13 3 -3 4 -12 1 -19z m249 -17 c0 -11 -4 -17 -8 -15 -4 3 -8 12 -8 20
0 8 4 14 8 14 4 0 8 -9 8 -19z m-36 -1 c0 -5 -4 -10 -10 -10 -5 0 -10 5 -10
10 0 6 5 10 10 10 6 0 10 -4 10 -10z m205 0 c3 -5 1 -10 -4 -10 -6 0 -11 5
-11 10 0 6 2 10 4 10 3 0 8 -4 11 -10z m-75 -14 c0 -11 -19 -15 -25 -6 -3 5 1
10 9 10 9 0 16 -2 16 -4z m450 -5 c0 -5 -3 -24 -7 -42 l-7 -34 -6 30 c-4 17
-4 36 -2 43 5 14 22 17 22 3z m-500 -31 c0 -5 -4 -10 -10 -10 -5 0 -10 5 -10
10 0 6 5 10 10 10 6 0 10 -4 10 -10z m45 -30 c3 -5 -1 -10 -10 -10 -9 0 -13 5
-10 10 3 6 8 10 10 10 2 0 7 -4 10 -10z m410 0 c3 -5 1 -10 -4 -10 -6 0 -11 5
-11 10 0 6 2 10 4 10 3 0 8 -4 11 -10z m-490 -10 c3 -5 1 -10 -4 -10 -6 0 -11
5 -11 10 0 6 2 10 4 10 3 0 8 -4 11 -10z m265 -10 c0 -5 -4 -10 -9 -10 -6 0
-13 5 -16 10 -3 6 1 10 9 10 9 0 16 -4 16 -10z m27 -25 c-24 -23 -30 -18 -10
9 10 13 19 20 21 15 2 -5 -3 -16 -11 -24z m-204 15 c8 0 8 -3 1 -10 -12 -12
-44 -3 -44 12 0 6 7 7 16 4 9 -3 21 -6 27 -6z m-83 -20 c0 -5 -4 -10 -10 -10
-5 0 -10 5 -10 10 0 6 5 10 10 10 6 0 10 -4 10 -10z m60 -20 c0 -5 -4 -10 -10
-10 -5 0 -10 5 -10 10 0 6 5 10 10 10 6 0 10 -4 10 -10z m77 -16 c-3 -3 -12
-4 -19 -1 -8 3 -5 6 6 6 11 1 17 -2 13 -5z m103 -8 c0 -3 -4 -8 -10 -11 -5 -3
-10 -1 -10 4 0 6 5 11 10 11 6 0 10 -2 10 -4z m30 -36 c0 -5 -4 -10 -10 -10
-5 0 -10 5 -10 10 0 6 5 10 10 10 6 0 10 -4 10 -10z m-227 -7 c-13 -2 -33 -2
-45 0 -13 2 -3 4 22 4 25 0 35 -2 23 -4z m192 -23 c3 -5 1 -10 -4 -10 -6 0
-11 5 -11 10 0 6 2 10 4 10 3 0 8 -4 11 -10z m-168 -20 c3 -10 2 -11 -4 -3 -4
6 -26 13 -48 16 -40 4 -40 4 4 3 30 -1 46 -6 48 -16z m51 -4 c-10 -7 -18 -19
-18 -26 0 -7 8 -19 18 -26 11 -9 12 -13 4 -14 -7 0 -22 9 -34 20 -21 20 -21
20 -2 39 10 11 26 20 34 20 12 0 12 -2 -2 -13z m189 -48 c-2 -13 -4 -3 -4 22
0 25 2 35 4 23 2 -13 2 -33 0 -45z m30 0 c-2 -13 -4 -3 -4 22 0 25 2 35 4 23
2 -13 2 -33 0 -45z m-629 17 c-12 -13 -26 -21 -31 -18 -4 2 3 15 15 28 12 13
26 21 31 18 4 -2 -3 -15 -15 -28z m429 -7 c-3 -7 -5 -2 -5 12 0 14 2 19 5 13
2 -7 2 -19 0 -25z m353 -8 c0 -5 -4 -10 -10 -10 -5 0 -10 5 -10 10 0 6 5 10
10 10 6 0 10 -4 10 -10z m40 1 c0 -6 -4 -13 -10 -16 -5 -3 -10 1 -10 9 0 9 5
16 10 16 6 0 10 -4 10 -9z m-655 -21 c3 -5 -3 -10 -15 -10 -12 0 -18 5 -15 10
3 6 10 10 15 10 5 0 12 -4 15 -10z m0 -50 c3 -5 -3 -10 -15 -10 -12 0 -18 5
-15 10 3 6 10 10 15 10 5 0 12 -4 15 -10z m-45 -70 c0 -22 -3 -40 -7 -40 -5 0
-8 18 -8 40 0 22 3 40 8 40 4 0 7 -18 7 -40z m40 0 c0 -22 -4 -40 -10 -40 -5
0 -10 18 -10 40 0 22 5 40 10 40 6 0 10 -18 10 -40z m32 -12 c2 -20 0 -34 -4
-32 -4 3 -8 24 -7 47 1 47 6 41 11 -15z m83 -20 c6 -47 25 -68 25 -28 0 11 5
20 10 20 6 0 10 -9 10 -20 0 -11 5 -20 10 -20 6 0 10 9 10 20 0 12 7 20 16 20
15 0 15 -2 0 -25 -9 -13 -16 -31 -16 -39 0 -16 -24 -28 -43 -20 -17 6 -37 83
-36 132 1 41 4 32 14 -40z m178 65 c-7 -2 -19 -2 -25 0 -7 3 -2 5 12 5 14 0
19 -2 13 -5z m-373 -33 c0 -5 -4 -10 -10 -10 -5 0 -10 5 -10 10 0 6 5 10 10
10 6 0 10 -4 10 -10z m393 3 c-7 -2 -21 -2 -30 0 -10 3 -4 5 12 5 17 0 24 -2
18 -5z m0 -30 c-7 -2 -21 -2 -30 0 -10 3 -4 5 12 5 17 0 24 -2 18 -5z m301 -8
c3 -8 1 -15 -4 -15 -6 0 -10 7 -10 15 0 8 2 15 4 15 2 0 6 -7 10 -15z m-187
-57 c-3 -7 -5 -2 -5 12 0 14 2 19 5 13 2 -7 2 -19 0 -25z m-347 12 c0 -5 -4
-10 -10 -10 -5 0 -10 5 -10 10 0 6 5 10 10 10 6 0 10 -4 10 -10z m540 -16 c0
-8 -4 -12 -10 -9 -5 3 -10 10 -10 16 0 5 5 9 10 9 6 0 10 -7 10 -16z m-263
-81 c-2 -16 -4 -3 -4 27 0 30 2 43 4 28 2 -16 2 -40 0 -55z m45 22 c-2 -25 -8
-45 -13 -45 -14 0 -11 78 4 83 6 3 12 6 12 6 0 1 -1 -19 -3 -44z m28 -2 c-4
-42 -5 -44 -8 -15 -3 30 2 62 10 62 2 0 1 -21 -2 -47z m-560 27 c0 -5 7 -10
15 -10 8 0 15 -4 15 -10 0 -5 -7 -10 -15 -10 -8 0 -15 5 -15 10 0 6 -7 10 -15
10 -8 0 -15 5 -15 10 0 6 7 10 15 10 8 0 15 -4 15 -10z m77 4 c-3 -3 -12 -4
-19 -1 -8 3 -5 6 6 6 11 1 17 -2 13 -5z m163 -24 c0 -5 -4 -10 -10 -10 -5 0
-10 5 -10 10 0 6 5 10 10 10 6 0 10 -4 10 -10z m-160 -20 c0 -5 -7 -10 -15
-10 -8 0 -15 5 -15 10 0 6 7 10 15 10 8 0 15 -4 15 -10z m100 0 c0 -5 -4 -10
-10 -10 -5 0 -10 5 -10 10 0 6 5 10 10 10 6 0 10 -4 10 -10z m-100 -50 c0 -11
7 -20 15 -20 8 0 15 -4 15 -8 0 -14 -23 -32 -42 -32 -14 0 -18 8 -18 40 0 29
4 40 15 40 8 0 15 -9 15 -20z m52 8 c-9 -9 -15 -9 -24 0 -9 9 -7 12 12 12 19
0 21 -3 12 -12z m28 -53 c0 -14 -5 -25 -11 -25 -5 0 -8 4 -4 9 3 5 1 12 -5 16
-15 9 -12 25 5 25 9 0 15 -9 15 -25z m160 0 c0 -11 -11 -15 -40 -15 -29 0 -40
4 -40 15 0 11 11 15 40 15 29 0 40 -4 40 -15z m187 -21 c-3 -3 -12 -4 -19 -1
-8 3 -5 6 6 6 11 1 17 -2 13 -5z m-403 -13 c3 -5 -1 -11 -9 -15 -9 -3 -15 0
-15 9 0 16 16 20 24 6z m216 -1 c0 -5 -8 -10 -17 -10 -15 0 -16 2 -3 10 19 12
20 12 20 0z m-80 -22 c0 -16 -3 -19 -11 -11 -6 6 -8 16 -5 22 11 17 16 13 16
-11z m-80 -8 c0 -13 -5 -18 -15 -14 -16 7 -19 17 -8 27 12 13 23 7 23 -13z
m240 0 c0 -5 -4 -10 -10 -10 -5 0 -10 5 -10 10 0 6 5 10 10 10 6 0 10 -4 10
-10z m105 0 c3 -5 -1 -10 -9 -10 -9 0 -16 5 -16 10 0 6 4 10 9 10 6 0 13 -4
16 -10z m-400 -20 c3 -5 -1 -10 -9 -10 -9 0 -16 5 -16 10 0 6 4 10 9 10 6 0
13 -4 16 -10z m162 -6 c-3 -3 -12 -4 -19 -1 -8 3 -5 6 6 6 11 1 17 -2 13 -5z
m80 0 c-3 -3 -12 -4 -19 -1 -8 3 -5 6 6 6 11 1 17 -2 13 -5z m153 -8 c0 -3 -4
-8 -10 -11 -5 -3 -10 -1 -10 4 0 6 5 11 10 11 6 0 10 -2 10 -4z m60 -6 c0 -5
-2 -10 -4 -10 -3 0 -8 5 -11 10 -3 6 -1 10 4 10 6 0 11 -4 11 -10z m-447 -17
c-7 -2 -19 -2 -25 0 -7 3 -2 5 12 5 14 0 19 -2 13 -5z m47 -33 c0 -5 -7 -10
-15 -10 -8 0 -15 5 -15 10 0 6 7 10 15 10 8 0 15 -4 15 -10z m160 -5 c0 -10
-10 -15 -32 -15 -18 0 -42 -2 -53 -4 -11 -2 -14 -1 -7 1 6 3 12 11 12 19 0 10
12 14 40 14 29 0 40 -4 40 -15z m-143 -21 c-3 -3 -12 -4 -19 -1 -8 3 -5 6 6 6
11 1 17 -2 13 -5z m433 -19 c0 -8 -4 -15 -10 -15 -5 0 -10 7 -10 15 0 8 5 15
10 15 6 0 10 -7 10 -15z m137 9 c-3 -3 -12 -4 -19 -1 -8 3 -5 6 6 6 11 1 17
-2 13 -5z m-507 -16 c0 -5 -18 -8 -40 -8 -22 0 -40 4 -40 8 0 4 18 8 40 7 22
0 40 -3 40 -7z m50 -8 c0 -5 -4 -10 -10 -10 -5 0 -10 5 -10 10 0 6 5 10 10 10
6 0 10 -4 10 -10z m160 0 c0 -5 -4 -10 -10 -10 -5 0 -10 5 -10 10 0 6 5 10 10
10 6 0 10 -4 10 -10z m-225 -30 c-24 -9 -62 0 -45 10 6 4 23 5 38 2 23 -5 24
-6 7 -12z m355 16 c0 -11 -19 -15 -25 -6 -3 5 1 10 9 10 9 0 16 -2 16 -4z m60
-6 c0 -5 -2 -10 -4 -10 -3 0 -8 5 -11 10 -3 6 -1 10 4 10 6 0 11 -4 11 -10z
m-540 -10 c0 -5 -4 -10 -10 -10 -5 0 -10 5 -10 10 0 6 5 10 10 10 6 0 10 -4
10 -10z m380 -15 c0 -8 -7 -15 -15 -15 -26 0 -18 20 13 29 1 1 2 -6 2 -14z
m50 5 c0 -5 -4 -10 -10 -10 -5 0 -10 5 -10 10 0 6 5 10 10 10 6 0 10 -4 10
-10z m83 3 c-7 -2 -19 -2 -25 0 -7 3 -2 5 12 5 14 0 19 -2 13 -5z m134 1 c-3
-3 -12 -4 -19 -1 -8 3 -5 6 6 6 11 1 17 -2 13 -5z m-697 -14 c0 -5 -4 -10 -9
-10 -6 0 -13 5 -16 10 -3 6 1 10 9 10 9 0 16 -4 16 -10z m217 4 c-3 -3 -12 -4
-19 -1 -8 3 -5 6 6 6 11 1 17 -2 13 -5z m50 0 c-3 -3 -12 -4 -19 -1 -8 3 -5 6
6 6 11 1 17 -2 13 -5z m3 -26 c0 -5 -18 -8 -40 -8 -22 0 -40 3 -40 8 0 4 18 7
40 7 22 0 40 -3 40 -7z m-240 -14 c0 -8 -4 -12 -10 -9 -5 3 -10 10 -10 16 0 5
5 9 10 9 6 0 10 -7 10 -16z m233 -15 c7 0 2 -4 -10 -9 -11 -5 -31 -6 -44 -3
-22 6 -22 7 -3 14 10 4 25 6 32 3 8 -2 19 -4 25 -5z m217 -19 c0 -5 -4 -10
-10 -10 -5 0 -10 5 -10 10 0 6 5 10 10 10 6 0 10 -4 10 -10z m-453 -6 c-3 -3
-12 -4 -19 -1 -8 3 -5 6 6 6 11 1 17 -2 13 -5z m163 -9 c0 -8 -7 -15 -15 -15
-8 0 -15 7 -15 15 0 8 7 15 15 15 8 0 15 -7 15 -15z m-50 -50 c0 -8 -7 -15
-15 -15 -8 0 -15 7 -15 15 0 8 7 15 15 15 8 0 15 -7 15 -15z m539 -17 c-12 -5
-24 -6 -27 -3 -3 3 0 5 6 5 7 0 12 7 12 16 0 14 2 14 16 3 14 -12 13 -14 -7
-21z m-399 -7 c0 -5 -9 -7 -20 -4 -11 3 -20 7 -20 9 0 2 9 4 20 4 11 0 20 -4
20 -9z m80 5 c0 -3 -4 -8 -10 -11 -5 -3 -10 -1 -10 4 0 6 5 11 10 11 6 0 10
-2 10 -4z m250 -16 c0 -5 -4 -10 -10 -10 -5 0 -10 5 -10 10 0 6 5 10 10 10 6
0 10 -4 10 -10z m-290 -10 c0 -5 -4 -10 -10 -10 -5 0 -10 5 -10 10 0 6 5 10
10 10 6 0 10 -4 10 -10z m350 -10 c0 -5 -4 -10 -10 -10 -5 0 -10 5 -10 10 0 6
5 10 10 10 6 0 10 -4 10 -10z m-455 -10 c3 -5 -1 -10 -9 -10 -9 0 -16 5 -16
10 0 6 4 10 9 10 6 0 13 -4 16 -10z m88 -19 c3 -14 1 -18 -9 -14 -15 6 -18 16
-7 26 9 10 10 9 16 -12z m37 -2 c0 -5 -4 -9 -10 -9 -5 0 -10 7 -10 16 0 8 5
12 10 9 6 -3 10 -10 10 -16z m270 11 c0 -5 -4 -10 -10 -10 -5 0 -10 5 -10 10
0 6 5 10 10 10 6 0 10 -4 10 -10z m79 -25 c-12 -11 -16 -11 -29 3 -13 14 -12
15 3 9 12 -4 20 -1 24 10 5 12 8 13 11 4 2 -7 -2 -19 -9 -26z m-399 -36 c0 -5
-7 -9 -15 -9 -8 0 -15 7 -15 15 0 9 6 12 15 9 8 -4 15 -10 15 -15z m-50 -9 c8
-5 11 -12 8 -16 -10 -9 -38 3 -38 16 0 12 10 13 30 0z m-130 -10 c0 -5 -7 -7
-15 -4 -8 4 -15 8 -15 10 0 2 7 4 15 4 8 0 15 -4 15 -10z m574 -9 c3 -5 -1
-11 -9 -14 -9 -4 -12 -1 -8 9 6 16 10 17 17 5z m-490 -16 c-7 -17 -7 -17 -31
-8 -16 6 -15 8 7 14 14 4 26 7 27 8 1 1 0 -6 -3 -14z m84 -9 c-9 -10 -20 -11
-40 -4 -38 14 -35 18 12 18 34 0 39 -2 28 -14z m-168 -6 c0 -5 -5 -10 -11 -10
-5 0 -7 5 -4 10 3 6 8 10 11 10 2 0 4 -4 4 -10z m-3902 -1002 c-180 -115 -237
-133 -403 -132 -102 1 -132 5 -196 27 -236 81 -421 281 -475 514 -23 100 -16
224 16 288 49 97 160 141 247 97 113 -58 143 -189 67 -289 -31 -40 -114 -68
-174 -58 -36 6 -40 5 -40 -14 0 -56 93 -86 176 -57 107 36 164 118 164 236 0
75 -20 127 -71 185 -30 34 -31 37 -9 25 129 -68 183 -136 229 -287 35 -117 94
-167 170 -144 76 22 111 77 184 286 39 114 64 175 110 275 9 19 13 -82 15
-460 2 -381 0 -486 -10 -492z m3842 960 c0 -6 -3 -9 -6 -5 -4 3 -13 0 -21 -8
-8 -8 -24 -14 -36 -14 l-22 2 22 4 c12 2 27 11 33 19 15 17 30 18 30 2z m687
-10 c-3 -8 -6 -5 -6 6 -1 11 2 17 5 13 3 -3 4 -12 1 -19z m-596 -36 c-9 -3 -9
-7 0 -18 8 -9 8 -14 1 -14 -6 0 -13 4 -16 8 -3 5 -20 7 -38 6 -32 -3 -32 -3
-4 4 39 9 45 29 9 27 -19 -2 -21 -1 -5 2 12 2 19 9 16 15 -4 5 6 2 21 -8 15
-10 22 -20 16 -22z m496 22 c-3 -3 -12 -4 -19 -1 -8 3 -5 6 6 6 11 1 17 -2 13
-5z m93 -45 c0 -6 -4 -7 -10 -4 -5 3 -10 11 -10 16 0 6 5 7 10 4 6 -3 10 -11
10 -16z m-613 -46 c-11 -11 -17 -13 -17 -5 0 7 -5 12 -11 12 -6 0 -8 -7 -5
-16 3 -8 1 -36 -6 -61 -10 -42 -12 -44 -20 -23 -5 12 -6 25 -3 28 3 3 5 -1 6
-9 0 -8 5 -1 9 14 5 17 5 39 -1 54 -6 16 -6 22 1 18 6 -3 10 -2 10 4 0 13 32
20 45 9 5 -5 3 -15 -8 -25z m-79 15 c5 -7 13 -24 16 -38 6 -22 5 -21 -10 5 -9
17 -22 33 -28 37 -8 6 -8 8 0 8 6 0 16 -6 22 -12z m422 -53 c302 -71 566 -216
723 -400 80 -95 158 -243 188 -360 25 -96 30 -259 9 -320 -33 -101 -106 -162
-202 -171 -45 -5 -62 -1 -108 23 -48 25 -59 36 -87 93 -18 36 -49 108 -69 160
-99 259 -244 371 -499 386 -162 9 -215 32 -261 110 -14 24 -34 49 -44 54 -10
6 -21 20 -23 32 -3 16 -5 13 -6 -11 -1 -26 -4 -32 -17 -27 -11 4 -14 1 -9 -13
3 -11 -1 -25 -9 -34 -11 -11 -12 -17 -3 -26 9 -9 8 -11 -5 -6 -19 8 -23 17
-11 29 4 4 8 43 8 87 0 64 -3 80 -16 84 -9 3 -24 15 -34 25 -15 16 -16 23 -6
33 9 9 16 7 31 -13 18 -23 20 -24 20 -4 0 11 -5 25 -12 32 -9 9 -9 15 0 24 7
7 13 26 14 43 1 24 2 20 8 -15 l7 -45 1 43 c2 42 3 43 30 38 24 -5 31 1 72 59
56 80 100 105 185 105 33 0 89 -7 125 -15z m-503 -31 c-3 -3 -12 -4 -19 -1 -8
3 -5 6 6 6 11 1 17 -2 13 -5z m80 -96 c-3 -8 -6 -5 -6 6 -1 11 2 17 5 13 3 -3
4 -12 1 -19z m-35 -70 c-9 -9 -15 -9 -24 0 -9 9 -7 12 12 12 19 0 21 -3 12
-12z m-40 -40 c-9 -9 -12 -7 -12 12 0 19 3 21 12 12 9 -9 9 -15 0 -24z m-15
-40 c-3 -8 -6 -5 -6 6 -1 11 2 17 5 13 3 -3 4 -12 1 -19z m44 -45 c28 -14 31
-18 14 -21 -10 -3 -21 1 -23 7 -8 23 -32 11 -32 -16 0 -19 -3 -24 -10 -17 -8
8 -7 19 1 37 7 15 13 27 14 27 1 0 17 -8 36 -17z m-51 -122 c0 -11 -4 -23 -10
-26 -6 -4 -10 5 -10 19 0 14 5 26 10 26 6 0 10 -9 10 -19z m80 15 c0 -11 -19
-15 -25 -6 -3 5 1 10 9 10 9 0 16 -2 16 -4z m-43 -68 c-3 -8 -6 -5 -6 6 -1 11
2 17 5 13 3 -3 4 -12 1 -19z m113 -80 c0 -2 -8 -4 -17 -5 -13 -1 -18 7 -19 27
l-1 29 18 -24 c11 -13 19 -25 19 -27z m-35 -18 c18 -19 17 -20 -3 -20 -15 0
-22 6 -22 20 0 11 2 20 3 20 2 0 12 -9 22 -20z m55 -10 c0 -5 -7 -10 -16 -10
-8 0 -12 5 -9 10 3 6 10 10 16 10 5 0 9 -4 9 -10z m12 -22 c-17 -17 -15 -33 3
-18 9 7 18 10 21 7 3 -3 -3 -9 -13 -14 -16 -7 -26 -8 -70 -4 -27 2 -12 21 16
21 17 0 33 5 36 10 3 6 9 10 13 10 3 0 1 -5 -6 -12z m48 -28 c0 -5 -5 -10 -11
-10 -5 0 -7 5 -4 10 3 6 8 10 11 10 2 0 4 -4 4 -10z m-180 -24 c0 -24 -17 -28
-23 -6 -3 13 0 20 9 20 8 0 14 -6 14 -14z m63 -34 c-16 -4 -33 14 -33 35 0 6
11 2 25 -10 19 -18 21 -23 8 -25z m155 39 c11 -7 10 -9 -3 -14 -9 -4 -14 -3
-10 2 3 5 -1 12 -7 14 -7 3 -8 6 -3 6 6 0 16 -3 23 -8z m62 -31 c8 -5 11 -10
5 -10 -5 0 -17 5 -25 10 -8 5 -10 10 -5 10 6 0 17 -5 25 -10z m-264 -39 c-6
-2 -14 -8 -17 -14 -4 -5 -9 -5 -13 2 -4 6 -3 11 2 11 5 0 13 10 16 23 7 21 7
21 15 2 5 -13 4 -21 -3 -24z m234 29 c8 -5 11 -10 5 -10 -5 0 -17 5 -25 10 -8
5 -10 10 -5 10 6 0 17 -5 25 -10z m-280 -15 c0 -8 -4 -15 -10 -15 -5 0 -7 7
-4 15 4 8 8 15 10 15 2 0 4 -7 4 -15z m234 0 c-4 -8 -18 -15 -32 -15 -29 0
-20 15 13 23 11 3 21 5 22 6 1 0 0 -6 -3 -14z m-101 -45 c9 -11 17 -26 17 -33
-1 -7 -6 -5 -14 6 -7 9 -19 17 -26 17 -7 0 -19 -8 -26 -17 -8 -11 -13 -13 -14
-6 0 13 30 53 40 53 3 0 13 -9 23 -20z m304 4 c-3 -3 -12 -4 -19 -1 -8 3 -5 6
6 6 11 1 17 -2 13 -5z m-123 -29 c-4 -8 -7 -15 -9 -15 -2 0 -5 7 -9 15 -3 9 0
15 9 15 9 0 12 -6 9 -15z m-64 -15 c0 -5 -4 -10 -10 -10 -5 0 -10 5 -10 10 0
6 5 10 10 10 6 0 10 -4 10 -10z m255 0 c-27 -12 -43 -12 -25 0 8 5 22 9 30 9
10 0 8 -3 -5 -9z m-385 -7 c-8 -3 -18 -11 -22 -17 -5 -7 -8 -4 -8 7 0 11 7 17
23 16 15 0 17 -2 7 -6z m267 1 c-3 -3 -12 -4 -19 -1 -8 3 -5 6 6 6 11 1 17 -2
13 -5z m-207 -8 c0 -2 -9 -6 -20 -9 -11 -3 -20 -1 -20 4 0 5 9 9 20 9 11 0 20
-2 20 -4z m50 -26 c0 -5 -7 -10 -15 -10 -8 0 -15 5 -15 10 0 6 7 10 15 10 8 0
15 -4 15 -10z m-50 -20 c0 -5 -7 -10 -15 -10 -8 0 -15 5 -15 10 0 6 7 10 15
10 8 0 15 -4 15 -10z m-85 -32 c6 -4 2 -8 -7 -8 -10 0 -18 7 -18 17 0 9 3 12
8 7 4 -5 12 -12 17 -16z m135 2 c0 -5 -7 -7 -15 -4 -8 4 -15 8 -15 10 0 2 7 4
15 4 8 0 15 -4 15 -10z m-80 -50 c0 -5 -7 -10 -16 -10 -8 0 -12 5 -9 10 3 6
10 10 16 10 5 0 9 -4 9 -10z m215 0 c3 -5 -3 -10 -15 -10 -12 0 -18 5 -15 10
3 6 10 10 15 10 5 0 12 -4 15 -10z m459 -16 c3 -8 2 -12 -4 -9 -6 3 -10 10
-10 16 0 14 7 11 14 -7z m-347 -36 c-3 -8 -6 -5 -6 6 -1 11 2 17 5 13 3 -3 4
-12 1 -19z m70 0 c-3 -8 -6 -5 -6 6 -1 11 2 17 5 13 3 -3 4 -12 1 -19z m-217
2 c0 -5 -4 -10 -10 -10 -5 0 -10 5 -10 10 0 6 5 10 10 10 6 0 10 -4 10 -10z
m503 -25 c14 -40 29 -55 42 -41 5 6 9 10 8 8 -1 -2 17 -43 40 -90 l41 -87 4
-163 4 -162 -309 2 -308 3 -1 187 c-1 175 -3 187 -23 209 -11 12 -18 25 -15
28 3 3 9 -1 14 -9 8 -12 13 -13 30 -2 28 17 36 15 17 -6 -13 -14 -15 -41 -13
-155 1 -81 6 -141 12 -145 6 -4 8 -26 5 -52 l-5 -45 -7 45 -7 45 2 -43 1 -43
73 -3 c41 -2 68 0 62 4 -9 6 -9 9 -1 15 7 4 19 1 27 -6 21 -17 179 -15 197 3
8 7 12 19 9 27 -3 9 0 11 7 6 8 -4 14 1 18 14 6 23 19 28 26 9 3 -8 6 -6 6 5
1 13 -7 17 -39 17 -22 0 -40 4 -40 9 0 5 18 7 40 4 26 -4 40 -2 40 6 0 6 -17
11 -40 11 -22 0 -40 4 -40 9 0 5 18 7 40 4 l41 -6 -2 69 c-1 38 2 82 6 98 5
19 4 27 -2 23 -7 -4 -8 8 -3 34 6 34 4 45 -11 60 -22 22 -24 40 -7 57 9 9 8
12 -5 12 -9 0 -17 5 -17 10 0 13 48 32 61 24 5 -3 9 2 9 11 0 9 -4 13 -10 10
-5 -3 -10 -1 -10 5 0 22 24 4 33 -25z m-93 4 c0 -5 -4 -9 -10 -9 -5 0 -10 7
-10 16 0 8 5 12 10 9 6 -3 10 -10 10 -16z m-753 -15 c-3 -3 -12 -4 -19 -1 -8
3 -5 6 6 6 11 1 17 -2 13 -5z m350 -20 c-3 -3 -12 -4 -19 -1 -8 3 -5 6 6 6 11
1 17 -2 13 -5z m393 -4 c0 -5 -4 -10 -10 -10 -5 0 -10 5 -10 10 0 6 5 10 10
10 6 0 10 -4 10 -10z m-47 -17 c-7 -2 -19 -2 -25 0 -7 3 -2 5 12 5 14 0 19 -2
13 -5z m-563 -23 c0 -5 -4 -10 -10 -10 -5 0 -10 5 -10 10 0 6 5 10 10 10 6 0
10 -4 10 -10z m245 -10 c3 -5 -3 -10 -15 -10 -12 0 -18 5 -15 10 3 6 10 10 15
10 5 0 12 -4 15 -10z m362 -26 c-3 -3 -12 -4 -19 -1 -8 3 -5 6 6 6 11 1 17 -2
13 -5z m-684 -11 c-7 -2 -19 -2 -25 0 -7 3 -2 5 12 5 14 0 19 -2 13 -5z m387
-32 c0 -27 -5 -41 -16 -45 -9 -4 -19 -4 -22 -1 -3 3 0 5 6 5 7 0 12 16 12 40
0 22 5 40 10 40 6 0 10 -18 10 -39z m-110 -7 c0 -8 -4 -12 -10 -9 -5 3 -10 13
-10 21 0 8 5 12 10 9 6 -3 10 -13 10 -21z m-87 -35 c-6 -6 -17 -8 -24 -3 -9 5
-8 9 7 14 23 9 31 3 17 -11z m-213 1 c8 -5 11 -10 5 -10 -5 0 -17 5 -25 10 -8
5 -10 10 -5 10 6 0 17 -5 25 -10z m50 0 c0 -5 -2 -10 -4 -10 -3 0 -8 5 -11 10
-3 6 -1 10 4 10 6 0 11 -4 11 -10z m410 0 c-8 -5 -19 -10 -25 -10 -5 0 -3 5 5
10 8 5 20 10 25 10 6 0 3 -5 -5 -10z m-272 -26 c1 -1 -11 -1 -28 0 -31 1 -40
11 -17 19 6 2 19 -1 27 -7 8 -5 16 -11 18 -12z m169 -86 c-2 -24 -4 -7 -4 37
0 44 2 63 4 43 2 -21 2 -57 0 -80z m-117 93 c0 -5 -6 -14 -14 -20 -12 -10 -13
-8 -9 8 5 21 23 30 23 12z m180 -11 c0 -5 -4 -10 -10 -10 -5 0 -10 5 -10 10 0
6 5 10 10 10 6 0 10 -4 10 -10z m-410 -18 c0 -13 -12 -22 -22 -16 -10 6 -1 24
13 24 5 0 9 -4 9 -8z m145 -32 c3 -5 2 -10 -4 -10 -5 0 -13 5 -16 10 -3 6 -2
10 4 10 5 0 13 -4 16 -10z m555 -5 c-7 -9 -15 -13 -19 -10 -3 3 1 10 9 15 21
14 24 12 10 -5z m-280 -35 c0 -5 -4 -10 -10 -10 -5 0 -10 5 -10 10 0 6 5 10
10 10 6 0 10 -4 10 -10z m280 -41 c0 -5 -4 -9 -10 -9 -5 0 -10 7 -10 16 0 8 5
12 10 9 6 -3 10 -10 10 -16z m-183 -5 c-3 -3 -12 -4 -19 -1 -8 3 -5 6 6 6 11
1 17 -2 13 -5z m-62 -14 c3 -5 1 -10 -4 -10 -6 0 -11 5 -11 10 0 6 2 10 4 10
3 0 8 -4 11 -10z m65 -40 c0 -5 -2 -10 -4 -10 -3 0 -8 5 -11 10 -3 6 -1 10 4
10 6 0 11 -4 11 -10z m-53 -16 c-3 -3 -12 -4 -19 -1 -8 3 -5 6 6 6 11 1 17 -2
13 -5z m-394 -101 c-7 -2 -19 -2 -25 0 -7 3 -2 5 12 5 14 0 19 -2 13 -5z
m-158 -133 l50 -3 -42 -4 c-36 -3 -43 -8 -43 -26 0 -12 -5 -29 -10 -37 -6 -10
-7 -2 -3 25 9 62 -3 39 -27 -52 -20 -74 -20 -84 -7 -98 20 -20 35 -19 39 3 3
9 4 -2 4 -26 l-1 -42 -31 36 -31 37 -16 -23 c-9 -13 -14 -33 -11 -45 3 -13 -1
-27 -10 -34 -9 -8 -16 -20 -16 -28 0 -11 -7 -13 -23 -10 -29 8 -55 -7 -36 -19
8 -5 17 -9 22 -9 11 0 10 -19 -2 -23 -6 -2 -11 1 -11 6 0 23 -33 19 -77 -8
-26 -17 -41 -30 -35 -30 7 0 21 6 32 12 16 10 22 10 32 -1 11 -10 10 -12 -2
-10 -8 2 -37 -7 -64 -19 -30 -14 -53 -19 -59 -13 -5 5 -21 5 -41 -1 -20 -7
-509 -11 -1453 -12 -782 -1 -1425 -4 -1429 -8 -15 -15 82 -102 180 -162 17
-10 34 -23 38 -30 4 -6 8 -8 8 -3 0 4 13 1 28 -7 16 -8 52 -18 80 -22 52 -7
72 -24 29 -24 -15 0 -24 -6 -24 -16 0 -13 12 -15 69 -12 37 2 68 0 68 -4 0 -9
-131 -11 -154 -2 -9 3 -16 12 -16 20 0 8 -9 14 -21 14 -13 0 -18 -4 -13 -12 6
-10 4 -10 -7 0 -7 6 -23 12 -36 12 -13 0 -23 4 -23 8 0 5 -6 9 -13 9 -23 0
-103 42 -123 65 -20 23 -3 17 29 -10 9 -8 17 -11 17 -6 0 17 -56 44 -67 33 -7
-7 -17 -2 -32 17 -11 15 -21 23 -21 19 0 -4 -10 5 -22 21 -13 16 -26 31 -31
32 -4 2 -2 11 5 20 9 11 9 14 1 9 -7 -5 -21 1 -33 13 -11 11 -26 20 -34 20
-25 0 -103 130 -137 227 -20 60 -43 208 -35 229 5 12 270 14 1773 11 972 -2
1791 -5 1818 -7z m125 -8 c0 -4 -16 -6 -35 -4 -19 2 -35 6 -35 8 0 2 16 4 35
4 19 0 35 -4 35 -8z m383 1 c-13 -2 -33 -2 -45 0 -13 2 -3 4 22 4 25 0 35 -2
23 -4z m110 0 c-7 -2 -21 -2 -30 0 -10 3 -4 5 12 5 17 0 24 -2 18 -5z m434
-70 c-9 -115 -55 -239 -125 -338 l-28 -40 -99 3 c-55 2 -101 5 -103 7 -3 2 3
11 12 20 9 9 16 23 16 31 0 8 3 14 8 14 10 0 62 101 73 142 4 18 15 58 24 88
21 76 20 137 -2 143 -10 3 38 5 106 6 l124 1 -6 -77z m-614 -28 c3 -42 2 -60
-3 -45 -8 24 -8 24 -9 3 -1 -13 -6 -23 -12 -23 -7 0 -9 9 -6 23 3 12 9 44 12
70 4 26 9 47 11 45 1 -2 5 -35 7 -73z m-487 -11 c-4 -14 -2 -32 4 -39 8 -10 5
-13 -15 -11 -17 1 -23 6 -20 14 3 8 8 25 11 38 3 13 11 24 16 24 6 0 7 -11 4
-26z m44 16 c0 -5 -7 -10 -15 -10 -8 0 -15 5 -15 10 0 6 7 10 15 10 8 0 15 -4
15 -10z m220 -6 c0 -14 -3 -14 -15 -4 -8 7 -15 14 -15 16 0 2 7 4 15 4 8 0 15
-7 15 -16z m340 -10 c0 -2 -7 -4 -15 -4 -8 0 -15 4 -15 10 0 5 7 7 15 4 8 -4
15 -8 15 -10z m-380 -14 c0 -5 -4 -10 -10 -10 -5 0 -10 5 -10 10 0 6 5 10 10
10 6 0 10 -4 10 -10z m20 -45 c-7 -8 -17 -12 -22 -9 -5 3 -1 12 9 19 22 17 30
11 13 -10z m-120 -1 c0 -2 -7 -4 -15 -4 -8 0 -15 4 -15 10 0 5 7 7 15 4 8 -4
15 -8 15 -10z m75 -27 c-1 -18 -5 -54 -8 -82 l-7 -50 16 40 c9 22 20 54 25 70
8 28 8 27 4 -8 -2 -21 -13 -58 -25 -81 -11 -23 -20 -46 -20 -51 0 -4 -11 -23
-26 -42 -22 -28 -31 -33 -68 -33 -30 0 -46 5 -50 15 -3 9 0 15 9 15 8 0 15 -6
15 -12 0 -10 3 -9 9 1 5 7 14 11 20 7 7 -5 9 -1 5 8 -3 9 -2 16 4 16 5 0 13
-7 16 -16 3 -8 10 -13 15 -10 12 8 19 52 10 67 -4 7 1 19 13 29 25 20 38 121
19 144 -10 12 -9 14 7 9 14 -3 18 -13 17 -36z m272 1 c-3 -8 -6 -5 -6 6 -1 11
2 17 5 13 3 -3 4 -12 1 -19z m20 0 c-3 -8 -6 -5 -6 6 -1 11 2 17 5 13 3 -3 4
-12 1 -19z m-317 -8 c0 -5 -7 -10 -15 -10 -8 0 -15 5 -15 10 0 6 7 10 15 10 8
0 15 -4 15 -10z m297 -32 c-3 -8 -6 -5 -6 6 -1 11 2 17 5 13 3 -3 4 -12 1 -19z
m-489 -14 c2 -1 -8 -1 -21 0 -15 0 -23 6 -20 14 4 10 9 10 22 0 9 -7 17 -13
19 -14z m139 10 c-3 -3 -12 -4 -19 -1 -8 3 -5 6 6 6 11 1 17 -2 13 -5z m328
-3 c3 -5 1 -12 -5 -16 -5 -3 -10 1 -10 9 0 18 6 21 15 7z m-385 -11 c0 -5 -7
-10 -15 -10 -8 0 -15 5 -15 10 0 6 7 10 15 10 8 0 15 -4 15 -10z m110 0 c0 -5
-2 -10 -4 -10 -3 0 -8 5 -11 10 -3 6 -1 10 4 10 6 0 11 -4 11 -10z m-197 -27
c-7 -3 -13 -13 -13 -24 0 -24 -20 -25 -21 -1 0 10 -3 12 -6 5 -2 -7 -9 -13
-14 -13 -23 0 16 35 39 36 15 1 21 -1 15 -3z m47 -3 c0 -5 -2 -10 -4 -10 -3 0
-8 5 -11 10 -3 6 -1 10 4 10 6 0 11 -4 11 -10z m67 -22 c-3 -8 -6 -5 -6 6 -1
11 2 17 5 13 3 -3 4 -12 1 -19z m-157 -28 c0 -5 -4 -10 -10 -10 -5 0 -10 5
-10 10 0 6 5 10 10 10 6 0 10 -4 10 -10z m190 -26 c0 -8 -4 -12 -10 -9 -5 3
-10 10 -10 16 0 5 5 9 10 9 6 0 10 -7 10 -16z m283 1 c-3 -9 -8 -14 -10 -11
-3 3 -2 9 2 15 9 16 15 13 8 -4z m340 -46 c-4 -4 -9 6 -10 24 -1 30 -1 31 8 8
5 -14 6 -28 2 -32z m-923 31 c0 -5 -4 -10 -10 -10 -5 0 -10 5 -10 10 0 6 5 10
10 10 6 0 10 -4 10 -10z m562 -32 c-7 -7 -12 -8 -12 -2 0 14 12 26 19 19 2 -3
-1 -11 -7 -17z m-527 2 c3 -5 2 -10 -4 -10 -5 0 -13 5 -16 10 -3 6 -2 10 4 10
5 0 13 -4 16 -10z m148 -7 c-7 -2 -21 -2 -30 0 -10 3 -4 5 12 5 17 0 24 -2 18
-5z m434 -19 c-3 -3 -12 -4 -19 -1 -8 3 -5 6 6 6 11 1 17 -2 13 -5z m-3399
-147 c3 -21 -1 -27 -17 -27 -27 0 -34 15 -21 40 15 28 34 21 38 -13z m1810
-124 c-21 -2 -57 -2 -80 0 -24 2 -7 4 37 4 44 0 63 -2 43 -4z m1257 -13 c3 -5
1 -10 -4 -10 -6 0 -11 5 -11 10 0 6 2 10 4 10 3 0 8 -4 11 -10z m-1498 -6 c-3
-3 -12 -4 -19 -1 -8 3 -5 6 6 6 11 1 17 -2 13 -5z m287 -2 c2 -4 -12 -6 -32
-4 -56 5 -62 10 -15 11 23 1 44 -3 47 -7z m-1639 -12 c3 -5 1 -10 -4 -10 -6 0
-11 5 -11 10 0 6 2 10 4 10 3 0 8 -4 11 -10z m165 0 c0 -5 -2 -10 -4 -10 -3 0
-8 5 -11 10 -3 6 -1 10 4 10 6 0 11 -4 11 -10z m-125 -10 c3 -5 1 -10 -4 -10
-6 0 -11 5 -11 10 0 6 2 10 4 10 3 0 8 -4 11 -10z m1345 -2 c0 -4 -13 -8 -30
-8 -16 0 -30 4 -30 8 0 5 14 9 30 9 17 0 30 -4 30 -9z m395 2 c17 -7 14 -9
-13 -9 -20 -1 -31 3 -27 9 7 12 13 12 40 0z m1150 0 c3 -5 1 -10 -4 -10 -6 0
-11 5 -11 10 0 6 2 10 4 10 3 0 8 -4 11 -10z m-2532 -7 c-24 -2 -62 -2 -85 0
-24 2 -5 4 42 4 47 0 66 -2 43 -4z m180 0 c-13 -2 -33 -2 -45 0 -13 2 -3 4 22
4 25 0 35 -2 23 -4z m215 0 c-21 -2 -57 -2 -80 0 -24 2 -7 4 37 4 44 0 63 -2
43 -4z m459 0 c-20 -2 -52 -2 -70 0 -17 2 0 4 38 4 39 0 53 -2 32 -4z m366 0
c-13 -2 -33 -2 -45 0 -13 2 -3 4 22 4 25 0 35 -2 23 -4z m400 0 c-13 -2 -33
-2 -45 0 -13 2 -3 4 22 4 25 0 35 -2 23 -4z m970 0 c-7 -2 -21 -2 -30 0 -10 3
-4 5 12 5 17 0 24 -2 18 -5z m-1786 -170 c-3 -10 -22 -61 -43 -113 -50 -130
-72 -246 -85 -440 -5 -91 -14 -192 -19 -225 -17 -108 -86 -175 -178 -175 -165
0 -316 238 -367 580 -8 52 -15 161 -15 243 l0 147 356 0 c335 0 356 -1 351
-17z m1551 -42 c42 -33 136 -96 207 -140 189 -119 241 -185 215 -280 -14 -54
-43 -86 -103 -115 -214 -103 -688 2 -975 216 -83 62 -247 223 -302 298 -27 37
-50 70 -50 74 0 3 210 6 466 6 l466 0 76 -59z"/>
<path d="M6268 8043 c7 -3 16 -2 19 1 4 3 -2 6 -13 5 -11 0 -14 -3 -6 -6z"/>
<path d="M6378 7923 c7 -3 16 -2 19 1 4 3 -2 6 -13 5 -11 0 -14 -3 -6 -6z"/>
<path d="M6368 7903 c6 -2 18 -2 25 0 6 3 1 5 -13 5 -14 0 -19 -2 -12 -5z"/>
<path d="M6733 8103 c9 -2 25 -2 35 0 9 3 1 5 -18 5 -19 0 -27 -2 -17 -5z"/>
<path d="M6808 8103 c7 -3 16 -2 19 1 4 3 -2 6 -13 5 -11 0 -14 -3 -6 -6z"/>
<path d="M6847 8093 c-11 -10 -8 -33 3 -33 6 0 10 6 10 14 0 8 6 17 13 19 8 4
6 6 -4 6 -9 1 -19 -2 -22 -6z"/>
<path d="M6556 8076 c10 -8 21 -12 24 -10 5 6 -21 24 -34 24 -6 0 -1 -6 10
-14z"/>
<path d="M6640 8082 c0 -9 68 -7 77 2 4 3 -12 6 -35 6 -23 0 -42 -3 -42 -8z"/>
<path d="M6788 8083 c6 -2 18 -2 25 0 6 3 1 5 -13 5 -14 0 -19 -2 -12 -5z"/>
<path d="M6520 8070 c0 -5 5 -10 11 -10 5 0 7 5 4 10 -3 6 -8 10 -11 10 -2 0
-4 -4 -4 -10z"/>
<path d="M6610 8070 c0 -5 5 -10 10 -10 6 0 10 5 10 10 0 6 -4 10 -10 10 -5 0
-10 -4 -10 -10z"/>
<path d="M6820 8039 c0 -5 5 -7 10 -4 6 3 10 8 10 11 0 2 -4 4 -10 4 -5 0 -10
-5 -10 -11z"/>
<path d="M6871 8033 c0 -12 2 -13 6 -5 4 10 9 10 23 -3 13 -12 20 -13 25 -5 9
14 -12 30 -37 30 -11 0 -18 -7 -17 -17z"/>
<path d="M6801 8004 c0 -11 3 -14 6 -6 3 7 2 16 -1 19 -3 4 -6 -2 -5 -13z"/>
<path d="M6605 8001 c-6 -11 13 -26 22 -17 4 3 0 6 -8 6 -11 0 -11 2 1 10 9 6
10 10 3 10 -6 0 -14 -4 -18 -9z"/>
<path d="M6924 7993 c-48 -5 -78 -30 -63 -53 6 -11 11 -12 17 -3 4 6 25 13 47
16 l40 4 -42 1 c-24 1 -43 7 -43 13 0 6 14 9 33 8 17 -2 41 2 52 9 11 6 16 11
10 10 -5 -1 -29 -3 -51 -5z"/>
<path d="M6641 7974 c0 -11 3 -14 6 -6 3 7 2 16 -1 19 -3 4 -6 -2 -5 -13z"/>
<path d="M6990 7970 c0 -5 5 -10 11 -10 5 0 7 5 4 10 -3 6 -8 10 -11 10 -2 0
-4 -4 -4 -10z"/>
<path d="M6908 7893 c17 -2 47 -2 65 0 17 2 3 4 -33 4 -36 0 -50 -2 -32 -4z"/>
<path d="M6833 7883 c9 -2 23 -2 30 0 6 3 -1 5 -18 5 -16 0 -22 -2 -12 -5z"/>
<path d="M2955 6571 c-8 -27 -4 -33 12 -16 6 6 7 18 3 25 -6 9 -10 7 -15 -9z"/>
<path d="M3298 6563 c7 -3 16 -2 19 1 4 3 -2 6 -13 5 -11 0 -14 -3 -6 -6z"/>
<path d="M3338 6563 c7 -3 16 -2 19 1 4 3 -2 6 -13 5 -11 0 -14 -3 -6 -6z"/>
<path d="M5908 6533 c5 -25 6 -25 13 -8 6 16 8 16 8 4 1 -9 8 -19 16 -23 21
-8 19 24 -2 40 -29 21 -41 17 -35 -13z"/>
<path d="M3096 6523 c4 -20 1 -24 -11 -20 -8 4 -15 2 -15 -3 0 -5 12 -13 27
-16 25 -7 26 -8 8 -16 -17 -7 -17 -7 -2 -5 10 1 18 5 18 10 -1 4 -1 20 -1 36
0 16 -6 31 -14 34 -11 4 -13 -1 -10 -20z"/>
<path d="M5817 6523 c3 -7 9 -13 13 -13 4 0 10 -9 13 -20 3 -11 11 -20 19 -20
11 0 10 2 -1 9 -7 5 -10 14 -7 20 4 6 0 14 -8 17 -9 3 -14 9 -11 13 2 4 -2 8
-9 8 -8 0 -12 -6 -9 -14z"/>
<path d="M6022 6528 c5 -15 28 -18 29 -3 0 6 -7 12 -17 13 -10 3 -15 -1 -12
-10z"/>
<path d="M5768 6493 c6 -2 10 -9 6 -14 -3 -5 0 -9 5 -9 6 0 11 7 11 15 0 8 -8
15 -17 14 -11 0 -13 -3 -5 -6z"/>
<path d="M5677 6479 c7 -7 15 -10 18 -7 3 3 -2 9 -12 12 -14 6 -15 5 -6 -5z"/>
<path d="M3055 6470 c-16 -7 -17 -9 -3 -9 9 -1 20 4 23 9 7 11 7 11 -20 0z"/>
<path d="M5730 6470 c-23 -7 -23 -8 -3 -9 12 -1 25 4 28 9 3 6 5 10 3 9 -2 -1
-14 -5 -28 -9z"/>
<path d="M5805 6470 c-3 -5 1 -10 10 -10 9 0 13 5 10 10 -3 6 -8 10 -10 10 -2
0 -7 -4 -10 -10z"/>
<path d="M5835 6390 c-3 -5 1 -12 8 -17 17 -10 59 -67 86 -115 49 -88 50 -115
55 -764 5 -724 5 -549 0 -1099 -5 -510 -10 -559 -66 -653 -43 -71 -119 -139
-200 -179 l-65 -33 -1139 -2 c-626 -2 -979 -5 -784 -8 195 -3 317 -7 270 -10
-64 -5 -45 -6 75 -7 103 0 146 3 120 8 -22 4 95 6 260 4 165 -2 311 -6 325 -9
21 -5 22 -5 5 3 -13 6 38 9 155 8 173 -1 174 -1 55 -7 -105 -5 -96 -6 75 -6
127 0 169 2 120 6 -54 5 -29 6 90 6 134 0 149 -1 80 -6 l-85 -7 90 3 c50 1
144 4 210 6 110 3 126 6 186 34 95 45 164 106 200 176 46 90 48 116 47 693 0
311 -4 545 -9 545 -5 0 -9 18 -9 40 0 22 5 40 10 40 6 0 10 18 10 40 0 24 -5
40 -12 40 -9 0 -9 3 0 12 15 15 16 52 1 42 -8 -4 -8 -1 -1 12 6 12 9 196 8
499 l-1 480 -32 66 c-18 36 -39 71 -47 79 -9 7 -13 17 -9 23 3 6 1 7 -5 3 -7
-4 -12 -1 -12 9 0 9 -5 13 -11 10 -6 -4 -13 2 -16 13 -6 23 -29 36 -38 22z"/>
<path d="M6435 6210 c-7 -12 2 -30 16 -30 5 0 9 9 9 20 0 21 -15 27 -25 10z"/>
<path d="M6393 6000 c0 -47 2 -66 4 -42 2 23 2 61 0 85 -2 23 -4 4 -4 -43z"/>
<path d="M3563 5900 c-72 -43 -93 -139 -100 -452 -8 -361 14 -525 81 -592 46
-45 94 -54 149 -27 54 26 82 68 104 156 15 59 18 117 18 385 0 330 -6 393 -47
473 -37 73 -135 100 -205 57z"/>
<path d="M5024 5910 c-33 -13 -72 -67 -88 -121 -25 -83 -39 -299 -33 -489 12
-340 46 -453 147 -480 79 -21 155 32 184 130 39 131 46 594 12 781 -24 132
-71 189 -154 188 -26 0 -56 -4 -68 -9z"/>
<path d="M6415 5890 c-4 -6 -3 -16 3 -22 6 -6 12 -6 17 2 4 6 3 16 -3 22 -6 6
-12 6 -17 -2z"/>
<path d="M6450 5510 c0 -5 7 -10 15 -10 8 0 15 5 15 10 0 6 -7 10 -15 10 -8 0
-15 -4 -15 -10z"/>
<path d="M6450 5130 c0 -5 7 -10 15 -10 8 0 15 5 15 10 0 6 -7 10 -15 10 -8 0
-15 -4 -15 -10z"/>
<path d="M4122 4938 c-7 -7 -12 -29 -12 -50 0 -30 8 -47 36 -78 122 -135 353
-124 461 22 28 38 30 79 5 101 -28 26 -60 20 -103 -16 -88 -76 -193 -75 -287
3 -38 31 -79 39 -100 18z"/>
<path d="M6402 4460 c0 -14 2 -19 5 -12 2 6 2 18 0 25 -3 6 -5 1 -5 -13z"/>
<path d="M6400 4270 c0 -5 7 -10 15 -10 8 0 15 5 15 10 0 6 -7 10 -15 10 -8 0
-15 -4 -15 -10z"/>
<path d="M6393 3755 c0 -44 2 -61 4 -37 2 23 2 59 0 80 -2 20 -4 1 -4 -43z"/>
<path d="M6852 6630 c0 -14 2 -19 5 -12 2 6 2 18 0 25 -3 6 -5 1 -5 -13z"/>
<path d="M7165 5010 c-19 -8 -19 -9 2 -9 12 -1 25 4 28 9 7 12 -2 12 -30 0z"/>
<path d="M6750 5860 c0 -11 5 -20 10 -20 6 0 10 9 10 20 0 11 -4 20 -10 20 -5
0 -10 -9 -10 -20z"/>
<path d="M6635 4960 c-3 -5 -1 -10 4 -10 6 0 11 5 11 10 0 6 -2 10 -4 10 -3 0
-8 -4 -11 -10z"/>
<path d="M6606 4725 c4 -8 8 -15 10 -15 2 0 4 7 4 15 0 8 -4 15 -10 15 -5 0
-7 -7 -4 -15z"/>
<path d="M6613 4590 c0 -30 2 -43 4 -27 2 15 2 39 0 55 -2 15 -4 2 -4 -28z"/>
<path d="M6592 4540 c0 -14 2 -19 5 -12 2 6 2 18 0 25 -3 6 -5 1 -5 -13z"/>
<path d="M6571 4509 c-1 -17 4 -26 14 -26 8 0 15 7 15 14 0 8 -4 12 -9 8 -5
-3 -12 3 -14 12 -3 12 -5 9 -6 -8z"/>
<path d="M3600 3056 c-18 -22 -8 -59 20 -73 41 -20 73 22 54 71 -8 20 -57 21
-74 2z"/>
<path d="M5730 3050 c-24 -45 22 -85 69 -60 23 12 28 49 9 68 -20 20 -66 15
-78 -8z"/>
<path d="M5001 2961 c-17 -11 -7 -45 12 -39 13 5 23 48 10 48 -4 0 -14 -4 -22
-9z"/>
<path d="M6270 2935 c-13 -14 -21 -28 -17 -31 7 -7 46 35 47 49 0 12 -5 8 -30
-18z"/>
<path d="M6070 2790 c-12 -7 -10 -9 8 -7 12 0 22 5 22 9 0 11 -12 10 -30 -2z"/>
<path d="M3298 2563 c7 -3 16 -2 19 1 4 3 -2 6 -13 5 -11 0 -14 -3 -6 -6z"/>
<path d="M3318 2543 c7 -3 16 -2 19 1 4 3 -2 6 -13 5 -11 0 -14 -3 -6 -6z"/>
<path d="M6552 2860 c0 -14 2 -19 5 -12 2 6 2 18 0 25 -3 6 -5 1 -5 -13z"/>
<path d="M2478 7953 c7 -3 16 -2 19 1 4 3 -2 6 -13 5 -11 0 -14 -3 -6 -6z"/>
</g>
</svg>
