<svg width="502" height="593" viewBox="0 0 502 593" fill="none" xmlns="http://www.w3.org/2000/svg">
<rect x="2.64142" y="3.34735" width="292.149" height="372.847" rx="21" transform="matrix(0.992524 0.122092 -0.112051 0.993692 145.953 61.0326)" fill="#699BF7" stroke="black" stroke-width="6"/>
<rect x="2.64143" y="3.34736" width="235.258" height="303.967" transform="matrix(0.992524 0.122094 -0.112049 0.993692 170.508 100.196)" fill="white" stroke="black" stroke-width="6"/>
<mask id="path-3-outside-1_58_36" maskUnits="userSpaceOnUse" x="189.866" y="-0.120484" width="204.079" height="116.26" fill="black">
<rect fill="white" x="189.866" y="-0.120484" width="204.079" height="116.26"/>
<path fill-rule="evenodd" clip-rule="evenodd" d="M314.644 42.5744C312.546 42.3147 311.254 40.1209 311.563 38.0302C311.592 37.8391 311.617 37.6469 311.639 37.4536C312.767 27.758 306.168 18.9682 296.899 17.8212C287.631 16.6742 279.203 23.6043 278.075 33.3C278.053 33.4933 278.033 33.6863 278.017 33.8788C277.838 35.9856 276.08 37.8019 273.982 37.5423L269.417 36.9774C263.548 36.2511 258.237 40.4239 257.554 46.2975C256.997 51.0891 252.664 54.4932 247.876 53.9007L228.773 51.5367C213.988 49.707 200.545 60.7616 198.746 76.2276L198.532 78.0684L319.069 92.9853L198.545 78.2555L197.585 86.7977L378.005 108.848L378.965 100.305L378.67 100.269L378.874 98.519C380.673 83.053 370.145 69.032 355.361 67.2023L336.258 64.8383C331.47 64.2458 328.041 59.8811 328.598 55.0894C329.281 49.2158 325.077 43.8655 319.209 43.1393L314.644 42.5744ZM304.641 35.8204C303.982 41.4932 299.068 45.5458 293.667 44.8722C288.265 44.1985 284.42 39.0536 285.08 33.3808C285.739 27.708 290.653 23.6554 296.055 24.3291C301.456 25.0027 305.301 30.1476 304.641 35.8204Z"/>
</mask>
<path fill-rule="evenodd" clip-rule="evenodd" d="M314.644 42.5744C312.546 42.3147 311.254 40.1209 311.563 38.0302C311.592 37.8391 311.617 37.6469 311.639 37.4536C312.767 27.758 306.168 18.9682 296.899 17.8212C287.631 16.6742 279.203 23.6043 278.075 33.3C278.053 33.4933 278.033 33.6863 278.017 33.8788C277.838 35.9856 276.08 37.8019 273.982 37.5423L269.417 36.9774C263.548 36.2511 258.237 40.4239 257.554 46.2975C256.997 51.0891 252.664 54.4932 247.876 53.9007L228.773 51.5367C213.988 49.707 200.545 60.7616 198.746 76.2276L198.532 78.0684L319.069 92.9853L198.545 78.2555L197.585 86.7977L378.005 108.848L378.965 100.305L378.67 100.269L378.874 98.519C380.673 83.053 370.145 69.032 355.361 67.2023L336.258 64.8383C331.47 64.2458 328.041 59.8811 328.598 55.0894C329.281 49.2158 325.077 43.8655 319.209 43.1393L314.644 42.5744ZM304.641 35.8204C303.982 41.4932 299.068 45.5458 293.667 44.8722C288.265 44.1985 284.42 39.0536 285.08 33.3808C285.739 27.708 290.653 23.6554 296.055 24.3291C301.456 25.0027 305.301 30.1476 304.641 35.8204Z" fill="#C4C4C4"/>
<path d="M311.563 38.0302L317.493 38.9611L317.493 38.961L311.563 38.0302ZM314.644 42.5744L313.961 48.5352L313.961 48.5352L314.644 42.5744ZM311.639 37.4536L305.686 36.7065L305.686 36.7066L311.639 37.4536ZM296.899 17.8212L297.582 11.8604L297.582 11.8604L296.899 17.8212ZM278.075 33.3L272.122 32.5528L272.122 32.5529L278.075 33.3ZM278.017 33.8788L272.045 33.3163L272.045 33.3163L278.017 33.8788ZM273.982 37.5423L273.299 43.5031L273.982 37.5423ZM269.417 36.9774L270.1 31.0166L269.417 36.9774ZM257.554 46.2975L251.6 45.5503L251.6 45.5503L257.554 46.2975ZM247.876 53.9007L247.193 59.8616L247.876 53.9007ZM228.773 51.5367L229.456 45.5758L228.773 51.5367ZM198.746 76.2276L192.793 75.4805L198.746 76.2276ZM198.532 78.0684L192.579 77.3212L191.884 83.291L197.849 84.0292L198.532 78.0684ZM319.069 92.9853L318.395 98.9472L319.752 87.0244L319.069 92.9853ZM198.545 78.2555L199.219 72.2935L193.26 71.5652L192.589 77.5311L198.545 78.2555ZM197.585 86.7977L191.629 86.0734L190.959 92.0322L196.911 92.7597L197.585 86.7977ZM378.005 108.848L377.331 114.81L383.29 115.538L383.961 109.572L378.005 108.848ZM378.965 100.305L384.921 101.03L385.591 95.071L379.639 94.3435L378.965 100.305ZM378.67 100.269L372.717 99.5222L372.021 105.501L377.996 106.231L378.67 100.269ZM378.874 98.519L384.827 99.2662L384.827 99.2662L378.874 98.519ZM355.361 67.2023L354.678 73.1632L355.361 67.2023ZM336.258 64.8383L336.941 58.8774L336.258 64.8383ZM328.598 55.0894L334.552 55.8366L334.552 55.8366L328.598 55.0894ZM319.209 43.1393L319.891 37.1784L319.891 37.1784L319.209 43.1393ZM293.667 44.8722L292.978 50.8323L293.667 44.8722ZM304.641 35.8204L310.595 36.5672L310.595 36.5672L304.641 35.8204ZM285.08 33.3808L291.033 34.1277L285.08 33.3808ZM296.055 24.3291L296.743 18.3689L296.055 24.3291ZM305.634 37.0992C304.962 41.6505 307.666 47.7562 313.961 48.5352L315.327 36.6135C316.295 36.7334 316.934 37.309 317.217 37.7461C317.471 38.1376 317.553 38.5509 317.493 38.9611L305.634 37.0992ZM305.686 36.7066C305.671 36.8383 305.653 36.9692 305.634 37.0993L317.493 38.961C317.53 38.709 317.563 38.4555 317.593 38.2007L305.686 36.7066ZM296.216 23.7821C301.946 24.4911 306.46 30.0543 305.686 36.7065L317.593 38.2008C319.074 25.4616 310.389 13.4453 297.582 11.8604L296.216 23.7821ZM284.029 34.0471C284.803 27.3883 290.477 23.0718 296.216 23.7821L297.582 11.8604C284.784 10.2766 273.603 19.8203 272.122 32.5528L284.029 34.0471ZM283.989 34.4413C284 34.3105 284.013 34.179 284.029 34.047L272.122 32.5529C272.092 32.8076 272.067 33.0621 272.045 33.3163L283.989 34.4413ZM273.299 43.5031C279.581 44.2806 283.599 39.0251 283.989 34.4413L272.045 33.3163C272.08 32.9028 272.254 32.5261 272.584 32.2132C272.953 31.8643 273.698 31.4618 274.665 31.5815L273.299 43.5031ZM268.734 42.9382L273.299 43.5031L274.665 31.5815L270.1 31.0166L268.734 42.9382ZM263.507 47.0446C263.808 44.4584 266.15 42.6184 268.734 42.9382L270.1 31.0166C260.947 29.8838 252.666 36.3893 251.6 45.5503L263.507 47.0446ZM247.193 59.8616C255.265 60.8606 262.568 55.1237 263.507 47.0446L251.6 45.5503C251.426 47.0546 250.062 48.1259 248.559 47.9399L247.193 59.8616ZM228.09 57.4975L247.193 59.8616L248.559 47.9399L229.456 45.5758L228.09 57.4975ZM204.7 76.9748C206.145 64.5455 216.835 56.1047 228.09 57.4975L229.456 45.5758C211.142 43.3094 194.945 56.9776 192.793 75.4805L204.7 76.9748ZM204.486 78.8155L204.7 76.9748L192.793 75.4805L192.579 77.3212L204.486 78.8155ZM319.752 87.0244L199.215 72.1075L197.849 84.0292L318.386 98.9461L319.752 87.0244ZM197.871 84.2174L318.395 98.9472L319.743 87.0233L199.219 72.2935L197.871 84.2174ZM203.541 87.5221L204.501 78.9798L192.589 77.5311L191.629 86.0734L203.541 87.5221ZM378.679 102.886L198.258 80.8358L196.911 92.7597L377.331 114.81L378.679 102.886ZM373.009 99.5811L372.049 108.123L383.961 109.572L384.921 101.03L373.009 99.5811ZM377.996 106.231L378.291 106.267L379.639 94.3435L379.344 94.3074L377.996 106.231ZM372.92 97.7719L372.717 99.5222L384.624 101.017L384.827 99.2662L372.92 97.7719ZM354.678 73.1632C365.924 74.5549 374.365 85.3493 372.92 97.7719L384.827 99.2662C386.98 80.7566 374.367 63.5091 356.044 61.2415L354.678 73.1632ZM335.575 70.7991L354.678 73.1632L356.044 61.2415L336.941 58.8774L335.575 70.7991ZM322.645 54.3423C321.704 62.4293 327.495 69.7992 335.575 70.7991L336.941 58.8774C335.446 58.6924 334.377 57.3329 334.552 55.8366L322.645 54.3423ZM318.526 49.1001C321.102 49.4189 322.944 51.764 322.645 54.3423L334.552 55.8366C335.618 46.6676 329.053 38.3122 319.891 37.1784L318.526 49.1001ZM313.961 48.5352L318.526 49.1001L319.891 37.1784L315.327 36.6135L313.961 48.5352ZM292.978 50.8323C301.932 51.949 309.585 45.2572 310.595 36.5672L298.688 35.0735C298.379 37.7293 296.204 39.1426 294.355 38.912L292.978 50.8323ZM279.126 32.634C278.116 41.3267 284.02 49.7151 292.978 50.8323L294.355 38.912C292.51 38.6819 290.725 36.7806 291.033 34.1277L279.126 32.634ZM296.743 18.3689C287.789 17.2522 280.137 23.9441 279.126 32.634L291.033 34.1277C291.342 31.472 293.517 30.0586 295.366 30.2892L296.743 18.3689ZM310.595 36.5672C311.605 27.8746 305.701 19.4861 296.743 18.3689L295.366 30.2892C297.212 30.5193 298.996 32.4206 298.688 35.0735L310.595 36.5672Z" fill="black" mask="url(#path-3-outside-1_58_36)"/>
<path fill-rule="evenodd" clip-rule="evenodd" d="M311.553 38.0214C311.246 40.1133 312.54 42.3081 314.639 42.5674L319.207 43.1319C325.077 43.8572 329.287 49.2084 328.61 55.0841C328.058 59.8774 331.492 64.2428 336.281 64.8346L355.393 67.1962C370.184 69.0238 380.728 83.0475 378.946 98.5189L378.733 100.36L198.532 78.0936L198.745 76.2523C200.527 60.7808 213.963 49.7203 228.754 51.5479L247.866 53.9095C252.655 54.5012 256.984 51.0952 257.537 46.3019C258.214 40.4262 263.522 36.2511 269.392 36.9764L273.96 37.5409C276.059 37.8003 277.815 35.9826 277.993 33.8747C278.009 33.6824 278.028 33.4896 278.05 33.2965C279.168 23.5975 287.591 16.6636 296.863 17.8093C306.135 18.9551 312.746 27.7465 311.628 37.4455C311.606 37.6386 311.58 37.8306 311.553 38.0214ZM293.678 44.8753C299.085 45.5475 303.999 41.4925 304.652 35.8183C305.306 30.144 301.452 24.9991 296.044 24.3269C290.637 23.6547 285.723 27.7097 285.069 33.384C284.416 39.0582 288.27 44.2031 293.678 44.8753Z" fill="#C4C4C4"/>
<path fill-rule="evenodd" clip-rule="evenodd" d="M311.553 38.0214C311.246 40.1133 312.54 42.3081 314.639 42.5674L319.207 43.1319C325.077 43.8572 329.287 49.2084 328.61 55.0841C328.058 59.8774 331.492 64.2428 336.281 64.8346L355.393 67.1962C370.184 69.0238 380.728 83.0475 378.946 98.5189L378.733 100.36L198.532 78.0936L198.745 76.2523C200.527 60.7808 213.963 49.7203 228.754 51.5479L247.866 53.9095C252.655 54.5012 256.984 51.0952 257.537 46.3019C258.214 40.4262 263.522 36.2511 269.392 36.9764L273.96 37.5409C276.059 37.8003 277.815 35.9826 277.993 33.8747C278.009 33.6824 278.028 33.4896 278.05 33.2965C279.168 23.5975 287.591 16.6636 296.863 17.8093C306.135 18.9551 312.746 27.7465 311.628 37.4455C311.606 37.6386 311.58 37.8306 311.553 38.0214ZM293.678 44.8753C299.085 45.5475 303.999 41.4925 304.652 35.8183C305.306 30.144 301.452 24.9991 296.044 24.3269C290.637 23.6547 285.723 27.7097 285.069 33.384C284.416 39.0582 288.27 44.2031 293.678 44.8753Z" fill="url(#paint0_linear_58_36)"/>
<rect width="181.769" height="8.56857" transform="matrix(0.992595 0.121458 -0.11171 0.993733 198.542 78.2559)" fill="#AEAEAE"/>
<mask id="path-7-inside-2_58_36" fill="white">
<path fill-rule="evenodd" clip-rule="evenodd" d="M453.38 164.632C447.872 157.663 437.817 156.431 430.921 161.881L337.276 235.889L337.276 235.888L337.275 235.89L337.274 235.89L337.275 235.891L324.142 277.02L367.193 273.747L367.194 273.749L460.841 199.739C467.737 194.289 468.862 184.221 463.354 177.252L453.38 164.632Z"/>
</mask>
<path fill-rule="evenodd" clip-rule="evenodd" d="M453.38 164.632C447.872 157.663 437.817 156.431 430.921 161.881L337.276 235.889L337.276 235.888L337.275 235.89L337.274 235.89L337.275 235.891L324.142 277.02L367.193 273.747L367.194 273.749L460.841 199.739C467.737 194.289 468.862 184.221 463.354 177.252L453.38 164.632Z" fill="white"/>
<path d="M430.921 161.881L435.907 168.19L430.921 161.881ZM337.276 235.889L331.033 240.823L336.02 247.133L342.263 242.199L337.276 235.889ZM337.276 235.888L343.519 230.954L334.209 219.174L329.665 233.369L337.276 235.888ZM337.275 235.89L342.262 242.2L344.149 240.708L344.885 238.409L337.275 235.89ZM337.274 235.89L332.288 229.581L326.045 234.515L331.031 240.824L337.274 235.89ZM337.275 235.891L344.887 238.404L346.187 234.334L343.518 230.957L337.275 235.891ZM324.142 277.02L316.529 274.507L312.887 285.915L324.828 285.007L324.142 277.02ZM367.193 273.747L373.436 268.813L370.767 265.436L366.507 265.76L367.193 273.747ZM367.194 273.749L360.951 278.683L365.938 284.993L372.181 280.059L367.194 273.749ZM435.907 168.19C439.355 165.465 444.383 166.081 447.137 169.566L459.623 159.698C451.361 149.244 436.278 147.396 425.934 155.571L435.907 168.19ZM342.263 242.199L435.907 168.19L425.934 155.571L332.29 229.579L342.263 242.199ZM331.032 240.822L331.033 240.823L343.519 230.955L343.519 230.954L331.032 240.822ZM344.885 238.409L344.886 238.407L329.665 233.369L329.664 233.371L344.885 238.409ZM342.261 242.2L342.262 242.2L332.288 229.58L332.288 229.581L342.261 242.2ZM343.518 230.957L343.517 230.956L331.031 240.824L331.032 240.825L343.518 230.957ZM331.754 279.533L344.887 238.404L329.662 233.378L316.529 274.507L331.754 279.533ZM366.507 265.76L323.455 269.033L324.828 285.007L367.879 281.734L366.507 265.76ZM373.437 268.815L373.436 268.813L360.95 278.681L360.951 278.683L373.437 268.815ZM455.854 193.429L362.208 267.439L372.181 280.059L465.827 206.049L455.854 193.429ZM457.111 182.186C459.865 185.67 459.302 190.704 455.854 193.429L465.827 206.049C476.171 197.874 477.859 182.772 469.597 172.318L457.111 182.186ZM447.137 169.566L457.111 182.186L469.597 172.318L459.623 159.698L447.137 169.566Z" fill="black" mask="url(#path-7-inside-2_58_36)"/>
<path d="M420.301 180.521L440.247 205.76" stroke="black" stroke-width="8"/>
<path d="M208.479 207.647L293.654 218.082" stroke="#656565" stroke-width="16" stroke-linecap="round"/>
<path d="M204.871 239.938L316.327 253.592" stroke="#656565" stroke-width="16" stroke-linecap="round"/>
<path d="M201.262 272.229L312.719 285.883" stroke="#656565" stroke-width="16" stroke-linecap="round"/>
<path d="M197.741 303.75L241.797 309.147" stroke="#656565" stroke-width="16" stroke-linecap="round"/>
<rect x="236.291" y="361.094" width="142.782" height="150.275" rx="9" fill="#BDE3FF" stroke="black" stroke-width="6"/>
<rect x="2.16079" y="3.70655" width="143.799" height="149.915" rx="9" transform="matrix(0.964059 0.265689 -0.243794 0.969827 300.845 375.36)" fill="#E4CCFF" stroke="black" stroke-width="6"/>
<path d="M238.731 549.861L247.191 503.543L209.964 526.702L228.578 532.046L238.731 549.861Z" fill="#FFA629" stroke="black" stroke-width="6" stroke-linecap="square"/>
<path d="M88.8604 590H220.188V545.537H88.8604V590Z" fill="#FFA629" stroke="black" stroke-width="6"/>
<path d="M153.714 44.4097L162.174 90.7275L124.947 67.5686L143.561 62.2242L153.714 44.4097Z" fill="#0D99FF" stroke="black" stroke-width="6" stroke-linecap="square"/>
<path d="M3.84384 4.27051L135.171 4.27051L135.171 48.7338L3.84384 48.7338L3.84384 4.27051Z" fill="#0D99FF" stroke="black" stroke-width="6"/>
<path d="M421.046 387.07C422.553 382.248 428.92 381.24 431.723 385.379L441.864 400.358C444.053 403.592 447.695 405.526 451.613 405.535L469.782 405.576C474.622 405.587 477.379 411.06 474.549 415.039L463.294 430.868C461.1 433.953 460.46 437.873 461.565 441.458L467.226 459.837C468.683 464.568 464.098 469 459.449 467.355L443.017 461.542C439.234 460.204 435.011 460.873 431.775 463.323L417.722 473.965C413.745 476.977 408.113 474.163 408.168 469.193L408.383 449.883C408.425 446.116 406.707 442.57 403.74 440.302L388.516 428.668C384.689 425.744 385.776 419.662 390.396 418.152L407.74 412.485C411.481 411.263 414.413 408.288 415.591 404.52L421.046 387.07Z" fill="#FFCD29" stroke="black" stroke-width="6"/>
<defs>
<linearGradient id="paint0_linear_58_36" x1="301.601" y1="-24.4885" x2="286.38" y2="98.9725" gradientUnits="userSpaceOnUse">
<stop stop-color="white"/>
<stop offset="1" stop-color="white" stop-opacity="0"/>
</linearGradient>
</defs>
</svg>
