<?xml version="1.0" standalone="no"?>
<!DOCTYPE svg PUBLIC "-//W3C//DTD SVG 20010904//EN"
 "http://www.w3.org/TR/2001/REC-SVG-20010904/DTD/svg10.dtd">
<svg version="1.0" xmlns="http://www.w3.org/2000/svg"
 width="50.000000pt" height="50.000000pt" viewBox="0 0 50.000000 50.000000"
 preserveAspectRatio="xMidYMid meet">

<g transform="translate(0.000000,50.000000) scale(0.100000,-0.100000)"
fill="white" stroke="none">
<path d="M97 442 c-15 -16 -17 -45 -17 -198 0 -127 4 -184 12 -192 8 -8 59
-12 165 -12 204 0 204 19 1 22 -128 3 -153 5 -153 18 0 13 25 15 153 18 l152
3 0 179 0 180 -148 0 c-132 0 -151 -2 -165 -18z m293 -162 l0 -160 -145 0
-145 0 0 148 c0 102 4 152 12 160 8 8 55 12 145 12 l133 0 0 -160z"/>
<path d="M154 376 c-3 -8 -4 -23 -2 -33 3 -16 15 -18 103 -18 l100 0 0 30 0
30 -98 3 c-78 2 -98 0 -103 -12z m186 -21 c0 -12 -16 -15 -85 -15 -69 0 -85 3
-85 15 0 12 16 15 85 15 69 0 85 -3 85 -15z"/>
</g>
</svg>
