<?xml version="1.0" standalone="no"?>
<!DOCTYPE svg PUBLIC "-//W3C//DTD SVG 20010904//EN"
 "http://www.w3.org/TR/2001/REC-SVG-20010904/DTD/svg10.dtd">
<svg version="1.0" xmlns="http://www.w3.org/2000/svg"
 width="1500.000000pt" height="1100.000000pt" viewBox="0 0 1500.000000 1100.000000"
 preserveAspectRatio="xMidYMid meet">

<g transform="translate(0.000000,1100.000000) scale(0.100000,-0.100000)"
fill="#000000" stroke="none">
<path d="M7251 9986 c-18 -6 -39 -19 -45 -28 -16 -21 -424 -26 -2786 -33 -998
-4 -2096 -8 -2440 -10 -344 -3 -930 -5 -1302 -5 -596 0 -678 -2 -678 -15 0
-18 -87 -18 1805 -5 781 5 1854 11 2385 14 531 4 1424 9 1986 12 793 5 1023 4
1028 -5 5 -7 0 -21 -9 -31 -21 -24 -13 -52 25 -84 30 -24 119 -62 173 -73 24
-5 28 -3 26 12 -3 13 -19 22 -54 30 -100 23 -173 71 -148 96 8 8 20 6 42 -10
32 -23 135 -71 152 -71 6 0 9 7 7 16 -2 9 -30 27 -63 40 -33 14 -67 31 -75 39
-13 13 -8 15 35 15 70 0 167 -17 244 -43 l66 -22 5 -50 5 -50 49 -1 c94 -2 96
0 96 70 0 63 0 63 -45 95 -62 44 -103 60 -232 87 -123 26 -199 29 -252 10z
m319 -56 c128 -38 173 -76 78 -67 -74 7 -234 53 -230 66 1 7 -30 11 -90 11
-68 0 -89 3 -78 11 25 17 235 4 320 -21z"/>
<path d="M13246 9555 c-9 -647 -10 -1110 -1 -1124 19 -32 42 44 23 81 -4 9 -4
19 1 22 14 9 6 117 -10 127 -11 7 -10 9 5 9 12 0 16 5 13 15 -4 8 -2 17 3 20
17 10 11 23 -12 31 -22 7 -22 7 -3 15 17 6 17 8 3 8 -10 1 -18 8 -18 17 0 8 4
13 9 10 4 -3 16 3 26 14 15 17 16 20 3 25 -12 5 -14 15 -7 52 5 25 7 49 4 53
-3 5 -1 11 4 14 6 4 4 17 -4 33 -11 20 -11 29 -3 34 9 6 8 12 -1 23 -9 11 -10
16 -2 16 7 0 9 19 6 55 -3 35 -1 55 6 55 6 0 8 9 3 22 -3 12 -6 48 -5 80 1 38
-3 58 -11 58 -7 0 -5 6 4 18 11 11 15 32 13 61 -1 25 1 57 5 73 5 16 5 30 -1
34 -5 3 -7 9 -4 14 3 5 7 45 9 90 2 44 10 87 16 95 7 8 10 21 7 29 -3 8 0 20
8 26 7 6 12 19 10 28 -1 9 11 31 27 49 l31 32 -22 27 c-21 27 -21 28 -4 35 18
7 171 16 338 20 44 1 -12 6 -125 10 -113 4 -235 12 -271 16 l-66 9 -7 -431z"/>
<path d="M14203 9953 c15 -2 37 -2 50 0 12 2 0 4 -28 4 -27 0 -38 -2 -22 -4z"/>
<path d="M14328 9953 c18 -2 45 -2 60 0 15 2 0 4 -33 4 -33 0 -45 -2 -27 -4z"/>
<path d="M14603 9953 c76 -2 198 -2 270 0 73 1 11 3 -138 3 -148 0 -208 -2
-132 -3z"/>
<path d="M9965 9905 c-17 -9 -38 -30 -48 -48 -40 -76 -187 -550 -187 -603 0
-9 6 -14 13 -12 6 3 32 81 57 174 58 215 133 423 161 447 29 23 109 23 157 -2
66 -33 77 -53 80 -145 4 -86 -18 -188 -58 -267 -27 -52 -107 -137 -151 -159
-41 -21 -149 -28 -149 -10 0 6 -4 10 -10 10 -16 0 -11 -47 6 -54 31 -12 110
-5 149 13 56 26 141 115 175 186 58 118 84 278 60 366 -25 90 -167 147 -255
104z"/>
<path d="M11704 9899 c-6 -8 -15 -25 -19 -39 -3 -14 -25 -82 -47 -152 -41
-127 -41 -128 -72 -128 -46 0 -76 -11 -76 -26 0 -10 13 -14 44 -14 l44 0 -24
-77 c-26 -87 -30 -131 -11 -138 6 -3 46 -2 87 2 58 6 75 12 78 25 3 15 -5 16
-74 11 l-77 -6 6 32 c10 47 36 134 45 149 6 9 48 15 131 19 100 5 121 9 119
21 -2 12 -24 14 -117 13 -100 -2 -113 0 -108 14 4 8 25 74 47 145 40 127 49
180 24 149z"/>
<path d="M9190 9868 c-266 -33 -380 -65 -380 -109 0 -13 5 -19 13 -16 95 43
149 58 246 71 63 9 116 14 119 11 3 -2 -11 -49 -31 -102 -62 -172 -147 -397
-163 -432 -10 -23 -12 -37 -5 -44 6 -6 13 -9 15 -6 6 6 128 327 181 474 23 65
47 121 52 122 5 2 58 7 118 11 93 6 110 10 113 25 3 15 -5 17 -60 16 -35 -1
-133 -10 -218 -21z"/>
<path d="M10901 9857 c-6 -16 -11 -36 -11 -45 0 -9 -38 -130 -85 -268 -47
-139 -85 -260 -85 -268 0 -13 14 -16 73 -16 133 0 237 12 237 26 0 11 -28 14
-135 14 -88 0 -135 4 -135 10 0 6 27 91 60 188 86 251 113 349 101 370 -8 15
-11 13 -20 -11z"/>
<path d="M11207 9753 c-4 -3 -7 -17 -7 -30 0 -33 24 -24 28 10 3 26 -7 35 -21
20z"/>
<path d="M11332 9614 c-36 -28 -62 -72 -62 -103 0 -16 12 -24 58 -37 80 -23
86 -40 34 -96 -42 -46 -107 -49 -127 -7 -13 28 -29 30 -33 4 -5 -34 21 -57 69
-62 82 -9 149 47 149 125 0 45 -8 54 -67 71 -23 6 -45 15 -48 20 -3 5 11 23
30 40 30 26 39 29 56 21 15 -9 21 -7 25 5 8 19 -13 45 -35 45 -9 0 -31 -12
-49 -26z"/>
<path d="M11180 9611 c-30 -57 -99 -266 -90 -275 6 -6 13 1 21 20 65 167 82
214 86 242 6 36 -1 42 -17 13z"/>
<path d="M7234 9599 c-17 -5 -38 -17 -48 -28 -15 -16 -15 -22 -5 -39 11 -18
10 -24 -4 -40 -20 -22 -21 -29 -4 -46 22 -23 51 -34 129 -50 101 -21 118 -21
118 3 0 16 -11 19 -72 25 -88 9 -158 25 -158 37 0 5 11 14 23 20 19 8 40 6 94
-10 39 -12 80 -21 92 -21 34 0 22 33 -14 42 -17 4 8 6 55 3 47 -2 108 -9 137
-16 50 -12 52 -14 55 -48 l3 -36 68 -3 c49 -2 67 0 68 10 0 7 1 35 2 61 2 26
0 51 -3 55 -16 23 -153 71 -229 81 -99 13 -263 13 -307 0z m301 -30 c87 -12
141 -29 113 -36 -10 -3 -18 -11 -18 -20 0 -11 -6 -14 -22 -9 -81 22 -244 38
-308 29 -50 -6 -76 -6 -91 3 -67 35 151 58 326 33z"/>
<path d="M9312 9598 c-7 -7 -18 -13 -24 -13 -11 0 -75 -166 -103 -268 l-13
-47 45 -21 c41 -19 49 -19 82 -7 41 16 65 53 111 171 25 64 30 87 24 123 -3
24 -12 48 -20 55 -21 18 -87 23 -102 7z m80 -45 c10 -9 18 -29 18 -44 0 -28
-61 -181 -83 -207 -30 -36 -117 -37 -117 -1 0 23 78 238 92 257 15 17 68 15
90 -5z"/>
<path d="M10340 9587 c-30 -21 -39 -40 -81 -162 l-47 -139 31 -34 c29 -30 36
-33 72 -28 52 6 115 73 145 154 28 74 26 196 -5 218 -28 21 -76 17 -115 -9z
m98 -29 c7 -7 12 -39 12 -72 0 -96 -62 -206 -124 -222 -58 -14 -82 25 -59 96
36 112 67 186 81 198 20 15 74 16 90 0z"/>
<path d="M12806 9412 c-10 -48 -21 -98 -24 -112 -4 -21 -3 -23 10 -13 13 11
46 199 36 208 -2 2 -12 -35 -22 -83z"/>
<path d="M12838 9400 c-4 -30 -10 -143 -14 -250 -3 -107 -9 -208 -13 -225 -4
-16 -7 -46 -6 -65 0 -34 1 -35 42 -37 24 -1 44 1 46 5 4 7 -3 101 -23 302 -7
69 -15 170 -19 225 -6 97 -7 98 -13 45z"/>
<path d="M7275 9234 c-60 -8 -115 -27 -115 -39 0 -6 11 -18 25 -25 27 -14 33
-30 13 -30 -7 0 -19 -4 -27 -9 -41 -26 86 -70 202 -71 41 0 48 3 45 18 -3 14
-18 18 -96 23 -50 3 -95 9 -99 12 -3 4 41 8 98 9 139 3 163 3 242 -6 57 -6 67
-10 67 -27 0 -17 8 -19 70 -19 l70 0 0 65 c0 74 9 67 -120 84 -86 11 -330 21
-375 15z m343 -39 c10 -4 19 -55 9 -55 -1 0 -88 9 -192 20 -105 11 -196 20
-202 20 -7 0 -13 4 -13 10 0 14 355 19 398 5z"/>
<path d="M11259 9175 c-5 -4 -308 -13 -498 -14 -36 0 -103 -4 -150 -10 -47 -6
-158 -15 -246 -21 -664 -43 -1351 -104 -1372 -122 -19 -15 -5 -31 22 -24 31 8
357 42 530 56 77 6 307 24 510 41 459 36 616 47 820 58 201 11 907 6 1080 -8
263 -22 452 -43 547 -62 115 -23 108 -22 108 -5 0 32 -153 57 -525 86 -261 19
-815 37 -826 25z"/>
<path d="M7325 8883 c-16 -2 -50 -8 -75 -14 -101 -22 -124 -45 -73 -68 l27
-13 -24 -18 c-22 -17 -23 -19 -7 -35 12 -12 48 -20 115 -28 104 -11 132 -7
132 18 0 12 -17 15 -105 15 -105 0 -139 12 -67 24 21 3 115 9 208 12 170 7
171 7 177 -15 5 -20 11 -22 69 -19 l63 3 3 66 3 66 -47 7 c-48 6 -345 6 -399
-1z m303 -51 l4 -24 -212 5 c-117 3 -214 8 -217 11 -16 15 159 34 302 32 118
-1 120 -1 123 -24z"/>
<path d="M7301 8570 c-54 -8 -141 -37 -141 -47 0 -3 10 -14 22 -25 22 -19 19
-28 -17 -41 -5 -2 1 -13 15 -25 18 -15 51 -24 122 -32 99 -12 118 -10 118 16
0 14 -7 15 -105 18 -22 1 -56 3 -75 5 -34 2 -34 3 -10 12 14 6 60 9 102 8 42
-2 80 0 84 4 9 9 140 9 183 1 21 -5 31 -12 31 -25 0 -17 8 -19 70 -19 l70 0 0
64 0 64 -69 16 c-75 17 -300 20 -400 6z m324 -49 l0 -24 -181 2 c-100 1 -195
6 -210 10 l-29 8 25 8 c41 13 168 23 285 21 109 -1 110 -1 110 -25z"/>
<path d="M13237 8403 c-2 -4 -5 -31 -5 -60 -1 -43 2 -51 14 -46 11 4 12 8 4
13 -8 5 -7 9 4 13 11 4 14 17 12 44 -3 35 -19 54 -29 36z"/>
<path d="M7290 8244 c-136 -23 -154 -35 -104 -65 l26 -16 -32 -11 c-74 -26 2
-60 142 -64 77 -3 93 0 93 12 0 12 -18 16 -93 18 -145 4 -101 22 56 22 183 0
243 -8 250 -32 4 -15 15 -18 73 -18 l69 0 0 69 0 68 -62 7 c-83 8 -386 16
-418 10z m294 -30 c40 -6 46 -10 46 -31 l0 -25 -87 7 c-49 3 -121 10 -161 16
-40 5 -91 9 -113 9 -21 0 -39 4 -39 10 0 5 42 11 93 13 50 1 119 4 153 5 34 1
82 -1 108 -4z"/>
<path d="M13226 8034 c-4 -14 -6 -102 -5 -195 1 -167 2 -169 24 -169 22 0 45
34 45 67 0 32 61 142 103 186 65 67 38 65 912 73 380 3 692 8 694 10 2 2 2 7
-1 10 -4 3 -308 5 -676 5 -573 -1 -866 6 -957 23 -11 2 -45 7 -76 10 -55 7
-57 7 -63 -20z"/>
<path d="M7067 7994 c-1 -1 -740 -5 -1642 -8 -902 -4 -1786 -9 -1965 -11 -179
-2 -854 -7 -1500 -11 -646 -4 -1220 -8 -1275 -9 -55 -1 -232 -2 -392 -3 l-293
-2 0 -26 0 -25 958 5 c526 3 1115 8 1307 11 764 11 1078 15 1745 20 382 4 900
8 1150 10 250 2 857 6 1347 7 646 3 896 7 904 15 28 28 -3 34 -173 31 -93 -2
-170 -4 -171 -4z"/>
<path d="M7210 7903 c-61 -6 -68 -12 -40 -33 22 -17 23 -20 7 -25 -47 -19 3
-62 93 -81 88 -18 145 -16 145 6 0 12 -18 16 -80 21 -44 3 -95 10 -114 14 -31
7 -33 8 -15 19 22 13 328 16 387 3 30 -7 37 -12 37 -32 0 -24 2 -25 70 -25
l70 0 0 65 c0 45 -4 65 -12 66 -50 3 -520 4 -548 2z m408 -40 c-10 -2 -28 -2
-40 0 -13 2 -5 4 17 4 22 1 32 -1 23 -4z"/>
<path d="M13227 7633 c-3 -10 -5 -66 -6 -125 l-1 -108 25 0 c14 0 25 5 25 10
0 6 -5 10 -12 10 -9 0 -9 3 0 12 9 9 7 14 -6 24 -15 12 -15 13 -1 14 18 0 34
43 19 48 -6 2 -7 15 -4 28 5 18 2 24 -10 24 -23 0 -20 27 3 33 14 3 18 11 14
26 -6 25 -40 28 -46 4z"/>
<path d="M7227 7607 c-32 -8 -65 -20 -73 -29 -14 -14 -13 -17 10 -36 l26 -20
-27 -17 -26 -18 23 -17 c24 -18 202 -55 235 -49 12 3 20 12 20 24 0 18 -9 20
-102 25 -56 3 -104 8 -108 12 -13 12 57 20 126 13 45 -5 74 -3 82 4 10 7 39 8
98 1 46 -5 90 -10 97 -10 7 0 17 -11 22 -25 8 -22 15 -25 57 -25 51 0 79 12
69 28 -3 5 -2 32 3 58 5 27 8 50 7 51 -1 2 -38 10 -82 18 -110 22 -382 29
-457 12z m338 -26 c57 -6 60 -7 63 -35 l4 -29 -54 7 c-29 4 -126 11 -216 16
-154 8 -183 12 -170 25 19 19 255 29 373 16z"/>
<path d="M6163 7463 c-14 -5 -18 -34 -5 -31 21 6 85 -28 112 -60 17 -20 40
-47 50 -59 10 -13 24 -39 30 -59 9 -26 15 -32 21 -23 4 7 5 17 3 21 -3 4 -1 8
5 8 5 0 -8 36 -30 80 -22 44 -45 80 -51 80 -5 0 -23 11 -40 25 -27 23 -65 31
-95 18z"/>
<path d="M13227 7374 c-13 -13 -7 -24 14 -24 11 0 19 5 17 12 -5 14 -22 21
-31 12z"/>
<path d="M6185 7359 c-4 -6 -5 -13 -2 -16 7 -7 27 6 27 18 0 12 -17 12 -25 -2z"/>
<path d="M6140 7328 c0 -18 12 -51 25 -73 14 -22 25 -52 25 -66 0 -15 6 -44
14 -66 15 -42 11 -85 -11 -119 -7 -11 -10 -24 -6 -27 3 -4 -2 -17 -13 -29 -17
-21 -17 -21 8 1 15 13 25 28 21 34 -3 6 -2 7 4 4 11 -7 56 38 68 68 4 11 7 28
6 38 -1 10 4 17 13 17 9 0 16 8 16 19 0 11 2 25 3 33 2 7 2 10 0 6 -12 -21
-21 -4 -18 31 2 21 -3 50 -10 64 -7 15 -11 35 -8 47 3 12 0 20 -6 20 -7 0 -9
-4 -6 -10 3 -5 2 -10 -3 -10 -17 0 -21 13 -11 34 6 12 -5 5 -25 -17 l-36 -37
-17 35 c-21 44 -33 45 -33 3z"/>
<path d="M13221 7240 c0 -57 3 -78 9 -65 8 19 9 19 9 1 1 -11 4 -16 8 -13 3 4
7 42 7 85 1 68 -1 78 -16 78 -16 0 -18 -11 -17 -86z"/>
<path d="M3405 7290 c-25 -11 1 -11 35 0 20 6 21 8 5 8 -11 0 -29 -3 -40 -8z"/>
<path d="M4084 7273 c-16 -17 -16 -18 -1 -21 9 -2 17 -10 17 -18 0 -8 4 -13
10 -9 5 3 6 13 3 23 -6 15 -5 15 10 3 22 -17 24 4 3 25 -18 18 -21 18 -42 -3z"/>
<path d="M7280 7284 c-84 -14 -130 -27 -136 -35 -7 -13 25 -38 49 -39 28 0 20
-15 -15 -25 -37 -12 -46 -29 -21 -40 58 -24 230 -44 255 -29 16 10 7 36 -14
42 -23 6 -23 6 2 13 24 6 152 2 196 -7 12 -2 24 -13 27 -24 4 -17 13 -20 65
-20 34 0 63 3 66 8 2 4 6 34 7 67 l3 60 -60 12 c-60 12 -378 25 -424 17z m337
-38 c0 0 3 -12 5 -26 3 -23 1 -24 -47 -21 -27 1 -102 9 -165 17 -63 7 -133 14
-154 14 -26 0 -37 3 -30 10 11 11 164 17 294 12 52 -3 96 -5 97 -6z"/>
<path d="M4006 7266 c3 -9 11 -16 16 -16 13 0 5 23 -10 28 -7 2 -10 -2 -6 -12z"/>
<path d="M3472 7238 c6 -18 25 -20 31 -3 5 10 0 15 -14 15 -12 0 -19 -5 -17
-12z"/>
<path d="M6387 7243 c-10 -10 -8 -61 3 -68 5 -3 6 -13 3 -22 -4 -10 -2 -14 5
-9 6 3 10 26 8 51 -2 46 -8 60 -19 48z"/>
<path d="M3130 7188 c-137 -65 -292 -174 -411 -288 -165 -159 -329 -424 -407
-655 -62 -186 -77 -288 -76 -520 1 -123 6 -231 13 -260 6 -27 14 -63 17 -80 2
-16 9 -39 14 -50 5 -11 21 -60 37 -110 61 -198 209 -441 362 -592 156 -155
275 -240 477 -338 178 -87 323 -130 524 -154 80 -10 308 -15 299 -7 -2 2 -58
6 -124 10 -152 7 -205 15 -212 33 -5 12 -7 12 -14 2 -14 -24 -210 25 -264 67
-19 14 -42 24 -50 20 -8 -3 -15 -1 -15 5 0 6 -9 8 -20 4 -11 -3 -20 -2 -20 3
0 5 -6 10 -12 9 -35 -1 -59 4 -54 12 3 4 -12 13 -32 19 -21 6 -48 21 -60 32
-12 11 -27 19 -34 18 -7 -2 -16 6 -22 17 -5 11 -32 32 -59 45 -28 14 -63 36
-78 50 -15 14 -50 46 -79 73 -29 26 -48 47 -41 47 6 0 11 8 11 18 0 13 -2 14
-9 4 -7 -12 -12 -12 -32 0 -42 23 -47 38 -23 62 14 15 14 16 -5 16 -11 0 -22
-4 -26 -10 -3 -5 -13 -2 -23 8 -10 10 -28 25 -41 34 -12 9 -23 22 -24 29 -2 8
-19 31 -40 51 -20 21 -37 42 -37 47 0 5 -16 33 -35 63 -20 29 -38 64 -42 78
-3 14 -10 30 -15 36 -5 7 -8 16 -7 20 3 21 -2 35 -11 29 -5 -3 -10 0 -10 8 0
8 -6 20 -13 26 -8 6 -14 29 -15 52 -2 44 -9 62 -21 54 -8 -4 -21 65 -21 111 0
27 26 23 33 -4 4 -15 5 -15 6 0 1 11 6 15 16 12 19 -8 19 3 0 22 -8 9 -19 13
-24 9 -5 -3 -12 7 -14 22 l-4 28 -2 -30 c-3 -30 -3 -30 -11 -5 l-8 25 -1 -27
c-1 -16 -5 -28 -10 -28 -5 0 -8 14 -7 31 1 22 8 34 22 39 27 11 62 86 46 102
-14 14 -16 32 -3 24 5 -4 4 5 -2 19 -10 21 -17 24 -42 19 -16 -4 -33 -11 -36
-16 -13 -20 -22 41 -25 172 -5 199 -5 220 6 240 6 10 10 31 10 47 0 22 2 25
10 13 7 -12 10 -8 10 15 0 17 4 26 8 20 4 -5 19 -11 33 -13 24 -2 26 0 23 29
-5 39 -6 41 -38 43 -21 1 -25 5 -20 21 3 11 16 28 28 37 18 15 19 19 6 28 -13
9 -13 12 2 20 11 7 15 19 12 36 -3 14 -1 23 5 20 11 -7 36 22 27 31 -4 4 -12
1 -17 -7 -9 -12 -9 -11 -4 5 4 11 12 34 17 50 6 17 17 37 24 46 8 9 11 19 7
23 -4 4 0 12 10 17 9 6 17 18 17 28 0 9 9 27 19 38 11 12 18 23 15 26 -10 9
16 58 28 51 7 -5 8 -3 4 5 -8 12 46 88 123 177 20 22 48 53 62 70 14 16 39 40
55 54 89 77 107 89 116 83 7 -3 8 -1 4 5 -7 12 39 59 69 68 11 4 22 10 25 14
10 15 170 91 179 85 9 -5 66 43 59 50 -2 2 -41 -15 -88 -37z"/>
<path d="M6315 7219 c-4 -6 -5 -12 -2 -15 2 -3 7 2 10 11 7 17 1 20 -8 4z"/>
<path d="M3500 7184 c0 -8 5 -12 10 -9 6 3 10 10 10 16 0 5 -4 9 -10 9 -5 0
-10 -7 -10 -16z"/>
<path d="M6332 7170 c0 -14 2 -19 5 -12 2 6 2 18 0 25 -3 6 -5 1 -5 -13z"/>
<path d="M3600 7160 c0 -5 5 -10 10 -10 6 0 10 5 10 10 0 6 -4 10 -10 10 -5 0
-10 -4 -10 -10z"/>
<path d="M3885 7140 c3 -5 -1 -10 -10 -10 -22 0 -14 -24 10 -28 22 -5 37 18
23 35 -12 15 -32 18 -23 3z"/>
<path d="M13222 6899 c1 -138 6 -253 10 -255 3 -2 8 21 10 52 1 31 0 58 -4 61
-5 2 -8 14 -7 26 0 21 1 21 8 2 7 -17 8 -17 13 8 3 15 3 39 0 54 -5 25 -6 25
-13 8 -6 -17 -8 -16 -8 8 -1 16 3 26 9 22 6 -3 10 -3 10 2 6 94 4 126 -7 130
-18 7 -16 43 2 43 19 0 19 7 0 27 -17 17 -14 40 4 36 17 -4 13 14 -5 21 -9 3
-18 6 -21 6 -2 0 -3 -113 -1 -251z"/>
<path d="M3325 7130 c-3 -5 -1 -10 4 -10 6 0 11 5 11 10 0 6 -2 10 -4 10 -3 0
-8 -4 -11 -10z"/>
<path d="M3700 7129 c0 -5 5 -7 10 -4 6 3 10 8 10 11 0 2 -4 4 -10 4 -5 0 -10
-5 -10 -11z"/>
<path d="M4185 7110 c-3 -5 -1 -10 4 -10 6 0 11 5 11 10 0 6 -2 10 -4 10 -3 0
-8 -4 -11 -10z"/>
<path d="M3720 7100 c0 -5 5 -10 10 -10 6 0 10 5 10 10 0 6 -4 10 -10 10 -5 0
-10 -4 -10 -10z"/>
<path d="M4260 7100 c0 -5 4 -10 9 -10 6 0 13 5 16 10 3 6 -1 10 -9 10 -9 0
-16 -4 -16 -10z"/>
<path d="M6370 7099 c0 -5 5 -7 10 -4 6 3 10 8 10 11 0 2 -4 4 -10 4 -5 0 -10
-5 -10 -11z"/>
<path d="M3420 7085 c0 -8 7 -15 15 -15 8 0 15 7 15 15 0 8 -7 15 -15 15 -8 0
-15 -7 -15 -15z"/>
<path d="M3465 7060 c-3 -5 -1 -10 4 -10 6 0 11 5 11 10 0 6 -2 10 -4 10 -3 0
-8 -4 -11 -10z"/>
<path d="M3840 7060 c0 -5 5 -10 10 -10 6 0 10 5 10 10 0 6 -4 10 -10 10 -5 0
-10 -4 -10 -10z"/>
<path d="M3940 7054 c0 -8 5 -12 10 -9 6 3 10 10 10 16 0 5 -4 9 -10 9 -5 0
-10 -7 -10 -16z"/>
<path d="M4112 7040 c-16 -26 -15 -30 3 -30 19 0 31 28 19 40 -6 6 -14 2 -22
-10z"/>
<path d="M3540 7040 c0 -5 5 -10 10 -10 6 0 10 5 10 10 0 6 -4 10 -10 10 -5 0
-10 -4 -10 -10z"/>
<path d="M3490 7013 c-13 -15 -12 -16 4 -10 10 4 20 7 22 7 2 0 4 5 4 10 0 15
-13 12 -30 -7z"/>
<path d="M4160 7019 c0 -5 5 -7 10 -4 6 3 10 8 10 11 0 2 -4 4 -10 4 -5 0 -10
-5 -10 -11z"/>
<path d="M2940 6985 c-9 -11 -10 -19 -2 -27 14 -14 32 -1 32 23 0 23 -13 25
-30 4z"/>
<path d="M5262 6970 c-39 -24 -37 -24 -56 -4 -9 8 -16 11 -16 6 0 -17 49 -42
83 -42 18 0 42 7 53 16 19 15 19 15 -3 11 -23 -5 -41 18 -20 27 7 2 8 5 2 5
-5 1 -25 -8 -43 -19z"/>
<path d="M3035 6950 c3 -5 8 -10 11 -10 2 0 4 5 4 10 0 6 -5 10 -11 10 -5 0
-7 -4 -4 -10z"/>
<path d="M3490 6950 c0 -5 5 -10 10 -10 6 0 10 5 10 10 0 6 -4 10 -10 10 -5 0
-10 -4 -10 -10z"/>
<path d="M4570 6950 c0 -5 5 -10 10 -10 6 0 10 5 10 10 0 6 -4 10 -10 10 -5 0
-10 -4 -10 -10z"/>
<path d="M3180 6935 c0 -8 5 -15 10 -15 6 0 10 7 10 15 0 8 -4 15 -10 15 -5 0
-10 -7 -10 -15z"/>
<path d="M4110 6940 c0 -5 5 -10 10 -10 6 0 10 5 10 10 0 6 -4 10 -10 10 -5 0
-10 -4 -10 -10z"/>
<path d="M4762 6934 c1 -9 9 -19 16 -22 9 -3 13 2 10 14 -1 9 -9 19 -16 22 -9
3 -13 -2 -10 -14z"/>
<path d="M4816 6942 c-3 -6 1 -15 8 -21 8 -7 17 -8 20 -3 3 6 -1 15 -8 21 -8
7 -17 8 -20 3z"/>
<path d="M7405 6929 c-276 -8 -255 -6 -255 -23 0 -10 17 -17 58 -21 112 -13
119 -25 20 -34 -47 -4 -63 -10 -63 -21 0 -11 17 -17 60 -22 127 -15 154 -16
182 -1 28 15 41 15 271 -3 l82 -7 0 72 0 71 -62 -2 c-35 -1 -166 -5 -293 -9z
m215 -54 l0 -25 -105 0 c-95 0 -105 2 -105 18 0 10 2 21 5 23 2 3 49 6 105 7
l100 3 0 -26z"/>
<path d="M4455 6920 c-3 -5 1 -10 9 -10 9 0 16 5 16 10 0 6 -4 10 -9 10 -6 0
-13 -4 -16 -10z"/>
<path d="M3950 6910 c0 -5 5 -10 10 -10 6 0 10 5 10 10 0 6 -4 10 -10 10 -5 0
-10 -4 -10 -10z"/>
<path d="M3790 6860 c0 -5 5 -10 10 -10 6 0 10 5 10 10 0 6 -4 10 -10 10 -5 0
-10 -4 -10 -10z"/>
<path d="M5180 6859 c0 -7 27 -49 60 -95 61 -86 122 -189 180 -303 41 -81 120
-289 120 -316 0 -11 4 -27 9 -34 6 -10 8 0 5 30 -4 36 -3 41 8 27 11 -15 13
-14 25 9 7 14 13 34 13 44 0 25 48 26 66 2 10 -13 13 -14 14 -4 0 19 39 51 64
52 15 0 11 4 -13 13 -28 10 -31 14 -17 19 9 4 15 11 12 16 -8 12 41 20 52 9 5
-5 16 0 26 10 16 19 15 19 -33 16 -27 -2 -53 0 -56 6 -3 5 1 10 9 10 21 0 85
43 86 58 0 16 -25 15 -43 -3 -8 -8 -17 -11 -20 -8 -3 3 0 12 8 19 15 15 85 19
85 5 0 -5 11 -4 25 2 29 14 32 24 8 31 -10 3 -3 4 15 2 17 -1 32 0 32 4 0 15
-26 30 -51 30 -15 0 -30 4 -33 8 -6 10 36 8 77 -3 17 -5 27 -3 27 4 0 14 51
40 68 34 7 -3 12 4 12 15 0 17 11 21 83 29 l82 10 -70 2 c-81 2 -129 21 -54
21 28 0 51 6 59 14 6 8 28 17 48 19 26 2 18 4 -23 5 -33 1 -67 7 -75 12 -11 7
-2 8 28 4 29 -5 42 -3 42 5 0 7 6 11 13 10 28 -3 48 2 42 11 -3 6 -37 10 -76
10 -44 0 -69 4 -69 11 0 8 24 9 83 4 101 -10 163 -8 202 4 24 7 13 10 -60 11
-49 2 -117 4 -150 6 -69 3 -128 -13 -120 -34 2 -7 1 -10 -4 -7 -5 3 -12 1 -16
-5 -3 -5 -16 -10 -28 -10 -12 0 -42 -10 -67 -23 -40 -19 -61 -35 -104 -72 -22
-20 -92 -70 -116 -84 -23 -13 -24 -13 -11 3 21 25 6 30 -31 11 -36 -19 -94
-38 -84 -28 3 3 -3 12 -13 20 -11 7 -22 26 -26 42 -3 16 -13 35 -21 42 -8 6
-14 18 -14 25 0 8 -9 19 -20 26 -11 7 -20 17 -20 21 0 5 -11 23 -25 41 -14 18
-25 38 -25 45 0 7 -5 9 -12 5 -8 -5 -9 -2 -5 10 4 10 3 15 -3 11 -6 -4 -18 7
-27 24 -22 37 -80 52 -99 26 -14 -19 -34 -12 -34 11 0 8 -4 14 -10 14 -5 0
-10 -5 -10 -11z m440 -373 c0 -3 -4 -8 -10 -11 -5 -3 -10 -1 -10 4 0 6 5 11
10 11 6 0 10 -2 10 -4z m-89 -28 c2 5 15 13 28 17 25 7 25 7 -3 -18 -30 -28
-51 -27 -59 5 -5 19 -4 19 13 3 10 -9 20 -12 21 -7z m199 -34 c0 -2 -7 -4 -15
-4 -8 0 -15 4 -15 10 0 5 7 7 15 4 8 -4 15 -8 15 -10z m-178 -56 c-9 -9 -15
-9 -24 0 -9 9 -7 12 12 12 19 0 21 -3 12 -12z"/>
<path d="M3070 6820 c0 -5 5 -10 10 -10 6 0 10 5 10 10 0 6 -4 10 -10 10 -5 0
-10 -4 -10 -10z"/>
<path d="M4335 6810 c-3 -5 -2 -10 4 -10 5 0 13 5 16 10 3 6 2 10 -4 10 -5 0
-13 -4 -16 -10z"/>
<path d="M3010 6800 c0 -5 5 -10 11 -10 5 0 7 5 4 10 -3 6 -8 10 -11 10 -2 0
-4 -4 -4 -10z"/>
<path d="M3630 6796 c0 -8 -6 -16 -12 -19 -9 -3 -10 -8 -2 -16 15 -16 49 11
41 33 -8 20 -27 21 -27 2z"/>
<path d="M4795 6794 c-14 -10 -16 -17 -8 -25 15 -15 43 -4 43 15 0 22 -13 26
-35 10z"/>
<path d="M4511 6786 c-7 -8 -8 -17 -3 -20 6 -3 15 1 21 8 7 8 8 17 3 20 -6 3
-15 -1 -21 -8z"/>
<path d="M6210 6780 c0 -5 5 -10 11 -10 5 0 7 5 4 10 -3 6 -8 10 -11 10 -2 0
-4 -4 -4 -10z"/>
<path d="M3407 6763 c-10 -9 -9 -23 2 -23 5 0 11 7 15 15 5 15 -5 20 -17 8z"/>
<path d="M4900 6755 c0 -9 5 -15 11 -13 6 2 11 8 11 13 0 5 -5 11 -11 13 -6 2
-11 -4 -11 -13z"/>
<path d="M3980 6750 c0 -5 5 -10 10 -10 6 0 10 5 10 10 0 6 -4 10 -10 10 -5 0
-10 -4 -10 -10z"/>
<path d="M3041 6724 c0 -11 3 -14 6 -6 3 7 2 16 -1 19 -3 4 -6 -2 -5 -13z"/>
<path d="M4795 6730 c-3 -5 -1 -10 4 -10 6 0 11 5 11 10 0 6 -2 10 -4 10 -3 0
-8 -4 -11 -10z"/>
<path d="M4875 6710 c-3 -5 -1 -10 4 -10 6 0 11 5 11 10 0 6 -2 10 -4 10 -3 0
-8 -4 -11 -10z"/>
<path d="M6328 6713 c7 -3 16 -2 19 1 4 3 -2 6 -13 5 -11 0 -14 -3 -6 -6z"/>
<path d="M4797 6683 c-12 -11 -8 -23 8 -23 8 0 15 7 15 15 0 16 -12 20 -23 8z"/>
<path d="M5020 6666 c0 -24 26 -38 40 -22 6 9 9 20 5 26 -9 15 -45 12 -45 -4z"/>
<path d="M2790 6640 c0 -5 5 -10 10 -10 6 0 10 5 10 10 0 6 -4 10 -10 10 -5 0
-10 -4 -10 -10z"/>
<path d="M4476 6624 c-8 -21 -4 -25 14 -14 11 7 12 12 4 20 -8 8 -13 7 -18 -6z"/>
<path d="M7412 6610 c-157 -4 -236 -10 -244 -18 -20 -20 4 -32 73 -40 35 -4
64 -11 64 -17 0 -8 -61 -23 -137 -34 -20 -3 -5 -30 20 -36 28 -7 401 -8 437
-1 11 3 45 5 76 5 l55 1 0 68 c1 37 -4 70 -10 74 -6 4 -31 7 -56 6 -25 -1
-150 -4 -278 -8z m208 -69 c0 -48 -7 -51 -116 -51 -71 0 -86 3 -91 18 -4 9
-11 20 -17 24 -8 5 -8 8 0 8 7 0 14 9 17 20 5 18 14 20 106 20 l101 0 0 -39z"/>
<path d="M13217 6613 c-2 -5 -5 -36 -6 -70 -2 -59 -1 -61 20 -56 21 6 21 7 3
20 -16 12 -17 15 -4 23 13 8 13 11 1 19 -11 7 -10 13 7 31 12 13 19 27 16 32
-6 10 -31 11 -37 1z"/>
<path d="M3416 6594 c-8 -21 -1 -28 19 -20 9 3 15 11 13 18 -7 19 -25 20 -32
2z"/>
<path d="M4436 6574 c-4 -10 -1 -14 6 -12 15 5 23 28 10 28 -5 0 -13 -7 -16
-16z"/>
<path d="M4530 6570 c0 -5 5 -10 10 -10 6 0 10 5 10 10 0 6 -4 10 -10 10 -5 0
-10 -4 -10 -10z"/>
<path d="M3870 6556 c0 -8 -6 -16 -12 -19 -10 -4 -10 -7 0 -18 10 -11 15 -10
28 3 9 9 14 24 11 32 -8 20 -27 21 -27 2z"/>
<path d="M4620 6530 c0 -5 5 -10 10 -10 6 0 10 5 10 10 0 6 -4 10 -10 10 -5 0
-10 -4 -10 -10z"/>
<path d="M4697 6513 c-4 -3 -7 -11 -7 -17 0 -6 5 -5 12 2 6 6 9 14 7 17 -3 3
-9 2 -12 -2z"/>
<path d="M2640 6490 c0 -5 5 -10 10 -10 6 0 10 5 10 10 0 6 -4 10 -10 10 -5 0
-10 -4 -10 -10z"/>
<path d="M2795 6490 c-3 -5 -1 -10 4 -10 6 0 11 5 11 10 0 6 -2 10 -4 10 -3 0
-8 -4 -11 -10z"/>
<path d="M3150 6486 c0 -9 -5 -16 -11 -16 -5 0 -8 -4 -4 -10 8 -13 35 -1 35
15 0 8 -4 17 -10 20 -5 3 -10 -1 -10 -9z"/>
<path d="M3525 6491 c-3 -5 -1 -12 5 -16 5 -3 10 1 10 9 0 18 -6 21 -15 7z"/>
<path d="M3410 6474 c0 -8 5 -12 10 -9 6 3 10 10 10 16 0 5 -4 9 -10 9 -5 0
-10 -7 -10 -16z"/>
<path d="M2680 6470 c0 -5 5 -10 10 -10 6 0 10 5 10 10 0 6 -4 10 -10 10 -5 0
-10 -4 -10 -10z"/>
<path d="M2634 6439 c-10 -17 13 -36 27 -22 12 12 4 33 -11 33 -5 0 -12 -5
-16 -11z"/>
<path d="M3940 6441 c0 -17 18 -21 24 -6 3 9 0 15 -9 15 -8 0 -15 -4 -15 -9z"/>
<path d="M3616 6423 c-4 -9 -3 -20 2 -25 11 -11 36 17 27 32 -9 15 -22 12 -29
-7z"/>
<path d="M4855 6410 c-3 -5 -1 -10 4 -10 6 0 11 5 11 10 0 6 -2 10 -4 10 -3 0
-8 -4 -11 -10z"/>
<path d="M4490 6385 c0 -8 5 -15 10 -15 6 0 10 7 10 15 0 8 -4 15 -10 15 -5 0
-10 -7 -10 -15z"/>
<path d="M3686 6375 c-3 -8 -1 -15 4 -15 6 0 10 7 10 15 0 8 -2 15 -4 15 -2 0
-6 -7 -10 -15z"/>
<path d="M13210 6380 c0 -5 7 -10 15 -10 8 0 15 5 15 10 0 6 -7 10 -15 10 -8
0 -15 -4 -15 -10z"/>
<path d="M4223 6355 c-10 -22 -9 -25 7 -25 26 0 35 19 19 36 -12 11 -16 9 -26
-11z"/>
<path d="M4870 6360 c0 -5 5 -10 10 -10 6 0 10 5 10 10 0 6 -4 10 -10 10 -5 0
-10 -4 -10 -10z"/>
<path d="M5043 6335 c-18 -19 -16 -25 6 -25 19 0 35 23 24 34 -9 9 -17 7 -30
-9z"/>
<path d="M4496 6324 c-9 -24 -7 -34 8 -34 16 0 29 27 20 41 -8 14 -21 11 -28
-7z"/>
<path d="M13210 6312 c0 -5 7 -9 15 -9 8 0 15 4 15 9 0 4 -7 8 -15 8 -8 0 -15
-4 -15 -8z"/>
<path d="M2615 6290 c-3 -5 -1 -10 4 -10 6 0 11 5 11 10 0 6 -2 10 -4 10 -3 0
-8 -4 -11 -10z"/>
<path d="M2785 6289 c-4 -6 -5 -13 -2 -16 7 -7 27 6 27 18 0 12 -17 12 -25 -2z"/>
<path d="M2517 6275 c-8 -18 11 -31 25 -17 11 11 3 32 -12 32 -4 0 -10 -7 -13
-15z"/>
<path d="M5076 6268 c-20 -23 -9 -42 17 -32 18 6 23 39 9 48 -5 3 -16 -4 -26
-16z"/>
<path d="M7626 6275 c-4 -12 -26 -15 -104 -15 -57 0 -103 5 -109 11 -7 7 -50
10 -121 7 -119 -3 -153 -16 -111 -39 18 -10 78 -13 230 -11 196 1 207 0 212
-18 3 -10 2 -21 -1 -24 -3 -3 -50 -6 -104 -6 -78 0 -100 3 -104 15 -5 12 -23
14 -105 10 -101 -6 -149 -17 -149 -35 0 -5 10 -12 23 -14 20 -4 143 -17 175
-19 20 -1 14 -37 -6 -37 -10 0 -27 -7 -38 -15 -10 -8 -29 -15 -41 -15 -31 0
-29 -14 5 -27 l27 -10 -25 -1 c-198 -6 -1154 1 -1240 9 -63 6 -180 13 -260 16
-140 5 -146 4 -165 -17 -33 -37 -41 -78 -31 -170 31 -302 -39 -632 -200 -936
-46 -89 -81 -150 -96 -169 -134 -170 -197 -241 -283 -322 -58 -54 -105 -102
-105 -108 0 -5 6 -3 13 5 9 12 31 14 97 12 54 -2 109 3 153 13 38 9 104 16
150 15 117 -2 249 7 256 18 3 5 25 17 48 28 23 10 43 25 43 32 0 7 14 12 35
12 35 0 44 8 49 46 4 29 31 40 60 24 14 -7 28 -11 31 -8 3 2 -12 13 -34 24
-34 16 -37 20 -22 31 9 7 37 13 63 13 26 0 50 5 53 11 4 6 14 8 22 5 9 -4 13
-1 11 6 -3 7 -22 15 -44 18 -39 6 -39 6 -9 12 17 4 46 11 65 16 34 8 35 9 10
17 -24 8 -24 9 15 20 l40 12 -33 7 c-40 9 -32 26 12 26 39 0 50 8 35 26 -9 10
-7 15 5 20 9 3 14 10 11 14 -3 5 3 13 12 19 10 6 14 11 9 11 -5 0 -3 6 3 14 9
10 7 16 -5 27 -14 11 -13 15 8 31 20 15 21 19 8 28 -13 9 -13 11 0 20 13 8 12
11 -4 23 -18 13 -17 14 13 20 44 9 30 27 -22 28 l-42 1 40 12 c26 8 34 15 25
19 -13 5 -13 7 0 16 8 6 11 11 6 11 -5 0 -4 6 3 13 8 10 7 17 -2 26 -9 10 -9
11 4 6 9 -3 21 0 28 8 9 12 7 16 -10 20 -24 7 -17 24 15 37 20 8 20 9 -5 9
-32 1 -42 10 -28 28 9 10 6 13 -15 13 -45 0 -18 20 27 21 40 1 41 1 14 11 -21
7 -26 15 -22 28 4 14 -2 23 -22 34 l-28 14 28 7 c15 4 27 11 27 16 0 5 -12 15
-27 21 -22 9 -24 12 -10 15 18 5 24 23 7 23 -5 0 -10 5 -10 11 0 6 9 8 20 4
33 -10 23 5 -11 17 -26 9 -29 12 -15 20 9 5 14 13 11 19 -4 5 -1 9 4 9 15 0
14 30 -1 31 -7 1 -2 4 11 8 l24 6 -37 35 c-34 32 -35 35 -16 42 11 4 28 5 38
1 13 -5 11 -1 -5 14 l-22 20 20 21 20 22 -28 1 c-17 1 -21 3 -10 6 9 2 17 10
17 17 0 6 14 20 30 30 22 13 29 23 25 36 -6 20 29 60 52 60 8 0 12 4 8 9 -3 5
3 11 12 13 10 2 18 12 18 22 0 15 12 22 55 33 71 17 465 32 838 33 l292 0 0
85 0 85 174 0 174 0 4 63 c3 34 3 65 1 70 -2 4 -33 7 -68 7 -47 0 -64 -4 -69
-15z m-1546 -975 c0 -5 -5 -10 -11 -10 -5 0 -7 5 -4 10 3 6 8 10 11 10 2 0 4
-4 4 -10z m-83 -516 c-3 -3 -12 -4 -19 -1 -8 3 -5 6 6 6 11 1 17 -2 13 -5z
m-387 -344 c-8 -5 -26 -9 -40 -9 -23 1 -23 2 5 9 43 11 52 11 35 0z m-537 -67
c-7 -2 -19 -2 -25 0 -7 3 -2 5 12 5 14 0 19 -2 13 -5z m-96 -9 c-3 -3 -12 -4
-19 -1 -8 3 -5 6 6 6 11 1 17 -2 13 -5z m50 0 c-3 -3 -12 -4 -19 -1 -8 3 -5 6
6 6 11 1 17 -2 13 -5z"/>
<path d="M4790 6260 c0 -5 5 -10 10 -10 6 0 10 5 10 10 0 6 -4 10 -10 10 -5 0
-10 -4 -10 -10z"/>
<path d="M2625 6250 c3 -5 8 -10 11 -10 2 0 4 5 4 10 0 6 -5 10 -11 10 -5 0
-7 -4 -4 -10z"/>
<path d="M3521 6227 c-6 -8 -8 -16 -5 -20 10 -9 34 4 34 19 0 18 -14 18 -29 1z"/>
<path d="M4360 6220 c0 -5 5 -10 10 -10 6 0 10 5 10 10 0 6 -4 10 -10 10 -5 0
-10 -4 -10 -10z"/>
<path d="M4916 6201 c-3 -5 1 -11 9 -15 15 -6 29 7 18 18 -9 9 -21 8 -27 -3z"/>
<path d="M5322 6199 c2 -7 10 -15 17 -17 8 -3 12 1 9 9 -2 7 -10 15 -17 17 -8
3 -12 -1 -9 -9z"/>
<path d="M4815 6191 c-6 -11 9 -23 19 -14 9 9 7 23 -3 23 -6 0 -12 -4 -16 -9z"/>
<path d="M4650 6175 c0 -8 5 -15 10 -15 6 0 10 7 10 15 0 8 -4 15 -10 15 -5 0
-10 -7 -10 -15z"/>
<path d="M2646 6171 c-4 -7 -5 -15 -2 -18 9 -9 19 4 14 18 -4 11 -6 11 -12 0z"/>
<path d="M2450 6156 c0 -9 5 -16 10 -16 6 0 10 4 10 9 0 6 -4 13 -10 16 -5 3
-10 -1 -10 -9z"/>
<path d="M3990 6159 c0 -5 5 -7 10 -4 6 3 10 8 10 11 0 2 -4 4 -10 4 -5 0 -10
-5 -10 -11z"/>
<path d="M4067 6163 c-4 -3 -7 -11 -7 -17 0 -6 5 -5 12 2 6 6 9 14 7 17 -3 3
-9 2 -12 -2z"/>
<path d="M4602 6135 c-1 -16 3 -25 13 -25 18 0 27 14 19 34 -9 25 -29 19 -32
-9z"/>
<path d="M4866 6153 c-11 -11 -6 -23 9 -23 8 0 15 4 15 9 0 13 -16 22 -24 14z"/>
<path d="M2550 6130 c0 -5 5 -10 10 -10 6 0 10 5 10 10 0 6 -4 10 -10 10 -5 0
-10 -4 -10 -10z"/>
<path d="M3526 6095 c-3 -8 -1 -15 4 -15 13 0 22 18 11 24 -5 3 -11 -1 -15 -9z"/>
<path d="M3986 6094 c-4 -10 -1 -14 6 -12 15 5 23 28 10 28 -5 0 -13 -7 -16
-16z"/>
<path d="M3130 6080 c0 -5 5 -10 10 -10 6 0 10 5 10 10 0 6 -4 10 -10 10 -5 0
-10 -4 -10 -10z"/>
<path d="M3615 6080 c-3 -5 -1 -10 4 -10 6 0 11 5 11 10 0 6 -2 10 -4 10 -3 0
-8 -4 -11 -10z"/>
<path d="M4357 6073 c-4 -3 -7 -11 -7 -17 0 -6 5 -5 12 2 6 6 9 14 7 17 -3 3
-9 2 -12 -2z"/>
<path d="M4443 6065 c-8 -9 -9 -16 -3 -20 6 -3 13 1 16 10 9 21 2 26 -13 10z"/>
<path d="M4625 6061 c-6 -11 9 -23 19 -14 9 9 7 23 -3 23 -6 0 -12 -4 -16 -9z"/>
<path d="M5080 6059 c0 -5 5 -7 10 -4 6 3 10 8 10 11 0 2 -4 4 -10 4 -5 0 -10
-5 -10 -11z"/>
<path d="M13207 6064 c-4 -4 -7 -101 -7 -215 0 -183 2 -208 15 -203 10 4 13
13 10 24 -3 10 0 20 8 23 8 3 18 27 22 54 4 26 15 60 26 74 10 15 19 32 19 38
0 19 64 97 99 121 51 34 157 38 923 42 511 2 678 6 678 15 0 9 -210 13 -857
16 -472 3 -874 8 -893 12 -19 4 -38 3 -43 -1z"/>
<path d="M3415 6039 c-4 -6 -5 -13 -2 -16 7 -7 27 6 27 18 0 12 -17 12 -25 -2z"/>
<path d="M2565 6030 c-3 -5 -1 -10 4 -10 6 0 11 5 11 10 0 6 -2 10 -4 10 -3 0
-8 -4 -11 -10z"/>
<path d="M4306 5995 c-14 -10 -17 -18 -10 -25 15 -15 44 -1 44 21 0 23 -8 23
-34 4z"/>
<path d="M3276 5978 c-15 -17 -16 -22 -5 -29 19 -12 25 -11 39 6 12 15 7 46
-7 44 -4 0 -16 -10 -27 -21z"/>
<path d="M5350 5985 c0 -8 7 -15 16 -15 14 0 14 3 4 15 -7 8 -14 15 -16 15 -2
0 -4 -7 -4 -15z"/>
<path d="M1778 5983 c-186 -2 -338 -7 -338 -11 0 -4 153 -6 340 -4 212 1 340
6 340 12 0 6 -1 9 -2 8 -2 -2 -155 -4 -340 -5z"/>
<path d="M4633 5975 c-7 -20 2 -29 21 -22 9 4 13 13 10 22 -8 19 -23 19 -31 0z"/>
<path d="M5023 5975 c-8 -9 -9 -16 -3 -20 14 -8 30 3 30 21 0 18 -11 17 -27
-1z"/>
<path d="M0 5970 c0 -6 33 -10 83 -9 59 1 74 4 52 9 -45 11 -135 11 -135 0z"/>
<path d="M180 5970 c-10 -6 46 -10 167 -10 111 0 184 4 188 10 8 13 -335 13
-355 0z"/>
<path d="M725 5970 c3 -5 17 -10 31 -10 13 0 24 5 24 10 0 6 -14 10 -31 10
-17 0 -28 -4 -24 -10z"/>
<path d="M835 5970 c7 -12 139 -10 158 2 6 4 -28 8 -76 8 -57 0 -86 -4 -82
-10z"/>
<path d="M1378 5968 c9 -9 15 -9 24 0 9 9 7 12 -12 12 -19 0 -21 -3 -12 -12z"/>
<path d="M2445 5970 c-4 -6 -3 -16 3 -22 6 -6 12 -6 17 2 4 6 3 16 -3 22 -6 6
-12 6 -17 -2z"/>
<path d="M2876 5964 c-16 -11 -17 -17 -8 -26 9 -9 16 -8 29 5 23 23 5 41 -21
21z"/>
<path d="M588 5963 c12 -2 30 -2 40 0 9 3 -1 5 -23 4 -22 0 -30 -2 -17 -4z"/>
<path d="M7240 5961 c-57 -5 -75 -10 -75 -21 0 -15 19 -20 140 -37 l50 -7 -65
-7 c-107 -13 -130 -19 -130 -34 0 -15 13 -19 95 -31 52 -7 484 -6 496 2 4 2 6
34 5 71 l-1 68 -59 3 c-46 2 -62 -1 -68 -12 -13 -23 -218 -24 -218 -1 0 16
-23 17 -170 6z m380 -82 l0 -32 -77 7 c-42 3 -89 6 -105 6 -20 0 -28 5 -28 18
0 10 3 22 7 25 3 4 51 7 105 7 l98 0 0 -31z"/>
<path d="M5062 5939 c2 -6 8 -10 13 -10 5 0 11 4 13 10 2 6 -4 11 -13 11 -9 0
-15 -5 -13 -11z"/>
<path d="M2390 5930 c0 -5 -7 -10 -15 -10 -8 0 -15 -4 -15 -9 0 -18 55 -6 58
12 2 10 -3 17 -12 17 -9 0 -16 -4 -16 -10z"/>
<path d="M5175 5930 c-3 -5 -1 -10 4 -10 6 0 11 5 11 10 0 6 -2 10 -4 10 -3 0
-8 -4 -11 -10z"/>
<path d="M3841 5916 c-8 -9 -11 -19 -7 -23 9 -9 29 13 24 27 -2 8 -8 7 -17 -4z"/>
<path d="M4930 5915 c0 -8 5 -15 10 -15 6 0 10 7 10 15 0 8 -4 15 -10 15 -5 0
-10 -7 -10 -15z"/>
<path d="M3737 5913 c-10 -9 -9 -23 2 -23 5 0 11 7 15 15 5 15 -5 20 -17 8z"/>
<path d="M4083 5891 c-13 -21 -8 -32 13 -24 14 5 20 43 6 43 -4 0 -13 -9 -19
-19z"/>
<path d="M2326 5885 c4 -9 11 -14 16 -13 15 5 11 23 -6 26 -11 2 -14 -2 -10
-13z"/>
<path d="M2620 5890 c0 -5 5 -10 10 -10 6 0 10 5 10 10 0 6 -4 10 -10 10 -5 0
-10 -4 -10 -10z"/>
<path d="M2830 5890 c0 -5 5 -10 10 -10 6 0 10 5 10 10 0 6 -4 10 -10 10 -5 0
-10 -4 -10 -10z"/>
<path d="M4290 5875 c-8 -9 -8 -15 -2 -15 12 0 26 19 19 26 -2 2 -10 -2 -17
-11z"/>
<path d="M2486 5872 c-3 -6 -1 -14 5 -17 15 -10 25 3 12 16 -7 7 -13 7 -17 1z"/>
<path d="M2910 5870 c0 -5 5 -10 10 -10 6 0 10 5 10 10 0 6 -4 10 -10 10 -5 0
-10 -4 -10 -10z"/>
<path d="M4574 5859 c-3 -6 -1 -16 5 -22 9 -9 14 -8 21 3 9 15 4 30 -10 30 -5
0 -12 -5 -16 -11z"/>
<path d="M4704 5833 c0 -10 -5 -17 -11 -15 -17 3 -16 -13 1 -27 30 -25 67 16
40 44 -20 20 -32 19 -30 -2z"/>
<path d="M5220 5830 c0 -5 5 -10 10 -10 6 0 10 5 10 10 0 6 -4 10 -10 10 -5 0
-10 -4 -10 -10z"/>
<path d="M5161 5816 c-7 -8 -8 -17 -3 -20 6 -3 15 1 21 8 7 8 8 17 3 20 -6 3
-15 -1 -21 -8z"/>
<path d="M3567 5795 c-11 -16 -13 -26 -7 -30 18 -11 40 3 40 24 0 30 -13 32
-33 6z"/>
<path d="M4010 5780 c0 -5 5 -10 10 -10 6 0 10 5 10 10 0 6 -4 10 -10 10 -5 0
-10 -4 -10 -10z"/>
<path d="M5125 5780 c-3 -5 -2 -10 4 -10 5 0 13 5 16 10 3 6 2 10 -4 10 -5 0
-13 -4 -16 -10z"/>
<path d="M2350 5770 c0 -5 5 -10 10 -10 6 0 10 5 10 10 0 6 -4 10 -10 10 -5 0
-10 -4 -10 -10z"/>
<path d="M5025 5770 c-3 -5 -1 -10 4 -10 6 0 11 5 11 10 0 6 -2 10 -4 10 -3 0
-8 -4 -11 -10z"/>
<path d="M4356 5745 c-21 -31 -13 -49 15 -35 19 11 26 44 10 54 -5 3 -16 -6
-25 -19z"/>
<path d="M2966 5751 c-4 -7 -5 -15 -2 -18 9 -9 19 4 14 18 -4 11 -6 11 -12 0z"/>
<path d="M4121 5737 c-6 -8 -8 -17 -4 -20 7 -8 33 11 33 24 0 13 -16 11 -29
-4z"/>
<path d="M4532 5734 c-11 -12 -10 -15 3 -20 19 -8 40 10 31 25 -9 15 -18 13
-34 -5z"/>
<path d="M4782 5728 c6 -18 28 -21 28 -4 0 9 -7 16 -16 16 -9 0 -14 -5 -12
-12z"/>
<path d="M3220 5719 c0 -5 5 -7 10 -4 6 3 10 8 10 11 0 2 -4 4 -10 4 -5 0 -10
-5 -10 -11z"/>
<path d="M2360 5709 c0 -5 5 -7 10 -4 6 3 10 8 10 11 0 2 -4 4 -10 4 -5 0 -10
-5 -10 -11z"/>
<path d="M5255 5700 c-3 -5 -1 -10 4 -10 6 0 11 5 11 10 0 6 -2 10 -4 10 -3 0
-8 -4 -11 -10z"/>
<path d="M2787 5686 c-23 -17 -22 -36 2 -36 21 0 33 21 23 38 -5 7 -12 6 -25
-2z"/>
<path d="M3886 5685 c-15 -11 -17 -18 -8 -27 13 -13 42 6 42 28 0 18 -10 17
-34 -1z"/>
<path d="M4765 5690 c3 -5 8 -10 11 -10 2 0 4 5 4 10 0 6 -5 10 -11 10 -5 0
-7 -4 -4 -10z"/>
<path d="M4006 5664 c-4 -9 -4 -19 -1 -22 2 -3 7 3 11 12 4 9 4 19 1 22 -2 3
-7 -3 -11 -12z"/>
<path d="M4430 5645 c-15 -18 -5 -35 20 -35 23 0 32 13 24 34 -8 20 -28 21
-44 1z"/>
<path d="M4935 5650 c-3 -5 -1 -10 4 -10 6 0 11 5 11 10 0 6 -2 10 -4 10 -3 0
-8 -4 -11 -10z"/>
<path d="M2317 5643 c-5 -7 -5 -17 -2 -23 8 -14 42 -13 51 2 5 7 0 9 -14 6
-14 -4 -22 -1 -24 11 -3 12 -5 13 -11 4z"/>
<path d="M7250 5643 c-67 -5 -90 -12 -90 -27 0 -22 111 -36 293 -36 l167 0 0
-25 0 -25 -104 0 c-98 0 -104 1 -109 22 -6 20 -9 21 -99 14 -117 -8 -148 -15
-148 -32 0 -25 74 -37 260 -39 102 -1 219 0 261 2 l76 4 1 70 2 69 -64 0 c-48
0 -65 -4 -70 -15 -4 -12 -26 -15 -105 -15 -90 0 -101 2 -111 20 -11 21 -34 23
-160 13z"/>
<path d="M2680 5619 c0 -5 5 -7 10 -4 6 3 10 8 10 11 0 2 -4 4 -10 4 -5 0 -10
-5 -10 -11z"/>
<path d="M3010 5620 c0 -5 5 -10 10 -10 6 0 10 5 10 10 0 6 -4 10 -10 10 -5 0
-10 -4 -10 -10z"/>
<path d="M13200 5590 c0 -29 4 -40 15 -40 17 0 20 16 5 25 -8 5 -7 11 0 20 12
15 6 35 -11 35 -5 0 -9 -18 -9 -40z"/>
<path d="M2560 5610 c0 -5 5 -10 10 -10 6 0 10 5 10 10 0 6 -4 10 -10 10 -5 0
-10 -4 -10 -10z"/>
<path d="M4755 5600 c3 -5 8 -10 11 -10 2 0 4 5 4 10 0 6 -5 10 -11 10 -5 0
-7 -4 -4 -10z"/>
<path d="M2570 5580 c0 -5 5 -10 10 -10 6 0 10 5 10 10 0 6 -4 10 -10 10 -5 0
-10 -4 -10 -10z"/>
<path d="M2735 5579 c-4 -6 -5 -13 -2 -16 7 -7 27 6 27 18 0 12 -17 12 -25 -2z"/>
<path d="M3055 5580 c-3 -5 -1 -10 4 -10 6 0 11 5 11 10 0 6 -2 10 -4 10 -3 0
-8 -4 -11 -10z"/>
<path d="M3403 5572 c-13 -2 -23 -7 -23 -12 0 -12 25 -19 40 -10 19 12 8 25
-17 22z"/>
<path d="M4416 5573 c-11 -11 -6 -23 9 -23 8 0 15 4 15 9 0 13 -16 22 -24 14z"/>
<path d="M5310 5569 c0 -5 -4 -7 -10 -4 -5 3 -10 1 -10 -4 0 -6 7 -11 15 -11
8 0 15 7 15 15 0 8 -2 15 -5 15 -3 0 -5 -5 -5 -11z"/>
<path d="M3000 5530 c-8 -5 -11 -12 -8 -16 10 -9 38 3 38 16 0 12 -10 13 -30
0z"/>
<path d="M13200 5474 c0 -40 4 -54 14 -54 12 0 13 7 5 32 -12 44 -12 48 6 48
22 0 18 17 -5 23 -18 5 -20 0 -20 -49z"/>
<path d="M2910 5500 c-11 -7 -12 -12 -3 -21 14 -14 46 -4 41 13 -6 16 -20 19
-38 8z"/>
<path d="M4270 5499 c0 -5 5 -7 10 -4 6 3 10 8 10 11 0 2 -4 4 -10 4 -5 0 -10
-5 -10 -11z"/>
<path d="M2630 5490 c0 -5 7 -10 16 -10 8 0 12 5 9 10 -3 6 -10 10 -16 10 -5
0 -9 -4 -9 -10z"/>
<path d="M4610 5485 c0 -8 5 -15 10 -15 6 0 10 7 10 15 0 8 -4 15 -10 15 -5 0
-10 -7 -10 -15z"/>
<path d="M2590 5475 c0 -9 5 -15 11 -13 6 2 11 8 11 13 0 5 -5 11 -11 13 -6 2
-11 -4 -11 -13z"/>
<path d="M2971 5476 c-9 -10 -9 -16 -1 -21 17 -10 37 12 24 25 -8 8 -15 6 -23
-4z"/>
<path d="M3530 5470 c-11 -7 -12 -12 -3 -21 13 -13 33 -4 33 17 0 16 -9 18
-30 4z"/>
<path d="M3090 5452 c0 -7 -7 -12 -16 -12 -20 0 -13 -24 9 -28 21 -4 34 25 18
41 -8 8 -11 8 -11 -1z"/>
<path d="M4070 5449 c0 -5 5 -7 10 -4 6 3 10 8 10 11 0 2 -4 4 -10 4 -5 0 -10
-5 -10 -11z"/>
<path d="M3627 5436 c-16 -12 -16 -14 -1 -20 20 -8 34 1 34 20 0 17 -10 17
-33 0z"/>
<path d="M4340 5440 c0 -5 5 -10 10 -10 6 0 10 5 10 10 0 6 -4 10 -10 10 -5 0
-10 -4 -10 -10z"/>
<path d="M4652 5438 c-7 -7 -12 -16 -12 -20 0 -12 28 -10 36 3 10 17 -10 31
-24 17z"/>
<path d="M2600 5430 c0 -5 5 -10 10 -10 6 0 10 5 10 10 0 6 -4 10 -10 10 -5 0
-10 -4 -10 -10z"/>
<path d="M4290 5385 c-9 -11 -10 -19 -2 -27 14 -14 32 -1 32 23 0 23 -13 25
-30 4z"/>
<path d="M2510 5380 c0 -5 5 -10 10 -10 6 0 10 5 10 10 0 6 -4 10 -10 10 -5 0
-10 -4 -10 -10z"/>
<path d="M2970 5350 c0 -5 5 -10 10 -10 6 0 10 5 10 10 0 6 -4 10 -10 10 -5 0
-10 -4 -10 -10z"/>
<path d="M4500 5347 c0 -9 -4 -17 -10 -17 -5 0 -10 -4 -10 -10 0 -14 37 -13
46 1 3 6 -1 18 -10 27 -15 15 -16 15 -16 -1z"/>
<path d="M5070 5350 c0 -5 5 -10 10 -10 6 0 10 5 10 10 0 6 -4 10 -10 10 -5 0
-10 -4 -10 -10z"/>
<path d="M5220 5330 c0 -5 4 -10 9 -10 6 0 13 5 16 10 3 6 -1 10 -9 10 -9 0
-16 -4 -16 -10z"/>
<path d="M2401 5314 c0 -11 3 -14 6 -6 3 7 2 16 -1 19 -3 4 -6 -2 -5 -13z"/>
<path d="M7187 5313 c-20 -3 -27 -9 -25 -21 2 -12 20 -20 60 -27 63 -11 87
-25 43 -25 -35 0 -105 -21 -105 -31 0 -33 168 -46 431 -34 l165 7 1 69 1 69
-64 0 c-48 0 -66 -4 -70 -15 -5 -12 -27 -15 -110 -15 -86 0 -104 3 -104 15 0
12 -17 15 -97 14 -54 -1 -111 -4 -126 -6z m433 -78 l0 -25 -105 0 c-87 0 -105
3 -105 15 0 11 -13 15 -52 16 -37 0 -47 3 -33 8 11 5 82 9 158 10 l137 2 0
-26z"/>
<path d="M13200 5290 c0 -31 6 -36 28 -21 11 6 10 10 -3 15 -10 3 -15 12 -11
21 3 8 1 15 -4 15 -6 0 -10 -13 -10 -30z"/>
<path d="M3195 5300 c-3 -5 -13 -6 -21 -3 -12 4 -15 1 -12 -13 5 -29 62 -26
66 4 3 22 -21 32 -33 12z"/>
<path d="M3298 5293 c-24 -6 -23 -29 1 -36 18 -4 31 10 31 34 0 9 -4 10 -32 2z"/>
<path d="M2380 5254 c0 -5 5 -16 10 -24 8 -13 11 -13 27 3 9 9 12 17 6 17 -6
0 -18 3 -27 6 -9 3 -16 2 -16 -2z"/>
<path d="M3730 5240 c-13 -8 -12 -10 3 -10 9 0 17 5 17 10 0 12 -1 12 -20 0z"/>
<path d="M5175 5240 c-3 -5 -1 -10 4 -10 6 0 11 5 11 10 0 6 -2 10 -4 10 -3 0
-8 -4 -11 -10z"/>
<path d="M4830 5230 c0 -5 5 -10 10 -10 6 0 10 5 10 10 0 6 -4 10 -10 10 -5 0
-10 -4 -10 -10z"/>
<path d="M2625 5200 c-3 -5 1 -10 9 -10 9 0 16 5 16 10 0 6 -4 10 -9 10 -6 0
-13 -4 -16 -10z"/>
<path d="M3155 5190 c-3 -5 -1 -10 4 -10 6 0 11 5 11 10 0 6 -2 10 -4 10 -3 0
-8 -4 -11 -10z"/>
<path d="M5000 5190 c0 -5 5 -10 10 -10 6 0 10 5 10 10 0 6 -4 10 -10 10 -5 0
-10 -4 -10 -10z"/>
<path d="M5281 5184 c0 -11 3 -14 6 -6 3 7 2 16 -1 19 -3 4 -6 -2 -5 -13z"/>
<path d="M3015 5179 c-4 -6 -5 -13 -2 -16 7 -7 27 6 27 18 0 12 -17 12 -25 -2z"/>
<path d="M4812 5170 c4 -20 32 -19 36 2 2 12 -3 16 -18 15 -13 -1 -20 -7 -18
-17z"/>
<path d="M3360 5170 c0 -5 5 -10 11 -10 5 0 7 5 4 10 -3 6 -8 10 -11 10 -2 0
-4 -4 -4 -10z"/>
<path d="M4865 5151 c-3 -5 -1 -12 5 -16 12 -7 30 2 30 16 0 12 -27 12 -35 0z"/>
<path d="M2430 5134 c0 -9 5 -14 12 -12 18 6 21 28 4 28 -9 0 -16 -7 -16 -16z"/>
<path d="M13200 5134 c0 -8 5 -12 10 -9 6 4 8 11 5 16 -9 14 -15 11 -15 -7z"/>
<path d="M3260 5126 c-7 -9 -17 -13 -22 -10 -6 4 -8 -2 -6 -12 5 -26 51 -26
56 0 5 26 -12 40 -28 22z"/>
<path d="M4720 5130 c0 -5 5 -10 11 -10 5 0 7 5 4 10 -3 6 -8 10 -11 10 -2 0
-4 -4 -4 -10z"/>
<path d="M4966 5124 c-4 -9 -4 -19 -2 -21 8 -8 26 8 26 23 0 19 -16 18 -24 -2z"/>
<path d="M6112 5118 c5 -15 28 -18 29 -3 0 6 -7 12 -17 13 -10 3 -15 -1 -12
-10z"/>
<path d="M3864 5109 c-3 -6 -2 -15 4 -21 13 -13 32 -2 32 18 0 16 -26 19 -36
3z"/>
<path d="M4225 5100 c-3 -5 -1 -10 4 -10 6 0 11 5 11 10 0 6 -2 10 -4 10 -3 0
-8 -4 -11 -10z"/>
<path d="M2681 5091 c-10 -6 -10 -10 -1 -16 13 -8 24 -1 19 14 -3 6 -10 7 -18
2z"/>
<path d="M3196 5081 c-4 -5 -2 -12 3 -15 5 -4 12 -2 15 3 4 5 2 12 -3 15 -5 4
-12 2 -15 -3z"/>
<path d="M4644 5081 c4 -5 0 -11 -6 -14 -10 -3 -10 -8 -2 -16 13 -14 44 -4 44
14 0 7 -7 16 -16 19 -22 8 -26 8 -20 -3z"/>
<path d="M3737 5073 c-4 -3 -7 -11 -7 -17 0 -6 5 -5 12 2 6 6 9 14 7 17 -3 3
-9 2 -12 -2z"/>
<path d="M2571 5036 c-15 -18 -4 -45 17 -42 22 4 27 29 9 45 -11 9 -17 8 -26
-3z"/>
<path d="M3620 5039 c0 -5 5 -7 10 -4 6 3 10 8 10 11 0 2 -4 4 -10 4 -5 0 -10
-5 -10 -11z"/>
<path d="M3990 5036 c0 -9 -4 -16 -10 -16 -5 0 -10 -4 -10 -10 0 -5 9 -10 20
-10 21 0 29 33 10 45 -5 3 -10 -1 -10 -9z"/>
<path d="M2487 5033 c-4 -3 -7 -13 -7 -22 1 -13 3 -13 11 2 11 19 8 33 -4 20z"/>
<path d="M3234 5031 c4 -5 0 -11 -6 -14 -9 -3 -10 -8 -3 -15 14 -16 39 2 32
22 -4 9 -11 16 -17 16 -6 0 -9 -4 -6 -9z"/>
<path d="M4430 5030 c0 -5 5 -10 10 -10 6 0 10 5 10 10 0 6 -4 10 -10 10 -5 0
-10 -4 -10 -10z"/>
<path d="M2830 5010 c0 -5 5 -10 10 -10 6 0 10 5 10 10 0 6 -4 10 -10 10 -5 0
-10 -4 -10 -10z"/>
<path d="M4117 5006 c-3 -8 -3 -17 0 -20 7 -7 33 13 33 25 0 15 -27 10 -33 -5z"/>
<path d="M2967 4993 c8 -21 24 -34 35 -27 11 7 1 21 -22 34 -17 9 -19 8 -13
-7z"/>
<path d="M13208 5003 c7 -3 16 -2 19 1 4 3 -2 6 -13 5 -11 0 -14 -3 -6 -6z"/>
<path d="M7202 4990 c-40 -9 -49 -17 -36 -30 22 -22 141 -32 297 -26 l157 7 0
-25 c0 -31 -15 -36 -117 -36 -76 0 -85 2 -90 20 -5 18 -14 20 -79 20 -130 0
-212 -30 -156 -56 20 -10 545 -15 560 -5 5 3 11 35 13 71 l4 65 -67 3 c-56 2
-68 0 -68 -13 0 -13 -17 -15 -105 -15 -87 0 -105 3 -105 15 0 12 -16 15 -87
14 -49 -1 -103 -5 -121 -9z"/>
<path d="M3610 4969 c0 -5 5 -7 10 -4 6 3 10 8 10 11 0 2 -4 4 -10 4 -5 0 -10
-5 -10 -11z"/>
<path d="M3061 4936 c-8 -10 -9 -16 -1 -21 13 -8 30 3 30 21 0 18 -14 18 -29
0z"/>
<path d="M2565 4930 c-3 -5 -1 -10 4 -10 6 0 11 5 11 10 0 6 -2 10 -4 10 -3 0
-8 -4 -11 -10z"/>
<path d="M13200 4929 c0 -5 5 -7 10 -4 6 3 10 8 10 11 0 2 -4 4 -10 4 -5 0
-10 -5 -10 -11z"/>
<path d="M4740 4910 c0 -5 5 -10 10 -10 6 0 10 5 10 10 0 6 -4 10 -10 10 -5 0
-10 -4 -10 -10z"/>
<path d="M4475 4900 c-8 -13 3 -30 20 -30 14 0 27 24 18 34 -10 9 -31 7 -38
-4z"/>
<path d="M4676 4903 c-11 -11 -6 -23 9 -23 8 0 15 4 15 9 0 13 -16 22 -24 14z"/>
<path d="M2996 4884 c-4 -9 -4 -19 -1 -22 6 -6 35 18 35 29 0 16 -28 10 -34
-7z"/>
<path d="M4014 4889 c-3 -6 -2 -15 4 -21 13 -13 32 -2 32 18 0 16 -26 19 -36
3z"/>
<path d="M3610 4880 c0 -5 5 -10 10 -10 6 0 10 5 10 10 0 6 -4 10 -10 10 -5 0
-10 -4 -10 -10z"/>
<path d="M3790 4879 c0 -5 5 -7 10 -4 6 3 10 8 10 11 0 2 -4 4 -10 4 -5 0 -10
-5 -10 -11z"/>
<path d="M2680 4870 c0 -5 5 -10 10 -10 6 0 10 5 10 10 0 6 -4 10 -10 10 -5 0
-10 -4 -10 -10z"/>
<path d="M3713 4865 c-13 -14 -7 -25 14 -25 14 0 18 26 6 33 -5 3 -13 -1 -20
-8z"/>
<path d="M3080 4861 c0 -6 5 -13 10 -16 6 -3 10 1 10 9 0 9 -4 16 -10 16 -5 0
-10 -4 -10 -9z"/>
<path d="M3935 4859 c-10 -15 3 -25 16 -12 7 7 7 13 1 17 -6 3 -14 1 -17 -5z"/>
<path d="M2740 4830 c0 -11 7 -20 15 -20 8 0 15 9 15 20 0 11 -7 20 -15 20 -8
0 -15 -9 -15 -20z"/>
<path d="M2805 4841 c-6 -11 9 -23 19 -14 9 9 7 23 -3 23 -6 0 -12 -4 -16 -9z"/>
<path d="M3246 4831 c-4 -7 -5 -15 -2 -18 9 -9 19 4 14 18 -4 11 -6 11 -12 0z"/>
<path d="M4083 4824 c-3 -8 -1 -20 5 -26 15 -15 43 8 35 28 -7 19 -32 18 -40
-2z"/>
<path d="M4801 4824 c-7 -8 -11 -18 -7 -21 9 -10 36 6 36 22 0 19 -11 19 -29
-1z"/>
<path d="M2970 4820 c0 -5 5 -10 10 -10 6 0 10 5 10 10 0 6 -4 10 -10 10 -5 0
-10 -4 -10 -10z"/>
<path d="M2660 4811 c0 -5 5 -13 10 -16 6 -3 10 -2 10 4 0 5 -4 13 -10 16 -5
3 -10 2 -10 -4z"/>
<path d="M3140 4810 c0 -5 5 -10 10 -10 6 0 10 5 10 10 0 6 -4 10 -10 10 -5 0
-10 -4 -10 -10z"/>
<path d="M3897 4804 c-8 -8 1 -24 14 -24 5 0 9 7 9 15 0 15 -12 20 -23 9z"/>
<path d="M4212 4783 c4 -21 33 -25 33 -3 0 8 -8 16 -18 18 -14 3 -18 -1 -15
-15z"/>
<path d="M2880 4780 c0 -5 5 -10 10 -10 6 0 10 5 10 10 0 6 -4 10 -10 10 -5 0
-10 -4 -10 -10z"/>
<path d="M2925 4780 c-3 -5 -1 -10 4 -10 6 0 11 5 11 10 0 6 -2 10 -4 10 -3 0
-8 -4 -11 -10z"/>
<path d="M3572 4764 c-11 -12 -10 -15 3 -20 19 -8 40 10 31 25 -9 15 -18 13
-34 -5z"/>
<path d="M3660 4767 c0 -10 -4 -16 -9 -12 -17 10 -21 -12 -5 -26 12 -10 18 -9
32 4 15 16 15 18 -1 34 -16 16 -17 16 -17 0z"/>
<path d="M3937 4764 c-8 -8 1 -24 14 -24 5 0 9 7 9 15 0 15 -12 20 -23 9z"/>
<path d="M4530 4760 c0 -5 5 -10 10 -10 6 0 10 5 10 10 0 6 -4 10 -10 10 -5 0
-10 -4 -10 -10z"/>
<path d="M3715 4750 c-8 -13 4 -32 16 -25 12 8 12 35 0 35 -6 0 -13 -4 -16
-10z"/>
<path d="M4360 4750 c0 -5 5 -10 10 -10 6 0 10 5 10 10 0 6 -4 10 -10 10 -5 0
-10 -4 -10 -10z"/>
<path d="M3263 4735 c-19 -20 -16 -35 6 -35 20 0 35 25 25 41 -7 12 -17 11
-31 -6z"/>
<path d="M2720 4730 c0 -5 5 -10 11 -10 5 0 7 5 4 10 -3 6 -8 10 -11 10 -2 0
-4 -4 -4 -10z"/>
<path d="M4535 4731 c-3 -5 -1 -12 5 -16 5 -3 10 1 10 9 0 18 -6 21 -15 7z"/>
<path d="M3453 4715 c-8 -9 -9 -16 -3 -20 14 -8 30 3 30 21 0 18 -11 17 -27
-1z"/>
<path d="M4195 4720 c-8 -13 4 -32 16 -25 12 8 12 35 0 35 -6 0 -13 -4 -16
-10z"/>
<path d="M13200 4710 c0 -6 7 -10 15 -10 8 0 15 2 15 4 0 2 -7 6 -15 10 -8 3
-15 1 -15 -4z"/>
<path d="M4465 4700 c-3 -5 -1 -10 4 -10 6 0 11 5 11 10 0 6 -2 10 -4 10 -3 0
-8 -4 -11 -10z"/>
<path d="M3715 4689 c-4 -6 -4 -13 -1 -16 8 -8 36 5 36 17 0 13 -27 13 -35 -1z"/>
<path d="M3802 4684 c4 -21 22 -23 26 -1 2 10 -3 17 -13 17 -10 0 -15 -6 -13
-16z"/>
<path d="M3961 4686 c-9 -10 -9 -16 -1 -21 17 -10 37 12 24 25 -8 8 -15 6 -23
-4z"/>
<path d="M2800 4669 c0 -5 5 -7 10 -4 6 3 10 8 10 11 0 2 -4 4 -10 4 -5 0 -10
-5 -10 -11z"/>
<path d="M7247 4670 c-115 -11 -117 -41 -3 -55 l61 -8 -63 -12 c-61 -12 -92
-28 -80 -41 19 -18 109 -25 328 -24 134 0 248 4 251 8 4 4 9 36 11 72 l3 65
-67 3 c-54 2 -68 0 -68 -11 0 -22 -23 -27 -120 -27 -79 0 -88 2 -93 20 -6 22
-29 24 -160 10z m373 -85 l0 -25 -104 0 c-103 0 -104 0 -108 25 l-5 25 108 0
109 0 0 -25z"/>
<path d="M2880 4659 c0 -5 5 -7 10 -4 6 3 10 8 10 11 0 2 -4 4 -10 4 -5 0 -10
-5 -10 -11z"/>
<path d="M3373 4655 c-19 -21 -16 -27 10 -23 12 2 22 9 22 17 0 20 -18 23 -32
6z"/>
<path d="M4324 4656 c-3 -9 -12 -16 -20 -16 -19 0 -18 -16 2 -24 19 -7 76 24
71 39 -6 17 -47 18 -53 1z"/>
<path d="M4503 4655 c-9 -10 -10 -16 -2 -21 15 -9 36 13 24 25 -6 6 -15 4 -22
-4z"/>
<path d="M3070 4645 c0 -8 5 -15 10 -15 6 0 10 7 10 15 0 8 -4 15 -10 15 -5 0
-10 -7 -10 -15z"/>
<path d="M4130 4650 c0 -5 5 -10 10 -10 6 0 10 5 10 10 0 6 -4 10 -10 10 -5 0
-10 -4 -10 -10z"/>
<path d="M3460 4635 c0 -8 5 -15 10 -15 6 0 10 7 10 15 0 8 -4 15 -10 15 -5 0
-10 -7 -10 -15z"/>
<path d="M2887 4624 c-3 -4 -2 -16 4 -26 13 -24 35 -9 26 16 -7 17 -19 21 -30
10z"/>
<path d="M4390 4619 c0 -5 5 -7 10 -4 6 3 10 8 10 11 0 2 -4 4 -10 4 -5 0 -10
-5 -10 -11z"/>
<path d="M3165 4609 c-4 -6 -5 -13 -2 -16 7 -7 27 6 27 18 0 12 -17 12 -25 -2z"/>
<path d="M3600 4604 c0 -8 5 -12 10 -9 6 3 10 10 10 16 0 5 -4 9 -10 9 -5 0
-10 -7 -10 -16z"/>
<path d="M4062 4608 c-16 -16 -15 -28 3 -28 8 0 15 9 15 20 0 23 -2 24 -18 8z"/>
<path d="M13190 4610 c0 -5 7 -10 16 -10 8 0 12 5 9 10 -3 6 -10 10 -16 10 -5
0 -9 -4 -9 -10z"/>
<path d="M3856 4591 c-4 -5 -2 -12 3 -15 5 -4 12 -2 15 3 4 5 2 12 -3 15 -5 4
-12 2 -15 -3z"/>
<path d="M5860 4580 c0 -5 7 -10 16 -10 8 0 12 5 9 10 -3 6 -10 10 -16 10 -5
0 -9 -4 -9 -10z"/>
<path d="M3140 4554 c0 -8 5 -12 10 -9 6 3 10 10 10 16 0 5 -4 9 -10 9 -5 0
-10 -7 -10 -16z"/>
<path d="M3796 4553 c-4 -9 -3 -20 2 -25 11 -11 36 17 27 32 -9 15 -22 12 -29
-7z"/>
<path d="M3495 4539 c-4 -6 -5 -13 -2 -16 7 -7 27 6 27 18 0 12 -17 12 -25 -2z"/>
<path d="M3410 4530 c0 -5 5 -10 10 -10 6 0 10 5 10 10 0 6 -4 10 -10 10 -5 0
-10 -4 -10 -10z"/>
<path d="M3630 4530 c0 -5 7 -10 15 -10 8 0 15 5 15 10 0 6 -7 10 -15 10 -8 0
-15 -4 -15 -10z"/>
<path d="M4670 4522 c0 -4 9 -8 20 -8 11 0 20 4 20 8 0 4 -9 8 -20 8 -11 0
-20 -4 -20 -8z"/>
<path d="M3245 4500 c3 -5 8 -10 11 -10 2 0 4 5 4 10 0 6 -5 10 -11 10 -5 0
-7 -4 -4 -10z"/>
<path d="M3820 4500 c0 -5 5 -10 10 -10 6 0 10 5 10 10 0 6 -4 10 -10 10 -5 0
-10 -4 -10 -10z"/>
<path d="M3957 4494 c-8 -8 1 -24 14 -24 5 0 9 7 9 15 0 15 -12 20 -23 9z"/>
<path d="M4475 4480 c-3 -5 -1 -10 4 -10 6 0 11 5 11 10 0 6 -2 10 -4 10 -3 0
-8 -4 -11 -10z"/>
<path d="M3325 4470 c-3 -5 -1 -10 4 -10 6 0 11 5 11 10 0 6 -2 10 -4 10 -3 0
-8 -4 -11 -10z"/>
<path d="M4426 4471 c-4 -7 -5 -15 -2 -18 9 -9 19 4 14 18 -4 11 -6 11 -12 0z"/>
<path d="M13190 4464 c0 -9 10 -14 30 -14 17 0 30 2 30 4 0 2 -13 9 -30 15
-24 8 -30 7 -30 -5z"/>
<path d="M3272 4429 c0 -23 3 -29 16 -27 21 4 28 38 10 49 -21 14 -25 11 -26
-22z"/>
<path d="M3790 4450 c0 -5 5 -10 10 -10 6 0 10 5 10 10 0 6 -4 10 -10 10 -5 0
-10 -4 -10 -10z"/>
<path d="M4112 4440 c-10 -17 -10 -21 2 -26 21 -8 36 3 36 27 0 25 -22 24 -38
-1z"/>
<path d="M4510 4440 c0 -5 7 -10 16 -10 8 0 12 5 9 10 -3 6 -10 10 -16 10 -5
0 -9 -4 -9 -10z"/>
<path d="M3893 4433 c-16 -6 -17 -33 -3 -33 11 0 26 28 19 34 -2 2 -10 1 -16
-1z"/>
<path d="M3943 4425 c-8 -9 -9 -16 -3 -20 14 -8 30 3 30 21 0 18 -11 17 -27
-1z"/>
<path d="M3690 4371 c-7 -13 -7 -22 0 -26 13 -8 30 3 30 20 0 23 -18 27 -30 6z"/>
<path d="M3756 4365 c-3 -9 0 -15 9 -15 8 0 15 7 15 15 0 8 -4 15 -9 15 -5 0
-11 -7 -15 -15z"/>
<path d="M4197 4356 c-6 -16 2 -28 14 -20 12 7 11 34 0 34 -5 0 -11 -6 -14
-14z"/>
<path d="M5187 4358 c-7 -4 12 -8 41 -8 28 0 52 2 52 4 0 8 -81 11 -93 4z"/>
<path d="M5390 4360 c-19 -6 -12 -8 30 -8 30 0 66 4 80 8 19 6 12 8 -30 8 -30
0 -66 -4 -80 -8z"/>
<path d="M7191 4351 c-14 -4 -26 -12 -29 -19 -5 -15 13 -22 92 -37 54 -11 57
-13 23 -14 -50 -1 -127 -21 -127 -32 0 -31 159 -48 405 -42 105 3 191 6 191 6
1 1 4 32 7 70 l5 67 -69 0 c-55 0 -69 -3 -69 -15 0 -12 -18 -15 -105 -15 -98
0 -105 1 -105 20 0 19 -6 20 -97 19 -54 -1 -109 -4 -122 -8z m429 -86 l0 -25
-105 0 -105 0 0 25 0 25 105 0 105 0 0 -25z"/>
<path d="M3976 4235 c4 -8 8 -15 10 -15 2 0 4 7 4 15 0 8 -4 15 -10 15 -5 0
-7 -7 -4 -15z"/>
<path d="M4008 4143 c6 -2 18 -2 25 0 6 3 1 5 -13 5 -14 0 -19 -2 -12 -5z"/>
<path d="M7340 4118 c-24 -10 -24 -10 -5 -18 16 -6 12 -8 -20 -12 -22 -3 -560
-6 -1195 -7 -1329 -1 -1796 -8 -1855 -26 l-40 -13 75 -2 c203 -4 379 -18 396
-31 5 -4 43 -9 83 -11 49 -2 75 -7 79 -16 3 -9 21 -13 59 -11 38 2 57 -2 63
-11 7 -12 12 -11 29 4 16 15 23 16 42 6 14 -8 44 -10 80 -7 32 3 60 2 64 -1 8
-8 165 -11 160 -3 -2 4 36 7 83 8 48 0 155 6 237 13 83 6 168 13 190 14 71 5
75 6 72 19 -1 7 10 12 28 13 17 1 138 5 270 10 132 5 274 9 315 9 201 -1 336
-8 348 -18 9 -7 16 -7 20 0 9 12 106 16 189 7 52 -5 61 -9 52 -20 -20 -24 -3
-44 38 -45 21 -1 49 -5 63 -9 22 -7 20 -8 -15 -9 -66 -2 -89 -19 -93 -71 l-3
-45 24 29 c24 30 24 30 58 13 21 -10 38 -12 44 -6 5 5 50 9 100 9 49 0 154 3
233 7 l142 6 0 69 0 68 -64 0 c-48 0 -65 -4 -70 -15 -7 -20 -205 -22 -208 -2
-3 22 -5 51 -7 85 -1 35 -15 40 -61 20z m-11 -82 c-8 -8 -78 -10 -85 -3 -4 4
14 7 41 7 27 0 46 -2 44 -4z m281 -90 c0 -22 -3 -23 -92 -28 -105 -6 -118 -4
-111 22 5 20 30 25 146 28 54 2 57 1 57 -22z"/>
<path d="M13187 4114 c-4 -4 -7 -127 -7 -274 0 -227 2 -267 15 -267 21 0 27
26 10 43 -20 21 -20 75 0 68 18 -7 20 17 3 34 -9 9 -9 12 -1 12 7 0 15 21 19
48 4 26 10 49 13 52 3 3 19 31 34 63 15 31 31 57 36 57 4 0 14 12 22 28 14 28
36 47 79 71 38 20 344 30 1008 30 492 1 582 3 582 15 0 12 -115 14 -767 13
-423 -1 -829 2 -903 6 -74 5 -139 5 -143 1z"/>
<path d="M1695 4050 c-327 -5 -294 -6 277 -8 451 -1 649 1 653 9 7 11 -94 11
-930 -1z"/>
<path d="M2666 4052 c-3 -5 185 -9 417 -9 232 -1 413 3 402 7 -27 11 -812 12
-819 2z"/>
<path d="M327 4043 c183 -2 483 -2 665 0 183 1 34 2 -332 2 -366 0 -515 -1
-333 -2z"/>
<path d="M5578 3963 c7 -3 16 -2 19 1 4 3 -2 6 -13 5 -11 0 -14 -3 -6 -6z"/>
<path d="M7250 3710 c-68 -10 -90 -18 -90 -36 0 -12 55 -33 90 -34 8 -1 -7 -9
-35 -18 -69 -24 -66 -44 10 -60 62 -13 471 -11 508 3 14 6 17 20 17 76 l0 69
-61 0 c-52 0 -62 -3 -66 -20 -5 -17 -15 -20 -79 -22 -150 -4 -139 -6 -139 22
0 23 -4 25 -50 26 -28 1 -75 -2 -105 -6z m370 -94 c0 -32 -15 -36 -126 -36
-93 0 -94 0 -94 24 0 27 11 29 163 34 54 2 57 1 57 -22z"/>
<path d="M13183 3520 c0 -25 2 -35 4 -22 2 12 2 32 0 45 -2 12 -4 2 -4 -23z"/>
<path d="M13180 3460 c0 -5 5 -10 10 -10 6 0 10 5 10 10 0 6 -4 10 -10 10 -5
0 -10 -4 -10 -10z"/>
<path d="M7225 3381 c-80 -16 -82 -45 -4 -60 43 -8 44 -8 14 -15 -40 -10 -75
-27 -75 -37 0 -5 10 -14 23 -21 25 -15 490 -19 540 -5 27 7 28 9 25 75 l-3 67
-58 3 c-51 3 -59 0 -64 -16 -4 -16 -17 -20 -80 -26 -133 -11 -143 -10 -143 19
0 24 -1 25 -72 24 -40 -1 -86 -4 -103 -8z m393 -88 l-3 -28 -107 -3 -108 -3 0
25 c0 27 7 28 168 34 53 2 53 2 50 -25z"/>
<path d="M13181 3324 c0 -11 3 -14 6 -6 3 7 2 16 -1 19 -3 4 -6 -2 -5 -13z"/>
<path d="M7245 3063 c-45 -6 -85 -24 -85 -38 0 -13 30 -25 68 -25 12 0 22 -4
22 -10 0 -5 -9 -10 -20 -10 -12 0 -35 -7 -51 -16 -39 -20 -26 -39 34 -48 53
-9 333 -8 450 0 l87 7 0 67 0 67 -52 7 c-45 6 -54 5 -67 -13 -14 -18 -31 -22
-123 -27 l-108 -7 0 26 c0 27 -1 27 -62 26 -35 -1 -76 -4 -93 -6z m375 -93 l0
-30 -110 0 -110 0 0 25 c0 23 4 24 63 28 166 9 157 10 157 -23z"/>
<path d="M11986 3036 c-3 -11 -7 -56 -11 -98 -5 -71 -4 -77 15 -83 20 -6 21
-25 6 -129 0 -5 5 -11 12 -13 9 -3 12 13 12 62 l0 68 73 -7 c39 -4 76 -11 80
-15 4 -5 7 -35 5 -67 l-3 -59 -37 0 c-20 0 -40 -3 -44 -7 -11 -12 -72 -10 -79
2 -7 12 -65 14 -66 3 -5 -66 -10 -112 -14 -130 -7 -31 17 -50 72 -57 123 -17
116 -14 108 -60 -8 -45 -9 -61 -2 -91 2 -11 0 -30 -4 -42 -8 -21 -5 -23 21
-23 37 0 46 20 56 117 4 38 15 79 25 93 11 16 19 54 23 103 6 66 5 77 -9 77
-13 0 -15 12 -13 73 3 66 5 72 25 75 27 4 30 14 39 124 l6 87 -103 -2 c-57 -1
-123 3 -147 9 -40 11 -42 11 -46 -10z m64 -466 c0 -5 -5 -10 -11 -10 -5 0 -7
5 -4 10 3 6 8 10 11 10 2 0 4 -4 4 -10z"/>
<path d="M7261 2740 c-99 -15 -135 -53 -61 -65 38 -6 57 -25 25 -25 -19 0 -65
-29 -65 -40 0 -5 17 -14 38 -22 46 -16 336 -14 466 5 l90 12 -3 65 c-1 35 -5
68 -7 72 -3 5 -30 8 -61 8 -46 0 -56 -3 -60 -19 -7 -27 -20 -30 -142 -37 -88
-6 -104 -4 -93 7 6 7 12 21 12 31 0 20 -39 22 -139 8z m46 -41 c-12 -7 -27 -7
-45 0 -25 9 -24 9 18 10 36 0 41 -2 27 -10z m311 -53 c2 -10 -2 -22 -10 -27
-21 -14 -381 -11 -372 2 4 8 27 9 69 5 68 -7 95 -1 95 20 0 13 70 22 170 20
36 -1 46 -5 48 -20z"/>
<path d="M7287 2419 c-60 -9 -120 -36 -114 -53 2 -5 19 -15 37 -21 l35 -12
-30 -14 c-47 -22 -44 -46 7 -60 52 -14 380 -6 476 12 l63 11 -7 32 c-4 17 -6
38 -5 46 6 60 -5 73 -59 65 -19 -2 -43 -4 -52 -5 -11 0 -18 -8 -18 -19 0 -16
-9 -21 -42 -25 -60 -8 -158 -11 -263 -8 -72 3 -85 5 -65 13 14 6 52 8 88 4 62
-7 62 -6 62 19 0 29 -9 30 -113 15z m333 -98 c0 -28 0 -28 -77 -34 -117 -9
-301 -8 -308 2 -7 12 87 24 124 16 21 -4 32 -2 38 8 7 13 81 26 206 36 12 1
17 -7 17 -28z"/>
<path d="M13167 2174 c-4 -4 -7 -35 -7 -69 0 -34 -5 -66 -12 -73 -7 -7 -35
-13 -62 -13 -49 -2 -48 -2 19 -10 92 -11 153 3 199 45 19 18 51 44 73 57 l38
24 793 3 c639 3 792 6 792 17 0 10 -146 12 -767 11 -423 0 -833 3 -913 7 -80
5 -149 5 -153 1z"/>
<path d="M0 2126 c0 -11 145 -13 823 -11 452 1 1606 4 2565 6 958 1 1775 6
1815 9 39 4 -1115 7 -2565 8 -2185 1 -2638 -1 -2638 -12z"/>
<path d="M5288 2133 c7 -3 16 -2 19 1 4 3 -2 6 -13 5 -11 0 -14 -3 -6 -6z"/>
<path d="M5378 2133 c17 -2 47 -2 65 0 17 2 3 4 -33 4 -36 0 -50 -2 -32 -4z"/>
<path d="M5533 2133 c9 -2 23 -2 30 0 6 3 -1 5 -18 5 -16 0 -22 -2 -12 -5z"/>
<path d="M5943 2133 c15 -2 39 -2 55 0 15 2 2 4 -28 4 -30 0 -43 -2 -27 -4z"/>
<path d="M6208 2133 c6 -2 18 -2 25 0 6 3 1 5 -13 5 -14 0 -19 -2 -12 -5z"/>
<path d="M6745 2130 c3 -5 10 -10 16 -10 5 0 9 5 9 10 0 6 -7 10 -16 10 -8 0
-12 -4 -9 -10z"/>
<path d="M6790 2130 c0 -5 20 -10 45 -10 25 0 45 5 45 10 0 6 -20 10 -45 10
-25 0 -45 -4 -45 -10z"/>
<path d="M7853 2050 c123 -8 3406 -25 3397 -17 -7 6 -1178 16 -2480 21 -590 3
-984 1 -917 -4z"/>
<path d="M11448 2023 c94 -2 250 -2 345 0 94 1 17 3 -173 3 -190 0 -267 -2
-172 -3z"/>
<path d="M12018 2023 c12 -2 32 -2 45 0 12 2 2 4 -23 4 -25 0 -35 -2 -22 -4z"/>
<path d="M0 500 l0 -500 7500 0 7500 0 0 500 0 500 -7500 0 -7500 0 0 -500z
m752 205 c-4 -35 -4 -35 36 -35 24 0 49 -7 63 -19 21 -17 23 -27 24 -107 0
-85 -1 -89 -22 -92 -22 -3 -23 0 -23 72 0 54 -4 79 -16 90 -18 19 -20 19 -45
6 -16 -9 -19 -22 -19 -90 0 -73 -2 -80 -20 -80 -24 0 -22 -9 -24 157 l-1 133
25 0 c24 0 26 -3 22 -35z m408 0 c0 -33 2 -35 35 -35 31 0 35 3 35 25 0 14 8
29 19 35 29 15 31 13 31 -25 0 -31 3 -35 25 -35 20 0 25 -5 25 -25 0 -20 -5
-25 -25 -25 -24 0 -25 -3 -25 -55 0 -50 2 -55 25 -61 26 -6 29 -12 19 -38 -9
-24 -41 -19 -69 9 -21 20 -25 34 -25 85 l0 60 -35 0 -35 0 0 -54 c0 -45 3 -56
19 -61 19 -6 34 -39 23 -49 -13 -13 -45 -4 -67 19 -21 20 -25 34 -25 85 0 33
-4 60 -10 60 -5 0 -10 11 -10 25 0 14 5 25 10 25 6 0 10 11 10 25 0 21 21 44
43 45 4 0 7 -16 7 -35z m740 0 c0 -31 3 -35 25 -35 20 0 25 -5 25 -25 0 -20
-5 -25 -25 -25 -24 0 -25 -3 -25 -54 0 -45 3 -56 19 -61 21 -6 35 -42 20 -51
-12 -7 -50 5 -71 24 -14 11 -18 31 -18 78 0 38 -4 64 -12 66 -17 6 -19 38 -2
45 8 3 14 16 14 29 0 20 22 43 43 44 4 0 7 -16 7 -35z m500 -37 l1 -73 32 38
c23 26 40 37 60 37 15 0 27 -3 27 -7 0 -4 -18 -26 -41 -49 l-41 -42 41 -52
c48 -60 50 -70 17 -70 -17 0 -33 12 -53 40 -15 22 -31 40 -35 40 -4 0 -8 -17
-10 -37 -2 -31 -7 -39 -25 -41 -23 -3 -23 -3 -23 142 l0 146 25 0 c24 0 25 -2
25 -72z m10367 -80 c-2 -18 -4 -4 -4 32 0 36 2 50 4 33 2 -18 2 -48 0 -65z
m75 55 l15 -38 16 38 c23 54 37 46 37 -23 0 -65 -19 -85 -21 -22 l-1 37 -11
-28 c-14 -34 -27 -30 -43 14 l-12 34 -1 -47 c-1 -27 -5 -48 -11 -48 -6 0 -10
27 -10 60 0 71 19 81 42 23z m169 -18 c22 -58 24 -77 5 -52 -16 21 -66 23 -66
2 0 -8 -4 -15 -10 -15 -13 0 -13 0 12 64 11 31 25 55 31 53 5 -1 18 -25 28
-52z m126 40 c2 -5 -14 -10 -34 -10 -34 0 -38 -3 -41 -28 -4 -35 14 -59 42
-55 26 4 33 35 9 41 -13 3 -10 5 8 6 23 1 25 -2 21 -29 -4 -26 -9 -30 -35 -30
-58 0 -85 50 -51 98 12 17 24 22 47 20 17 -2 32 -7 34 -13z m108 5 c-3 -5 -17
-10 -31 -10 -15 0 -24 -6 -24 -15 0 -9 9 -15 25 -15 14 0 25 -4 25 -10 0 -5
-11 -10 -25 -10 -18 0 -25 -5 -25 -19 0 -15 8 -21 33 -24 28 -3 26 -4 -10 -5
l-43 -2 0 60 0 60 41 0 c24 0 38 -4 34 -10z m95 -50 c0 -33 -4 -60 -10 -60
-11 0 -14 103 -3 113 12 12 13 8 13 -53z m108 44 c26 -18 30 -65 6 -88 -8 -9
-31 -16 -50 -16 l-34 0 0 60 c0 59 0 60 28 60 15 0 38 -7 50 -16z m209 4 c6
-7 10 -33 9 -58 -1 -44 -2 -45 -36 -47 -19 0 -25 1 -13 4 38 8 47 29 21 47
-18 13 -19 16 -5 16 9 0 17 7 17 15 0 9 -9 15 -25 15 -14 0 -25 5 -25 10 0 14
46 12 57 -2z m108 -25 c0 -17 3 -34 7 -38 16 -16 -13 -46 -40 -43 -25 3 -27 7
-28 53 -2 53 7 67 41 63 15 -2 20 -11 20 -35z m95 -2 c0 -22 4 -41 9 -43 5 -1
3 -12 -5 -22 -12 -17 -14 -18 -14 -3 0 11 -8 17 -25 17 -14 0 -25 5 -25 10 0
14 43 80 53 80 4 0 7 -18 7 -39z m110 29 c0 -5 -3 -9 -7 -9 -25 4 -43 -3 -43
-16 0 -8 6 -12 13 -9 7 2 21 -2 31 -9 28 -20 14 -67 -19 -67 -42 0 -59 56 -29
98 15 22 54 31 54 12z m100 -5 c10 -12 10 -19 2 -27 -8 -8 -8 -15 0 -28 19
-30 3 -50 -39 -49 -31 2 -33 3 -10 6 35 6 47 31 22 49 -17 13 -17 14 -2 14 9
0 17 7 17 15 0 14 -11 19 -37 16 -7 -1 -13 3 -13 9 0 16 46 12 60 -5z m98 3
c7 -7 12 -28 12 -48 0 -43 -15 -60 -49 -59 -24 2 -24 2 -3 6 12 2 26 12 32 22
8 15 6 17 -15 14 -16 -4 -27 1 -34 16 -23 41 25 81 57 49z m108 -11 c-10 -41
-37 -99 -43 -93 -3 3 2 23 11 46 20 51 21 50 -9 50 -14 0 -25 5 -25 10 0 6 16
10 36 10 33 0 36 -2 30 -23z m104 13 c0 -6 -6 -10 -12 -9 -25 3 -36 -1 -42
-17 -5 -12 -2 -15 10 -10 44 17 72 -43 32 -68 -43 -26 -80 60 -43 98 18 18 55
22 55 6z m94 -6 c30 -29 13 -104 -22 -104 -28 0 -42 21 -42 60 0 55 32 77 64
44z m-13805 -3 c8 -5 11 -16 7 -28 -6 -18 -13 -20 -51 -15 -36 4 -45 1 -45
-11 0 -9 16 -19 45 -26 67 -17 84 -63 40 -106 -19 -20 -34 -25 -72 -25 -60 0
-79 11 -65 36 8 14 20 18 55 15 72 -4 71 28 -1 44 -57 12 -70 88 -20 113 28
13 88 15 107 3z m281 -75 c5 -82 19 -106 54 -93 13 5 16 22 16 92 0 84 0 85
25 85 l25 0 0 -100 c0 -99 0 -101 -26 -110 -45 -18 -101 -12 -124 12 -17 19
-20 35 -20 111 0 86 1 88 23 85 20 -3 22 -9 27 -82z m540 64 c21 -21 22 -24
24 -77 l1 -33 -57 0 c-53 0 -58 -2 -58 -21 0 -20 4 -21 43 -16 23 3 49 2 57
-4 24 -16 -24 -49 -71 -49 -61 0 -79 25 -79 110 0 86 18 110 80 110 27 0 47
-7 60 -20z m160 -4 c0 -19 -6 -25 -27 -28 -27 -3 -28 -5 -33 -83 -5 -74 -7
-80 -27 -83 -22 -3 -23 -1 -23 87 0 85 1 91 26 110 15 12 40 21 55 21 24 0 29
-4 29 -24z m156 11 c3 -3 1 -14 -4 -23 -8 -14 -20 -18 -51 -15 -31 2 -41 -1
-41 -13 0 -14 8 -18 61 -30 51 -11 58 -90 10 -115 -24 -13 -100 -14 -120 -2
-8 5 -11 16 -7 29 6 17 13 19 46 15 52 -7 77 2 60 22 -7 8 -22 15 -34 15 -60
0 -88 68 -45 111 18 18 30 20 70 17 27 -3 52 -8 55 -11z m269 -14 c1 -19 -4
-23 -26 -23 -28 0 -43 -22 -37 -51 2 -9 -6 -14 -22 -14 -23 0 -25 3 -23 40 3
49 33 77 76 73 23 -2 31 -8 32 -25z m229 6 c14 -11 26 -24 26 -29 0 -15 -40
-22 -55 -10 -8 6 -24 10 -37 8 -21 -3 -23 -8 -23 -58 0 -50 2 -55 23 -58 13
-2 29 2 37 8 15 12 55 5 55 -10 0 -5 -12 -18 -26 -29 -37 -29 -89 -27 -119 4
-21 20 -25 34 -25 85 0 51 4 65 25 85 30 31 82 33 119 4z m281 1 c0 -8 -10
-16 -22 -18 -18 -3 -23 2 -23 18 0 16 5 21 23 18 12 -2 22 -10 22 -18z m10935
-14 c0 -3 -4 -8 -10 -11 -5 -3 -10 -1 -10 4 0 6 5 11 10 11 6 0 10 -2 10 -4z
m0 -66 c0 -5 -4 -10 -10 -10 -5 0 -10 5 -10 10 0 6 5 10 10 10 6 0 10 -4 10
-10z m-11380 -40 c0 -52 -28 -82 -73 -78 -24 2 -33 8 -35 25 -3 17 2 22 25 25
19 2 29 10 31 23 6 37 11 45 32 45 17 0 20 -6 20 -40z m11258 -176 c6 -1 17
-2 22 -2 6 -1 9 -19 9 -39 l-2 -38 -6 35 c-4 22 -12 35 -21 35 -9 0 -17 -13
-21 -35 -5 -27 -6 -22 -7 25 0 33 3 51 6 40 4 -11 13 -20 20 -21z m730 -8 l27
17 -19 -21 c-18 -21 -18 -23 -1 -42 22 -24 11 -27 -13 -4 -15 15 -16 15 -23
-2 -5 -11 -7 6 -7 41 1 34 3 45 5 27 l4 -33 27 17z m-509 6 c-15 -6 -10 -60 6
-65 11 -4 10 -4 -2 -3 -12 1 -20 12 -23 36 -8 47 -2 63 15 47 7 -7 9 -13 4
-15z m279 8 c15 -1 15 -2 0 -11 -10 -5 -18 -19 -18 -29 0 -10 8 -24 18 -30 15
-10 15 -10 -3 -8 -14 2 -22 13 -25 38 -6 36 0 75 8 52 2 -7 11 -12 20 -12z
m-328 0 c10 -6 11 -10 3 -10 -8 0 -13 -13 -13 -29 0 -16 6 -32 13 -34 7 -3 5
-6 -5 -6 -10 -1 -19 5 -19 12 -1 6 -3 27 -5 45 -4 34 1 38 26 22z m-639 -27
c8 -19 13 -23 16 -13 13 44 15 45 28 15 l13 -30 7 28 c10 40 18 26 10 -17 -9
-43 -20 -46 -33 -8 l-10 27 -7 -27 c-10 -39 -21 -35 -33 12 -11 46 -7 53 9 13z
m135 2 l12 30 12 -30 c8 -20 14 -25 17 -15 12 38 14 43 18 38 7 -6 -15 -78
-24 -78 -4 0 -12 12 -18 28 -10 24 -11 25 -12 5 -1 -23 -16 -39 -24 -26 -3 5
-7 24 -11 43 l-6 35 12 -30 11 -30 13 30z m96 -10 c4 -17 7 -16 18 10 l12 30
11 -30 10 -30 13 30 c15 35 19 9 4 -30 -11 -29 -30 -25 -30 6 0 11 -4 17 -10
14 -5 -3 -10 -15 -10 -26 0 -26 -17 -24 -25 4 -16 56 -17 62 -7 52 5 -5 12
-19 14 -30z m158 24 l-25 -10 28 -15 c35 -19 30 -38 -9 -41 -20 -1 -22 0 -6 4
27 6 29 20 2 28 -35 11 -24 46 14 44 19 0 18 -1 -4 -10z m200 -29 c0 -37 -2
-40 -29 -40 -21 0 -30 6 -35 23 -8 32 -7 47 4 47 6 0 10 -13 10 -30 0 -19 5
-30 14 -30 15 0 26 21 26 51 0 10 2 19 5 19 3 0 5 -18 5 -40z m190 25 c15 -18
7 -29 -20 -30 -31 0 -27 -19 6 -26 27 -6 28 -7 4 -8 -29 -1 -50 15 -50 39 0
36 38 51 60 25z m61 6 c-7 -5 -17 -24 -21 -42 l-8 -34 -1 40 c-1 35 2 41 21
42 16 2 19 0 9 -6z m57 2 c-24 -6 -23 -24 2 -30 31 -8 21 -38 -13 -39 -25 -1
-25 -1 -2 3 26 5 35 23 11 23 -7 0 -18 6 -25 13 -13 16 4 38 29 36 11 -1 11
-2 -2 -6z m152 -8 c20 -24 4 -65 -25 -65 -18 0 -26 7 -31 25 -7 27 9 55 31 55
7 0 18 -7 25 -15z m62 4 c-31 -12 -26 -50 8 -61 23 -6 23 -7 -5 -5 -25 2 -31
7 -33 31 -4 29 10 46 38 45 8 0 5 -4 -8 -10z m228 1 c0 -5 -6 -7 -13 -4 -18 6
-41 -21 -34 -40 3 -8 16 -17 29 -19 16 -4 14 -5 -7 -4 -23 2 -31 7 -33 25 -2
13 2 30 8 38 14 16 50 19 50 4z m79 -12 c12 -31 -5 -60 -32 -56 -16 2 -23 11
-25 32 -6 46 42 65 57 24z m133 8 c4 -6 7 -24 6 -41 -1 -27 -1 -28 -5 -5 -11
56 -42 62 -44 7 -1 -34 -3 -30 -13 16 -9 37 -29 29 -37 -14 l-6 -34 -2 41 -1
40 48 1 c26 0 50 -5 54 -11z m-1217 -56 c3 -5 1 -10 -4 -10 -6 0 -11 5 -11 10
0 6 2 10 4 10 3 0 8 -4 11 -10z m920 0 c3 -5 1 -10 -4 -10 -6 0 -11 5 -11 10
0 6 2 10 4 10 3 0 8 -4 11 -10z"/>
<path d="M12977 644 c-13 -13 -7 -44 8 -44 16 0 17 5 6 33 -3 10 -10 15 -14
11z"/>
<path d="M13390 616 c0 -49 11 -57 44 -33 12 9 17 23 14 42 -2 24 -8 31 -30
33 -27 3 -28 2 -28 -42z"/>
<path d="M13720 655 c-10 -12 -9 -16 3 -21 17 -6 37 2 37 16 0 15 -29 19 -40
5z"/>
<path d="M13719 604 c-9 -11 -9 -18 -1 -26 14 -14 42 -3 42 16 0 20 -27 27
-41 10z"/>
<path d="M13827 630 c-16 -22 -16 -25 -1 -28 21 -5 26 2 22 30 l-3 23 -18 -25z"/>
<path d="M13922 598 c5 -34 38 -37 38 -4 0 20 -5 26 -21 26 -15 0 -20 -5 -17
-22z"/>
<path d="M14124 656 c-8 -22 3 -49 19 -43 6 2 12 14 12 27 0 27 -22 39 -31 16z"/>
<path d="M14332 598 c2 -13 10 -23 18 -23 8 0 16 10 18 23 3 17 -2 22 -18 22
-16 0 -21 -5 -18 -22z"/>
<path d="M14440 660 c-16 -10 -18 -66 -3 -81 18 -18 33 0 33 41 0 42 -8 53
-30 40z"/>
<path d="M1400 600 c0 -16 7 -20 36 -20 29 0 35 3 30 16 -3 9 -6 18 -6 20 0 2
-13 4 -30 4 -23 0 -30 -4 -30 -20z"/>
<path d="M13675 340 c-3 -5 3 -10 15 -10 12 0 18 5 15 10 -3 6 -10 10 -15 10
-5 0 -12 -4 -15 -10z"/>
<path d="M13941 337 c-13 -17 -5 -47 14 -47 19 0 28 32 12 47 -12 12 -16 12
-26 0z"/>
<path d="M14304 336 c-8 -22 3 -49 19 -43 6 2 12 14 12 27 0 27 -22 39 -31 16z"/>
</g>
</svg>
