<svg width="33" height="49" viewBox="0 0 33 49" fill="none" xmlns="http://www.w3.org/2000/svg">
<circle cx="18" cy="24" r="15" fill="#120008"/>
<path d="M25.4998 11C21.0163 8.40643 18 5.55212 18 0V11.1055C19.9673 11.2627 22.4422 11.2414 25.4998 11Z" fill="#120008"/>
<path d="M25.5 37C21.0165 39.5936 18 42.6539 18 48.2061V37.1006C19.9672 36.9434 22.4424 36.7586 25.5 37Z" fill="#120008"/>
<g clip-path="url(#clip0_183_450)">
<path d="M6 24C6 17.3726 11.3726 12 18 12V12C24.6274 12 30 17.3726 30 24V24C30 30.6274 24.6274 36 18 36V36C11.3726 36 6 30.6274 6 24V24Z" fill="#FE3C8D"/>
<path d="M20.0644 20.0694L16.0781 24.083L20.0917 28.0693" stroke="#120008" stroke-width="1.5" stroke-linecap="round" stroke-linejoin="round"/>
</g>
<defs>
<clipPath id="clip0_183_450">
<path d="M6 24C6 17.3726 11.3726 12 18 12V12C24.6274 12 30 17.3726 30 24V24C30 30.6274 24.6274 36 18 36V36C11.3726 36 6 30.6274 6 24V24Z" fill="white"/>
</clipPath>
</defs>
</svg>
