<svg width="240" height="213" viewBox="0 0 240 213" fill="none" xmlns="http://www.w3.org/2000/svg">
<path d="M22.1781 87.6026C25.5031 87.8397 131.563 101.592 140.704 103.133C147.491 104.273 146.472 122.632 151.997 140.23C155.292 150.718 160.902 158.043 167.927 167.334C170.774 171.096 180.767 184.943 184.093 188.405C185.189 189.317 138.119 188.575 123.939 189.987C108.376 191.539 63.3302 192.615 58.7928 191.174C55.998 190.29 15.9364 116.16 17.0667 87.0063C18.734 87.3817 20.4511 87.5821 22.1781 87.6026Z" fill="#A9EAA9"/>
<path d="M211.2 127.469C200.795 118.259 173.97 93.9531 166.501 91.461C165.906 91.3619 165.542 92.153 165.193 93.1425C164.998 93.6692 164.13 100.766 156.396 102.149C155.62 102.323 154.809 102.356 154.018 102.247C155.344 103.378 167.6 110.402 167.689 114.414C167.724 115.132 167.926 115.838 168.283 116.492L170.781 116.393C173.907 111.015 185.821 124.697 203.829 135.782C205.85 137.068 207.99 138.156 209.892 139.544C212.632 141.441 212.269 141.866 212.865 144.095C215.031 143.579 216.918 142.461 218.214 140.929C222.482 135.995 214.766 130.634 211.2 127.469Z" fill="#20796F"/>
<path d="M165.193 93.1422C164.146 98.4133 160.209 101.453 156.277 102.243C156.277 102.243 100.003 60.7935 96.8364 58.0245C96.3693 57.6152 99.0367 57.1581 101.948 56.0454C108.024 53.7255 106.724 52.109 108.368 48.8247C108.843 48.0335 109.199 47.5388 109.675 48.2307C111.102 49.4186 112.633 50.6247 114.196 51.6929C117.843 54.2021 160.318 87.701 165.193 93.1422Z" fill="#20796F"/>
<path d="M201.809 30.7219C210.653 27.3464 212.158 30.9271 209.06 32.799C204.789 35.3811 195.882 37.4593 192.535 41.1096C190.171 43.6883 194.564 47.4423 193.487 50.4075C191.834 54.9606 181.146 56.9773 176.843 58.6155C174.714 59.4271 171.965 60.5968 170.306 59.011C168.755 57.529 170.68 55.8749 172.326 55.1521C176.657 53.2518 182.647 52.8596 186.235 49.7121C189.071 47.2246 185.526 44.37 185.284 41.8974C185.051 39.5227 187.761 37.7204 189.683 36.5553C192.46 34.8689 195.403 33.3797 198.48 32.1036C199.666 31.6123 200.744 31.1278 201.809 30.7219Z" fill="#20796F"/>
<path d="M167.452 13.4102C172.894 6.66822 176.494 9.15912 174.942 12.1243C172.813 16.1838 166.545 21.7231 165.907 26.2694C165.461 29.4386 171.576 30.9263 172.444 33.8868C173.814 38.5483 165.868 44.7442 163.172 47.9339C161.845 49.5048 160.195 51.7073 157.822 51.0997C155.559 50.5194 156.285 48.2349 157.228 46.9444C159.748 43.4936 164.711 40.6117 165.907 36.3595C166.852 32.9954 161.972 32.113 160.201 30.0291C158.525 28.0569 159.702 25.371 160.676 23.5003C162.024 20.8768 163.657 18.3611 165.553 15.9843C166.144 15.0917 166.735 14.2982 167.452 13.4102Z" fill="#20796F"/>
<path d="M83.0461 31.415C82.5707 33.5913 80.0745 35.5692 77.9346 36.659C77.09 36.9813 76.2154 37.2459 75.3193 37.4502V36.9554C71.4107 33.703 72.8272 34.7894 70.2064 32.4045C67.5286 30.0453 65.1023 27.4969 62.955 24.7882C62.5851 24.3003 61.0534 22.6119 61.648 22.018C62.0042 21.7216 62.8358 21.9188 63.1934 22.018C64.6665 22.4132 66.0979 22.9089 67.4733 23.5C72.8231 25.9153 78.0209 28.5571 83.0461 31.415Z" fill="#1C6740"/>
<path d="M212.864 144.285C205.018 145.868 195.546 137.124 189.92 133.206C187.913 131.807 178.884 125.175 176.487 123.313C173.656 121.116 169.711 119.356 168.283 116.587L170.781 116.489C173.966 111.009 186.773 125.622 203.829 135.878C213.055 141.424 212.037 140.959 212.864 144.285Z" fill="white"/>
<path d="M139.752 -9.34253C141.298 -8.05547 137.834 -6.20068 136.543 -5.48362C134.129 -4.14296 124.654 1.53994 122.039 3.12226V3.32062C121.207 3.41866 120.258 3.52696 119.78 3.61702C114.013 4.69546 114.816 5.05 114.549 4.60654C115.318 3.92334 116.153 3.29452 117.047 2.72668C119.452 1.12498 137.591 -11.1403 139.752 -9.34253Z" fill="white"/>
<path d="M110.627 9.94882C108.599 11.675 106.276 13.1418 103.732 14.3013C103.374 14.3994 101.592 15.1917 101.353 14.795C101.066 14.4347 103.408 11.1777 106.109 9.2557C106.987 8.74794 107.907 8.2908 108.861 7.8877C108.78 8.12151 108.763 8.36763 108.813 8.60749C108.862 8.84746 108.976 9.07501 109.145 9.27325C109.315 9.4715 109.537 9.6352 109.793 9.75217C110.05 9.86913 110.335 9.93628 110.627 9.94882Z" fill="white"/>
<path d="M83.0459 30.1285C83.0459 36.9286 73.5175 37.4336 73.6545 37.5476C74.7218 39.0308 98.6187 57.1385 98.6187 57.1385C108.072 54.5165 106.678 52.322 108.31 48.9465C89.3314 34.839 83.0459 30.0122 83.0459 30.1285Z" fill="white"/>
<path d="M75.914 182.965C76.2757 183.656 64.7388 183.954 64.3812 183.855C63.2715 183.67 60.3398 173.584 60.3398 173.469C63.1936 173.369 72.1094 172.083 72.704 172.578C73.7739 173.568 75.4455 182.072 75.914 182.965Z" fill="#20796F"/>
<path d="M67.8297 161.696C67.9434 161.895 68.5421 162.586 68.4243 162.783C68.4243 162.826 55.8203 164.105 55.3476 163.575C53.6831 162.093 50.9485 155.859 50.5923 155.167C50.2378 154.297 49.7584 153.467 49.1648 152.693C52.9693 152.397 62.9552 151.704 63.5498 152.1C63.906 152.298 64.2567 153.388 64.3814 153.683C67.0858 160.037 66.9967 160.244 67.8297 161.696Z" fill="#20796F"/>
<path d="M57.9626 140.13C56.4159 140.526 44.8846 140.921 44.5284 140.625C43.6886 140.042 41.9993 135.372 41.913 135.084C41.2911 133.637 40.5814 131.84 40.0115 129.941C43.5735 129.644 53.9197 129.05 54.3965 129.347C55.3022 131.308 56.0177 133.327 56.5364 135.382C56.7638 136.524 58.201 139.932 57.9626 140.13Z" fill="#20796F"/>
<path d="M47.0246 106.199C48.5658 107.291 51.0675 116.488 50.4729 117.18C49.8783 117.774 47.2643 117.509 44.5285 117.575C36.3276 117.774 36.4153 118.739 34.3041 113.223C33.4876 110.766 32.9699 108.247 32.7588 105.702C35.6125 105.606 46.1903 105.607 47.0246 106.199Z" fill="#20796F"/>
<path d="M135.591 5.89193C133.617 4.33127 132.735 2.68853 129.766 -1.42915C127.27 0.0528526 124.774 1.53485 122.158 3.12173C119.291 3.62367 116.486 4.34883 113.782 5.28773C128.06 -4.42046 125.645 -2.61589 126.557 -3.30559C124.535 -4.49228 120.85 -3.99871 118.829 -3.50395C116.452 -2.91001 113.718 -2.81083 111.578 -1.72327C108.838 -0.338168 106.584 9.25721 106.584 9.25721C107.284 8.77841 108.106 8.43869 108.987 8.26427C108.387 9.47951 109.71 10.143 110.938 10.143C110.75 11.055 110.645 11.3742 110.645 11.6136C110.525 12.4048 110.746 13.7089 111.934 13.9061C113.096 14.1341 114.041 13.0568 114.641 12.0901C114.485 15.5318 117.244 16.0254 119.325 12.9759C119.168 14.3439 119.784 15.8647 121.445 15.5888C121.691 15.5269 121.934 15.4507 122.168 15.3608C122.734 16.2746 123.595 17.0392 124.654 17.569C129.2 19.6973 130.989 18.3065 135.116 19.2505C136.314 19.7094 137.604 19.9799 138.92 20.0485C142.619 19.7065 143.913 13.123 144.151 10.6503V10.4519C141.304 8.95853 138.089 7.96901 135.591 5.89193Z" fill="#A9EAA9"/>
<path d="M157.822 188.999C144.984 189.097 130.718 189.295 123.941 189.987C108.368 191.469 63.1936 192.658 58.7945 191.174C55.9134 190.165 15.1929 114.252 17.3054 87.0063C11.3925 91.8331 11.2212 92.4989 11.598 97.6893C12.1939 106.296 13.0255 114.903 13.7379 123.509C16.2382 161.782 15.1792 163.087 17.1862 184.05C17.5972 187.505 19.481 204.465 21.9415 206.508C23.9622 207.99 151.284 203.64 154.731 202.849C156.871 202.354 159.713 199.579 159.367 197.507C159.022 195.434 158.407 191.694 157.822 188.999Z" fill="white"/>
<path fill-rule="evenodd" clip-rule="evenodd" d="M157.7 188.438C158.073 188.382 158.429 188.587 158.496 188.897C159.054 191.469 159.639 194.981 159.991 197.1L160.046 197.428C160.255 198.686 159.504 200.053 158.525 201.116C157.541 202.183 156.182 203.105 154.915 203.398H154.914C154.744 203.437 154.459 203.469 154.129 203.5C153.776 203.531 153.313 203.567 152.749 203.604C151.62 203.68 150.069 203.766 148.159 203.862C144.341 204.055 139.074 204.284 132.846 204.531C120.39 205.028 104.086 205.599 87.8269 206.1C71.5683 206.6 55.3517 207.03 43.0717 207.242C36.9327 207.348 31.7725 207.399 28.0812 207.379C26.237 207.368 24.7506 207.339 23.689 207.289C23.16 207.264 22.723 207.233 22.3947 207.194C22.2318 207.175 22.08 207.152 21.9506 207.124C21.8562 207.103 21.6516 207.055 21.4885 206.936C21.2046 206.727 21.1773 206.367 21.4275 206.131C21.6508 205.92 22.0196 205.88 22.2981 206.021C22.2998 206.021 22.3014 206.022 22.3032 206.022C22.3573 206.034 22.4484 206.05 22.5858 206.066C22.8582 206.098 23.2512 206.126 23.7666 206.151C24.7939 206.199 26.2533 206.228 28.0908 206.239C31.7626 206.259 36.9079 206.208 43.0433 206.102C55.3125 205.891 71.5207 205.461 87.7762 204.961C104.031 204.461 120.331 203.889 132.78 203.394C139.005 203.145 144.266 202.916 148.077 202.724C149.983 202.629 151.524 202.543 152.639 202.468C153.198 202.43 153.645 202.397 153.978 202.366C154.144 202.35 154.278 202.337 154.379 202.324C154.43 202.319 154.47 202.313 154.5 202.307C154.516 202.305 154.527 202.304 154.537 202.301L154.546 202.299H154.548C155.42 202.097 156.552 201.384 157.437 200.423C158.328 199.456 158.825 198.398 158.689 197.585L158.635 197.261C158.282 195.138 157.7 191.647 157.148 189.1C157.081 188.79 157.328 188.494 157.7 188.438ZM22.2647 206.012C22.265 206.012 22.2691 206.013 22.2762 206.016C22.268 206.013 22.2644 206.012 22.2647 206.012Z" fill="#1C6740"/>
<path d="M21.2277 194.02C20.4537 194.02 20.192 195.901 17.8452 163.779C17.6109 160.564 16.9684 151.39 16.8629 150.688C16.8495 150.612 16.8543 150.536 16.8769 150.462C16.8995 150.389 16.9396 150.319 16.9948 150.259C17.0501 150.199 17.1192 150.147 17.1983 150.11C17.2775 150.072 17.3649 150.047 17.4556 150.038C17.5461 150.029 17.6381 150.034 17.726 150.055C17.814 150.076 17.896 150.111 17.9674 150.158C18.0388 150.205 18.0981 150.264 18.1418 150.331C18.1855 150.397 18.2128 150.471 18.2219 150.546C18.5809 152.932 20.7441 188.769 21.8977 193.333C21.9188 193.416 21.9172 193.502 21.8933 193.584C21.8693 193.667 21.8237 193.743 21.7594 193.809C21.6953 193.875 21.6142 193.928 21.5223 193.964C21.4304 194.001 21.3297 194.02 21.2277 194.02Z" fill="#1C6740"/>
<path d="M152.355 197.132C148.728 197.132 26.5885 201.087 26.5885 201.087C26.6159 198.991 25.7665 193.574 24.6705 186.817C19.3906 154.248 19.6098 116.339 19.0604 110.603C19.0531 110.528 19.0283 110.455 18.9872 110.388C18.9461 110.322 18.8897 110.261 18.8209 110.213C18.7523 110.164 18.6727 110.128 18.5869 110.104C18.501 110.081 18.4105 110.072 18.3206 110.079C18.1389 110.09 17.9704 110.162 17.8522 110.277C17.7341 110.394 17.6759 110.543 17.6904 110.695C18.5795 119.929 17.4958 142.674 22.3292 180.65C22.8772 184.813 25.2761 197.984 25.2062 201.102C23.8198 202.248 22.6195 203.541 21.636 204.947C17.9534 195.44 16.4697 165.427 15.9724 155.463C14.5353 126.685 14.1366 123.851 12.0159 97.2614C11.7706 94.1834 11.6638 92.4734 14.0585 90.3074C14.997 89.6382 16.6903 88.1516 17.5548 87.3992C17.6207 87.3459 17.6729 87.2819 17.7085 87.2114C17.7441 87.1408 17.7622 87.065 17.7618 86.9884C17.7614 86.9119 17.7425 86.8362 17.7061 86.7658C17.6698 86.6955 17.6168 86.632 17.5504 86.5791C17.4839 86.5262 17.4054 86.4849 17.3194 86.4578C17.2334 86.4307 17.1417 86.4184 17.0498 86.4213C16.9579 86.4244 16.8676 86.4428 16.7844 86.4755C16.7013 86.5081 16.6269 86.5544 16.5656 86.6115C15.7053 87.3616 14.038 88.8197 13.1077 89.4888C10.2595 92.0652 10.3965 94.1628 10.6417 97.3309C12.4912 120.542 13.4557 131.183 14.349 150.737C14.8696 162.155 15.4532 173.433 16.6081 184.293C16.8821 187.24 19.0535 205.053 21.0784 206.711C21.6648 207.689 22.9512 206.903 22.3621 206.255C23.2436 204.724 24.4593 203.342 25.9474 202.182C27.8243 202.823 145.972 198.268 152.341 198.268C152.523 198.268 152.697 198.208 152.826 198.101C152.953 197.993 153.026 197.849 153.026 197.698C153.026 197.547 152.953 197.402 152.826 197.295C152.697 197.187 152.523 197.128 152.341 197.128L152.355 197.132Z" fill="#1C6740"/>
<path d="M26.9952 205.096C26.9054 205.091 26.8177 205.069 26.7375 205.035C26.6574 205.001 26.5861 204.953 26.5279 204.896C26.4697 204.839 26.4257 204.772 26.3983 204.7C26.3709 204.629 26.3608 204.554 26.3685 204.479C26.3761 204.403 26.4015 204.33 26.4428 204.264C26.4844 204.197 26.5412 204.138 26.6103 204.09C26.6793 204.041 26.759 204.004 26.8451 203.981C26.9311 203.959 27.0218 203.951 27.1117 203.956C31.1628 204.244 55.6392 203.455 63.1824 203.361C63.363 203.362 63.5361 203.422 63.6659 203.526C63.7955 203.63 63.8717 203.773 63.8784 203.922C63.8799 203.997 63.8636 204.072 63.8303 204.142C63.7971 204.212 63.7478 204.274 63.6851 204.329C63.6223 204.383 63.5474 204.426 63.4648 204.456C63.382 204.485 63.2931 204.5 63.203 204.501C58.2312 204.567 30.6381 205.359 26.9952 205.096Z" fill="#1C6740"/>
<path d="M66.165 204.507C65.9833 204.507 65.8091 204.447 65.6807 204.34C65.5522 204.232 65.48 204.088 65.48 203.937C65.48 203.786 65.5522 203.641 65.6807 203.534C65.8091 203.426 65.9833 203.367 66.165 203.367C66.302 203.367 88.7303 202.214 112.855 201.29C113.036 201.283 113.214 201.337 113.348 201.438C113.482 201.541 113.562 201.682 113.57 201.834C113.579 201.986 113.514 202.133 113.392 202.244C113.269 202.356 113.098 202.423 112.916 202.43C102.788 202.817 66.2143 204.507 66.165 204.507Z" fill="#1C6740"/>
<path d="M33.6495 113.288C31.5397 105.409 31.8219 105.294 32.3863 105.064C32.5426 105.005 32.7195 104.996 32.8836 105.038C46.4165 105.038 47.0714 105.429 47.4234 105.637C48.8455 106.811 52.0198 116.426 50.9991 117.447C50.3484 118.097 48.9017 118.103 46.1904 118.065C36.4662 117.913 35.9839 119.803 33.6495 113.288ZM33.3755 106.178C33.5495 107.347 34.2632 110.319 34.9811 113.001C36.4881 117.203 36.4881 117.204 40.9475 117.016C46.4768 116.788 49.1017 117.105 49.8853 116.756C50.0552 115.405 47.7906 107.772 46.6179 106.569C46.1233 106.44 43.8258 106.187 33.3686 106.178H33.3755Z" fill="#1C6740"/>
<path d="M43.9256 141.027C43.2386 140.31 42.7553 139.472 42.5118 138.577C41.1199 135.13 40.1732 133.234 39.2238 130.079C39.1998 130 39.1967 129.917 39.2145 129.837C39.2323 129.756 39.2707 129.68 39.3268 129.613C39.3831 129.546 39.456 129.49 39.5405 129.449C39.6251 129.407 39.7193 129.382 39.817 129.373C39.954 129.362 53.6252 128.305 54.5651 128.891C55.1953 129.404 55.8953 132.071 56.9543 135.229C57.3023 136.386 57.8763 137.542 58.2449 138.733C58.4955 139.162 58.6131 139.635 58.5874 140.111C58.5708 140.222 58.522 140.328 58.4452 140.421C58.3683 140.513 58.2657 140.588 58.1462 140.64C57.3092 140.863 44.7613 141.726 43.9256 141.027ZM44.7696 140.115C48.9171 140.185 53.0657 140.032 57.19 139.659C57.19 139.64 56.3899 137.555 56.3022 137.338C55.4679 135.252 54.2472 130.967 53.6992 129.843C52.1922 129.743 44.775 130.123 40.7486 130.435C41.013 131.246 41.8186 133.553 42.4282 134.873C42.7885 135.671 43.0475 136.514 43.3872 137.253C43.7669 138.234 44.2288 139.192 44.7696 140.119V140.115Z" fill="#1C6740"/>
<path d="M54.7997 163.916C53.5133 162.695 51.7021 159.063 50.2787 156.039C49.8596 154.973 49.2931 153.952 48.5909 152.995C48.5288 152.913 48.4932 152.818 48.4874 152.722C48.4816 152.625 48.5057 152.528 48.5575 152.44C48.6092 152.353 48.6869 152.278 48.7831 152.223C48.8794 152.169 48.9911 152.134 49.1074 152.125C55.3861 151.636 63.0279 151.131 63.791 151.512C64.2431 151.763 64.5089 152.31 64.8569 153.237C65.0925 153.865 65.1007 153.52 66.1419 156.267C66.8013 158.032 67.5752 159.764 68.46 161.46C68.634 161.734 69.2409 162.365 69.1149 162.869C69.0998 163.256 68.871 163.553 65.4597 163.553C62.9389 163.857 60.3838 164.146 57.8836 164.245C57.2054 164.246 55.4464 164.64 54.7997 163.916ZM50.2979 153.179C51.2843 154.701 53.9859 161.415 55.8628 163.199C56.3204 163.223 56.7799 163.205 57.2328 163.146C59.9512 163.018 62.6601 162.775 65.3487 162.417C65.6227 162.417 66.7187 162.369 67.4736 162.322C66.2104 160.59 64.4267 155.331 63.6294 153.811C63.4789 153.367 63.2874 152.934 63.0567 152.514C61.9196 152.409 55.882 152.758 50.2979 153.179Z" fill="#1C6740"/>
<path d="M76.5632 182.881C76.1686 181.897 74.4727 173.437 73.2301 172.409C72.7109 171.891 71.3121 171.922 64.9361 172.583C63.0633 172.778 61.2947 172.961 60.3124 172.995C60.1354 173.001 59.9681 173.064 59.8456 173.17C59.723 173.276 59.6545 173.417 59.6548 173.565C59.6548 173.848 60.8233 177.441 60.9931 177.783C61.7165 179.743 62.5304 184.49 64.3635 184.49C65.8787 184.49 75.5521 184.332 76.4193 183.504C76.4989 183.416 76.5532 183.314 76.5781 183.206C76.6031 183.098 76.598 182.987 76.5632 182.881ZM64.5798 183.412C63.7879 182.978 62.6714 178.439 62.2837 177.408C62.1193 177.066 61.5002 175.11 61.1878 174.088C64.1881 173.871 71.0518 172.978 72.256 173.22C73.078 174.17 74.6972 181.321 75.1178 182.779C71.6253 183.168 68.1075 183.38 64.584 183.414L64.5798 183.412Z" fill="#1C6740"/>
<path d="M127.03 125.558C113.075 123.47 65.9281 118.288 57.4067 117.45C57.2284 117.43 57.0668 117.352 56.9566 117.235C56.8465 117.116 56.7965 116.967 56.8174 116.817C56.8385 116.669 56.9288 116.534 57.0691 116.44C57.2092 116.347 57.388 116.302 57.567 116.318C68.3899 117.399 113.441 122.367 127.272 124.435C127.452 124.461 127.611 124.546 127.714 124.67C127.818 124.794 127.859 124.948 127.826 125.097C127.794 125.245 127.692 125.378 127.542 125.464C127.393 125.551 127.209 125.584 127.03 125.558Z" fill="#1C6740"/>
<path d="M129.886 142.482C60.4016 139.281 67.5995 139.517 64.7006 139.806C64.6112 139.816 64.5206 139.81 64.4339 139.789C64.3472 139.769 64.2662 139.735 64.1955 139.689C64.1247 139.642 64.0656 139.585 64.0217 139.519C63.9777 139.454 63.9495 139.382 63.9389 139.308C63.9282 139.233 63.9353 139.158 63.9597 139.086C63.9841 139.014 64.0255 138.946 64.0811 138.888C64.1369 138.828 64.2059 138.779 64.2846 138.743C64.3631 138.706 64.4495 138.682 64.539 138.674C65.1596 138.614 66.6268 138.473 66.8789 138.473C67.6393 138.473 122.373 141.034 129.919 141.342C130.102 141.345 130.274 141.408 130.399 141.518C130.525 141.627 130.592 141.774 130.588 141.925C130.584 142.076 130.507 142.22 130.376 142.325C130.244 142.428 130.069 142.485 129.886 142.482Z" fill="#1C6740"/>
<path d="M75.7935 162.068C75.6118 162.07 75.4365 162.012 75.306 161.906C75.1756 161.801 75.101 161.658 75.0982 161.506C75.0955 161.355 75.1651 161.209 75.2915 161.1C75.4181 160.992 75.5913 160.93 75.7729 160.928C79.9076 160.814 133.374 158.752 139.752 158.752C139.934 158.752 140.108 158.811 140.237 158.918C140.364 159.026 140.437 159.17 140.437 159.322C140.437 159.472 140.364 159.617 140.237 159.724C140.108 159.832 139.934 159.892 139.752 159.892C131.089 159.892 102.084 161.613 75.7935 162.068Z" fill="#1C6740"/>
<path d="M84.9766 182.568C84.9766 181.794 84.9766 181.794 124.224 179.983C137.434 179.374 149.908 178.798 156.111 178.438C156.293 178.428 156.471 178.478 156.61 178.577C156.747 178.677 156.83 178.817 156.843 178.969C156.856 179.12 156.796 179.269 156.676 179.384C156.556 179.498 156.388 179.568 156.206 179.578C141.804 180.413 88.7413 182.63 85.9534 183.086C85.8487 183.127 85.7334 183.145 85.618 183.139C85.5026 183.133 85.3911 183.103 85.2936 183.051C85.196 182.999 85.1159 182.928 85.0604 182.844C85.0051 182.76 84.9762 182.665 84.9766 182.568Z" fill="#1C6740"/>
<path d="M160.369 103.91C161.999 103.122 163.498 102.161 164.828 101.05C169.95 97.0525 168.44 94.8318 168.675 93.457C168.688 93.3829 168.718 93.3115 168.764 93.2471C168.81 93.1827 168.871 93.1265 168.943 93.0816C169.015 93.0368 169.096 93.004 169.184 92.9856C169.271 92.967 169.362 92.9629 169.451 92.9736C169.54 92.9842 169.625 93.0093 169.703 93.0475C169.78 93.0857 169.848 93.1362 169.902 93.196C169.956 93.256 169.995 93.3242 170.017 93.3967C170.04 93.4692 170.044 93.5447 170.032 93.6188C169.845 94.6904 171.358 97.5165 165.785 101.868C164.359 103.062 162.745 104.091 160.99 104.929C160.827 104.998 160.639 105.009 160.466 104.962C160.292 104.914 160.149 104.813 160.066 104.677C159.984 104.543 159.97 104.385 160.027 104.242C160.084 104.097 160.206 103.978 160.369 103.91Z" fill="#1C6740"/>
<path d="M211.607 141.907C210.567 140.445 207.441 138.63 205.772 137.652C187.127 126.722 174.064 112.045 171.398 116.637C171.318 116.773 171.177 116.878 171.006 116.927C170.835 116.977 170.645 116.968 170.482 116.902C170.318 116.836 170.193 116.718 170.133 116.576C170.074 116.433 170.085 116.276 170.165 116.14C170.348 115.785 170.629 115.47 170.987 115.223C171.344 114.975 171.766 114.801 172.22 114.715C177.874 113.742 188.035 125.858 206.555 136.717C208.473 137.839 211.593 139.66 212.778 141.323C212.844 141.387 212.894 141.462 212.921 141.543C212.948 141.624 212.955 141.708 212.939 141.791C212.924 141.875 212.885 141.954 212.829 142.024C212.772 142.093 212.698 142.153 212.611 142.196C212.524 142.239 212.426 142.266 212.326 142.275C212.225 142.284 212.124 142.274 212.028 142.246C211.932 142.219 211.845 142.173 211.771 142.115C211.699 142.057 211.643 141.985 211.607 141.907Z" fill="#1C6740"/>
<path d="M98.501 57.5054C98.0996 57.5054 99.7819 58.7047 73.1861 38.0627C73.1074 38.002 73.0469 37.9267 73.0097 37.8429C72.9724 37.7591 72.9593 37.6693 72.9715 37.5805C72.9837 37.4918 73.0206 37.4066 73.0795 37.332C73.1385 37.2573 73.2176 37.1953 73.3108 37.1507C73.6547 36.9854 82.361 36.1145 82.361 30.2241C82.361 29.7977 82.7186 29.4067 83.7187 30.028C85.4024 31.0745 90.5605 34.9505 108.469 48.3991C108.538 48.4487 108.595 48.5093 108.635 48.5774C108.676 48.6455 108.7 48.7196 108.706 48.7954C108.711 48.8712 108.699 48.9471 108.669 49.0188C108.638 49.0906 108.591 49.1565 108.53 49.2129C108.469 49.2693 108.395 49.315 108.312 49.3471C108.23 49.3794 108.14 49.3975 108.049 49.4005C107.958 49.4034 107.867 49.3912 107.781 49.3646C107.696 49.3379 107.618 49.2972 107.551 49.245C106.104 48.1586 88.0972 34.6644 83.631 31.3914C82.8789 35.6311 78.0674 37.3194 75.0685 37.9624L98.9709 56.5193C99.0713 56.5976 99.1411 56.6992 99.1711 56.8108C99.2012 56.9225 99.1901 57.0392 99.1394 57.1455C99.0887 57.252 99.0008 57.3432 98.8868 57.4074C98.7729 57.4716 98.6385 57.5058 98.501 57.5054Z" fill="#1C6740"/>
<path d="M210.682 145.146C202.969 145.146 194.581 137.523 189.238 133.746C185.75 131.352 175.746 123.68 172.854 121.798C170.691 120.388 168.453 118.93 167.416 116.918C167 116.199 166.778 115.414 166.767 114.616C166.767 111.386 155.151 104.196 154.848 103.94C152.89 102.726 152.986 102.485 153.108 102.18C153.177 102.034 153.307 101.914 153.474 101.842C153.642 101.769 153.834 101.751 154.018 101.787C154.697 101.841 155.384 101.807 156.051 101.688C159.32 101.031 162.216 98.4097 163.516 96.2589C164.23 95.2557 164.246 90.144 166.642 90.9397C166.797 90.9917 166.925 91.0891 167 91.2136C167.074 91.338 167.092 91.481 167.048 91.6155C167.005 91.7499 166.904 91.8666 166.766 91.9436C166.626 92.0204 166.457 92.0522 166.292 92.033C165.568 92.8971 165.341 95.9409 164.716 96.8073C163.072 99.5497 159.346 102.526 155.477 102.909C158.885 105.147 168.142 111.061 168.142 114.616C168.142 118.2 173.592 120.507 176.728 123.009C185.7 129.764 189.891 132.648 193.187 135.152C198.706 139.345 206.257 145.096 212.472 143.838C214.481 143.371 216.232 142.333 217.417 140.903C217.468 140.842 217.534 140.789 217.609 140.748C217.684 140.708 217.769 140.68 217.857 140.666C217.946 140.652 218.036 140.653 218.124 140.669C218.213 140.684 218.295 140.715 218.371 140.757C218.445 140.799 218.508 140.854 218.557 140.917C218.605 140.98 218.639 141.049 218.656 141.123C218.672 141.197 218.671 141.273 218.652 141.345C218.632 141.418 218.597 141.488 218.546 141.55C217.675 142.627 216.506 143.516 215.138 144.142C213.77 144.767 212.243 145.112 210.682 145.146Z" fill="#1C6740"/>
<path d="M140.264 -9.91847C138.953 -11.1462 136.397 -9.50693 134.865 -8.73401C128.497 -5.51921 114.47 3.43659 114.029 4.40331C112.03 5.07363 109.606 6.02667 108.513 7.56453C107.424 7.86366 106.411 8.32742 105.525 8.93253C103.889 10.183 102.49 11.6333 101.378 13.2337C100.856 13.855 100.2 14.6268 100.622 15.1455C101.137 16.0039 102.845 15.353 103.883 14.9175C106.047 14.0352 108.02 12.8598 109.721 11.4394C109.456 12.731 109.754 14.2894 111.305 14.5527C111.836 14.6274 112.381 14.5548 112.856 14.346C113.332 14.1373 113.712 13.8042 113.938 13.3979C114.486 15.9355 117.188 16.1863 118.662 14.4547C118.735 14.9197 119.003 15.3482 119.42 15.6638C119.836 15.9794 120.375 16.1618 120.938 16.1784C121.591 16.1189 122.223 15.9477 122.793 15.6756C123.363 15.4035 123.859 15.0364 124.25 14.5972C124.771 15.3448 125.564 15.9353 126.514 16.2837C127.464 16.632 128.523 16.7201 129.537 16.5352C129.711 16.5029 129.862 16.4158 129.961 16.2921C130.058 16.1686 130.093 16.0182 130.061 15.8728C130.028 15.7275 129.928 15.5986 129.782 15.5133C129.637 15.428 129.458 15.393 129.282 15.4157C126.711 15.8227 125.644 14.4148 124.197 12.4517C122.63 10.3267 120.982 8.03079 114.964 9.29163C111.346 10.0497 108.993 9.28593 109.575 8.31579C111.209 5.61057 120.214 3.78657 123.822 3.78657C124.004 3.78657 124.178 3.72661 124.307 3.61967C124.434 3.51274 124.507 3.36773 124.507 3.21657C124.507 3.06541 124.434 2.92051 124.307 2.81358C124.178 2.70665 124.004 2.64657 123.822 2.64657H123.657C125.76 1.38003 135.935 -4.66421 136.911 -5.20685C138.613 -6.15419 140.645 -7.33979 140.816 -8.63939C140.848 -8.87353 140.815 -9.11063 140.719 -9.33239C140.623 -9.55416 140.468 -9.75466 140.264 -9.91847ZM123.423 13.5837C122.931 14.2872 122.131 14.8048 121.191 15.0281C120.11 15.2082 119.872 14.1161 119.872 13.2144C119.872 13.1608 120.146 10.8739 120.191 10.4784C121.713 11.062 122.458 12.3138 123.423 13.5837ZM118.798 10.1535L118.747 10.6528C118.511 11.9216 117.84 14.5778 116.311 14.4285C115.241 14.3236 115.132 12.7036 115.234 11.7301C115.234 11.542 115.385 10.7622 115.443 10.3769C116.537 10.1453 117.672 10.0697 118.798 10.1535ZM113.901 10.6471C113.196 12.5554 112.346 13.5872 111.593 13.4447C110.848 13.3204 111.045 11.8657 111.072 11.6537C111.189 11.3409 111.327 11.0334 111.483 10.7326C112.292 10.7748 113.103 10.7462 113.904 10.6471H113.901ZM102.163 14.3042C103.313 12.6144 104.767 11.0812 106.475 9.75789C106.97 9.39867 107.537 9.11402 108.15 8.91657C108.231 9.18584 108.377 9.43812 108.581 9.65791C108.784 9.87759 109.04 10.06 109.332 10.1934C107.315 11.9665 104.873 13.367 102.163 14.3042ZM121.157 2.75373C121.109 2.78314 121.065 2.81768 121.028 2.85633C119.701 3.03497 118.387 3.27175 117.089 3.56541C122.952 -0.53688 129.126 -4.31973 135.575 -7.75931C136.22 -8.08421 138.763 -9.58331 139.274 -9.13757C140.429 -8.12183 136.847 -6.76295 121.157 2.75373Z" fill="#1C6740"/>
</svg>
