<svg width="316" height="237" viewBox="0 0 316 237" fill="none" xmlns="http://www.w3.org/2000/svg">
<g clip-path="url(#clip0_53_985)">
<path d="M262.196 115.35C262.025 115.354 261.856 115.318 261.711 115.247C261.566 115.176 261.452 115.073 261.383 114.952C259.544 111.864 258.313 108.581 257.731 105.211C257.714 105.121 257.721 105.029 257.751 104.941C257.78 104.853 257.832 104.77 257.903 104.697C257.974 104.624 258.063 104.563 258.164 104.517C258.266 104.471 258.378 104.44 258.495 104.428C258.729 104.405 258.966 104.455 259.155 104.565C259.344 104.675 259.47 104.838 259.507 105.019C260.054 108.257 261.235 111.411 263.01 114.373C263.07 114.479 263.096 114.594 263.085 114.709C263.073 114.824 263.025 114.935 262.944 115.032C262.864 115.129 262.753 115.209 262.622 115.264C262.492 115.32 262.345 115.349 262.196 115.35Z" fill="#EFAC54"/>
<path d="M190.85 36.5152C185.08 33.4028 178.924 30.7426 172.473 28.5739C172.364 28.5389 172.265 28.4873 172.182 28.4221C172.099 28.3568 172.034 28.2793 171.991 28.1941C171.947 28.109 171.926 28.0179 171.93 27.9264C171.933 27.8349 171.96 27.7448 172.009 27.6615C172.103 27.4961 172.278 27.3659 172.495 27.2987C172.712 27.2314 172.955 27.2325 173.171 27.3017C179.739 29.4992 186.001 32.2073 191.862 35.3844C191.976 35.4295 192.075 35.493 192.155 35.5704C192.234 35.6478 192.291 35.7374 192.322 35.8332C192.353 35.9291 192.357 36.0289 192.334 36.1261C192.311 36.2233 192.262 36.3155 192.189 36.3967C192.116 36.4779 192.022 36.5461 191.912 36.5968C191.803 36.6476 191.681 36.6796 191.554 36.6908C191.427 36.702 191.299 36.6922 191.177 36.6619C191.056 36.6316 190.944 36.5816 190.85 36.5152Z" fill="#EFAC54"/>
<path d="M241.164 30.0903C234.995 30.0935 228.902 31.1422 223.312 33.1626C217.722 35.1831 212.771 38.1263 208.808 41.7856C204.844 45.445 201.963 49.7317 200.367 54.3447C198.772 58.9578 198.5 63.7853 199.571 68.4883C200.643 73.1913 203.031 77.6556 206.569 81.5679C210.107 85.4802 214.708 88.7455 220.05 91.1345C225.392 93.5235 231.344 94.9783 237.49 95.3967C243.635 95.8151 249.825 95.187 255.623 93.5565C253.404 96.0411 250.516 98.1236 247.157 99.6602C245.143 100.408 243.201 101.267 241.347 102.23C240.419 102.714 239.65 103.358 239.099 104.112C238.549 104.866 238.233 105.709 238.176 106.574C238.276 109.747 243.156 111.521 247.24 111.572C256.436 111.649 264.786 106.792 269.534 100.701C273.385 95.741 276.954 87.6712 276.489 80.8093C294.716 59.3626 275.145 30.0903 241.164 30.0903Z" fill="#FFE7AB"/>
<path d="M241.164 29.4092C234.999 29.4293 228.91 30.4718 223.309 32.4665C217.707 34.4612 212.723 37.3618 208.691 40.9731C204.659 44.5843 201.674 48.8223 199.936 53.4017C198.198 57.9811 197.748 62.7956 198.616 67.5211C199.483 72.2465 201.649 76.7732 204.967 80.7962C208.285 84.8193 212.677 88.2454 217.849 90.8438C223.021 93.4423 228.853 95.1527 234.95 95.86C241.048 96.5673 247.271 96.255 253.199 94.9442C251.359 96.5813 249.19 97.9784 246.775 99.0819C244.728 99.8356 242.748 100.694 240.849 101.652C239.798 102.202 238.928 102.935 238.309 103.791C237.689 104.648 237.337 105.605 237.28 106.586C237.38 110.069 242.409 112.215 247.24 112.266C256.968 112.266 265.351 107.422 270.314 101.048C273.8 96.5633 277.867 88.3007 277.436 80.9634C295.762 59.0156 275.543 29.4092 241.164 29.4092ZM275.211 75.6692C274.987 75.728 274.801 75.8521 274.692 76.0151C274.584 76.1782 274.562 76.3674 274.63 76.543C277.485 83.4306 273.734 93.9419 268.77 100.341C264.753 105.481 257.051 110.981 247.19 110.878C243.322 110.878 239.106 109.169 239.023 106.599C239.061 105.833 239.331 105.085 239.813 104.415C240.295 103.745 240.974 103.172 241.795 102.744C243.645 101.789 245.575 100.93 247.572 100.174C253.006 97.6968 257.193 93.8654 259.449 89.3066C261.704 84.7479 261.895 79.7315 259.989 75.0781C259.884 74.9434 259.723 74.8403 259.533 74.7857C259.342 74.7311 259.133 74.7282 258.94 74.7775C258.747 74.8267 258.582 74.9253 258.471 75.057C258.36 75.1886 258.31 75.3456 258.329 75.5021C259.514 78.3991 259.839 81.4656 259.282 84.4734C258.724 87.4813 257.298 90.3531 255.108 92.8753C245.972 95.4079 235.975 95.3731 226.868 92.7772C217.761 90.1812 210.123 85.1893 205.29 78.6746C200.457 72.1599 198.737 64.5373 200.43 57.14C202.124 49.7428 207.123 43.0419 214.554 38.2095C221.984 33.3771 231.373 30.7209 241.078 30.7054C250.783 30.69 260.186 33.3164 267.642 38.1251C275.098 42.9338 280.133 49.6188 281.866 57.0106C283.598 64.4024 281.919 72.0304 277.12 78.5604C276.947 77.6893 276.686 76.83 276.34 75.9904C276.291 75.9065 276.222 75.8308 276.136 75.7678C276.049 75.7048 275.947 75.6557 275.836 75.6235C275.725 75.5912 275.606 75.5763 275.488 75.5798C275.369 75.5832 275.252 75.6049 275.145 75.6435L275.211 75.6692Z" fill="#EFAC54"/>
<path d="M205.607 63.3205C201.406 60.3162 196.251 58.2279 190.667 57.2681C198.967 39.7279 182.799 25.0146 174.283 30.8228C173.476 31.5395 172.905 32.3958 172.616 33.3195C172.327 34.2431 172.329 35.2071 172.623 36.1299C173.253 37.9532 174.035 39.7431 174.963 41.4883C176.11 44.0277 176.495 46.7356 176.089 49.4072C175.684 52.0787 174.498 54.6438 172.623 56.9083C176.773 48.6458 169.651 38.263 158.646 35.0633C147.026 31.6966 133.331 35.6416 125.014 42.7733C126.359 36.6567 121.694 30.2317 115.054 26.955C108.414 23.6782 99.7156 23.1 91.814 24.1922C84.4944 25.0071 77.7842 27.8023 72.8734 32.0821C70.3956 34.2182 68.7316 36.8444 68.0663 39.6687C67.4011 42.493 67.7607 45.4048 69.1052 48.0804C60.2408 43.7242 48.0066 42.6962 39.4078 47.2965C30.809 51.8968 28.236 62.8322 35.8388 68.3705C28.6676 68.499 21.264 69.7712 15.6034 73.2021C9.94275 76.6331 6.45676 82.5312 8.44876 87.9154C10.7396 94.032 21.181 99.0563 28.9 100.239C37.615 101.524 46.7284 99.339 54.2482 95.6639C52.14 101.01 48.903 107.781 55.9082 112.086C58.4046 113.371 61.3267 114.072 64.3244 114.104C70.3379 114.315 76.3253 113.369 81.7512 111.351C87.177 109.333 91.872 106.305 95.4162 102.539C95.0344 108.064 100.263 113.397 107.036 115.17C110.449 116.033 114.071 116.284 117.628 115.906C121.185 115.528 124.584 114.529 127.57 112.986C133.548 109.888 138.377 105.635 141.581 100.65C145.133 106.034 153.865 108.18 161.501 108.36C169.137 108.54 177.404 106.959 182.417 102.397C187.43 97.8356 187.214 89.8172 180.624 86.7589C186.336 87.0928 192.08 86.7461 197.656 85.7309C203.15 84.4459 208.363 81.7088 210.421 77.5454C212.762 72.6624 210.404 66.9699 205.607 63.3205Z" fill="white"/>
<path d="M102.09 75.9005C103.365 78.1372 105.579 79.9752 108.372 81.1169C111.165 82.2585 114.375 82.6369 117.48 82.1909C120.586 81.7449 123.406 80.5005 125.485 78.6592C127.563 76.818 128.777 74.4876 128.932 72.0455C128.932 71.8614 128.837 71.6849 128.669 71.5548C128.501 71.4247 128.273 71.3516 128.035 71.3516C127.798 71.3516 127.57 71.4247 127.402 71.5548C127.233 71.6849 127.139 71.8614 127.139 72.0455C126.969 74.1755 125.876 76.1988 124.036 77.7883C122.197 79.3778 119.718 80.4405 117.002 80.8046C114.285 81.1687 111.489 80.8129 109.067 79.7947C106.644 78.7765 104.735 77.1555 103.65 75.1937C103.169 74.397 101.625 75.0652 102.09 75.9005Z" fill="#5E503B"/>
<path d="M253.282 19.6432C253.159 19.6435 253.036 19.624 252.923 19.5859C252.81 19.5479 252.708 19.4921 252.624 19.4222C252.539 19.3522 252.475 19.2695 252.434 19.1793C252.393 19.0891 252.377 18.9933 252.386 18.8979C253.105 11.4904 254.61 4.14112 256.884 -3.07559C256.947 -3.25031 257.094 -3.39976 257.295 -3.49303C257.495 -3.58631 257.735 -3.61627 257.963 -3.57674C258.194 -3.53404 258.394 -3.42209 258.519 -3.26548C258.643 -3.10886 258.682 -2.9204 258.627 -2.74149C256.368 4.39784 254.88 11.6703 254.179 19.0007C254.162 19.1757 254.06 19.3393 253.894 19.4585C253.727 19.5777 253.509 19.6437 253.282 19.6432Z" fill="#EFAC54"/>
<path d="M272.405 23.3567C272.264 23.3562 272.124 23.3297 271.999 23.2795C271.873 23.2292 271.764 23.1566 271.682 23.0676C271.599 22.9786 271.545 22.8757 271.523 22.7674C271.502 22.6591 271.514 22.5483 271.559 22.4443C273.014 19.1209 275.144 15.9979 277.867 13.1923C277.936 13.1189 278.023 13.0569 278.123 13.0099C278.223 12.963 278.335 12.932 278.451 12.9188C278.567 12.9057 278.685 12.9106 278.799 12.9333C278.912 12.956 279.019 12.996 279.112 13.051C279.207 13.1055 279.288 13.1741 279.348 13.2529C279.409 13.3316 279.449 13.4189 279.466 13.5098C279.483 13.6006 279.477 13.6931 279.447 13.782C279.418 13.8709 279.366 13.9544 279.294 14.0276C276.692 16.7147 274.653 19.7026 273.252 22.8812C273.198 23.0213 273.085 23.1436 272.932 23.2295C272.779 23.3154 272.594 23.3601 272.405 23.3567Z" fill="#EFAC54"/>
<path d="M286.848 35.0503C286.644 35.069 286.438 35.0329 286.264 34.9481C286.091 34.8633 285.96 34.735 285.894 34.5846C285.828 34.4342 285.83 34.2707 285.901 34.1216C285.972 33.9725 286.107 33.8467 286.283 33.7653C294.491 28.5311 303.285 23.8738 312.561 19.8488C312.765 19.7816 312.994 19.7754 313.204 19.8313C313.413 19.8872 313.589 20.0013 313.696 20.1515C313.804 20.3017 313.835 20.4773 313.785 20.6445C313.735 20.8117 313.606 20.9585 313.424 21.0567C304.245 25.0451 295.541 29.6549 287.412 34.8319C287.268 34.9594 287.066 35.0379 286.848 35.0503Z" fill="#EFAC54"/>
<path d="M298.55 48.9157C298.36 48.9071 298.178 48.8516 298.03 48.7573C297.883 48.6629 297.779 48.5347 297.733 48.3913C297.687 48.2478 297.701 48.0967 297.773 47.9599C297.845 47.8231 297.972 47.7077 298.135 47.6307C301.246 46.3959 304.533 45.4471 307.929 44.8037C308.121 44.8098 308.306 44.8635 308.455 44.9569C308.605 45.0503 308.712 45.1784 308.76 45.3224C308.809 45.4664 308.796 45.6186 308.724 45.7566C308.652 45.8946 308.525 46.011 308.361 46.0887C304.989 46.8036 301.706 47.7497 298.55 48.9157Z" fill="#EFAC54"/>
<path d="M323.284 70.1824C315.109 68.4924 306.787 67.2557 298.384 66.4816C298.261 66.4784 298.139 66.4555 298.028 66.4142C297.916 66.373 297.817 66.3143 297.736 66.2419C297.655 66.1695 297.595 66.085 297.558 65.9936C297.522 65.9022 297.51 65.8059 297.524 65.7108C297.537 65.6157 297.576 65.5239 297.638 65.441C297.7 65.3582 297.783 65.2861 297.883 65.2294C297.983 65.1726 298.096 65.1324 298.217 65.1113C298.337 65.0902 298.462 65.0886 298.584 65.1067C306.992 65.8585 315.316 67.0999 323.484 68.8203C323.689 68.8643 323.868 68.9637 323.988 69.1007C324.107 69.2376 324.16 69.4031 324.136 69.5673C324.112 69.7315 324.013 69.8837 323.857 69.9965C323.701 70.1092 323.498 70.1752 323.284 70.1824Z" fill="#EFAC54"/>
<path d="M302.684 84.5227C299.209 83.7486 295.973 82.4372 293.172 80.6677C292.987 80.5518 292.869 80.3838 292.844 80.2007C292.819 80.0175 292.889 79.8342 293.039 79.6911C293.189 79.5479 293.406 79.4567 293.642 79.4374C293.879 79.4181 294.116 79.4724 294.301 79.5883C296.876 81.1894 299.807 82.4131 302.949 83.1991C303.129 83.2611 303.278 83.3672 303.372 83.501C303.466 83.6348 303.501 83.789 303.471 83.9395C303.44 84.0901 303.347 84.2288 303.205 84.3342C303.063 84.4396 302.879 84.5058 302.684 84.5227Z" fill="#EFAC54"/>
<path d="M293.703 117.894C293.579 117.897 293.455 117.879 293.34 117.841C293.226 117.804 293.123 117.747 293.039 117.676C286.186 111.932 279.746 105.901 273.75 99.6088C273.679 99.5366 273.627 99.4542 273.598 99.3663C273.568 99.2785 273.562 99.1869 273.579 99.0972C273.596 99.0074 273.636 98.9211 273.697 98.8435C273.758 98.7659 273.838 98.6984 273.932 98.645C274.125 98.5366 274.365 98.4907 274.6 98.5171C274.836 98.5435 275.049 98.6401 275.194 98.7864C281.145 105.056 287.546 111.062 294.367 116.776C294.467 116.877 294.53 116.996 294.549 117.122C294.568 117.248 294.541 117.376 294.473 117.491C294.404 117.606 294.296 117.705 294.161 117.776C294.025 117.847 293.867 117.888 293.703 117.894Z" fill="#EFAC54"/>
<path d="M224.133 134.612C223.997 134.611 223.864 134.587 223.742 134.54C223.621 134.494 223.514 134.427 223.431 134.344C223.348 134.261 223.291 134.165 223.263 134.062C223.235 133.959 223.237 133.853 223.27 133.751C226.357 124.486 229.013 114.99 231.171 105.481C231.191 105.392 231.234 105.307 231.296 105.231C231.359 105.155 231.441 105.09 231.537 105.038C231.632 104.987 231.74 104.951 231.854 104.932C231.968 104.913 232.086 104.912 232.2 104.929C232.433 104.96 232.641 105.061 232.777 105.211C232.914 105.36 232.969 105.545 232.931 105.725C230.773 115.209 228.1 124.743 224.996 133.995C224.975 134.162 224.876 134.318 224.717 134.432C224.557 134.545 224.35 134.61 224.133 134.612Z" fill="#EFAC54"/>
<path d="M205.093 113.242C204.936 113.241 204.783 113.207 204.649 113.146C204.514 113.084 204.403 112.996 204.326 112.891C204.249 112.786 204.208 112.667 204.209 112.546C204.21 112.425 204.251 112.306 204.329 112.202L211.251 103.207C211.372 103.048 211.57 102.933 211.8 102.888C212.031 102.842 212.275 102.869 212.48 102.962C212.684 103.056 212.833 103.209 212.892 103.387C212.951 103.566 212.916 103.755 212.795 103.913L205.873 112.908C205.792 113.012 205.677 113.097 205.54 113.156C205.403 113.214 205.249 113.244 205.093 113.242Z" fill="#EFAC54"/>
<path d="M177.204 113.358C177.028 113.357 176.856 113.316 176.709 113.24C176.563 113.164 176.449 113.056 176.382 112.929C176.315 112.803 176.297 112.664 176.331 112.53C176.365 112.396 176.449 112.273 176.574 112.176L200.444 94.032C200.524 93.9571 200.622 93.896 200.734 93.8524C200.846 93.8089 200.968 93.7839 201.093 93.7792C201.218 93.7744 201.343 93.79 201.46 93.8248C201.577 93.8597 201.683 93.9131 201.771 93.9816C201.86 94.0501 201.929 94.1321 201.974 94.2225C202.019 94.3128 202.039 94.4095 202.033 94.5063C202.026 94.603 201.994 94.6977 201.938 94.7842C201.882 94.8707 201.803 94.9471 201.706 95.0086C175.976 114.502 177.719 113.358 177.204 113.358Z" fill="#EFAC54"/>
<path d="M206.255 27.8673C204.595 27.8673 200.86 22.7273 189.04 7.89839C188.969 7.82075 188.918 7.73249 188.893 7.63913C188.867 7.54576 188.867 7.4493 188.891 7.35578C188.916 7.26226 188.965 7.17368 189.036 7.09559C189.107 7.01751 189.198 6.95159 189.303 6.90195C189.409 6.85232 189.526 6.82005 189.648 6.80715C189.77 6.79425 189.895 6.801 190.013 6.82698C190.132 6.85297 190.243 6.89762 190.338 6.95815C190.433 7.01869 190.511 7.0938 190.568 7.17879C204.429 24.6933 204.279 24.7833 206.869 26.6722C206.998 26.7678 207.087 26.8909 207.125 27.0259C207.163 27.1609 207.148 27.3016 207.082 27.4299C207.016 27.5583 206.902 27.6685 206.754 27.7464C206.607 27.8243 206.433 27.8664 206.255 27.8673Z" fill="#EFAC54"/>
<path d="M228.216 20.1959C228.004 20.1978 227.799 20.1403 227.637 20.0341C227.475 19.9278 227.369 19.7799 227.337 19.6176L224.78 7.89845C224.759 7.80887 224.761 7.71689 224.786 7.62794C224.812 7.53899 224.86 7.45489 224.928 7.3806C224.996 7.30632 225.083 7.24337 225.183 7.19547C225.283 7.14757 225.394 7.1157 225.511 7.10175C225.743 7.07529 225.98 7.11931 226.172 7.22463C226.363 7.32995 226.495 7.48846 226.54 7.66715L229.096 19.3863C229.118 19.4856 229.111 19.5873 229.077 19.6844C229.043 19.7815 228.982 19.8717 228.898 19.9487C228.815 20.0257 228.71 20.0877 228.593 20.1304C228.475 20.1731 228.346 20.1954 228.216 20.1959Z" fill="#EFAC54"/>
<path d="M61.3198 91.9758C62.4984 97.1158 67.329 101.305 72.4418 104.543C77.5546 107.781 84.2112 110.685 91.2994 109.94C97.1592 109.31 104.397 106.085 105.36 101.112C105.578 100.035 105.305 98.9326 104.587 97.9945C103.869 97.0565 102.751 96.3414 101.425 95.9722C98.6366 95.1112 95.549 94.9699 92.7934 93.9419C89.6332 92.7596 86.9387 90.9449 84.989 88.6855C83.0393 86.4262 81.9054 83.8045 81.7046 81.0919C81.6752 80.9257 81.569 80.7734 81.4058 80.6632C81.2425 80.5529 81.0332 80.4922 80.8165 80.4922C80.5999 80.4922 80.3905 80.5529 80.2273 80.6632C80.064 80.7734 79.9578 80.9257 79.9284 81.0919C80.1434 84.3312 81.587 87.4497 84.0789 90.0574C86.5708 92.6651 90.0003 94.6465 93.9388 95.7537C96.5118 96.4733 99.5828 96.4733 101.907 97.6427C109.012 101.279 93.9886 115.247 75.8614 104.774C70.151 101.575 64.3908 97.1929 63.1292 91.5903C62.93 90.7037 61.2036 91.0763 61.3364 91.9501L61.3198 91.9758Z" fill="#B7B7B7"/>
<path d="M206.221 62.8192C202.169 59.8696 197.19 57.792 191.779 56.7925C193.875 52.2298 194.412 47.3255 193.34 42.5547C192.028 36.8493 186.202 29.0751 178.748 28.9209C177.781 28.8999 176.82 29.0349 175.924 29.3173C175.028 29.5996 174.218 30.0232 173.545 30.561C172.872 31.0988 172.351 31.7391 172.015 32.4412C171.679 33.1433 171.536 33.8918 171.594 34.6391C171.859 38.9053 174.067 39.7791 175.179 45.189C175.547 47.2823 175.395 49.4107 174.731 51.4598C174.646 49.5027 174.142 47.5702 173.237 45.7415C165.767 30.4243 141.348 29.6148 126.16 40.9356C126.102 38.0174 125.093 35.1576 123.228 32.6215C121.362 30.0854 118.699 27.9551 115.486 26.428C109.028 23.3054 100.546 22.2903 91.6149 23.5624C75.6125 25.4514 63.7435 35.7571 67.4619 46.4868C50.8619 39.6506 31.8051 45.0219 30.4937 58.5016C30.0363 61.7805 31.2249 65.07 33.8137 67.6893C27.0616 67.8105 20.5178 69.5229 15.0557 72.598C8.69789 76.453 5.62689 82.8009 7.58569 88.018C9.92629 94.2888 20.3843 99.583 28.7175 100.868C36.1875 102.012 44.6203 100.675 52.7045 97.1415C50.6627 102.282 48.6209 108.45 55.3605 112.562C57.9763 113.934 61.0487 114.693 64.2083 114.746C69.9482 114.962 75.6749 114.147 80.9395 112.363C86.2042 110.58 90.8637 107.877 94.5531 104.466C95.0357 107.036 96.4235 109.453 98.5641 111.452C100.705 113.451 103.515 114.956 106.688 115.8C110.234 116.692 113.993 116.959 117.689 116.581C121.386 116.203 124.927 115.19 128.052 113.615C133.708 110.66 138.36 106.693 141.614 102.05C145.216 106.252 152.52 108.822 161.534 108.976C186.633 109.413 191.265 93.8519 183.396 87.4912C188.299 87.5996 193.199 87.2108 197.971 86.3347C204.478 84.8441 209.326 81.7087 211.251 77.7252C213.592 72.9064 211.55 66.9183 206.221 62.8192ZM209.541 77.2497C207.782 80.822 203.35 83.6747 197.423 84.9597C191.935 85.9598 186.279 86.2979 180.657 85.962C180.457 85.9506 180.257 85.9918 180.09 86.079C179.923 86.1661 179.799 86.2942 179.738 86.4426C179.677 86.5909 179.682 86.7509 179.752 86.8969C179.822 87.0428 179.954 87.1661 180.126 87.247C186.218 90.0869 186.368 97.6041 181.786 101.845C176.092 106.985 166.68 107.653 161.567 107.563C158.148 107.563 146.627 106.792 142.361 100.277C142.294 100.149 142.179 100.04 142.031 99.9631C141.883 99.8862 141.709 99.8451 141.531 99.8451C141.353 99.8451 141.179 99.8862 141.031 99.9631C140.883 100.04 140.768 100.149 140.701 100.277C137.559 105.151 132.834 109.309 126.99 112.343C124.123 113.833 120.855 114.797 117.435 115.162C114.015 115.527 110.533 115.284 107.252 114.45C104.031 113.605 101.234 111.998 99.2565 109.856C97.2788 107.714 96.22 105.146 96.2297 102.513C96.2538 102.355 96.2071 102.196 96.0976 102.061C95.9881 101.927 95.8224 101.826 95.628 101.775C95.4337 101.723 95.2226 101.725 95.03 101.78C94.8373 101.835 94.6749 101.939 94.5697 102.076C91.1374 105.758 86.5762 108.722 81.2965 110.7C76.0169 112.679 70.1845 113.61 64.3245 113.41C61.5173 113.364 58.7863 112.695 56.4561 111.482C50.1647 107.627 52.8041 101.652 55.1115 95.818C55.1716 95.6826 55.175 95.5361 55.1215 95.3992C55.0679 95.2622 54.9599 95.1418 54.8129 95.0551C54.6659 94.9683 54.4874 94.9196 54.3026 94.9158C54.1178 94.9121 53.9362 94.9535 53.7835 95.0341C45.4835 99.0819 36.7187 100.662 29.0827 99.5059C21.4467 98.3494 11.4037 93.2608 9.29549 87.6711C7.53589 82.9423 10.3579 77.1983 16.1513 73.6903C21.0317 70.7476 27.6551 69.1671 35.8555 69.0129C36.0324 69.0061 36.2029 68.9597 36.3463 68.8792C36.4897 68.7988 36.5997 68.6878 36.6631 68.5597C36.7264 68.4317 36.7403 68.2922 36.703 68.1582C36.6657 68.0242 36.5789 67.9015 36.4531 67.805C29.2321 62.5493 31.8383 52.1408 39.9225 47.8232C47.5419 43.7369 59.3445 44.0582 68.6239 48.6071C68.7857 48.6839 68.9748 48.719 69.164 48.7073C69.3532 48.6956 69.5328 48.6377 69.6767 48.542C69.8207 48.4462 69.9217 48.3176 69.9652 48.1746C70.0087 48.0315 69.9924 47.8815 69.9187 47.7461C68.6713 45.2206 68.3429 42.4786 68.9692 39.8186C69.5956 37.1586 71.1527 34.6826 73.4711 32.6602C78.245 28.4806 84.7806 25.7483 91.9137 24.9502C100.429 23.7423 108.514 24.6932 114.54 27.623C121.412 30.9512 125.363 37.1706 124.151 42.7346C124.116 42.8827 124.145 43.0354 124.233 43.1697C124.32 43.3041 124.462 43.4128 124.636 43.4795C124.81 43.5462 125.007 43.5672 125.198 43.5395C125.389 43.5118 125.564 43.4367 125.695 43.3257C134.41 35.847 147.839 32.763 158.347 35.7956C168.855 38.8282 175.661 48.5814 171.909 56.497C169.215 59.6292 165.044 61.8202 160.289 62.6007C159.16 62.7806 159.625 64.117 160.754 63.9885C173.021 61.7912 179.861 51.9609 176.076 42.0536C174.93 39.021 171.644 35.2431 174.051 32.1205C176.458 28.998 181.952 30.1288 184.957 32.763C197.639 42.6704 193.39 63.9114 171.112 74.1143C171.011 74.1605 170.922 74.2221 170.852 74.2953C170.781 74.3686 170.731 74.4521 170.703 74.5408C170.675 74.6295 170.67 74.7216 170.689 74.8117C170.708 74.9018 170.751 74.988 170.814 75.0652C170.934 75.2203 171.129 75.3326 171.355 75.3782C171.582 75.4239 171.822 75.3991 172.025 75.3094C180.658 71.3468 187.376 65.3028 191.149 58.1032C196.324 59.0345 201.092 61.002 204.976 63.8086C209.807 67.5223 211.683 72.9321 209.624 77.2497H209.541Z" fill="#B7B7B7"/>
<path d="M189.123 29.4608L166.813 42.0666L137.431 12.5373L159.758 -0.0556641L189.123 29.4608Z" fill="#ABFFE1"/>
<path d="M166.813 42.7603C166.149 42.7603 168.108 44.4822 136.717 12.9611C136.645 12.8879 136.593 12.8044 136.564 12.7156C136.534 12.6267 136.528 12.5341 136.545 12.4433C136.562 12.3525 136.602 12.2652 136.663 12.1864C136.724 12.1077 136.804 12.039 136.9 11.9845L159.227 -0.608482C159.416 -0.716213 159.654 -0.761777 159.886 -0.735328C160.119 -0.708879 160.33 -0.612541 160.472 -0.467131C191.763 30.9768 190.086 29.0879 190.003 29.5633C189.92 30.0388 191.414 29.075 167.344 42.6318C167.188 42.7164 167.003 42.7613 166.813 42.7603ZM138.692 12.6784L166.912 41.1155L187.779 29.3192L159.559 0.90782L138.692 12.6784Z" fill="#51BDBF"/>
<path d="M46.5625 129.1C46.5625 130.211 47.1326 131.276 48.1475 132.062C49.1624 132.847 50.5389 133.289 51.9741 133.289C53.4093 133.289 54.7858 132.847 55.8007 132.062C56.8156 131.276 57.3857 130.211 57.3857 129.1C57.3857 127.989 56.8156 126.923 55.8007 126.138C54.7858 125.352 53.4093 124.911 51.9741 124.911C50.5389 124.911 49.1624 125.352 48.1475 126.138C47.1326 126.923 46.5625 127.989 46.5625 129.1Z" fill="white"/>
<path d="M51.974 133.982C50.7257 133.985 49.5045 133.701 48.465 133.166C47.4254 132.631 46.6143 131.869 46.1344 130.977C45.6544 130.085 45.5271 129.103 45.7686 128.155C46.0101 127.207 46.6096 126.335 47.4911 125.651C48.3726 124.967 49.4966 124.501 50.7207 124.311C51.9448 124.122 53.2139 124.218 54.3675 124.587C55.5211 124.956 56.5073 125.582 57.2012 126.385C57.895 127.188 58.2654 128.133 58.2654 129.099C58.2654 130.392 57.6031 131.632 56.4237 132.548C55.2443 133.463 53.6441 133.979 51.974 133.982ZM51.974 125.617C51.0803 125.617 50.2067 125.822 49.4638 126.207C48.7209 126.592 48.1422 127.138 47.801 127.778C47.4597 128.417 47.3713 129.12 47.5468 129.799C47.7224 130.477 48.1541 131.1 48.7872 131.588C49.4203 132.076 50.2264 132.408 51.1034 132.542C51.9803 132.675 52.8887 132.604 53.7134 132.338C54.5382 132.071 55.2422 131.621 55.7364 131.045C56.2305 130.468 56.4925 129.791 56.4892 129.099C56.4848 128.175 56.0072 127.289 55.1609 126.636C54.3146 125.983 53.1687 125.617 51.974 125.617Z" fill="#B7B7B7"/>
<path d="M89.5898 168.189C89.5898 169.3 90.16 170.366 91.1749 171.151C92.1897 171.937 93.5662 172.378 95.0014 172.378C96.4367 172.378 97.8131 171.937 98.828 171.151C99.8429 170.366 100.413 169.3 100.413 168.189C100.413 167.078 99.8429 166.013 98.828 165.227C97.8131 164.441 96.4367 164 95.0014 164C93.5662 164 92.1897 164.441 91.1749 165.227C90.16 166.013 89.5898 167.078 89.5898 168.189Z" fill="white"/>
<path d="M95.0014 173.072C93.7538 173.072 92.5342 172.786 91.4968 172.249C90.4595 171.713 89.651 170.95 89.1735 170.058C88.6961 169.166 88.5712 168.184 88.8146 167.237C89.058 166.289 89.6587 165.419 90.5409 164.736C91.4231 164.053 92.5471 163.588 93.7707 163.4C94.9944 163.212 96.2627 163.308 97.4153 163.678C98.568 164.047 99.5531 164.673 100.246 165.476C100.939 166.279 101.309 167.223 101.309 168.189C101.309 168.83 101.146 169.465 100.829 170.058C100.512 170.65 100.048 171.189 99.4618 171.642C98.876 172.095 98.1806 172.455 97.4153 172.7C96.65 172.946 95.8297 173.072 95.0014 173.072ZM95.0014 164.707C94.1076 164.707 93.234 164.912 92.4911 165.297C91.7483 165.681 91.1695 166.228 90.8283 166.867C90.487 167.507 90.3986 168.21 90.5742 168.889C90.7497 169.567 91.1814 170.19 91.8145 170.678C92.4477 171.166 93.2538 171.498 94.1307 171.632C95.0077 171.765 95.916 171.694 96.7408 171.427C97.5655 171.161 98.2696 170.711 98.7637 170.134C99.2578 169.558 99.5198 168.881 99.5166 168.189C99.5166 167.731 99.3997 167.277 99.1725 166.854C98.9454 166.43 98.6126 166.046 98.1931 165.722C97.7736 165.399 97.2757 165.142 96.728 164.968C96.1803 164.794 95.5935 164.705 95.0014 164.707Z" fill="#B7B7B7"/>
<path d="M166.116 136.09C167.187 136.09 168.234 136.336 169.124 136.797C170.014 137.258 170.708 137.913 171.117 138.679C171.526 139.445 171.632 140.288 171.422 141.101C171.212 141.914 170.695 142.66 169.936 143.246C169.178 143.831 168.212 144.229 167.161 144.389C166.11 144.549 165.022 144.465 164.033 144.145C163.045 143.826 162.201 143.288 161.608 142.597C161.015 141.906 160.701 141.095 160.704 140.266C160.709 139.157 161.281 138.095 162.295 137.312C163.309 136.529 164.683 136.09 166.116 136.09Z" fill="white"/>
<path d="M166.116 145.149C164.867 145.152 163.646 144.868 162.607 144.333C161.567 143.798 160.756 143.036 160.276 142.144C159.796 141.252 159.669 140.27 159.91 139.322C160.152 138.374 160.751 137.502 161.633 136.818C162.514 136.134 163.638 135.668 164.862 135.478C166.086 135.289 167.356 135.385 168.509 135.754C169.663 136.123 170.649 136.749 171.343 137.552C172.037 138.355 172.407 139.3 172.407 140.266C172.407 141.559 171.745 142.799 170.565 143.715C169.386 144.63 167.786 145.146 166.116 145.149ZM166.116 136.784C165.221 136.781 164.346 136.985 163.601 137.368C162.856 137.751 162.275 138.296 161.931 138.936C161.587 139.575 161.496 140.279 161.67 140.958C161.843 141.637 162.274 142.261 162.906 142.751C163.539 143.24 164.345 143.573 165.222 143.708C166.1 143.842 167.009 143.772 167.835 143.506C168.66 143.24 169.365 142.79 169.86 142.213C170.355 141.636 170.617 140.959 170.614 140.266C170.621 139.806 170.509 139.349 170.286 138.922C170.063 138.495 169.733 138.106 169.314 137.779C168.896 137.451 168.398 137.192 167.849 137.014C167.3 136.837 166.711 136.745 166.116 136.745V136.784Z" fill="#B7B7B7"/>
<path d="M150.13 192C151.202 191.997 152.25 192.241 153.143 192.701C154.035 193.16 154.731 193.814 155.143 194.58C155.555 195.346 155.663 196.189 155.455 197.003C155.247 197.817 154.731 198.565 153.973 199.151C153.215 199.738 152.249 200.137 151.198 200.298C150.147 200.46 149.057 200.376 148.068 200.057C147.078 199.738 146.233 199.199 145.64 198.508C145.047 197.818 144.732 197.006 144.735 196.176C144.735 195.069 145.303 194.006 146.315 193.223C147.327 192.44 148.699 192 150.13 192Z" fill="white"/>
<path d="M150.13 200.995C148.882 200.995 147.663 200.709 146.625 200.173C145.588 199.636 144.779 198.873 144.302 197.981C143.825 197.089 143.7 196.107 143.943 195.16C144.186 194.213 144.787 193.343 145.669 192.66C146.552 191.977 147.676 191.512 148.899 191.323C150.123 191.135 151.391 191.232 152.544 191.601C153.696 191.971 154.682 192.597 155.375 193.4C156.068 194.203 156.438 195.147 156.438 196.112C156.438 197.408 155.773 198.65 154.59 199.565C153.407 200.481 151.803 200.995 150.13 200.995ZM150.13 192.63C149.236 192.63 148.362 192.835 147.62 193.22C146.877 193.605 146.298 194.151 145.957 194.791C145.615 195.43 145.527 196.134 145.703 196.812C145.878 197.49 146.31 198.113 146.943 198.601C147.576 199.09 148.382 199.422 149.259 199.555C150.136 199.688 151.044 199.617 151.869 199.351C152.694 199.084 153.398 198.634 153.892 198.058C154.386 197.481 154.648 196.804 154.645 196.112C154.645 195.654 154.528 195.2 154.301 194.777C154.074 194.354 153.741 193.969 153.322 193.646C152.902 193.322 152.404 193.066 151.856 192.892C151.309 192.717 150.722 192.628 150.13 192.63Z" fill="#B7B7B7"/>
<path d="M54.0161 191.332C54.0161 192.443 54.5863 193.509 55.6011 194.294C56.616 195.08 57.9925 195.521 59.4277 195.521C60.863 195.521 62.2394 195.08 63.2543 194.294C64.2692 193.509 64.8393 192.443 64.8393 191.332C64.8393 190.782 64.6993 190.237 64.4274 189.729C64.1554 189.221 63.7568 188.759 63.2543 188.37C62.7518 187.981 62.1552 187.672 61.4986 187.462C60.8421 187.251 60.1384 187.143 59.4277 187.143C58.717 187.143 58.0133 187.251 57.3568 187.462C56.7002 187.672 56.1036 187.981 55.6011 188.37C55.0986 188.759 54.7 189.221 54.428 189.729C54.1561 190.237 54.0161 190.782 54.0161 191.332Z" fill="white"/>
<path d="M59.4442 196.215C58.1959 196.218 56.9747 195.934 55.9352 195.399C54.8957 194.864 54.0846 194.102 53.6046 193.21C53.1246 192.318 52.9973 191.336 53.2388 190.387C53.4803 189.439 54.0798 188.568 54.9613 187.884C55.8429 187.2 56.9668 186.733 58.1909 186.544C59.415 186.355 60.6841 186.45 61.8377 186.82C62.9914 187.189 63.9775 187.815 64.6714 188.618C65.3653 189.421 65.7356 190.366 65.7356 191.332C65.7356 192.625 65.0733 193.865 63.8939 194.78C62.7145 195.696 61.1143 196.212 59.4442 196.215ZM59.4442 187.85C58.5498 187.847 57.6746 188.05 56.9295 188.434C56.1844 188.817 55.6031 189.362 55.2593 190.002C54.9155 190.641 54.8247 191.345 54.9984 192.024C55.1721 192.703 55.6025 193.327 56.2349 193.817C56.8674 194.306 57.6734 194.639 58.5509 194.774C59.4283 194.908 60.3375 194.838 61.1632 194.572C61.9889 194.306 62.6939 193.856 63.1888 193.279C63.6837 192.702 63.9461 192.025 63.9428 191.332C63.9428 190.875 63.8265 190.422 63.6004 190C63.3743 189.577 63.043 189.193 62.6252 188.87C62.2075 188.546 61.7116 188.29 61.1658 188.115C60.62 187.94 60.035 187.85 59.4442 187.85Z" fill="#B7B7B7"/>
<path d="M131.073 151.047C131.073 151.44 131.173 151.83 131.368 152.193C131.562 152.556 131.847 152.886 132.206 153.164C132.565 153.442 132.992 153.663 133.461 153.813C133.93 153.964 134.433 154.041 134.941 154.041C135.449 154.041 135.952 153.964 136.421 153.813C136.89 153.663 137.317 153.442 137.676 153.164C138.035 152.886 138.32 152.556 138.514 152.193C138.709 151.83 138.809 151.44 138.809 151.047C138.809 150.654 138.709 150.265 138.514 149.901C138.32 149.538 138.035 149.208 137.676 148.93C137.317 148.652 136.89 148.432 136.421 148.281C135.952 148.131 135.449 148.053 134.941 148.053C134.433 148.053 133.93 148.131 133.461 148.281C132.992 148.432 132.565 148.652 132.206 148.93C131.847 149.208 131.562 149.538 131.368 149.901C131.173 150.265 131.073 150.654 131.073 151.047Z" fill="white"/>
<path d="M134.941 154.735C133.998 154.735 133.076 154.519 132.292 154.113C131.509 153.707 130.898 153.13 130.538 152.456C130.178 151.781 130.084 151.039 130.27 150.323C130.455 149.607 130.91 148.95 131.578 148.435C132.246 147.92 133.096 147.57 134.022 147.429C134.947 147.288 135.905 147.363 136.776 147.644C137.646 147.925 138.389 148.4 138.91 149.008C139.432 149.616 139.708 150.33 139.705 151.06C139.701 152.036 139.197 152.971 138.304 153.66C137.411 154.348 136.202 154.735 134.941 154.735ZM134.941 148.76C134.353 148.76 133.779 148.895 133.29 149.148C132.801 149.4 132.421 149.76 132.196 150.18C131.971 150.6 131.912 151.063 132.027 151.509C132.141 151.955 132.424 152.365 132.84 152.687C133.255 153.008 133.785 153.227 134.361 153.316C134.938 153.405 135.535 153.359 136.078 153.185C136.621 153.011 137.085 152.716 137.412 152.338C137.738 151.96 137.912 151.515 137.912 151.06C137.915 150.757 137.839 150.457 137.691 150.176C137.543 149.895 137.324 149.64 137.048 149.425C136.772 149.21 136.443 149.04 136.082 148.923C135.72 148.807 135.333 148.747 134.941 148.747V148.76Z" fill="#B7B7B7"/>
<path d="M175.13 167.585C175.895 167.585 176.642 167.761 177.278 168.09C177.914 168.419 178.41 168.887 178.703 169.434C178.996 169.981 179.072 170.583 178.923 171.164C178.774 171.744 178.405 172.278 177.864 172.697C177.324 173.115 176.634 173.4 175.884 173.516C175.134 173.632 174.356 173.572 173.649 173.346C172.943 173.119 172.339 172.735 171.914 172.243C171.489 171.751 171.262 171.172 171.262 170.58C171.262 169.785 171.669 169.024 172.395 168.462C173.12 167.901 174.104 167.585 175.13 167.585Z" fill="white"/>
<path d="M175.129 174.267C174.186 174.267 173.265 174.05 172.481 173.645C171.697 173.239 171.086 172.662 170.726 171.987C170.366 171.313 170.273 170.571 170.458 169.855C170.643 169.139 171.099 168.482 171.767 167.967C172.434 167.451 173.285 167.101 174.21 166.96C175.135 166.82 176.094 166.894 176.964 167.176C177.834 167.457 178.577 167.931 179.099 168.54C179.62 169.148 179.897 169.862 179.894 170.592C179.889 171.568 179.385 172.503 178.492 173.191C177.599 173.88 176.39 174.267 175.129 174.267ZM175.129 168.292C174.542 168.292 173.967 168.427 173.479 168.679C172.99 168.932 172.609 169.291 172.384 169.712C172.159 170.132 172.1 170.594 172.215 171.041C172.33 171.487 172.613 171.897 173.028 172.218C173.444 172.54 173.973 172.759 174.55 172.848C175.126 172.937 175.724 172.891 176.267 172.717C176.809 172.543 177.274 172.248 177.6 171.87C177.927 171.492 178.101 171.047 178.101 170.592C178.101 169.982 177.788 169.397 177.231 168.965C176.673 168.534 175.917 168.292 175.129 168.292Z" fill="#B7B7B7"/>
<path d="M44.4873 156.226C44.4873 156.567 44.574 156.904 44.7426 157.219C44.9111 157.534 45.1581 157.82 45.4694 158.062C45.7808 158.303 46.1505 158.494 46.5573 158.624C46.9641 158.755 47.4002 158.822 47.8405 158.822C48.2809 158.822 48.7169 158.755 49.1237 158.624C49.5306 158.494 49.9002 158.303 50.2116 158.062C50.523 157.82 50.7699 157.534 50.9385 157.219C51.107 156.904 51.1937 156.567 51.1937 156.226C51.1937 155.885 51.107 155.548 50.9385 155.233C50.7699 154.918 50.523 154.632 50.2116 154.391C49.9002 154.15 49.5306 153.958 49.1237 153.828C48.7169 153.698 48.2809 153.63 47.8405 153.63C47.4002 153.63 46.9641 153.698 46.5573 153.828C46.1505 153.958 45.7808 154.15 45.4694 154.391C45.1581 154.632 44.9111 154.918 44.7426 155.233C44.574 155.548 44.4873 155.885 44.4873 156.226Z" fill="white"/>
<path d="M47.8409 159.503C46.999 159.505 46.1751 159.314 45.4737 158.953C44.7723 158.593 44.2251 158.079 43.9014 157.478C43.5777 156.876 43.4921 156.214 43.6556 155.574C43.819 154.935 44.2241 154.348 44.8194 153.887C45.4147 153.426 46.1734 153.112 46.9993 152.986C47.8252 152.859 48.681 152.926 49.4582 153.176C50.2354 153.427 50.8989 153.85 51.3646 154.393C51.8303 154.936 52.0772 155.574 52.0739 156.226C52.0739 157.095 51.6279 157.928 50.8341 158.543C50.0402 159.157 48.9635 159.503 47.8409 159.503ZM47.8409 154.363C47.355 154.363 46.88 154.474 46.476 154.683C46.0719 154.892 45.757 155.189 45.5711 155.537C45.3851 155.884 45.3365 156.266 45.4313 156.635C45.5261 157.004 45.7601 157.343 46.1037 157.609C46.4472 157.875 46.885 158.056 47.3616 158.13C47.8382 158.203 48.3321 158.165 48.7811 158.021C49.23 157.877 49.6137 157.634 49.8836 157.321C50.1536 157.008 50.2977 156.64 50.2977 156.264C50.3043 156.011 50.2456 155.76 50.1252 155.525C50.0047 155.289 49.8247 155.075 49.5959 154.895C49.3671 154.714 49.0941 154.57 48.7927 154.472C48.4913 154.374 48.1677 154.324 47.8409 154.324V154.363Z" fill="#B7B7B7"/>
<path d="M27.2236 168.999C28.2954 168.996 29.3439 169.24 30.2364 169.699C31.1289 170.158 31.8251 170.813 32.2367 171.579C32.6483 172.345 32.7569 173.188 32.5486 174.002C32.3404 174.816 31.8246 175.563 31.0668 176.15C30.309 176.736 29.3432 177.136 28.2919 177.297C27.2406 177.458 26.1511 177.374 25.1616 177.055C24.1721 176.737 23.3271 176.198 22.7337 175.507C22.1404 174.816 21.8254 174.004 21.8286 173.175C21.8286 172.067 22.397 171.005 23.4088 170.222C24.4206 169.439 25.7928 168.999 27.2236 168.999Z" fill="white"/>
<path d="M27.2235 178.058C25.9759 178.058 24.7563 177.772 23.719 177.235C22.6816 176.699 21.8731 175.936 21.3957 175.044C20.9183 174.151 20.7933 173.17 21.0367 172.222C21.2801 171.275 21.8809 170.405 22.7631 169.722C23.6453 169.039 24.7693 168.574 25.9929 168.386C27.2165 168.197 28.4849 168.294 29.6375 168.664C30.7901 169.033 31.7753 169.659 32.4684 170.462C33.1616 171.265 33.5315 172.209 33.5315 173.175C33.5315 174.47 32.8669 175.712 31.684 176.628C30.501 177.544 28.8965 178.058 27.2235 178.058ZM27.2235 169.68C26.3305 169.68 25.4575 169.885 24.715 170.269C23.9725 170.653 23.3938 171.199 23.052 171.837C22.7103 172.476 22.6209 173.179 22.7951 173.857C22.9693 174.535 23.3993 175.158 24.0308 175.646C24.6623 176.135 25.4668 176.468 26.3427 176.603C27.2185 176.738 28.1264 176.669 28.9514 176.404C29.7765 176.14 30.4816 175.692 30.9778 175.117C31.4739 174.542 31.7387 173.866 31.7387 173.175C31.7387 172.248 31.263 171.359 30.4163 170.704C29.5695 170.048 28.421 169.68 27.2235 169.68Z" fill="#B7B7B7"/>
<path d="M26.46 110.955C26.46 111.378 26.6768 111.783 27.0629 112.082C27.4489 112.381 27.9724 112.549 28.5184 112.549C29.0643 112.549 29.5878 112.381 29.9739 112.082C30.3599 111.783 30.5768 111.378 30.5768 110.955C30.5768 110.533 30.3599 110.127 29.9739 109.829C29.5878 109.53 29.0643 109.362 28.5184 109.362C27.9724 109.362 27.4489 109.53 27.0629 109.829C26.6768 110.127 26.46 110.533 26.46 110.955Z" fill="white"/>
<path d="M28.5183 113.243C27.9339 113.243 27.3626 113.108 26.8767 112.857C26.3908 112.606 26.012 112.249 25.7884 111.831C25.5648 111.413 25.5062 110.953 25.6203 110.509C25.7343 110.065 26.0157 109.658 26.4289 109.338C26.8422 109.018 27.3686 108.8 27.9418 108.712C28.515 108.624 29.1091 108.669 29.649 108.842C30.189 109.015 30.6504 109.308 30.9751 109.685C31.2998 110.061 31.4731 110.503 31.4731 110.955C31.4731 111.562 31.1618 112.144 30.6076 112.573C30.0535 113.002 29.3019 113.243 28.5183 113.243ZM28.5183 110.056C28.2885 110.056 28.0638 110.109 27.8727 110.207C27.6816 110.306 27.5327 110.447 27.4447 110.611C27.3568 110.775 27.3338 110.956 27.3786 111.131C27.4234 111.305 27.5341 111.466 27.6966 111.591C27.8591 111.717 28.0662 111.803 28.2916 111.837C28.517 111.872 28.7506 111.854 28.963 111.786C29.1753 111.718 29.3568 111.603 29.4844 111.455C29.6121 111.307 29.6803 111.133 29.6803 110.955C29.6803 110.717 29.5579 110.488 29.3399 110.319C29.122 110.151 28.8265 110.056 28.5183 110.056Z" fill="#B7B7B7"/>
<path d="M103.251 189.34C103.251 190.029 103.605 190.689 104.234 191.176C104.862 191.663 105.715 191.936 106.605 191.936C107.494 191.936 108.347 191.663 108.976 191.176C109.605 190.689 109.958 190.029 109.958 189.34C109.958 188.652 109.605 187.992 108.976 187.505C108.347 187.018 107.494 186.745 106.605 186.745C105.715 186.745 104.862 187.018 104.234 187.505C103.605 187.992 103.251 188.652 103.251 189.34Z" fill="white"/>
<path d="M106.605 192.63C105.762 192.637 104.936 192.451 104.23 192.094C103.525 191.737 102.972 191.226 102.643 190.626C102.314 190.026 102.223 189.363 102.381 188.722C102.539 188.082 102.94 187.492 103.532 187.028C104.124 186.564 104.882 186.247 105.707 186.117C106.533 185.987 107.39 186.05 108.169 186.297C108.949 186.545 109.615 186.967 110.085 187.509C110.554 188.05 110.804 188.688 110.804 189.34C110.804 190.206 110.364 191.037 109.577 191.653C108.791 192.269 107.723 192.62 106.605 192.63ZM106.605 187.49C106.118 187.487 105.641 187.597 105.235 187.804C104.829 188.011 104.511 188.308 104.323 188.655C104.134 189.002 104.083 189.385 104.176 189.755C104.269 190.124 104.502 190.464 104.845 190.732C105.188 190.999 105.626 191.181 106.103 191.256C106.58 191.33 107.074 191.293 107.524 191.15C107.974 191.006 108.359 190.762 108.63 190.449C108.9 190.136 109.045 189.768 109.045 189.392C109.054 189.139 108.997 188.887 108.879 188.651C108.76 188.415 108.582 188.2 108.355 188.018C108.128 187.836 107.856 187.691 107.555 187.592C107.255 187.492 106.931 187.44 106.605 187.438V187.49Z" fill="#B7B7B7"/>
<path d="M103.75 211.879C104.772 211.877 105.772 212.109 106.624 212.548C107.475 212.986 108.14 213.61 108.533 214.34C108.925 215.071 109.029 215.876 108.83 216.652C108.632 217.429 108.14 218.142 107.417 218.702C106.694 219.261 105.772 219.642 104.769 219.796C103.766 219.95 102.727 219.87 101.783 219.565C100.839 219.261 100.033 218.747 99.4667 218.088C98.9007 217.429 98.6003 216.654 98.6035 215.863C98.6035 214.806 99.1457 213.793 100.111 213.046C101.076 212.299 102.385 211.879 103.75 211.879Z" fill="white"/>
<path d="M103.749 220.553C102.551 220.553 101.38 220.278 100.383 219.762C99.3868 219.247 98.6102 218.515 98.1516 217.658C97.6931 216.8 97.5731 215.857 97.8069 214.948C98.0406 214.038 98.6177 213.202 99.4651 212.546C100.312 211.89 101.392 211.443 102.567 211.262C103.743 211.082 104.961 211.174 106.068 211.529C107.175 211.884 108.122 212.486 108.787 213.257C109.453 214.028 109.808 214.935 109.808 215.863C109.808 217.107 109.17 218.3 108.034 219.179C106.898 220.059 105.356 220.553 103.749 220.553ZM103.749 212.573C102.905 212.573 102.079 212.767 101.378 213.13C100.676 213.494 100.129 214.01 99.8064 214.615C99.484 215.219 99.4005 215.884 99.5665 216.524C99.7324 217.165 100.14 217.754 100.739 218.215C101.337 218.677 102.099 218.99 102.927 219.116C103.756 219.242 104.614 219.175 105.394 218.923C106.173 218.671 106.838 218.246 107.305 217.701C107.772 217.156 108.019 216.516 108.016 215.863C108.018 215.428 107.909 214.998 107.695 214.597C107.482 214.195 107.168 213.831 106.771 213.524C106.374 213.217 105.903 212.973 105.385 212.808C104.866 212.643 104.31 212.558 103.749 212.56V212.573Z" fill="#B7B7B7"/>
<path d="M163.526 116.545C164.141 116.542 164.744 116.682 165.257 116.945C165.77 117.208 166.17 117.583 166.407 118.022C166.644 118.462 166.707 118.946 166.588 119.414C166.469 119.881 166.173 120.31 165.738 120.647C165.303 120.984 164.748 121.213 164.144 121.305C163.541 121.398 162.915 121.349 162.347 121.165C161.779 120.982 161.295 120.672 160.955 120.275C160.615 119.878 160.435 119.411 160.439 118.935C160.443 118.302 160.77 117.696 161.348 117.249C161.926 116.801 162.709 116.548 163.526 116.545Z" fill="white"/>
<path d="M163.543 122.032C162.751 122.035 161.976 121.855 161.315 121.516C160.655 121.178 160.14 120.695 159.835 120.129C159.529 119.564 159.448 118.941 159.6 118.339C159.753 117.737 160.132 117.184 160.691 116.75C161.25 116.316 161.963 116.019 162.739 115.899C163.516 115.778 164.321 115.839 165.053 116.073C165.785 116.307 166.411 116.704 166.851 117.213C167.292 117.723 167.527 118.322 167.527 118.935C167.527 119.754 167.107 120.54 166.361 121.12C165.614 121.701 164.601 122.029 163.543 122.032ZM163.543 117.239C163.105 117.236 162.675 117.335 162.31 117.522C161.944 117.708 161.659 117.975 161.489 118.288C161.32 118.601 161.275 118.946 161.36 119.278C161.445 119.611 161.655 119.917 161.965 120.156C162.275 120.396 162.67 120.559 163.099 120.625C163.529 120.69 163.974 120.655 164.379 120.525C164.783 120.394 165.127 120.173 165.369 119.89C165.61 119.606 165.737 119.274 165.734 118.935C165.734 118.485 165.503 118.054 165.092 117.736C164.681 117.418 164.124 117.239 163.543 117.239Z" fill="#B7B7B7"/>
<path d="M171.776 23.3184L169.668 22.5988L171.162 22.2004C171.274 22.1698 171.366 22.1058 171.418 22.0227C171.469 21.9395 171.475 21.844 171.436 21.7571C171.396 21.6702 171.314 21.599 171.206 21.5593C171.099 21.5195 170.975 21.5144 170.863 21.5451C169.203 22.0077 168.655 22.0976 168.489 22.1876L168.025 22.0334L167.908 21.3652C168.532 21.2479 169.142 21.0932 169.734 20.9026C169.847 20.8719 169.939 20.808 169.99 20.7248C170.041 20.6417 170.048 20.5462 170.008 20.4593C169.969 20.3723 169.886 20.3012 169.779 20.2614C169.671 20.2217 169.548 20.2166 169.436 20.2472L167.776 20.6841C167.776 20.3757 167.51 19.7332 167.41 19.4634L169.187 19.5405C169.305 19.5405 169.419 19.5039 169.503 19.4389C169.588 19.3738 169.635 19.2855 169.635 19.1935C169.635 19.1015 169.588 19.0133 169.503 18.9482C169.419 18.8831 169.305 18.8466 169.187 18.8466L167.427 18.7695C167.195 18.7695 167.278 18.9108 167.178 18.3454L167.56 18.1398L170.183 18.2298C170.301 18.2298 170.415 18.1932 170.499 18.1282C170.584 18.0631 170.631 17.9748 170.631 17.8828C170.631 17.7908 170.584 17.7026 170.499 17.6375C170.415 17.5724 170.301 17.5359 170.183 17.5359H168.738L170.598 16.5207C170.684 16.4649 170.74 16.386 170.755 16.2996C170.77 16.2131 170.742 16.1256 170.677 16.0543C170.612 15.9831 170.515 15.9333 170.405 15.915C170.295 15.8966 170.18 15.911 170.083 15.9553L168.224 16.9705L168.539 15.8011C168.551 15.7564 168.552 15.7103 168.541 15.6654C168.53 15.6206 168.507 15.5778 168.475 15.5396C168.442 15.5015 168.401 15.4686 168.352 15.4429C168.303 15.4172 168.248 15.3992 168.191 15.3899C168.133 15.3806 168.073 15.3803 168.015 15.3888C167.957 15.3973 167.902 15.4146 167.853 15.4397C167.803 15.4648 167.761 15.4971 167.728 15.5348C167.695 15.5726 167.671 15.6151 167.659 15.6598C167.327 16.8805 167.145 17.4202 167.161 17.5616L166.713 17.7929L165.95 17.5487C166.132 17.073 166.271 16.5877 166.365 16.0967C166.345 16.0341 166.304 15.9769 166.245 15.9315C166.186 15.8861 166.112 15.8543 166.031 15.8396C165.95 15.825 165.865 15.828 165.786 15.8484C165.708 15.8689 165.638 15.9059 165.584 15.9553L165.236 17.2403C164.92 17.1331 164.615 17.0086 164.323 16.8677L165.468 15.8525C165.537 15.782 165.569 15.6937 165.556 15.6057C165.544 15.5177 165.489 15.4367 165.402 15.3792C165.315 15.3218 165.203 15.2922 165.089 15.2966C164.974 15.301 164.867 15.339 164.788 15.4028C164.339 15.753 163.928 16.1312 163.559 16.5336L163.078 16.328V15.9553L164.738 14.439C164.807 14.3685 164.838 14.2802 164.826 14.1922C164.814 14.1042 164.758 14.0232 164.671 13.9657C164.584 13.9083 164.472 13.8787 164.358 13.8831C164.244 13.8875 164.136 13.9255 164.057 13.9893L163.111 14.8502V13.0769C163.111 12.9849 163.064 12.8967 162.98 12.8316C162.896 12.7665 162.782 12.73 162.663 12.73C162.544 12.73 162.43 12.7665 162.346 12.8316C162.262 12.8967 162.215 12.9849 162.215 13.0769V14.8502L161.202 13.925C161.123 13.8612 161.015 13.8232 160.901 13.8188C160.787 13.8145 160.675 13.844 160.588 13.9015C160.501 13.9589 160.445 14.0399 160.433 14.1279C160.421 14.2159 160.452 14.3042 160.521 14.3748C161.683 15.4285 161.999 15.7626 162.181 15.8525V16.2766L161.451 16.585C161.083 16.182 160.672 15.8037 160.223 15.4542C160.143 15.3904 160.036 15.3524 159.921 15.348C159.807 15.3436 159.695 15.3732 159.608 15.4306C159.521 15.4881 159.466 15.5691 159.454 15.6571C159.441 15.7451 159.473 15.8334 159.542 15.9039L160.671 16.9191C160.015 17.2228 159.389 17.5621 158.795 17.9342L158.031 16.7263C157.979 16.6428 157.885 16.579 157.771 16.5489C157.658 16.5188 157.533 16.5248 157.425 16.5657C157.318 16.6066 157.235 16.679 157.196 16.767C157.157 16.8549 157.165 16.9512 157.218 17.0347C157.463 17.4818 157.757 17.9117 158.098 18.3197L157.417 18.7309L156.919 18.5767C156.596 17.9791 156.23 17.3957 155.824 16.8291C155.764 16.7575 155.672 16.7055 155.565 16.6831C155.459 16.6606 155.346 16.6693 155.247 16.7075C155.148 16.7457 155.071 16.8106 155.031 16.89C154.99 16.9693 154.989 17.0574 155.027 17.1375L155.707 18.2169L153.566 17.5873C153.46 17.5686 153.35 17.58 153.254 17.6195C153.159 17.659 153.085 17.7239 153.047 17.8022C153.008 17.8805 153.008 17.9669 153.045 18.0455C153.083 18.1241 153.156 18.1896 153.251 18.2298L155.359 18.8594L153.964 19.1678C153.862 19.2027 153.781 19.2659 153.736 19.3448C153.691 19.4238 153.685 19.5129 153.72 19.5949C153.756 19.6768 153.829 19.7456 153.926 19.7878C154.024 19.83 154.138 19.8426 154.247 19.8232L156.67 19.2321L157.168 19.3734L157.284 19.8103C156.656 19.918 156.04 20.0641 155.442 20.2472C155.34 20.2821 155.258 20.3453 155.213 20.4242C155.168 20.5032 155.163 20.5923 155.198 20.6743C155.233 20.7562 155.307 20.825 155.404 20.8672C155.501 20.9094 155.615 20.922 155.724 20.9026L157.384 20.4914C157.398 20.9223 157.454 21.3518 157.55 21.7764L155.89 21.6736C155.83 21.6601 155.767 21.6559 155.705 21.6611C155.643 21.6664 155.583 21.6811 155.528 21.7044C155.474 21.7277 155.425 21.759 155.386 21.7968C155.347 21.8345 155.318 21.8778 155.301 21.9242C155.283 21.9706 155.278 22.0192 155.285 22.0672C155.291 22.1153 155.31 22.1618 155.34 22.2041C155.371 22.2465 155.411 22.2839 155.46 22.3141C155.508 22.3443 155.564 22.3668 155.624 22.3803C155.624 22.3803 157.5 22.496 157.55 22.4831L157.65 23.0999L157.185 23.3826L154.728 23.2284C154.609 23.2284 154.495 23.265 154.411 23.3301C154.327 23.3951 154.28 23.4834 154.28 23.5754C154.28 23.6674 154.327 23.7556 154.411 23.8207C154.495 23.8858 154.609 23.9223 154.728 23.9223L156.255 24.0123L154.479 25.1302C154.41 25.1923 154.371 25.2715 154.37 25.3536C154.369 25.4357 154.405 25.5155 154.473 25.5787C154.541 25.6419 154.635 25.6845 154.74 25.6988C154.844 25.7132 154.952 25.6984 155.043 25.6571L156.82 24.552L156.488 25.6442C156.461 25.7345 156.482 25.8293 156.546 25.9076C156.61 25.9859 156.711 26.0414 156.828 26.0619C156.945 26.0823 157.067 26.066 157.168 26.0166C157.269 25.9672 157.341 25.8887 157.367 25.7984L157.948 23.8324L158.314 23.6139L158.861 23.8067C158.661 24.2768 158.505 24.7579 158.397 25.2459C158.389 25.3285 158.419 25.4106 158.483 25.4772C158.546 25.5439 158.638 25.5908 158.743 25.6094C158.847 25.628 158.956 25.6172 159.051 25.5788C159.146 25.5404 159.22 25.477 159.26 25.4001L159.675 24.1151L160.571 24.4363L159.442 25.4129C159.385 25.4628 159.347 25.5244 159.334 25.5904C159.32 25.6564 159.332 25.7241 159.367 25.7851C159.402 25.8462 159.459 25.8982 159.531 25.9347C159.604 25.9713 159.688 25.9909 159.774 25.9912C160.04 25.9912 160.023 25.9912 161.285 24.8604C161.434 24.7319 161.202 24.6676 162.065 25.066V25.5157C162.065 25.5157 160.405 26.9035 160.405 26.9292C160.348 26.9791 160.31 27.0407 160.296 27.1067C160.283 27.1727 160.295 27.2404 160.33 27.3014C160.365 27.3625 160.422 27.4145 160.494 27.451C160.566 27.4876 160.651 27.5072 160.737 27.5075C161.053 27.5075 161.152 27.3276 162.098 26.518V28.2785C162.086 28.3287 162.088 28.3805 162.104 28.4302C162.12 28.4798 162.15 28.526 162.192 28.5655C162.234 28.605 162.287 28.6369 162.347 28.6587C162.407 28.6806 162.472 28.6919 162.538 28.6919C162.604 28.6919 162.67 28.6806 162.73 28.6587C162.789 28.6369 162.842 28.605 162.884 28.5655C162.926 28.526 162.956 28.4798 162.973 28.4302C162.989 28.3805 162.991 28.3287 162.978 28.2785V26.4923C163.974 27.4432 163.974 27.5075 164.256 27.5075C164.341 27.5075 164.424 27.489 164.496 27.4541C164.567 27.4191 164.625 27.3691 164.661 27.31C164.698 27.2508 164.712 27.1848 164.702 27.1197C164.692 27.0546 164.658 26.993 164.605 26.9421L162.945 25.3615V24.9503C163.642 24.6676 163.41 24.7062 163.559 24.8475C164.754 25.9912 164.738 26.0297 165.02 26.0297C165.105 26.0298 165.188 26.0113 165.259 25.9763C165.331 25.9414 165.388 25.8914 165.425 25.8322C165.461 25.7731 165.475 25.7071 165.465 25.642C165.455 25.5769 165.422 25.5153 165.369 25.4643L164.256 24.4235C164.92 24.1279 165.916 23.5754 166.431 23.2798C167.311 24.5648 167.278 24.6548 167.643 24.6548C167.719 24.6544 167.793 24.639 167.86 24.6101C167.926 24.5812 167.982 24.5398 168.021 24.4897C168.061 24.4396 168.084 24.3824 168.087 24.3236C168.091 24.2648 168.075 24.2063 168.041 24.1536L167.228 22.9457C167.128 22.8044 166.995 22.9457 167.543 22.5859L168.041 22.7658C169.303 24.6291 169.253 24.6933 169.701 24.6933C169.778 24.6906 169.852 24.6733 169.918 24.6429C169.984 24.6124 170.039 24.5699 170.078 24.519C170.118 24.4681 170.14 24.4105 170.144 24.3512C170.148 24.292 170.132 24.2329 170.1 24.1793L169.436 23.2027L171.511 23.9095C171.564 23.9508 171.631 23.9808 171.704 23.9969C171.776 24.0129 171.853 24.0144 171.927 24.0012C172.001 23.988 172.069 23.9605 172.126 23.9213C172.182 23.8821 172.225 23.8325 172.25 23.7771C172.274 23.7218 172.281 23.6624 172.268 23.6046C172.255 23.5468 172.224 23.4925 172.176 23.4466C172.129 23.4008 172.068 23.365 171.998 23.3426C171.928 23.3202 171.851 23.3118 171.776 23.3184ZM167.062 21.7121L163.377 20.4271L166.398 18.7695C166.481 19.1807 166.879 20.9154 167.062 21.7121ZM162.082 17.0219L161.932 20.0545L158.33 18.9879L162.082 17.0219ZM165.883 18.2169L162.829 19.8874L162.962 17.0861C163.889 17.5475 164.88 17.9268 165.916 18.2169H165.883ZM158.065 19.6561L161.534 20.6713L158.48 22.5988C158.363 21.6222 158.231 20.5428 158.098 19.6561H158.065ZM159.044 23.1385L161.883 21.3523L161.982 24.2307C161.058 23.8 160.086 23.4344 159.077 23.1385H159.044ZM162.879 24.2179L162.762 21.0182L166.597 22.3032C166.464 22.3803 163.924 23.7553 162.912 24.2179H162.879Z" fill="#51BDBF"/>
<path d="M221.012 63.5005C226.438 65.5037 232.518 66.1933 238.458 65.4794C238.391 68.0961 237.658 70.6768 236.3 73.0737C235.742 74.2711 234.705 75.2996 233.34 76.0099C231.976 76.7201 230.354 77.0753 228.711 77.0237C227.068 76.9721 225.489 76.5166 224.203 75.7231C222.917 74.9296 221.991 73.8396 221.56 72.6111C220.232 70.054 220.73 66.6487 221.012 63.5005Z" fill="white"/>
<path d="M229.029 77.6997C227.137 77.6936 225.299 77.2061 223.799 76.3121C222.299 75.4182 221.221 74.1675 220.729 72.7525C219.634 70.6965 219.717 68.8975 220.148 63.4234C220.155 63.3094 220.198 63.1984 220.274 63.1007C220.35 63.003 220.456 62.9216 220.584 62.864C220.711 62.8065 220.855 62.7746 221.002 62.7713C221.149 62.768 221.295 62.7934 221.427 62.8451C226.672 64.7959 232.557 65.4723 238.309 64.7855C238.437 64.7706 238.568 64.7774 238.693 64.8056C238.817 64.8337 238.933 64.8825 239.03 64.9485C239.128 65.0144 239.207 65.0961 239.26 65.1878C239.313 65.2794 239.34 65.3789 239.338 65.4794C239.273 68.1914 238.523 70.8673 237.13 73.3564C236.516 74.6348 235.41 75.7365 233.961 76.5131C232.513 77.2897 230.791 77.7039 229.029 77.6997ZM221.808 64.5028C221.559 68.8075 221.377 70.3881 222.389 72.3027C222.748 73.4019 223.553 74.383 224.686 75.1016C225.818 75.8202 227.219 76.2383 228.682 76.2944C230.145 76.3505 231.592 76.0417 232.811 75.4133C234.03 74.7849 234.957 73.8703 235.454 72.8039C236.639 70.7274 237.336 68.5037 237.512 66.2375C232.172 66.7296 226.758 66.1315 221.808 64.5028Z" fill="#5E503B"/>
<path d="M217.957 120.015L191.431 110.39L221.842 98.5166L246.675 106.265L217.957 120.015Z" fill="#FFFDA9"/>
<path d="M217.958 120.708C217.659 120.708 219.402 121.325 191.049 111.019C190.884 110.967 190.743 110.878 190.644 110.764C190.544 110.649 190.491 110.515 190.491 110.377C190.491 110.239 190.544 110.104 190.644 109.99C190.743 109.875 190.884 109.786 191.049 109.734C223.568 97.0386 221.643 97.6682 222.191 97.8353L247.091 105.545C247.263 105.585 247.416 105.663 247.53 105.771C247.644 105.878 247.713 106.01 247.729 106.148C247.745 106.287 247.707 106.426 247.62 106.548C247.533 106.669 247.4 106.768 247.24 106.83C216.497 121.505 218.356 120.708 217.958 120.708ZM193.473 110.428L217.908 119.295L244.7 106.445L221.892 99.3259L193.473 110.428Z" fill="#B39144"/>
<path d="M83.3481 71.1332C83.3481 72.7656 84.1859 74.3312 85.6771 75.4855C87.1682 76.6398 89.1907 77.2883 91.2995 77.2883C93.4084 77.2883 95.4309 76.6398 96.922 75.4855C98.4132 74.3312 99.2509 72.7656 99.2509 71.1332C99.2509 69.5007 98.4132 67.9351 96.922 66.7808C95.4309 65.6265 93.4084 64.978 91.2995 64.978C89.1907 64.978 87.1682 65.6265 85.6771 66.7808C84.1859 67.9351 83.3481 69.5007 83.3481 71.1332Z" fill="#FFCECC"/>
<path d="M129.529 65.9545C129.529 67.5869 130.367 69.1525 131.858 70.3068C133.349 71.4611 135.372 72.1096 137.481 72.1096C139.59 72.1096 141.612 71.4611 143.103 70.3068C144.594 69.1525 145.432 67.5869 145.432 65.9545C145.432 64.322 144.594 62.7564 143.103 61.6021C141.612 60.4478 139.59 59.7993 137.481 59.7993C135.372 59.7993 133.349 60.4478 131.858 61.6021C130.367 62.7564 129.529 64.322 129.529 65.9545Z" fill="#FFCECC"/>
<path d="M96.6778 62.5751C95.8699 62.5853 95.0838 62.78 94.4183 63.1348C93.7528 63.4897 93.2376 63.9889 92.9374 64.5697C92.6372 65.1504 92.5655 65.7869 92.7311 66.3992C92.8967 67.0115 93.2924 67.5722 93.8683 68.0109C94.4443 68.4497 95.1749 68.7469 95.9684 68.8653C96.7619 68.9836 97.5829 68.9179 98.3283 68.6762C99.0736 68.4345 99.7101 68.0278 100.158 67.507C100.605 66.9862 100.844 66.3746 100.844 65.7491C100.845 65.3279 100.736 64.9109 100.526 64.5225C100.316 64.134 100.008 63.7818 99.6201 63.4864C99.2323 63.191 98.7725 62.9583 98.2673 62.8018C97.7622 62.6454 97.2219 62.5683 96.6778 62.5751Z" fill="#5E503B"/>
<path d="M130.26 58.9644C129.448 58.9618 128.654 59.1458 127.977 59.493C127.301 59.8402 126.773 60.335 126.46 60.9148C126.147 61.4945 126.064 62.1331 126.22 62.7496C126.376 63.3661 126.765 63.9329 127.338 64.3781C127.911 64.8232 128.641 65.1268 129.437 65.2503C130.233 65.3738 131.058 65.3117 131.808 65.0719C132.559 64.832 133.2 64.4252 133.651 63.903C134.103 63.3808 134.343 62.7666 134.343 62.1383C134.339 61.2998 133.908 60.4964 133.144 59.9022C132.379 59.3081 131.343 58.9711 130.26 58.9644Z" fill="#5E503B"/>
<path d="M203.532 56.5612C203.532 58.0062 204.274 59.392 205.594 60.4138C206.914 61.4356 208.704 62.0096 210.571 62.0096C212.437 62.0096 214.228 61.4356 215.548 60.4138C216.867 59.392 217.609 58.0062 217.609 56.5612C217.609 55.1162 216.867 53.7304 215.548 52.7086C214.228 51.6868 212.437 51.1128 210.571 51.1128C208.704 51.1128 206.914 51.6868 205.594 52.7086C204.274 53.7304 203.532 55.1162 203.532 56.5612Z" fill="#FFAF9C"/>
<path d="M251.124 57.2295C252.516 57.2295 253.877 57.5491 255.035 58.1477C256.192 58.7464 257.094 59.5973 257.627 60.5929C258.16 61.5885 258.299 62.6839 258.028 63.7408C257.756 64.7977 257.086 65.7685 256.101 66.5305C255.117 67.2925 253.863 67.8114 252.497 68.0216C251.132 68.2318 249.717 68.124 248.431 67.7116C247.145 67.2992 246.046 66.6009 245.272 65.7049C244.499 64.8089 244.086 63.7555 244.086 62.6779C244.084 61.9619 244.264 61.2527 244.617 60.5909C244.97 59.9291 245.489 59.3278 246.143 58.8215C246.797 58.3153 247.573 57.914 248.428 57.6408C249.283 57.3676 250.199 57.2278 251.124 57.2295Z" fill="#FFAF9C"/>
<path d="M213.442 53.2715C213.442 54.0145 213.824 54.727 214.502 55.2523C215.181 55.7777 216.101 56.0728 217.061 56.0728C218.021 56.0728 218.941 55.7777 219.62 55.2523C220.299 54.727 220.68 54.0145 220.68 53.2715C220.68 52.5286 220.299 51.816 219.62 51.2907C218.941 50.7654 218.021 50.4702 217.061 50.4702C216.101 50.4702 215.181 50.7654 214.502 51.2907C213.824 51.816 213.442 52.5286 213.442 53.2715Z" fill="#5E503B"/>
<path d="M246.526 55.0449C245.81 55.0449 245.111 55.2092 244.516 55.517C243.92 55.8248 243.457 56.2623 243.183 56.7742C242.909 57.2861 242.837 57.8493 242.977 58.3927C243.116 58.9361 243.461 59.4353 243.967 59.827C244.473 60.2188 245.118 60.4856 245.82 60.5937C246.522 60.7018 247.25 60.6463 247.911 60.4343C248.572 60.2223 249.137 59.8632 249.535 59.4025C249.933 58.9419 250.145 58.4003 250.145 57.8462C250.145 57.1033 249.764 56.3908 249.085 55.8654C248.406 55.3401 247.486 55.0449 246.526 55.0449Z" fill="#5E503B"/>
<path d="M91.0029 107.714L113.654 90.2661L148.184 117.127L125.534 134.575L91.0029 107.714Z" fill="#FEDAF6"/>
<path d="M125.545 135.255C124.964 135.255 127.205 136.823 90.37 108.193C90.2857 108.129 90.2186 108.053 90.1729 107.969C90.1271 107.886 90.1035 107.795 90.1035 107.704C90.1035 107.613 90.1271 107.523 90.1729 107.439C90.2186 107.356 90.2857 107.28 90.37 107.216L113.029 89.7658C113.197 89.6371 113.424 89.5649 113.66 89.5649C113.896 89.5649 114.123 89.6371 114.291 89.7658L148.835 116.622C149.002 116.754 149.096 116.932 149.096 117.117C149.096 117.302 149.002 117.48 148.835 117.612C124.682 136.206 126.093 135.255 125.545 135.255ZM92.3454 107.704L125.545 133.584L146.926 117.111L113.726 91.2307L92.3454 107.704Z" fill="#FFAAD7"/>
<path d="M82.7085 110.277L109.725 97.0669L135.869 129.105L108.852 142.315L82.7085 110.277Z" fill="#FFE7AB"/>
<path d="M108.099 142.682L81.9536 110.647C81.8286 110.489 81.7882 110.3 81.8409 110.12C81.8937 109.94 82.0354 109.783 82.2358 109.683L109.261 96.4732C109.462 96.3804 109.703 96.3513 109.931 96.392C110.16 96.4326 110.36 96.5399 110.489 96.6916L136.634 128.727C136.759 128.884 136.799 129.073 136.747 129.253C136.694 129.433 136.552 129.59 136.352 129.69L109.327 142.9C109.126 142.996 108.885 143.027 108.655 142.986C108.425 142.945 108.225 142.836 108.099 142.682ZM83.9456 110.492L109.128 141.332L134.642 128.855L109.443 98.0151L83.9456 110.492Z" fill="#EFAC54"/>
<path d="M74.5605 104.837L105.557 99.3955L116.327 136.153L85.3303 141.595L74.5605 104.837Z" fill="#B7B7B7"/>
<path d="M86.5519 142.759C86.3507 142.757 86.1561 142.703 85.9995 142.605C85.8429 142.507 85.7335 142.371 85.6887 142.22L74.7161 105.289C74.6613 105.11 74.7004 104.921 74.8249 104.765C74.9494 104.608 75.1491 104.496 75.3802 104.453C108.58 98.5296 106.738 98.7737 107.202 99.005C107.667 99.2363 106.904 96.9876 118.573 136.36C118.623 136.54 118.58 136.729 118.453 136.885C118.326 137.041 118.125 137.152 117.893 137.195C84.9417 143.055 86.7179 142.759 86.5519 142.759ZM76.5919 105.648L87.1661 141.23L116.565 136L106.057 100.419L76.5919 105.648Z" fill="#5E503B"/>
<path d="M89.0749 123.792C88.5894 124.107 88.2492 124.535 88.1055 125.013C87.9618 125.49 88.0224 125.991 88.2781 126.439C89.1247 127.647 91.3657 127.724 93.0423 127.223C93.1291 127.844 93.4922 128.421 94.0691 128.857C94.6461 129.292 95.401 129.559 96.2041 129.61C97.0073 129.662 97.8087 129.496 98.4706 129.14C99.1326 128.784 99.6138 128.261 99.8317 127.66C100.215 127.99 100.688 128.248 101.218 128.416C101.748 128.584 102.32 128.657 102.891 128.63C103.463 128.602 104.019 128.476 104.518 128.259C105.017 128.042 105.447 127.741 105.775 127.377C106.04 126.983 106.12 126.529 106.002 126.093C105.884 125.657 105.575 125.267 105.127 124.987C106.787 124.795 108.265 123.51 107.302 122.315C105.21 120.04 89.8883 123.24 89.0749 123.792Z" fill="white"/>
<path d="M92.3783 128.084C91.4949 128.309 90.5408 128.306 89.6604 128.074C88.7799 127.842 88.0208 127.395 87.4979 126.799C87.1413 126.212 87.0439 125.551 87.2209 124.917C87.3979 124.283 87.8394 123.712 88.4773 123.291C89.7223 122.43 105.542 119.205 108.032 121.942C108.26 122.233 108.404 122.559 108.455 122.898C108.505 123.236 108.462 123.579 108.326 123.903C108.191 124.227 107.967 124.525 107.67 124.777C107.373 125.028 107.01 125.227 106.604 125.36C108.264 127.866 104.164 130.577 100.197 128.765C99.7598 129.304 99.1351 129.737 98.3946 130.013C97.6541 130.289 96.8279 130.398 96.0111 130.327C95.1942 130.256 94.4199 130.007 93.7773 129.611C93.1346 129.214 92.6497 128.685 92.3783 128.084ZM93.9221 127.146C94.0101 127.587 94.2866 127.992 94.7074 128.297C95.1282 128.601 95.6688 128.788 96.2427 128.826C96.8166 128.865 97.3906 128.753 97.8728 128.509C98.355 128.265 98.7174 127.903 98.9021 127.48C98.9432 127.365 99.022 127.26 99.1309 127.175C99.2398 127.091 99.3751 127.029 99.5237 126.997C99.6723 126.965 99.8292 126.963 99.9791 126.991C100.129 127.019 100.267 127.077 100.379 127.159C100.666 127.414 101.022 127.617 101.422 127.752C101.823 127.886 102.257 127.95 102.693 127.938C103.13 127.925 103.557 127.837 103.944 127.68C104.33 127.523 104.667 127.301 104.928 127.031C105.075 126.777 105.113 126.494 105.035 126.223C104.957 125.952 104.768 125.708 104.496 125.527C104.331 125.449 104.204 125.331 104.132 125.192C104.061 125.053 104.05 124.899 104.1 124.755C104.15 124.61 104.26 124.482 104.412 124.39C104.564 124.297 104.751 124.246 104.944 124.242C106.023 124.114 107.069 123.355 106.472 122.623C105.094 121.094 91.7807 123.458 89.8717 124.139C89.5115 124.372 89.2462 124.68 89.1077 125.026C88.9692 125.373 88.9636 125.743 89.0915 126.092C89.6227 126.863 91.3823 126.889 92.7269 126.504C92.8609 126.467 93.0042 126.455 93.1451 126.47C93.286 126.485 93.4204 126.525 93.5371 126.588C93.6539 126.651 93.7497 126.734 93.8166 126.831C93.8835 126.928 93.9197 127.036 93.9221 127.146Z" fill="#E5E5E5"/>
<path d="M93.142 117.689C93.1951 117.523 93.166 117.348 93.0603 117.198C92.9546 117.049 92.7801 116.935 92.5713 116.88C92.3626 116.825 92.1348 116.833 91.9331 116.902C91.7313 116.971 91.5704 117.096 91.482 117.252L90.818 118.46C90.154 119.205 91.7144 119.912 92.3452 119.089C92.6433 118.634 92.9093 118.167 93.142 117.689Z" fill="#E5E5E5"/>
<path d="M99.6326 118.319L99.9812 117.65C100.396 116.61 98.4042 116.661 98.3212 117.316L97.9892 117.984C97.5244 119 99.4168 119.012 99.6326 118.319Z" fill="#E5E5E5"/>
<path d="M105.011 114.463C105.01 114.312 104.946 114.166 104.827 114.046C104.709 113.926 104.544 113.839 104.356 113.799C104.169 113.758 103.969 113.766 103.788 113.821C103.606 113.876 103.453 113.975 103.351 114.103L102.986 115.157C102.954 115.241 102.944 115.33 102.957 115.417C102.969 115.504 103.004 115.589 103.059 115.666C103.113 115.743 103.187 115.811 103.276 115.866C103.364 115.921 103.466 115.961 103.575 115.986C103.684 116.01 103.798 116.018 103.911 116.008C104.024 115.999 104.133 115.972 104.233 115.93C104.332 115.887 104.42 115.83 104.491 115.761C104.561 115.693 104.614 115.614 104.646 115.53L105.011 114.463Z" fill="#E5E5E5"/>
<path d="M97.0761 114.065L97.5741 112.999C97.9891 112.202 96.1631 111.714 95.9141 112.639L95.4161 113.705C94.9679 114.682 96.8437 114.785 97.0761 114.065Z" fill="#E5E5E5"/>
<path d="M93.0093 111.829L93.6899 110.763C94.3539 110.03 92.8267 109.298 92.1627 110.133L91.4821 111.199C90.8845 111.945 92.3785 112.651 93.0093 111.829Z" fill="#E5E5E5"/>
</g>
<defs>
<clipPath id="clip0_53_985">
<rect width="332" height="257" fill="white" transform="translate(0 -3.59375)"/>
</clipPath>
</defs>
</svg>
