<svg width="240" height="213" viewBox="0 0 240 213" fill="none" xmlns="http://www.w3.org/2000/svg">
<g clip-path="url(#clip0_52_91)">
<g clip-path="url(#clip1_52_91)">
<path d="M24.5254 127.202C15.2589 127.577 8.50263 125.346 7.1674 117.756C6.16598 111.846 11.814 111.128 9.50405 102.357C8.39581 98.2031 9.43729 94.2372 11.0663 90.3044C14.4844 82.0411 27.089 76.2966 35.0336 74.5622C47.0506 71.933 59.2947 75.8879 64.1683 80.5829C66.9991 83.338 69.1616 86.5186 70.5373 89.9509C71.6565 92.3329 72.4666 94.8066 72.954 97.3303C73.1087 98.0598 72.9816 98.811 72.591 99.4773C72.2003 100.144 71.5658 100.691 70.7776 101.042C69.9837 101.283 69.1289 101.354 68.293 101.248C67.4572 101.141 66.6674 100.862 65.9975 100.435C61.2041 97.1205 64.5154 92.5359 55.0353 84.9023C52.485 82.8365 42.9515 80.8591 39.6268 85.1343C30.9344 96.4355 36.3421 100.667 36.9563 108.057C37.1299 110.267 36.8762 112.476 34.2058 113.857C33.9725 113.958 33.7906 114.125 33.6927 114.328C33.5948 114.53 33.5874 114.755 33.6717 114.962C34.139 116.597 35.0069 121.999 36.2086 122.904C37.7308 124.009 37.5438 125.269 35.7413 126.053C34.3179 126.611 32.7749 126.93 31.2015 126.992C28.9883 127.228 26.7538 127.298 24.5254 127.202Z" fill="#FADF8F"/>
<path d="M136.164 191.131C136.858 191.076 134.361 190.358 168.984 201.361C169.413 201.442 169.803 201.625 170.107 201.888C170.411 202.152 170.615 202.483 170.693 202.841C170.84 204.2 170.439 203.614 148.661 213.082C148.095 213.376 147.437 213.527 146.769 213.518C146.1 213.508 145.45 213.337 144.896 213.027C116.389 198.864 116.389 199.638 116.616 198.113C116.75 197.207 117.657 197.008 118.525 196.699C123.599 195.108 128.646 193.385 133.8 191.993C134.642 191.772 135.202 191.131 136.164 191.131Z" fill="#FADF8F"/>
<path d="M209.441 144.601C212.018 144.689 212.432 145.584 211.911 146.81C210.015 151.296 205.462 162.475 205.048 163.58C204.634 164.685 203.846 164.917 202.738 164.453C201.432 164.05 200.046 163.855 198.652 163.878C194.553 163.558 190.427 163.425 186.315 163.149C184.508 162.939 182.674 162.939 180.867 163.149C179.919 163.293 179.332 162.862 179.425 162.044C179.692 159.493 181.041 149.406 181.588 146.766C181.679 146.402 181.679 146.026 181.588 145.662C181.321 144.623 181.775 144.181 183.07 144.17C188.478 144.071 207.785 144.535 209.441 144.601Z" fill="#FADF8F"/>
<path d="M162.935 161.448C163.066 166.131 161.172 170.698 157.594 174.329C157.238 174.731 156.715 175.01 156.125 175.113C151.122 176.098 145.929 176.226 140.864 175.489C138.622 175.073 136.653 173.972 135.349 172.407C132.692 169.376 131.363 165.685 131.584 161.945C131.552 161.099 131.78 160.259 132.247 159.506C132.715 158.752 133.405 158.109 134.254 157.637C135.49 157.112 136.875 156.879 138.26 156.963C144.229 156.609 154.056 155.858 160.719 157.416C163.296 157.99 162.908 158.443 162.935 161.448Z" fill="#FADF8F"/>
<path d="M115.16 218.175C114.066 218.23 115.387 218.826 94.7315 206.851C94.0372 206.454 93.3963 205.979 93.5965 205.172C93.9571 203.659 98.2698 203.327 101.608 201.759C103.077 201.063 102.489 201.394 123.88 212.684C124.627 213.071 125.215 213.535 125.121 214.308C125.028 215.081 124.307 215.347 123.519 215.59C117.257 217.523 116.669 217.832 115.16 218.175Z" fill="#FADF8F"/>
<path d="M181.241 101.948C181.455 100.953 181.588 99.9482 181.909 98.9871C182.01 98.8093 182.067 98.6164 182.076 98.4199C182.085 98.2234 182.046 98.0274 181.962 97.8437C181.877 97.66 181.748 97.4924 181.583 97.351C181.418 97.2096 181.22 97.0972 181.001 97.0207C179.764 96.4099 178.658 95.6334 177.729 94.7229C176.541 93.6182 177.035 92.5135 178.784 92.1931C179.841 91.9977 180.911 91.8575 181.989 91.7733C182.343 91.7733 182.682 91.657 182.933 91.4498C183.183 91.2426 183.324 90.9616 183.324 90.6686C183.591 89.5639 183.858 88.4592 184.072 87.2882C184.192 86.6585 184.459 86.1835 185.287 86.0509C185.637 86.0158 185.991 86.0796 186.291 86.232C186.592 86.3845 186.821 86.6165 186.942 86.8905C188.571 89.3098 187.864 90.8122 189.827 90.6244C191.304 90.5697 192.784 90.6363 194.246 90.8233C194.624 90.8077 194.998 90.8933 195.313 91.0672C195.628 91.2412 195.866 91.4944 195.993 91.7893C196.121 92.0842 196.13 92.4051 196.02 92.7047C195.909 93.0042 195.685 93.2664 195.381 93.4525C194.706 94.0127 193.988 94.5367 193.231 95.0212C193.059 95.1127 192.911 95.2319 192.796 95.3718C192.681 95.5117 192.601 95.6693 192.561 95.8354C192.521 96.0014 192.522 96.1724 192.564 96.3381C192.606 96.5038 192.687 96.6608 192.804 96.7998C193.231 97.5178 193.565 98.258 193.992 99.0092C194.215 99.3024 194.313 99.6491 194.269 99.9936C194.226 100.338 194.044 100.661 193.752 100.909C193.138 101.44 192.417 101.252 191.682 101.064C189.72 100.567 189.146 99.0755 187.57 100.125C185.647 101.373 183.564 103.914 181.989 103.207C181.728 103.081 181.519 102.895 181.386 102.671C181.253 102.447 181.202 102.195 181.241 101.948Z" fill="#FADF8F"/>
<path d="M121.142 54.9091C120.234 54.7986 119.033 55.2847 118.365 54.3015C117.764 53.2121 117.664 51.9787 118.085 50.8327C118.739 48.0599 119.18 45.2208 121.089 42.7683C121.196 42.6527 121.247 42.5084 121.232 42.3634C121.217 42.2183 121.138 42.0831 121.009 41.984C119.847 40.9345 120.274 39.874 121.383 38.5704C121.881 38.0273 122.486 37.5569 123.172 37.1785C123.539 36.9406 123.965 36.774 124.421 36.6909C124.876 36.6078 125.347 36.6103 125.801 36.6983C126.255 36.7864 126.679 36.9576 127.042 37.1994C127.405 37.4412 127.698 37.7474 127.899 38.0954C128.476 39.0052 128.719 40.0348 128.598 41.0574C128.477 42.08 127.997 43.051 127.218 43.8509C125.882 45.0661 128.393 45.0551 128.553 52.2688C128.553 53.6497 127.965 54.2352 126.336 54.4783C124.622 54.7374 122.885 54.8814 121.142 54.9091Z" fill="#FADF8F"/>
<path d="M105.08 47.8943C105.143 45.5931 105.592 43.3103 106.415 41.1114C106.549 40.8526 106.585 40.5662 106.518 40.29C106.451 40.0139 106.285 39.761 106.041 39.5648C104.425 38.0403 104.813 34.9913 106.695 33.5441C107.676 32.8998 108.899 32.5611 110.152 32.5874C111.404 32.6136 112.605 33.0031 113.545 33.6877C114.68 34.5825 114.306 35.7425 114.172 36.7699C114.172 37.4401 113.97 38.0997 113.585 38.6896C113.201 39.2795 112.646 39.7814 111.969 40.1503C111.636 40.3049 111.515 40.5369 111.742 40.7579C113.371 42.3818 113.425 44.5028 114.413 46.2814C114.733 46.9111 114.934 47.5739 115.201 48.2257C115.345 48.4554 115.425 48.7091 115.434 48.9679C115.443 49.2268 115.381 49.4839 115.252 49.7199C115.123 49.956 114.932 50.1649 114.692 50.3309C114.452 50.4968 114.169 50.6156 113.865 50.6782C112.153 51.1768 110.317 51.3135 108.524 51.0759C108.311 51.0759 108.097 50.9875 107.884 50.9654C105.08 50.7003 105.04 50.1921 105.08 47.8943Z" fill="#FADF8F"/>
<path d="M124.707 30.9481C124.667 32.0765 124.2 33.1659 123.372 34.0634C123.225 34.2733 122.785 34.4832 122.985 34.6931C123.92 35.6873 122.825 35.9304 122.184 36.3944C120.883 37.2531 119.91 38.4037 119.38 39.7085C118.565 42.0394 120.555 40.9237 119.18 44.1273C118.619 45.442 118.151 46.7897 117.671 48.1264C117.577 48.3915 117.671 48.7561 117.19 48.7782C115.988 48.8666 116.669 47.9276 114.52 43.332C114.039 42.3267 112.276 40.5702 114.52 38.5706C115.374 37.8194 114.68 35.3891 116.135 34.1518C116.656 33.6878 116.349 33.0471 116.215 32.4947C115.641 30.1638 116.576 28.5399 119.113 27.8218C122.17 26.9491 124.934 28.6172 124.707 30.9481Z" fill="#FADF8F"/>
<path d="M175.833 108.786C174.899 109.085 174.123 109.649 173.643 110.377C173.283 110.808 172.882 111.205 172.175 111.106C171.467 111.006 171.32 110.465 171.213 110.001C171.15 109.79 171.101 109.576 171.066 109.36C170.933 107.151 169.438 107.549 168.396 107.372C168.204 107.348 168.025 107.276 167.884 107.165C167.744 107.055 167.647 106.911 167.608 106.753C167.355 105.892 168.169 105.383 169.077 104.919C172.762 103.041 169.905 99.7163 171.747 99.1639C171.988 99.101 172.247 99.1023 172.486 99.1678C172.726 99.2332 172.935 99.3594 173.083 99.5285C173.695 100.132 174.261 100.767 174.778 101.429C174.94 101.703 175.208 101.925 175.539 102.059C175.871 102.193 176.247 102.232 176.608 102.169C176.999 102.141 177.392 102.141 177.783 102.169C179.118 102.169 179.465 102.611 178.851 103.649C177.636 105.682 177.516 105.582 179.118 106.963C179.559 107.339 180.24 107.648 179.946 108.3C179.585 109.382 176.982 108.532 175.833 108.786Z" fill="#FADF8F"/>
<path d="M73.5816 111.161C74.1804 112.784 74.6268 114.442 74.9168 116.121C74.961 116.281 74.9547 116.447 74.8986 116.603C74.8424 116.76 74.7383 116.902 74.5964 117.016C73.4764 118.11 71.9968 118.912 70.337 119.325C62.3256 120.838 60.9904 121.656 60.9904 120.894C60.9904 120.131 59.9089 119.248 61.1106 118.762C62.8593 118.013 64.2311 116.776 64.9827 115.271C65.1697 114.961 65.37 114.685 65.8373 114.707C70.4171 114.906 72.4734 111.404 73.5816 111.161Z" fill="#FADF8F"/>
<path d="M152.253 64.1557C150.918 67.0169 146.031 75.0592 144.923 76.8378C143.307 79.4228 140.917 81.6322 139.021 84.0737C138.794 84.3609 138.46 84.7034 137.953 84.4824C137.445 84.2615 137.566 83.8417 137.713 83.444C138.264 82.3916 138.607 81.2725 138.727 80.1298C138.474 76.8157 141.091 74.6063 142.733 72.1096C144.642 69.0827 146.739 66.1552 148.835 63.1836C149.195 62.6643 149.503 61.9905 150.33 62.344C151.158 62.6975 152.093 63.0731 152.253 64.1557ZM150.918 64.2551C150.918 63.8795 150.744 63.6807 150.411 63.6144C149.836 63.515 150.651 62.9295 140.717 77.2465C140.129 78.0751 140.543 78.285 141.411 78.4507C142.599 78.6716 142.319 79.0804 150.37 65.3709C150.558 65.006 150.722 64.6336 150.865 64.2551H150.918ZM139.355 82.4056C140.69 81.0026 141.691 79.9531 141.518 79.688C141.157 79.3887 140.688 79.1948 140.183 79.1356C139.809 79.1356 139.689 79.7542 139.649 80.0304C139.449 80.8121 139.332 81.6069 139.301 82.4056H139.355Z" fill="#FADF8F"/>
<path d="M67.6664 111.879C68.7009 110.043 69.3683 108.081 69.6426 106.068C69.8028 105.256 69.8028 104.428 69.6426 103.616C69.5625 103.373 69.469 103.064 69.6426 102.898C69.8161 102.732 70.2034 102.898 70.4571 103.041C71.1209 103.409 71.6557 103.915 72.0073 104.509C72.359 105.103 72.5151 105.762 72.4599 106.422C72.313 107.173 72.086 107.902 71.9258 108.631C71.5386 110.664 69.8829 111.504 67.6531 111.824L67.6664 111.879Z" fill="#FADF8F"/>
<path d="M162.668 170.462C162.908 169.17 164.27 168.628 164.991 167.734C167.154 165.082 169.344 164.011 168.223 162.696C167.315 161.591 165.859 162.387 165.272 162.541C165.045 162.608 164.778 162.818 164.617 162.541C164.587 162.491 164.572 162.436 164.572 162.38C164.571 162.324 164.587 162.269 164.616 162.219C164.646 162.169 164.689 162.125 164.743 162.091C164.796 162.057 164.858 162.033 164.925 162.022C165.781 161.744 166.679 161.566 167.595 161.492C167.972 161.484 168.346 161.553 168.682 161.694C169.018 161.835 169.307 162.044 169.522 162.3C169.736 162.557 169.87 162.854 169.912 163.164C169.953 163.474 169.9 163.788 169.758 164.077C168.903 167.082 166.113 168.728 163.082 170.484C162.943 170.492 162.804 170.484 162.668 170.462Z" fill="#FADF8F"/>
<path d="M99.5519 29.9759C98.4169 29.8765 98.2167 28.7607 99.3115 28.5398C102.222 27.9432 105.307 26.8938 105.747 28.352C105.934 28.9706 105.52 29.3573 104.893 29.6445C103.164 30.079 101.34 30.1922 99.5519 29.9759Z" fill="#FADF8F"/>
<path d="M99.6586 23.2151C98.8842 23.9442 98.043 24.6181 97.2285 25.314C97.0605 25.4855 96.8227 25.6003 96.5596 25.6369C96.2965 25.6735 96.0263 25.6294 95.7998 25.5129C95.5926 25.3922 95.4493 25.2103 95.3996 25.0047C95.3499 24.7991 95.3975 24.5855 95.5328 24.4082C96.2225 23.2073 97.1729 22.1214 98.3367 21.2045C99.6453 20.155 101.448 21.547 99.6586 23.2151Z" fill="#FADF8F"/>
<path d="M103.678 25.0598C103.357 26.3413 101.207 26.8495 98.7906 27.5123C98.588 27.5832 98.3622 27.5944 98.1508 27.5441C97.9394 27.4939 97.7552 27.3852 97.629 27.2361C97.3353 26.8716 97.629 26.5512 97.9227 26.2861C99.0914 25.3949 100.45 24.6907 101.928 24.2092C102.108 24.1296 102.309 24.0896 102.513 24.093C102.717 24.0963 102.916 24.1429 103.092 24.2284C103.267 24.3138 103.413 24.4351 103.516 24.5807C103.619 24.7263 103.674 24.8913 103.678 25.0598Z" fill="#FADF8F"/>
<path d="M93.2897 45.0996C93.2632 45.2514 93.1988 45.3969 93.1006 45.5269C93.0024 45.657 92.8725 45.7687 92.7193 45.8549C92.5661 45.9411 92.3928 46.0001 92.2106 46.0279C92.0283 46.0557 91.8411 46.0518 91.6607 46.0165C87.6357 45.6982 83.5935 45.5507 79.5502 45.5747C77.4272 45.5747 77.5741 45.5747 77.5607 43.8182C77.7591 40.9497 76.6915 38.1192 74.5565 35.8532C74.0357 35.3561 73.9289 35.102 74.6766 34.7485C79.163 32.4507 83.5426 30.0314 88.2292 28.0318C90.5926 27.0265 90.8997 27.2143 92.3684 29.0703C94.3846 31.7105 95.1991 40.493 93.2897 45.0996Z" fill="#F4B77D"/>
<path d="M186.729 212.652L180.613 216.286C180.077 216.525 179.575 216.814 179.118 217.148C177.075 219.026 174.525 218.683 171.894 218.495C168.351 218.102 164.786 217.859 161.213 217.766C160.545 217.766 159.69 217.899 159.517 217.126C159.343 216.352 160.171 216.164 160.852 215.933C166.006 214.176 171.24 212.618 176.234 210.553C176.701 210.365 177.128 210.1 177.703 210.287C180.66 211.204 183.673 211.993 186.729 212.652Z" fill="#F4B77D"/>
<path d="M153.735 115.768C150.064 115.768 148.141 114.553 147.059 111.725C146.645 110.698 146.365 109.648 146.044 108.599C145.804 107.836 146.044 107.395 147.099 107.196C149.102 106.787 149.089 106.743 148.902 105.13C148.702 103.285 149.476 101.993 151.479 101.429C152.297 101.235 153.048 100.883 153.668 100.4C154.288 99.918 154.76 99.3201 155.044 98.6563C155.221 98.2725 155.44 97.9028 155.698 97.5516C155.774 97.3645 155.908 97.1975 156.088 97.068C156.268 96.9384 156.486 96.8511 156.721 96.815C156.955 96.7789 157.197 96.7954 157.421 96.8628C157.645 96.9302 157.843 97.0459 157.995 97.1981C159.088 98.0806 159.721 99.282 159.757 100.545C159.75 100.894 159.62 101.234 159.383 101.522C159.146 101.811 158.812 102.036 158.422 102.169C157.754 102.501 157.915 102.854 158.542 102.954C160.892 103.307 161.026 105.075 161.787 106.411C161.961 106.842 162.189 107.257 162.468 107.649C162.833 107.987 163.064 108.41 163.128 108.861C163.193 109.312 163.088 109.768 162.828 110.167C161.854 111.935 162.828 113.327 160.238 114.299C158.16 115.027 155.973 115.521 153.735 115.768ZM152.988 114.465C154.483 114.378 155.962 114.148 157.394 113.78C157.861 113.714 157.728 113.515 157.648 113.161C157.18 111.482 155.071 110.355 155.298 108.433C155.298 108.367 155.151 108.267 155.057 108.201C153.482 106.92 153.388 106.445 154.443 104.887C154.764 104.412 155.431 104.036 154.83 103.34C154.617 103.086 154.95 102.733 155.324 102.556C155.925 102.269 156.526 101.948 157.14 101.683C159.09 100.833 159.13 100.766 158.155 99.1534C158.048 98.9656 157.915 98.7778 157.794 98.579C157.674 98.3801 157.421 97.8498 156.927 97.8498C156.433 97.8498 156.352 98.358 156.232 98.6673C156.003 99.5873 155.506 100.447 154.785 101.173C154.063 101.898 153.14 102.468 152.093 102.832C151.766 102.945 151.494 103.146 151.322 103.403C151.15 103.659 151.088 103.957 151.145 104.246V105.771C151.211 106.015 151.215 106.268 151.158 106.514C151.102 106.76 150.984 106.993 150.814 107.2C150.644 107.407 150.425 107.583 150.169 107.717C149.914 107.851 149.628 107.941 149.329 107.98C148.957 108.082 148.578 108.166 148.194 108.234C147.58 108.323 147.42 108.588 147.58 109.085C147.999 110.21 148.49 111.316 149.049 112.399C149.343 113.052 149.887 113.607 150.598 113.98C151.31 114.353 152.149 114.523 152.988 114.465ZM155.551 105.804C155.271 106.201 154.857 106.643 155.351 107.074C155.845 107.505 156.446 107.35 156.967 107.074C157.435 106.776 157.881 106.455 158.302 106.113C159.771 104.931 159.998 104.578 158.769 104.025C157.955 103.594 155.885 105.285 155.551 105.804ZM157.327 109.648C158.143 109.447 158.887 109.083 159.492 108.588C160.098 108.093 160.547 107.482 160.799 106.809C160.856 106.655 160.857 106.49 160.803 106.335C160.748 106.18 160.64 106.041 160.492 105.936C160.358 105.826 160.144 105.936 160.051 106.036C159.202 106.953 158.123 107.707 156.887 108.245C156.774 108.298 156.676 108.369 156.6 108.456C156.524 108.542 156.471 108.64 156.444 108.745C156.418 108.85 156.418 108.958 156.446 109.062C156.474 109.166 156.529 109.264 156.606 109.35C156.66 109.46 156.766 109.714 157.274 109.648H157.327ZM162.187 108.908C162.211 108.762 162.182 108.614 162.103 108.482C162.025 108.351 161.901 108.241 161.747 108.168C161.319 107.98 161.266 108.4 161.146 108.555C160.501 109.381 159.571 110.028 158.475 110.41C158.195 110.521 157.26 110.41 157.714 111.073C158.035 111.548 158.395 112.034 159.237 111.836C160.545 111.131 161.557 110.108 162.134 108.908H162.187ZM159.01 112.852C159.107 113.042 159.288 113.195 159.515 113.281C159.742 113.367 160 113.379 160.238 113.316C160.597 113.171 160.888 112.933 161.067 112.637C161.246 112.341 161.302 112.005 161.226 111.681C160.63 112.253 159.839 112.661 158.956 112.852H159.01Z" fill="#F4B77D"/>
<path d="M199.507 72.143C200.135 71.9626 200.709 71.6724 201.189 71.2923C201.897 70.9167 202.618 70.74 203.312 71.2923C203.466 71.399 203.591 71.5305 203.681 71.6788C203.771 71.8271 203.823 71.989 203.834 72.1546C203.845 72.3202 203.815 72.4859 203.746 72.6416C203.677 72.7973 203.57 72.9396 203.432 73.0599C201.717 74.6321 199.825 76.0672 197.784 77.3461C197.61 77.4595 197.408 77.5405 197.193 77.5838C196.978 77.6271 196.753 77.6316 196.536 77.597C196.318 77.5624 196.112 77.4896 195.931 77.3834C195.75 77.2773 195.599 77.1402 195.488 76.9816C194.273 75.3908 192.817 73.9657 191.482 72.4744C190.841 71.7894 190.641 71.0493 191.482 70.4748C192.323 69.9004 193.124 70.287 193.739 70.9057C196.222 73.4023 196.102 73.4134 196.409 73.3802C196.716 73.3471 196.743 73.0157 196.81 72.7726C197.658 68.9735 197.351 65.0594 195.915 61.3831C194.767 58.1352 193.832 57.2625 194.94 56.8869C195.608 56.6549 195.982 57.0857 196.276 57.5055C198.527 60.6092 199.777 64.1391 199.907 67.7572C199.983 69.2271 199.849 70.6992 199.507 72.143Z" fill="#F4B77D"/>
<path d="M69.616 36.472C70.9512 36.1295 71.4987 36.9249 71.966 37.9081C73.1917 40.1017 73.6141 42.5442 73.1811 44.9341C73.1714 45.1425 73.074 45.3415 72.9058 45.4969C72.7376 45.6522 72.5091 45.754 72.2598 45.7847C70.1801 46.3368 67.9437 46.3368 65.864 45.7847C65.3834 45.6411 64.9694 45.5086 64.8226 45.0777C64.2235 43.5793 63.7769 42.0421 63.4873 40.4821C63.287 38.8471 65.9842 36.6156 68.3476 36.4831L69.616 36.472Z" fill="#F4B77D"/>
<path d="M33.3779 115.525C33.288 115.169 33.326 114.8 33.4874 114.462C33.6488 114.124 33.9264 113.833 34.2859 113.625C36.9564 111.857 35.8348 109.968 37.9044 110.532C39.1669 110.781 40.3622 111.224 41.4294 111.835C42.3423 112.371 42.9626 113.184 43.1551 114.096C43.3477 115.008 43.0969 115.947 42.4575 116.707C40.8534 118.81 38.3097 120.303 35.3808 120.861C34.4595 121.026 34.1524 120.794 33.9788 120.098C33.6316 118.585 33.5916 117.038 33.3779 115.525Z" fill="#F4B77D"/>
<path d="M100.38 70.9165V68.5635C100.335 68.2602 100.439 67.9549 100.666 67.7145C100.894 67.4742 101.228 67.3186 101.595 67.282C101.961 67.2454 102.33 67.3307 102.621 67.5192C102.911 67.7078 103.099 67.984 103.144 68.2873C103.543 69.7374 103.754 71.2188 103.771 72.7061C103.771 74.8161 98.7907 74.0207 96.2137 73.8109C95.6557 73.753 95.1085 73.638 94.5847 73.4684C94.2306 73.3937 93.9269 73.2056 93.7403 72.9456C93.5538 72.6856 93.4997 72.375 93.59 72.082C93.6803 71.789 93.9076 71.5377 94.2218 71.3833C94.5361 71.229 94.9116 71.1843 95.2657 71.259C95.8799 71.3253 96.7478 71.734 97.0549 71.259C97.362 70.7839 96.4407 70.3973 96.0802 69.9885C93.9251 67.4452 92.4711 64.5414 91.8208 61.4823C91.6873 60.941 91.3268 60.0682 92.2347 59.8583C93.1427 59.6484 93.2762 60.5654 93.57 61.0735C94.5526 63.6941 95.9536 66.1944 97.7359 68.5082C98.4328 69.4373 99.3287 70.2534 100.38 70.9165Z" fill="#F4B77D"/>
<path d="M150.21 84.3613C147.834 84.3613 147.072 83.9747 146.485 82.0746C145.804 79.8651 145.363 78.3959 148.528 76.551C149.062 76.2417 149.316 76.0428 148.822 75.4463C148.689 75.2887 148.602 75.1079 148.568 74.918C148.534 74.7281 148.553 74.5342 148.624 74.3515C148.695 74.1687 148.816 74.002 148.978 73.8642C149.139 73.7265 149.337 73.6214 149.556 73.5572C151.819 72.7179 154.231 72.1882 156.699 71.9885C157.189 71.9483 157.679 72.0695 158.061 72.326C158.444 72.5825 158.688 72.9535 158.742 73.3584C158.863 73.8445 159.116 73.9328 159.65 74.0543C160.986 74.3637 162.574 74.43 163.068 75.7335C163.883 77.3008 163.95 79.0652 163.255 80.6716C162.685 81.4936 161.774 82.1173 160.692 82.4281C157.369 83.5953 153.817 84.2505 150.21 84.3613ZM162.468 78.6279V77.5231C162.267 75.5678 159.49 74.0323 157.434 74.7945C155.663 75.3891 153.818 75.8189 151.933 76.076C148.061 76.6836 146.205 79.2686 147.593 82.2513C147.71 82.6387 147.991 82.9783 148.386 83.2077C148.781 83.437 149.263 83.5407 149.743 83.4996C153.393 83.3459 156.979 82.6498 160.331 81.4449C161.813 80.9036 162.801 80.0308 162.401 78.6279H162.468ZM151.145 75.3137C153.098 75.0841 155.024 74.7145 156.9 74.209C157.407 74.0764 157.928 73.8224 157.674 73.27C157.627 73.1644 157.555 73.0677 157.461 72.9857C157.368 72.9037 157.256 72.8381 157.131 72.7928C157.007 72.7474 156.872 72.7233 156.736 72.7218C156.6 72.7202 156.465 72.7414 156.339 72.7839C154.47 73.0894 152.625 73.4841 150.811 73.966C150.25 74.1317 149.476 74.1538 149.663 74.8829C149.85 75.612 150.544 75.137 151.078 75.3027L151.145 75.3137Z" fill="#F4B77D"/>
<path d="M98.8173 214.993C98.8173 215.866 97.0682 216.871 95.5594 216.893C94.7525 216.821 94.012 216.49 93.4956 215.972C92.9792 215.454 92.728 214.79 92.7954 214.12C92.9963 213.554 93.395 213.05 93.9414 212.67C94.4878 212.291 95.1576 212.054 95.8665 211.988C96.697 212.138 97.4413 212.518 97.9775 213.063C98.5136 213.609 98.8097 214.29 98.8173 214.993Z" fill="#F4B77D"/>
<path d="M76.2922 44.3926C76.3723 45.2764 75.7314 45.4089 74.8769 45.3758C73.782 45.3758 74.2493 44.6909 74.2894 44.2711C74.5699 41.7611 73.8778 39.2424 72.3132 37.0794C72.0328 36.7038 71.4854 36.3503 72.3132 35.9195C73.1411 35.4886 73.4482 35.9195 73.7953 36.3392C75.6948 38.7164 76.5742 41.5525 76.2922 44.3926Z" fill="#F4B77D"/>
<path d="M147.032 114.199C147.032 114.641 146.966 114.906 146.578 115.017C146.414 115.073 146.232 115.08 146.061 115.038C145.891 114.996 145.744 114.906 145.644 114.785C145.368 114.466 145.139 114.121 144.963 113.757C144.176 112.276 143.724 110.689 143.628 109.073C143.628 108.83 143.547 108.532 143.921 108.422C143.982 108.401 144.048 108.39 144.114 108.391C144.181 108.392 144.246 108.404 144.306 108.427C144.366 108.45 144.42 108.483 144.464 108.524C144.508 108.565 144.542 108.613 144.562 108.665C145.443 110.543 146.205 112.432 147.032 114.199Z" fill="#F4B77D"/>
<path d="M152.186 96.1261C152.186 96.6453 152.186 96.9767 151.666 97.0872C151.562 97.1178 151.451 97.1301 151.341 97.1236C151.23 97.1171 151.123 97.0917 151.025 97.0492C150.927 97.0067 150.841 96.9478 150.772 96.8764C150.703 96.805 150.653 96.7226 150.624 96.6343C150.138 95.4814 149.803 94.2889 149.623 93.0771C149.589 92.9499 149.614 92.8169 149.693 92.7044C149.772 92.5918 149.9 92.508 150.05 92.4695C150.357 92.3922 150.544 92.58 150.678 92.7678C151.371 93.8221 151.879 94.953 152.186 96.1261Z" fill="#F4B77D"/>
<path d="M145.35 98.4132C146.214 98.3588 147.082 98.4337 147.914 98.6341C148.341 98.7998 148.835 99.0097 148.728 99.4847C148.621 99.9598 148.047 99.9929 147.567 99.9487C146.231 99.8272 145.003 99.6615 143.721 99.5179C143.387 99.5179 143.134 99.3411 143.107 99.0539C143.101 98.9906 143.111 98.9271 143.136 98.867C143.161 98.8069 143.2 98.7516 143.251 98.7042C143.302 98.6569 143.364 98.6184 143.433 98.5912C143.503 98.564 143.578 98.5485 143.654 98.5457C144.309 98.4574 144.95 98.4463 145.35 98.4132Z" fill="#F4B77D"/>
<path d="M146.832 95.0215C148.26 95.505 149.479 96.3326 150.331 97.3966C150.385 97.5151 150.396 97.644 150.362 97.7676C150.329 97.8912 150.253 98.0041 150.144 98.0926C150.014 98.1928 149.849 98.2548 149.672 98.2688C149.496 98.2828 149.319 98.248 149.169 98.1699C148.002 97.5422 147.032 96.6941 146.338 95.6954C145.991 95.1761 146.365 95.0215 146.832 95.0215Z" fill="#F4B77D"/>
<path d="M149.329 79.3566C149.035 79.3566 148.621 79.4228 148.595 79.0914C148.568 78.76 149.142 78.6495 149.449 78.6164C152.75 78.2412 155.928 77.3248 158.796 75.9209C159.076 75.7773 159.45 75.5453 159.704 75.9209C159.753 75.9916 159.784 76.0702 159.793 76.1515C159.803 76.2327 159.792 76.3148 159.76 76.3921C159.729 76.4695 159.678 76.5404 159.61 76.6001C159.543 76.6598 159.461 76.7069 159.37 76.7384C156.307 78.2306 152.873 79.126 149.329 79.3566Z" fill="#F4B77D"/>
<path d="M41.9501 83.7754C38.5453 86.1837 38.1447 89.6193 36.716 93.0218C38.5453 92.2264 39.9873 91.2985 41.9635 91.7735C41.6697 92.1933 41.2291 92.2375 40.8419 92.359C35.6612 94.1155 35.995 94.8115 36.3021 98.9873C36.5558 102.301 38.0646 105.439 38.3316 108.753C38.3316 109.129 38.572 109.261 38.9859 109.261C44.7541 109.261 47.972 115.779 42.9916 120.087C41.6304 121.359 39.8549 122.28 37.8777 122.739C37.5839 122.794 37.2101 122.838 37.1967 123.114C37.1833 123.39 37.4771 123.446 37.6774 123.567C38.6129 124.116 39.7524 124.374 40.8953 124.296C40.014 125.103 40.014 125.103 35.5544 124.407C35.7947 125.368 36.0351 126.296 36.2487 127.213C36.3422 127.61 36.7828 127.511 37.0632 127.632C37.3436 127.754 37.624 127.776 37.5973 128.041C37.5706 128.306 37.3035 128.384 37.0365 128.439L34.2458 129.002C36.2353 129.941 37.664 131.609 40.0007 132.129C40.2388 132.175 40.4591 132.27 40.6416 132.405C40.8419 132.305 40.9353 132.073 40.8953 131.676C40.7484 130.03 41.6029 128.362 41.0021 126.749C40.8285 126.285 41.2157 125.765 41.4694 125.313C44.106 120.543 48.0681 116.356 53.0325 113.094C51.9643 112.664 50.8294 112.851 49.8413 112.542C49.4407 112.421 48.8799 112.376 49.0402 111.879C49.2805 111.15 49.8146 112.089 55.3825 111.747C55.844 111.741 56.2957 111.636 56.6935 111.442C57.0913 111.248 57.4217 110.973 57.6524 110.642C58.2265 109.836 58.8407 109.051 59.4416 108.267C59.6018 108.046 59.8155 107.814 60.1626 107.98C60.5098 108.145 60.3495 108.366 60.2694 108.576C59.8971 109.356 59.4177 110.097 58.8407 110.786C59.0677 111.062 59.3615 110.973 59.5885 110.984C60.0286 111.006 60.4516 111.133 60.8052 111.351C61.1587 111.569 61.4274 111.868 61.5779 112.211C61.7032 112.521 61.7129 112.856 61.6057 113.171C61.4986 113.486 61.2796 113.767 60.9771 113.978C59.6419 115.26 58.6538 115.679 52.5919 118.938C54.2346 119.057 55.8852 119.083 57.5322 119.016C58.4802 118.938 61.1774 118.408 62.0853 117.392C64.916 114.078 69.122 108.687 68.7615 104.677C68.6317 103.138 67.7785 101.702 66.3848 100.677C65.9494 100.336 65.5476 99.9668 65.1831 99.5728C65.0194 99.9409 64.6971 100.246 64.2782 100.429C63.8592 100.613 63.3731 100.662 62.9132 100.567C62.6339 100.526 62.3676 100.439 62.1302 100.311C61.8928 100.183 61.6893 100.016 61.532 99.8209C61.3747 99.6257 61.267 99.4062 61.2152 99.1755C61.1634 98.9449 61.1687 98.708 61.2308 98.4791C61.3643 97.5512 62.0052 97.0872 63.4206 97.0099C62.4325 94.9661 62.5393 93.2096 61.391 90.6688C61.2842 90.4147 61.0038 90.1164 61.391 89.8955C61.4467 89.8606 61.5147 89.8416 61.5846 89.8416C61.6545 89.8416 61.7225 89.8606 61.7782 89.8955C61.6018 89.4475 61.383 89.0116 61.124 88.5919C60.2828 87.7965 59.268 87.7082 57.1183 87.9291C56.8512 87.9291 56.5708 88.0175 56.464 87.7303C56.3572 87.443 56.5842 87.3215 56.8379 87.2331L58.814 86.6476C56.2771 84.3498 53.4731 82.4387 49.7879 81.7759C49.0669 81.6433 48.3592 81.4776 47.6515 81.334C47.5315 81.3177 47.4147 81.288 47.3044 81.2456C46.0671 81.28 44.8504 81.5175 43.725 81.9442C42.5995 82.3709 41.5878 82.9783 40.7484 83.7312C41.1482 83.6745 41.558 83.6896 41.9501 83.7754ZM58.5737 92.359C58.5737 91.9171 58.774 91.3979 59.495 91.3206C60.216 91.2433 60.5231 91.6409 60.7635 92.0939C61.3046 93.1158 61.5994 94.2153 61.6314 95.3307C61.6314 95.883 61.5512 96.4354 60.7768 96.6453C60.0024 96.8552 59.5885 96.3139 59.3348 95.8168C58.7096 94.7418 58.4467 93.5473 58.5737 92.359ZM55.7564 99.4402C57.1309 99.3934 58.5004 99.6049 59.762 100.059C60.0049 100.124 60.2251 100.236 60.4038 100.387C60.5824 100.537 60.7142 100.722 60.7878 100.924C60.8613 101.126 60.8744 101.34 60.826 101.547C60.7776 101.754 60.6691 101.949 60.5098 102.114C59.6366 103.217 58.2915 104.006 56.7444 104.323C56.4507 104.323 56.0902 104.478 55.9166 104.19C55.743 103.903 56.1436 103.693 56.424 103.55C57.4474 103.141 58.3886 102.605 59.2146 101.959C59.8822 101.362 59.722 100.854 58.8407 100.666C57.8683 100.359 56.8373 100.198 55.7964 100.191C55.4359 100.191 54.9819 100.501 54.9152 99.9484C54.8484 99.396 55.3291 99.4402 55.7564 99.4402ZM46.4098 106.599C46.2442 107.139 45.8756 107.621 45.3573 107.976C44.8389 108.332 44.1976 108.542 43.5257 108.576C42.8133 108.577 42.127 108.354 41.6062 107.952C41.0854 107.55 40.7692 106.999 40.7217 106.411C40.7529 105.885 41.0318 105.391 41.4986 105.034C41.9654 104.676 42.5829 104.485 43.2186 104.5C44.901 104.489 46.4231 105.494 46.3831 106.566L46.4098 106.599ZM42.4041 97.2639C43.3633 98.4246 43.8327 99.8148 43.7393 101.219C43.7393 101.583 43.6458 102.047 43.0717 102.169C42.7978 102.217 42.5125 102.193 42.2561 102.1C41.9998 102.007 41.7853 101.849 41.643 101.65C40.8434 100.673 40.4283 99.5152 40.4547 98.3355C40.4547 97.6395 40.4547 96.9436 41.2691 96.8C41.4892 96.7588 41.7196 96.7786 41.9247 96.8565C42.1298 96.9344 42.2983 97.0659 42.4041 97.2308V97.2639Z" fill="#F4B77D"/>
<path d="M46.6768 159.349C46.6916 159.856 46.8656 160.35 47.1817 160.784C47.4978 161.218 47.945 161.576 48.4794 161.824C56.6109 165.37 57.3319 166.972 68.0805 168.076C65.4101 161.448 68.0805 164.884 54.1007 143.132C53.9805 142.944 53.8737 142.602 53.7135 142.591C51.8041 142.381 53.1126 141.619 53.4331 141.221C55.2023 139.207 56.6769 137.026 57.826 134.725C59.1612 131.676 59.1612 130.947 60.1626 130.947C60.8302 130.947 61.0172 131.4 61.2174 131.787C61.621 132.627 61.8293 133.523 61.8316 134.427C61.8316 134.637 61.8316 134.869 62.1254 134.99C62.4191 135.112 62.5393 134.99 62.6862 134.836C63.0022 134.522 63.2964 134.194 63.5674 133.852C63.8755 133.307 64.0998 132.732 64.2351 132.14C63.9035 130.732 63.94 129.282 64.3419 127.887C64.4592 127.536 64.4198 127.162 64.231 126.834C64.0422 126.505 63.7165 126.244 63.3137 126.097C61.5379 125.258 59.001 125.556 59.7353 123.777C59.9347 123.226 60.0732 122.66 60.1493 122.087C60.3896 120.751 59.989 120.309 58.3467 120.209C55.8791 119.955 53.3857 119.922 50.9095 120.11C50.589 120.11 50.2552 120.11 50.1618 119.845C50.0683 119.58 50.362 119.491 50.5623 119.337C53.2328 117.348 57.7592 115.879 60.0157 113.879C60.4697 113.482 61.0038 113.051 60.5231 112.454C60.0424 111.858 59.4149 111.99 58.7473 112.101C53.62 112.995 48.4927 117.989 45.5285 121.656C43.9498 123.288 42.9346 125.242 42.591 127.313C41.0689 142.27 44.7274 145.209 46.6768 159.349Z" fill="#F4B77D"/>
<path d="M96.2939 182.04C93.0092 179.201 90.0584 176.096 86.4132 173.544C84.5305 172.219 84.1433 172.197 82.1538 173.401C82.0089 173.478 81.8516 173.537 81.6865 173.578C78.0013 174.682 74.5297 176.229 70.9245 177.477C70.1368 177.742 69.8831 178.007 70.297 178.67C70.5424 178.993 70.6727 179.366 70.6727 179.747C70.6727 180.129 70.5424 180.502 70.297 180.824C70.2357 180.9 70.1934 180.985 70.1728 181.074C70.1521 181.163 70.1535 181.255 70.1768 181.344C70.8454 183.216 70.9099 185.2 70.3638 187.099C70.2302 187.497 70.4839 187.63 70.9379 187.563C74.049 186.934 77.3603 185.984 81.1524 185.354C84.9444 184.724 88.9234 184.072 92.7956 183.398C94.0373 183.089 95.2924 182.813 96.5609 182.548C96.6277 182.415 96.5609 182.294 96.2939 182.04Z" fill="#F4B77D"/>
<path d="M183.097 35.6098C183.965 35.5324 184.272 35.9522 184.432 36.5598C185.22 40.6141 187.583 53.1305 188.011 55.3399C188.264 56.6324 187.93 56.9638 186.368 57.2953C182.963 58.0244 179.572 58.8308 176.18 59.5931C175.433 59.7588 175.473 59.9797 176.034 60.3443C177.97 61.6147 179.492 63.3049 181.575 64.4538C181.835 64.5937 182.033 64.7997 182.139 65.0409C182.245 65.282 182.253 65.5451 182.162 65.7905C182.059 66.0518 181.87 66.2838 181.614 66.4597C181.359 66.6356 181.049 66.7483 180.72 66.7847C163.362 70.3419 170.252 68.8174 168.316 69.2593C167.355 69.4692 166.447 68.7843 167.368 67.9115C168.543 66.8068 169.678 65.7021 170.893 64.5974C172.108 63.4927 170.532 63.3049 169.558 62.0455C169.037 61.3606 168.423 61.3496 167.555 61.5484C164.23 62.2775 160.945 63.084 157.567 63.6584C157.403 63.7093 157.227 63.7294 157.052 63.7172C156.877 63.705 156.707 63.6609 156.555 63.588C156.403 63.5151 156.273 63.4153 156.173 63.2956C156.073 63.176 156.007 63.0396 155.978 62.8961C153.789 56.9859 151.345 51.1199 149.583 45.0992C149.526 44.8862 149.454 44.676 149.369 44.4696C148.848 43.4974 149.369 43.0997 150.504 42.8346C159.41 40.8903 181.134 35.9191 183.097 35.6098ZM184.125 51.7938C185.073 51.5176 185.247 51.1752 185.1 50.3798C184.299 46.226 183.537 42.0613 182.857 37.9076C182.736 37.1564 182.456 37.1564 181.695 37.311C171.747 39.3989 161.893 41.7299 152.039 44.0056C150.905 44.2707 150.851 44.6463 151.185 45.4417C152.801 49.4297 154.496 53.4067 155.725 57.4941C155.978 58.3226 156.419 58.3779 157.274 58.1348C163.562 56.3563 180.92 52.7328 184.125 51.7938ZM185.968 55.1079C185.968 53.6387 185.701 53.4398 184.005 53.6276C181.428 53.9038 163.522 57.936 158.529 59.0186C156.312 59.4936 156.326 59.4826 156.966 61.228C157.18 61.8025 157.367 62.1008 158.302 61.8798C167.715 59.5931 180.026 57.008 184.859 55.9586C185.407 55.837 186.155 55.8039 185.968 55.0748V55.1079ZM169.865 67.0388L170.239 67.4586C173.043 66.8731 175.86 66.2876 178.677 65.68C179.131 65.5806 179.639 65.4038 179.024 64.8736C173.577 60.2227 173.817 60.0128 173.083 60.2227C172.348 60.4326 171.32 60.6425 170.265 60.8856C171.053 61.5153 171.707 61.9903 172.308 62.5205C173.51 63.559 173.577 64.266 172.308 65.3155C171.542 65.9351 170.726 66.5109 169.865 67.0388Z" fill="#FADF8F"/>
<path d="M76.7729 218.594C73.5817 218.329 40.8285 215.832 37.7575 215.611C37.3035 215.611 36.6626 215.678 36.6359 215.136C36.6092 214.595 37.17 214.595 37.6641 214.496C47.0106 212.717 55.97 210.596 65.3433 208.795C66.1044 208.663 67.5865 207.448 69.4692 209.171C72.647 212.132 74.1959 214.429 77.3604 217.412C77.6007 217.644 77.9746 217.876 77.7743 218.252C77.574 218.627 77.2001 218.638 76.7729 218.594Z" fill="#FADF8F"/>
<path d="M140.463 68.3092C139.929 68.8394 140.143 69.8668 139.582 70.6401C136.124 75.3793 132.612 80.1075 128.9 84.7252C127.885 85.9956 126.924 86.1061 125.402 85.2002C122.851 83.6868 122.851 83.5652 124.561 81.3779C126.27 79.1906 127.698 77.2242 129.154 75.0921C132.972 69.5685 137.392 66.9614 138.34 60.4547C138.34 59.9686 138.34 59.35 139.155 59.2616C139.969 59.1732 140.223 59.6814 140.49 60.1012C142.559 63.6362 141.878 66.8399 140.463 68.3092ZM134.374 74.0316C134.254 73.6007 133.814 73.424 133.4 73.2362C132.665 72.8827 132.478 73.4682 132.238 73.7775C130.088 76.6608 127.979 79.5662 125.816 82.4384C125.468 82.9024 125.442 83.1786 126.016 83.5432C126.59 83.9077 127.004 83.742 127.351 83.2449C129.541 80.3505 134.187 74.2746 134.374 74.0316ZM139.595 60.775C139.482 62.6383 138.856 64.4557 137.766 66.0887C137.259 66.6632 139.368 67.8783 139.795 67.3039C140.426 66.289 140.739 65.1592 140.704 64.0183C140.669 62.8774 140.288 61.7621 139.595 60.775Z" fill="#FADF8F"/>
<path d="M88.8566 137.508C88.8194 139.404 87.9125 141.216 86.3196 142.579C86.0208 142.942 85.5823 143.21 85.0756 143.34C84.5689 143.471 84.0238 143.455 83.529 143.297C83.023 143.114 82.6031 142.799 82.3332 142.4C82.0633 142.001 81.9581 141.54 82.0336 141.087C82.1684 139.208 82.8658 137.386 84.0631 135.785C84.3126 135.397 84.7083 135.086 85.1902 134.901C85.6721 134.715 86.2139 134.665 86.7336 134.757C87.2635 134.833 87.7499 135.048 88.1204 135.37C88.4909 135.693 88.7257 136.105 88.7898 136.547C88.8402 136.866 88.8625 137.187 88.8566 137.508Z" fill="#FADF8F"/>
<path d="M105.066 161.525C104.745 163.423 103.641 165.171 101.942 166.474C101.617 166.782 101.172 166.987 100.684 167.051C100.196 167.116 99.6961 167.037 99.2715 166.827C98.7792 166.592 98.3868 166.236 98.1479 165.809C97.9089 165.382 97.835 164.904 97.9362 164.441C98.1746 162.63 99.1109 160.929 100.607 159.592C100.95 159.211 101.426 158.928 101.971 158.78C102.515 158.631 103.102 158.626 103.651 158.763C104.572 159.028 105.106 159.923 105.066 161.525Z" fill="#FADF8F"/>
<path d="M61.3643 182.139C61.3202 180.503 62.0482 178.918 63.3939 177.72C63.7962 177.313 64.3535 177.032 64.9745 176.921C65.5955 176.811 66.2434 176.878 66.8121 177.112C67.3932 177.399 67.8504 177.829 68.1188 178.343C68.3873 178.857 68.4533 179.427 68.3075 179.974C67.9137 181.319 67.1558 182.573 66.091 183.641C65.7604 184.049 65.2751 184.354 64.7117 184.508C64.1484 184.662 63.5391 184.656 62.98 184.492C62.4184 184.32 61.9483 183.99 61.6526 183.559C61.357 183.129 61.2549 182.626 61.3643 182.139Z" fill="#FADF8F"/>
<path d="M51.6706 171.931C51.6407 170.632 52.0575 169.353 52.8723 168.242C53.1245 167.757 53.5734 167.36 54.1414 167.12C54.7094 166.88 55.3609 166.812 55.9834 166.927C56.5842 167.054 57.1198 167.337 57.5116 167.735C57.9034 168.133 58.1306 168.624 58.1598 169.136C58.2182 170.129 58.0089 171.12 57.547 172.037C57.0851 172.954 56.3822 173.775 55.4894 174.439C55.18 174.669 54.7998 174.824 54.3909 174.886C53.9819 174.949 53.5601 174.916 53.1719 174.793C52.7837 174.669 52.4444 174.46 52.1912 174.187C51.9381 173.914 51.781 173.588 51.7374 173.246C51.6735 172.81 51.6512 172.37 51.6706 171.931Z" fill="#FADF8F"/>
<path d="M96.3872 155.361C96.0404 155.31 95.709 155.203 95.4123 155.046C95.1156 154.889 94.8593 154.685 94.6583 154.446C94.4572 154.207 94.3154 153.937 94.2409 153.652C94.1664 153.367 94.1607 153.073 94.2241 152.787C94.5357 151.212 95.3005 149.723 96.454 148.445C96.7137 148.039 97.1413 147.724 97.6587 147.558C98.176 147.392 98.7485 147.385 99.2713 147.539C99.8127 147.712 100.263 148.037 100.544 148.457C100.825 148.877 100.918 149.366 100.807 149.837C100.624 151.61 99.7471 153.285 98.3099 154.609C97.7949 155.038 97.1146 155.304 96.3872 155.361Z" fill="#FADF8F"/>
<path d="M19.4515 135.277C19.3647 136.609 18.7816 137.886 17.7825 138.933C17.4425 139.309 16.9668 139.586 16.4243 139.723C15.8817 139.86 15.3005 139.85 14.7648 139.696C14.2214 139.47 13.7699 139.117 13.4662 138.681C13.1624 138.245 13.0197 137.745 13.0558 137.243C13.1991 135.834 13.8451 134.492 14.9117 133.388C15.2077 133.007 15.6379 132.71 16.1442 132.538C16.6505 132.367 17.2084 132.328 17.7424 132.427C18.9708 132.725 19.4782 133.52 19.4515 135.277Z" fill="#FADF8F"/>
<path d="M36.115 143.231C35.8245 143.528 35.4255 143.739 34.9778 143.832C34.53 143.926 34.0577 143.897 33.6315 143.75C33.1828 143.606 32.7961 143.354 32.5203 143.028C32.2446 142.701 32.0922 142.314 32.0826 141.916C31.9621 140.131 32.6635 138.375 34.0454 137C34.2793 136.667 34.6444 136.411 35.0795 136.274C35.5147 136.137 35.9934 136.128 36.4355 136.249C36.916 136.383 37.332 136.641 37.6227 136.985C37.9134 137.329 38.0635 137.741 38.0511 138.16C38.1996 139.071 38.1031 139.998 37.7684 140.875C37.4337 141.751 36.8691 142.556 36.115 143.231Z" fill="#FADF8F"/>
<path d="M105.066 180.979C105.315 179.355 106.024 177.803 107.136 176.45C107.924 175.201 108.792 174.03 110.381 174.572C110.693 174.668 110.958 174.847 111.134 175.081C111.31 175.314 111.388 175.59 111.355 175.864C111.157 178.098 110.179 180.236 108.538 182.017C108.302 182.307 107.952 182.519 107.547 182.617C107.143 182.716 106.709 182.696 106.321 182.559C105.928 182.451 105.59 182.236 105.362 181.949C105.134 181.663 105.03 181.321 105.066 180.979Z" fill="#FADF8F"/>
<path d="M81.6196 52.4234C81.6275 52.7465 81.4982 53.0616 81.2542 53.3139C81.0102 53.5662 80.667 53.7397 80.2844 53.8043C77.8676 54.3788 77.4136 54.2351 76.2787 52.3571C75.2036 50.4312 74.2934 48.4452 73.5548 46.4138C73.448 46.1597 72.9673 45.8172 73.5548 45.6073C74.1423 45.3974 74.3693 45.6073 74.5696 46.0492C77.1199 50.9983 76.7727 50.2029 77.8276 52.0589C77.8655 52.1694 77.9335 52.2713 78.0265 52.3567C78.1195 52.4421 78.2349 52.5087 78.3639 52.5514C78.4928 52.5941 78.6319 52.6117 78.7704 52.6029C78.9089 52.5941 79.0432 52.5592 79.1628 52.5007C79.7503 52.2908 79.4565 51.9042 79.3497 51.5728C78.7088 49.8163 78.0145 48.0708 77.4136 46.3144C77.2134 45.751 77.1866 45.2096 77.8409 44.8672C77.9564 44.8059 78.0873 44.7674 78.2236 44.7547C78.3599 44.7419 78.4979 44.7553 78.627 44.7938C78.7561 44.8322 78.8727 44.8947 78.9679 44.9764C79.0631 45.0581 79.1344 45.1568 79.1761 45.2649C80.0307 47.6511 80.7784 50.0483 81.6196 52.4234Z" fill="#FADF8F"/>
<path d="M27.8368 164.983C27.902 166.495 27.4384 167.991 26.5016 169.291C26.0075 169.965 25.3266 170.639 24.2183 170.451C23.1101 170.263 22.8831 169.567 22.6428 168.783C22.2658 167.328 22.4916 165.81 23.2837 164.475C24.0047 163.16 25.0595 162.585 26.2345 162.806C27.4095 163.027 27.8235 163.768 27.8368 164.983Z" fill="#FADF8F"/>
<path d="M70.8044 154.83C71.0444 153.077 71.8312 151.406 73.0876 149.981C73.347 149.661 73.7393 149.432 74.1898 149.336C74.6404 149.24 75.1177 149.285 75.5311 149.461C75.9719 149.61 76.3367 149.881 76.5632 150.227C76.7896 150.574 76.8637 150.975 76.7728 151.361C76.6733 153.024 76.0168 154.63 74.8768 156.001C74.6258 156.365 74.2319 156.646 73.7607 156.799C73.2894 156.952 72.7692 156.967 72.2865 156.841C71.784 156.715 71.3551 156.44 71.0817 156.069C70.8084 155.699 70.7096 155.257 70.8044 154.83Z" fill="#FADF8F"/>
<path d="M23.5773 150.312C23.3152 150.714 22.8803 151.02 22.3585 151.169C21.8368 151.319 21.2663 151.3 20.76 151.118C20.2427 150.912 19.8238 150.568 19.5698 150.141C19.3158 149.715 19.2412 149.231 19.358 148.765C19.5453 147.401 20.2087 146.111 21.2674 145.053C21.5757 144.676 22.0232 144.392 22.543 144.243C23.0628 144.093 23.627 144.087 24.1515 144.225C26.635 144.91 25.1128 148.544 23.5773 150.312Z" fill="#FADF8F"/>
<path d="M49.0402 191.131C48.6851 191.134 48.3341 191.069 48.0153 190.939C47.6966 190.81 47.4189 190.621 47.2046 190.386C46.9903 190.152 46.8455 189.88 46.7816 189.591C46.7178 189.302 46.7368 189.004 46.837 188.723C47.2401 187.171 48.1078 185.727 49.3606 184.525C49.5906 184.214 49.9458 183.981 50.3635 183.866C50.7811 183.75 51.2346 183.761 51.6439 183.895C52.0749 184.004 52.4454 184.236 52.6898 184.549C52.9341 184.863 53.0366 185.238 52.9791 185.607C52.8845 187.381 52.0921 189.08 50.7225 190.446C50.5379 190.671 50.2858 190.853 49.9908 190.973C49.6959 191.093 49.3683 191.147 49.0402 191.131Z" fill="#FADF8F"/>
<path d="M68.8283 139.21C68.4803 141.046 67.6359 142.795 66.3581 144.324C66.0956 144.633 65.7126 144.858 65.2733 144.962C64.8341 145.065 64.3653 145.04 63.9457 144.891C63.5261 144.742 63.1812 144.478 62.9689 144.143C62.7566 143.809 62.6898 143.424 62.7797 143.054C63.2211 141.212 64.2543 139.502 65.7706 138.105C66.0019 137.881 66.3177 137.729 66.6668 137.673C67.0159 137.617 67.3777 137.66 67.6933 137.795C68.0164 137.927 68.2916 138.128 68.4909 138.376C68.6902 138.624 68.8066 138.912 68.8283 139.21Z" fill="#FADF8F"/>
<path d="M39.0526 176.77C38.9671 178.17 38.5545 179.543 37.8375 180.813C37.3301 181.642 36.7026 182.393 35.4741 182.095C34.9441 181.941 34.5019 181.629 34.2331 181.221C33.9643 180.813 33.8879 180.337 34.0188 179.885C34.1098 178.52 34.6001 177.193 35.4474 176.019C35.9148 175.356 36.4355 174.682 37.5705 174.914C38.7054 175.146 38.8256 176.14 39.0526 176.77Z" fill="#FADF8F"/>
<path d="M33.4047 158.222C33.4131 156.916 34.0357 155.664 35.1405 154.731C35.4209 154.449 35.8028 154.249 36.2303 154.16C36.6578 154.07 37.1087 154.096 37.5172 154.234C37.9263 154.363 38.2756 154.596 38.5153 154.9C38.755 155.203 38.873 155.562 38.8524 155.924C38.9032 157.163 38.4311 158.377 37.5172 159.359C36.9163 160.066 36.182 160.751 34.8467 160.398C34.3375 160.231 33.9147 159.922 33.6514 159.525C33.3881 159.127 33.3008 158.667 33.4047 158.222Z" fill="#FADF8F"/>
<path d="M79.6568 170.142C79.4074 170.157 79.1572 170.123 78.9269 170.042C78.6966 169.962 78.4928 169.837 78.3323 169.678C78.1718 169.52 78.0593 169.332 78.004 169.13C77.9488 168.928 77.9524 168.718 78.0145 168.518C78.502 166.621 79.3733 164.806 80.5915 163.149C80.7379 162.945 80.9598 162.785 81.2243 162.694C81.4888 162.602 81.7819 162.584 82.0602 162.641C82.3364 162.689 82.5891 162.804 82.7864 162.971C82.9836 163.138 83.1166 163.35 83.1685 163.58C83.2965 164.214 83.2038 164.865 82.9014 165.458C82.6084 166.8 82.0441 168.093 81.2324 169.28C80.8452 169.766 80.3645 170.142 79.6568 170.142Z" fill="#FADF8F"/>
<path d="M71.325 129.753C71.3667 128.661 71.7988 127.604 72.5667 126.715C72.7686 126.335 73.1247 126.026 73.5734 125.84C74.022 125.655 74.5351 125.605 75.0236 125.699C75.5589 125.816 76.0228 126.093 76.326 126.477C76.6293 126.86 76.7503 127.323 76.6659 127.776C76.6554 128.867 76.2252 129.927 75.4375 130.803C75.1649 131.2 74.7317 131.506 74.2141 131.665C73.6964 131.825 73.1274 131.828 72.6068 131.675C72.1625 131.521 71.7942 131.248 71.5615 130.899C71.3288 130.55 71.2455 130.146 71.325 129.753Z" fill="#FADF8F"/>
<path d="M94.8252 173.025C94.698 173.83 94.3156 174.592 93.7169 175.234C93.4549 175.605 93.0455 175.89 92.5586 176.039C92.0716 176.188 91.5372 176.192 91.0465 176.052C89.1771 175.489 89.2973 173.356 90.1252 171.865C91.18 169.843 94.8385 170.142 94.8252 173.025Z" fill="#FADF8F"/>
<path d="M89.7645 207.625C90.9261 207.625 92.2079 208.387 92.2213 209.072C92.1505 209.508 91.9059 209.912 91.5262 210.22C91.1465 210.528 90.6534 210.723 90.125 210.773C88.7898 210.773 87.2275 209.812 87.2542 208.983C87.2809 208.155 88.4025 207.625 89.7645 207.625Z" fill="#FADF8F"/>
<path d="M159.677 53.0423C159.401 53.0807 159.117 53.039 158.874 52.9243C158.631 52.8095 158.443 52.6288 158.342 52.4126C157.194 50.2031 156.019 47.9937 154.857 45.7843C154.617 45.3203 154.857 45.022 155.404 44.9116L164.751 43.2545C165.472 43.133 165.886 43.4644 166.086 44.0278C166.781 46.1489 167.493 48.2625 168.223 50.3689C168.396 50.8881 168.396 51.341 167.675 51.4736L159.677 53.0423ZM160.238 51.7056C162.107 51.352 163.95 50.9543 165.819 50.6008C166.607 50.4683 166.714 50.159 166.527 49.6287C166.046 48.1815 165.512 46.7343 165.071 45.2651C164.844 44.5139 164.39 44.4034 163.549 44.5581C161.466 44.9189 159.383 45.2504 157.3 45.5523C156.499 45.6628 156.219 45.8616 156.606 46.5355C157.487 48.0269 158.329 49.5293 159.17 51.0317C159.383 51.4515 159.624 51.7829 160.238 51.6945V51.7056Z" fill="#FADF8F"/>
<path d="M176.621 52.9429C173.069 53.3295 171.788 54.4122 171.28 52.9429C170.987 52.0481 170.733 51.1422 170.452 50.2363C170.172 49.3305 170.613 49.0764 171.547 49.0322C173.096 48.9438 174.645 48.8665 176.207 48.8002C176.581 48.8002 177.115 48.6898 177.209 49.0874C177.564 49.9762 177.823 50.8893 177.983 51.8161C177.916 52.0942 177.751 52.3496 177.508 52.5501C177.266 52.7506 176.957 52.8873 176.621 52.9429ZM175.526 49.6288C174.407 49.6886 173.293 49.7992 172.188 49.9602C171.574 50.0265 171.467 50.2474 171.614 50.7666C172.202 52.6888 172.175 52.6999 174.578 52.2248C174.99 52.1133 175.415 52.0392 175.847 52.0039C176.755 52.0039 176.875 51.5731 176.795 50.9986C176.715 50.4242 176.915 49.5293 175.58 49.6619L175.526 49.6288Z" fill="#FADF8F"/>
<path d="M172.509 46.3032C172.117 45.8242 171.552 45.4596 170.895 45.2613C170.239 45.0629 169.523 45.041 168.85 45.1985C168.543 45.2537 168.076 45.3863 168.009 44.9555C167.889 44.0606 171.948 43.5967 173.083 45.8282C173.283 44.9002 174.271 44.5799 174.218 45.6735C174.218 46.3364 174.365 47.1096 173.283 47.3527C172.938 47.3969 172.587 47.3969 172.242 47.3527C171.654 47.3527 170.906 47.3527 170.84 46.7009C170.84 46.3695 171.053 46.3143 171.334 46.3032H172.509Z" fill="#FADF8F"/>
<path d="M107.483 199.627C106.884 199.254 106.184 199.008 105.444 198.91C104.704 198.812 103.947 198.864 103.237 199.063C101.528 199.571 99.7655 199.98 98.043 200.488C91.941 202.3 85.572 203.449 79.5902 205.537C77.8277 206.156 78.2549 206.763 79.5101 208.111C83.5157 211.999 86.8939 216.219 90.7393 220.185C92.0745 220.185 91.9277 220.627 82.2072 209.138C81.5663 208.376 80.0041 207.669 80.4447 206.863C81.0456 205.758 84.3703 205.857 103.865 200.168C104.302 200.023 104.776 199.972 105.243 200.021C105.71 200.069 106.155 200.215 106.535 200.444C114.907 204.786 123.119 209.337 131.611 213.502C131.958 213.668 132.412 213.745 132.639 214.132C130.809 215.071 125.455 216.606 122.758 217.821C122.478 217.954 122.037 218.109 122.291 218.462C122.544 218.816 122.825 218.661 123.119 218.517C127.124 216.54 133.253 215.28 133.934 213.778C130.182 212.022 137.299 215.778 107.483 199.627Z" fill="#3C270B"/>
<path d="M235.665 174.682C227.039 173.069 229.643 173.666 220.911 172.473C220.377 172.406 219.575 172.528 219.575 171.754C219.322 169.236 216.544 145.341 216.317 141.706C216.352 141.357 216.292 141.005 216.143 140.677C215.993 140.349 215.757 140.052 215.451 139.809C215.145 139.566 214.778 139.382 214.376 139.27C213.974 139.159 213.547 139.123 213.126 139.165H209.267C210.109 138.061 211.003 139.309 211.284 138.701C211.457 138.326 211.123 138.105 210.75 137.95C210.331 137.778 209.857 137.721 209.396 137.786C208.935 137.852 208.511 138.037 208.186 138.315C206.771 139.42 205.235 138.779 203.446 138.933C203.78 138.69 203.846 138.602 203.9 138.602C204.354 138.602 204.861 138.768 205.102 138.271C205.166 138.174 205.185 138.061 205.155 137.953C205.126 137.845 205.05 137.75 204.941 137.685C204.735 137.598 204.506 137.552 204.274 137.552C204.042 137.552 203.813 137.598 203.606 137.685C203.396 137.738 203.206 137.837 203.059 137.972C201.723 139.519 199.894 138.801 197.931 138.823C198.959 138.337 198.959 138.337 199.721 138.547C200.014 138.613 200.335 138.978 200.575 138.547C200.949 137.851 198.732 136.614 196.983 137.961C194.98 139.508 192.777 138.436 190.414 138.713C191.095 137.884 191.749 137.729 192.457 137.928C192.817 138.028 193.205 138.602 193.525 138.094C193.846 137.586 193.245 137.299 192.804 137.078C191.469 136.437 190.054 137.199 189.105 138.182C188.571 138.724 187.303 138.679 187.076 138.182C186.261 136.238 184.405 135.829 182.857 137.409C182.576 137.786 182.16 138.081 181.667 138.251C181.173 138.422 180.627 138.459 180.106 138.359C179.225 138.226 178.771 138.492 178.651 139.309C178.651 139.872 179.238 134.736 174.645 169.744C174.471 171.025 175.166 169.667 164.631 170.849C167.301 169.214 170.319 167.689 171.147 163.955C171.273 163.53 171.244 163.084 171.063 162.673C170.882 162.262 170.558 161.905 170.132 161.646C169.622 161.245 168.986 160.971 168.296 160.856C167.606 160.741 166.891 160.789 166.233 160.995C164.898 161.448 164.43 160.807 164.177 160.078C164.012 159.589 163.693 159.146 163.251 158.795C162.81 158.443 162.263 158.196 161.667 158.078C157.888 157.073 154.723 157.857 149.062 157.946C144.836 158.03 140.623 158.369 136.457 158.962C134.548 159.216 133.627 159.868 133.52 161.282C133.293 164.331 132.959 167.413 134.548 170.329C134.989 171.125 134.668 171.29 133.734 171.434C130.542 171.743 127.338 171.931 124.173 172.473C119.1 173.367 118.245 174.096 118.272 173.058C118.244 172.041 118.005 171.036 117.564 170.086C116.392 167.133 114.542 164.395 112.116 162.022C110.153 160.045 110.461 158.862 110.153 155.78C109.953 154.134 109.673 152.367 107.71 151.593C104.881 150.302 102.443 148.497 100.58 146.313C97.9896 143.695 98.0029 141.894 96.9481 136.128C96.0802 131.278 93.6501 126.539 87.695 126.561C85.2975 126.668 82.8937 126.5 80.5515 126.064C77.3203 125.312 73.9822 124.959 70.7776 124.175C68.1072 123.479 65.2498 123.202 62.566 122.473C62.112 122.352 61.5379 122.352 61.6046 121.777C61.6314 121.294 61.5051 120.814 61.238 120.383C60.971 119.953 60.5727 119.588 60.0825 119.325C62.7529 119.192 63.7276 117.613 65.6103 115.226C65.8106 114.983 65.9842 114.729 66.3981 114.729C67.5529 114.602 68.6952 114.406 69.8163 114.144C69.1487 115.558 68.481 116.839 67.9336 118.154C67.7646 118.734 67.367 119.25 66.8037 119.622C66.2404 119.994 65.5433 120.201 64.8225 120.209C64.3926 120.254 63.971 120.343 63.5674 120.474C63.287 120.551 62.9132 120.628 63.0333 120.96C63.1535 121.291 63.4739 121.148 63.7143 121.137C65.0495 121.059 70.2703 119.745 72.0595 119.402C72.8743 119.266 73.6251 118.939 74.2235 118.462C74.8219 117.984 75.2431 117.375 75.4376 116.707C75.6824 116.161 75.7942 115.58 75.7667 114.998C75.7392 114.416 75.5729 113.844 75.2774 113.315C74.8944 112.596 74.6967 111.82 74.6967 111.034C74.6967 110.248 74.8944 109.472 75.2774 108.753C75.8625 107.571 75.9773 106.266 75.6052 105.026C75.2331 103.787 74.3933 102.677 73.2078 101.859C72.859 101.638 72.5789 101.352 72.3908 101.023C72.2028 100.695 72.112 100.334 72.1262 99.9703C72.096 96.762 71.3491 93.5859 69.9231 90.6023C67.3662 85.3163 62.7648 80.8799 56.8379 77.9865C53.2912 76.294 49.2108 75.5241 45.1279 75.7771C44.1666 75.7771 41.9234 76.0754 42.3239 76.7824C42.4575 77.0365 42.7379 76.9481 43.0049 76.8929C44.8865 76.5624 46.8178 76.4693 48.733 76.6167C52.2025 76.6768 55.552 77.6782 58.2666 79.4668C62.1248 81.9649 65.3085 85.1032 67.6132 88.6801C69.8131 92.2926 71.0343 96.2587 71.1916 100.302C71.1916 100.987 70.8845 101.141 70.1901 100.976C69.7612 100.835 69.2838 100.835 68.8549 100.976C68.716 101.027 68.5588 101.032 68.4151 100.991C68.2714 100.95 68.1518 100.866 68.0805 100.755C62.7396 94.745 65.41 96.4684 62.7396 90.6797C62.5526 90.2709 62.1254 89.7296 61.6847 89.9616C61.2441 90.1936 61.5245 90.4698 61.6847 90.7349C62.8197 93.2647 62.6728 94.9107 63.7009 97.0759C64.3643 98.4609 65.3798 99.7117 66.6785 100.744C69.1086 102.644 69.4958 104.864 68.6947 107.471C67.3418 111.079 65.1962 114.45 62.3657 117.414C61.8707 117.892 61.2494 118.27 60.5498 118.518C58.1731 119.402 55.6228 119.115 52.8589 119.016C58.7205 115.878 59.989 115.315 61.2575 114.055C61.5577 113.843 61.7741 113.561 61.8788 113.246C61.9835 112.931 61.9717 112.597 61.845 112.288C61.6983 111.945 61.4325 111.646 61.0809 111.428C60.7293 111.209 60.3076 111.082 59.8688 111.062C59.6151 111.062 59.3347 111.139 59.1078 110.863C59.535 110.288 61.0839 108.344 60.443 108.013C60.0825 107.836 59.8822 108.079 59.722 108.3C59.1211 109.095 58.4936 109.869 57.9461 110.675C57.7154 111.006 57.385 111.281 56.9872 111.475C56.5894 111.669 56.1377 111.774 55.6762 111.78C50.1751 112.122 49.5609 111.194 49.3205 111.901C49.1603 112.409 49.7211 112.454 50.1217 112.575C51.1097 112.884 52.2447 112.697 53.3129 113.127C48.3481 116.389 44.3859 120.576 41.7498 125.346C41.4961 125.798 41.1089 126.307 41.2825 126.782C41.8967 128.439 41.0421 130.096 41.189 131.709C41.189 132.526 40.8018 132.67 39.8538 132.349C37.8179 131.484 35.9538 130.366 34.3259 129.035L37.2634 128.45C37.5305 128.383 37.7842 128.284 37.8109 128.052C37.8376 127.82 37.5305 127.721 37.2901 127.632C37.0498 127.544 36.5691 127.632 36.4757 127.224C36.2487 126.296 36.0217 125.379 35.768 124.407C40.1742 125.114 40.1742 125.114 41.1089 124.307C40.4181 124.393 39.7122 124.329 39.061 124.119C38.4099 123.91 37.8362 123.563 37.397 123.114C37.397 122.451 39.7737 123.114 43.2052 120.098C48.1322 115.779 44.9009 109.294 39.1995 109.272C39.1142 109.282 39.0272 109.276 38.945 109.255C38.8628 109.233 38.7874 109.197 38.7246 109.148C38.6617 109.099 38.613 109.039 38.5819 108.973C38.5509 108.906 38.5384 108.835 38.5452 108.764C38.2916 105.45 36.7828 102.301 36.5291 98.9981C36.2086 94.8444 35.8748 94.1485 41.0688 92.3699C41.4427 92.2373 41.8967 92.2042 42.1904 91.7733C40.2143 91.3093 38.7722 92.2373 36.943 93.0327C38.1714 89.6523 38.572 86.1835 42.0569 83.7973C41.0154 83.6979 40.7217 83.5764 39.5467 84.902C37.7842 86.8242 37.0765 89.1552 36.1418 91.3977C32.8972 99.1307 37.9444 104.466 37.5972 109.139C37.397 112.001 34.9268 113.79 30.9211 114.994C30.7075 115.061 30.3203 114.851 30.3069 115.193C30.2935 115.536 30.6274 115.58 30.9478 115.624C31.7222 115.723 32.3765 115.326 33.231 115.248C32.9106 118.077 34.139 120.595 35.808 123.302C35.0172 122.946 34.3004 122.487 33.685 121.943C33.3112 121.623 33.2845 120.651 32.5901 121.059C31.8958 121.468 32.7504 122.076 33.0708 122.562C33.0885 122.596 33.116 122.626 33.1509 122.65C34.7933 123.755 34.9268 125.379 35.3808 126.903C35.3866 126.969 35.3866 127.036 35.3808 127.102C35.3808 127.5 35.2072 127.732 34.6998 127.875C32.9835 128.206 31.2279 128.376 29.4657 128.383C26.605 128.658 23.7084 128.516 20.9069 127.964C19.546 127.666 18.1089 127.707 16.7762 128.082C15.4435 128.458 14.2746 129.15 13.4163 130.074C11.2446 132.117 9.85101 134.646 9.41059 137.343C9.10349 138.933 9.41059 140.657 8.60946 142.126C8.21905 142.849 8.06299 143.644 8.15663 144.433C8.25028 145.221 8.59041 145.976 9.14355 146.622C11.9774 150.303 14.2216 154.273 15.8197 158.432C17.4353 159.481 16.2336 160.542 15.8197 161.58C14.8183 163.933 14.8049 164.044 17.2884 165.336C19.772 166.629 18.0896 167.954 18.0629 170.031C18.0629 170.738 17.4754 171.622 18.4501 172.152C23.3103 174.803 26.8887 182.415 35.3674 185.74C36.8785 186.483 38.3122 187.33 39.6535 188.27C32.2029 189.75 22.1887 191.186 11.133 194.401C8.29724 195.1 5.5686 196.067 3.0015 197.284C2.68105 197.461 2.09355 197.693 2.52082 198.102C2.59771 198.189 2.69822 198.259 2.81421 198.308C2.93019 198.356 3.0584 198.382 3.18843 198.382C3.31847 198.382 3.44667 198.356 3.56266 198.308C3.67865 198.259 3.77916 198.189 3.85605 198.102C4.25568 197.679 4.81518 197.38 5.44497 197.251C8.44923 196.147 11.5603 195.384 14.658 194.556C23.1367 192.28 31.9225 191.01 40.5614 189.231C40.7487 189.184 40.9463 189.171 41.1401 189.194C41.3339 189.217 41.5193 189.275 41.683 189.364C44.2734 190.767 47.1308 191.805 49.4541 193.55C53.6333 196.699 57.9728 196.655 60.0291 197.152C60.9972 197.467 62.0468 197.571 63.0776 197.455C64.1084 197.339 65.0861 197.006 65.9174 196.489C67.1033 195.94 68.1325 195.187 68.935 194.28C69.4541 193.685 69.8163 193.008 69.9981 192.29C70.1798 191.573 70.177 190.831 69.9899 190.115C69.5759 188.844 69.9899 188.679 71.5921 188.502C73.9421 188.259 73.9822 187.718 90.7259 184.702C91.4192 184.509 92.1558 184.448 92.8814 184.523C93.607 184.597 94.3032 184.806 94.9185 185.133C96.7612 186.237 100.78 185.994 103.037 186.061C103.883 186.104 104.73 185.977 105.505 185.69C106.279 185.404 106.958 184.966 107.483 184.414C113.398 178.637 116.362 181.034 117.23 178.184C117.605 177.225 117.882 176.242 118.058 175.245C118.058 174.881 118.058 174.373 118.726 174.328C120.942 174.163 123.025 173.478 125.228 173.224C127.918 173.031 130.593 172.714 133.24 172.274C133.848 172.067 134.528 172.059 135.143 172.252C135.758 172.444 136.261 172.824 136.551 173.312C137.379 174.332 138.469 175.189 139.743 175.821C141.017 176.453 142.444 176.845 143.921 176.969C146.92 177.19 149.936 177.19 152.934 176.969C157.127 176.737 160.558 175.544 162.428 172.185C162.534 171.969 162.721 171.786 162.961 171.663C163.201 171.54 163.481 171.483 163.763 171.5C166.153 171.423 168.543 171.302 170.933 171.224C174.458 171.103 174.458 171.114 174.071 173.975V174.185C173.871 175.069 174.391 175.466 175.406 175.555C211.457 178.604 208.787 178.571 209.681 178.239C220.083 174.207 219.589 174.472 219.669 174.108C219.842 173.434 220.403 173.621 220.884 173.688C225.744 174.317 230.591 174.936 235.371 175.897C235.892 176.008 236.586 176.262 236.773 175.599C236.96 174.936 236.172 174.781 235.665 174.682ZM73.1544 112.1C73.3012 111.934 73.5015 112.1 73.6484 112.255C74.1945 113.217 74.4275 114.281 74.3245 115.341C74.2215 116.4 73.7859 117.42 73.0609 118.297C72.5936 118.784 71.9526 118.784 71.3251 118.894C70.4038 119.06 69.4958 119.27 68.3075 119.502C69.4095 118.019 70.1321 116.364 70.4305 114.641C70.6708 113.172 72.3666 113.028 73.1544 112.1ZM69.1487 108.289C70.337 104.776 68.4944 102.644 70.5907 103.594C74.7299 105.45 72.1262 110.94 67.8401 111.857C68.2941 110.598 68.7614 109.449 69.1353 108.278L69.1487 108.289ZM35.0737 120.275C34.3653 118.871 33.9586 117.376 33.872 115.856C33.6316 115.182 34.0589 114.641 34.9802 114.21C35.9123 113.735 36.6804 113.069 37.21 112.277C37.3432 112.048 37.5334 111.845 37.7681 111.681C38.0028 111.518 38.2766 111.397 38.5717 111.327C38.8667 111.257 39.1763 111.24 39.4802 111.276C39.784 111.312 40.0751 111.401 40.3345 111.537C41.1058 111.918 41.7215 112.482 42.1022 113.155C42.483 113.828 42.6114 114.58 42.4708 115.315C42.1986 116.609 41.5035 117.817 40.4609 118.809C39.4183 119.8 38.0678 120.536 36.5558 120.938C35.7947 121.037 35.3808 120.938 35.0737 120.275ZM61.9785 123.169C65.637 124.683 67.8668 123.832 66.9856 125.235C66.6678 125.913 66.1914 126.533 65.5836 127.058C65.297 126.395 64.7929 125.811 64.1278 125.372C63.4627 124.933 62.663 124.656 61.8183 124.572C60.9103 124.384 60.8436 124.009 61.1106 123.401C61.2975 123.015 61.5245 122.981 61.9785 123.169ZM42.6043 127.29C42.9473 125.219 43.9625 123.265 45.5418 121.634C48.5461 117.889 53.6867 112.962 58.7472 112.078C59.4282 111.967 60.0825 111.901 60.5364 112.431C60.9904 112.962 60.4697 113.459 60.0291 113.857C57.7325 115.889 53.2194 117.303 50.5757 119.314C50.3887 119.468 50.1083 119.59 50.1751 119.822C50.2418 120.054 50.589 120.131 50.9228 120.087C53.3946 119.899 55.8836 119.933 58.3467 120.187C59.989 120.286 60.4029 120.728 60.1626 122.065C60.0865 122.637 59.948 123.203 59.7487 123.755C59.3614 124.694 59.9356 125.125 60.8703 125.357C62.7262 125.832 64.8092 126.174 64.3418 127.864C63.1802 132.206 65.6771 131.863 62.6862 134.813C62.5526 134.945 62.3657 135.078 62.1254 134.968C61.885 134.857 61.8583 134.614 61.845 134.404C61.8427 133.5 61.6343 132.604 61.2308 131.764C61.0305 131.377 60.8302 130.924 60.1759 130.924C59.5217 130.924 59.2947 131.366 59.1078 131.764C57.5455 135.078 57.9461 135.652 53.4464 141.198C53.1259 141.596 51.8041 142.369 53.7268 142.568C53.8737 142.568 53.9938 142.921 54.114 143.109C68.1873 164.927 65.3967 161.459 68.0938 168.054C57.3319 166.949 56.8245 165.447 48.4927 161.801C47.9575 161.554 47.5095 161.196 47.1933 160.762C46.8771 160.328 46.7036 159.833 46.6901 159.326C44.7274 145.308 41.0822 142.27 42.6043 127.29ZM62.4325 196.301C57.7191 195.749 53.0859 195.13 49.3739 192.192C47.9206 191.152 46.2924 190.292 44.5404 189.64C44.0597 189.43 38.6921 186.668 36.6225 185.431C36.0217 185.077 35.5276 184.613 34.9001 184.326C31.0748 182.294 27.7233 179.708 25.006 176.693C23.1634 174.826 21.708 172.76 18.9975 171.611C18.41 171.368 18.6103 170.915 18.6904 170.561C19.545 166.54 20.5464 165.612 17.7958 164.408C17.5213 164.329 17.2723 164.199 17.0679 164.027C16.8634 163.856 16.709 163.649 16.6162 163.421C16.5235 163.193 16.4949 162.95 16.5328 162.711C16.5706 162.473 16.6738 162.245 16.8345 162.044C17.9694 159.746 20.7333 153.991 21.0004 153.416C21.1072 153.184 21.3208 152.897 21.0004 152.742C20.3595 152.444 20.4663 152.798 17.1015 158.719C15.6194 153.88 12.6285 150.036 9.65093 146.18C9.16785 145.67 8.87622 145.054 8.81215 144.408C8.74807 143.762 8.91435 143.114 9.29042 142.546C10.3987 140.9 10.0114 139.022 10.3987 137.265C10.8277 134.521 12.4057 131.988 14.8583 130.107C15.5593 129.559 16.4188 129.17 17.3541 128.977C18.2895 128.783 19.2692 128.792 20.1992 129.002C22.4568 129.4 24.7546 129.622 27.0623 129.665C32.7237 129.941 32.0026 128.638 33.2845 129.665C35.0737 131.079 37.6907 133.123 39.9606 133.399C41.7097 133.609 40.1475 134.426 41.5762 139.11C42.9114 143.22 41.3092 139.707 44.7674 154.908C44.8742 155.394 44.981 155.626 44.2467 155.648C43.8576 155.691 43.4791 155.784 43.1251 155.924C40.8018 156.62 40.1342 157.57 40.6549 159.592C41.2825 162.044 41.9901 164.485 42.6711 166.938C43.0316 168.264 42.6711 168.529 40.9887 168.264C39.8538 168.076 38.6788 167.998 37.5171 167.833C37.2367 167.833 36.9697 167.755 36.8629 167.998C36.6225 168.529 37.2634 168.507 40.7484 169.004C37.7174 170.959 36.8629 171.346 36.3555 172.384C36.2754 172.561 36.2353 172.749 36.4489 172.859C36.6626 172.97 36.8095 172.793 36.9964 172.649C38.4163 171.498 39.9988 170.493 41.7097 169.656C46.1293 167.446 46.1427 167.656 46.7569 166.993C47.0373 166.695 47.4512 165.69 46.2362 166.375L44.6205 167.291C44.1399 167.568 43.766 167.534 43.6725 167.037C43.1785 164.298 41.9367 161.702 41.6163 158.929C41.6002 158.581 41.6685 158.235 41.8173 157.91C41.9661 157.585 42.1923 157.288 42.4824 157.036C42.7726 156.785 43.1208 156.584 43.5064 156.446C43.8921 156.308 44.3072 156.236 44.7274 156.233C45.0078 156.233 45.0478 156.322 45.168 156.498C45.4897 157.488 45.6337 158.512 45.5953 159.536H45.3549C44.941 159.415 44.7541 158.686 44.22 159.117C43.6859 159.547 44.3668 159.824 44.6472 160.111C46.0951 161.591 47.9184 162.791 49.9881 163.624C53.1393 164.916 55.9833 166.695 59.3347 167.612C62.4704 168.334 65.6594 168.888 68.8816 169.269C69.8029 169.412 69.7495 168.772 69.5359 168.23C69.0033 166.977 68.5882 165.692 68.2941 164.386C69.4157 166.01 70.5774 167.612 71.6455 169.258C71.8999 169.661 72.0191 170.114 71.991 170.568C71.9628 171.023 71.7882 171.463 71.4853 171.843C70.5507 173.224 69.5893 174.605 68.668 175.986C68.3968 176.315 68.2619 176.708 68.2835 177.107C68.3052 177.505 68.4822 177.887 68.7882 178.195C69.0232 178.382 69.2101 178.607 69.3378 178.856C69.4655 179.105 69.5313 179.372 69.5313 179.642C69.5313 179.912 69.4655 180.18 69.3378 180.428C69.2101 180.677 69.0232 180.902 68.7882 181.089C68.675 181.148 68.5818 181.229 68.5171 181.326C68.4525 181.423 68.4186 181.531 68.4186 181.642C68.4186 181.752 68.4525 181.861 68.5171 181.957C68.5818 182.054 68.675 182.135 68.7882 182.194C69.0272 182.43 69.206 182.703 69.3139 182.997C69.4217 183.291 69.4564 183.601 69.4157 183.906C69.4688 186.325 69.3618 188.744 69.0953 191.153C69.0819 193.915 64.916 196.588 62.4325 196.301ZM92.7955 183.398C88.8967 184.116 84.9577 184.713 81.0455 185.376C77.4404 185.994 74.0222 186.944 70.831 187.585C70.3904 187.651 70.1234 187.519 70.2569 187.121C70.7962 185.221 70.7318 183.238 70.07 181.365C70.0362 181.186 70.0787 181.003 70.1901 180.846C70.4356 180.524 70.5658 180.15 70.5658 179.769C70.5658 179.388 70.4356 179.015 70.1901 178.692C69.7896 178.029 70.0433 177.764 70.8177 177.499C74.4362 176.251 77.9078 174.737 81.5796 173.599C81.7654 173.574 81.9455 173.526 82.1137 173.456C84.1166 172.252 84.4771 172.274 86.3864 173.599C89.867 176.275 93.1614 179.111 96.2538 182.095C96.5208 182.327 96.6009 182.481 96.5609 182.581C96.5208 182.68 96.4808 182.702 92.7955 183.398ZM115.815 177.621C115.719 177.964 115.515 178.281 115.225 178.538C114.934 178.796 114.567 178.986 114.159 179.09C110.897 180.064 108.042 181.793 105.934 184.072C105.61 184.399 105.202 184.662 104.741 184.844C104.279 185.025 103.775 185.12 103.264 185.121C100.711 185.272 98.1463 185.04 95.693 184.437C95.4393 184.37 95.1856 184.304 95.0788 184.094C95.6509 183.805 96.3015 183.64 96.971 183.613C97.6405 183.585 98.3075 183.698 98.9109 183.939C99.2046 184.039 99.5117 184.105 99.7254 183.851C99.939 183.597 99.7254 183.42 99.5651 183.277C95.5595 180.018 91.8742 175.798 87.5481 172.782C86.8898 172.356 86.1254 172.057 85.3102 171.906C84.495 171.756 83.6495 171.756 82.8347 171.909C81.6945 172.182 80.6034 172.58 79.5901 173.091C79.5913 172.802 79.667 172.517 79.812 172.254C79.9571 171.991 80.1682 171.757 80.4313 171.567C83.857 169.232 87.5304 167.158 91.4069 165.369C92.2341 165.021 93.1492 164.839 94.0774 164.839C95.0055 164.839 95.9206 165.021 96.7478 165.369C100.433 166.684 104.372 167.391 108.057 168.683C109.059 169.048 108.925 168.208 108.605 168.021C107.47 167.369 106.108 167.115 104.946 166.54C105.821 166.261 106.764 166.159 107.697 166.242C107.95 166.242 108.217 165.447 107.163 165.413C101.194 165.27 101.488 165.866 99.5518 165.314C97.0816 164.607 94.518 163.237 90.5123 164.651C90.0316 164.828 89.4441 165.447 89.0836 165.038C88.7537 164.776 88.5105 164.449 88.3772 164.087C88.2439 163.725 88.2251 163.341 88.3225 162.972C90.4989 156.819 94.6782 154.013 86.3597 147.13C84.1833 145.33 82.2739 143.64 82.1538 140.977C82.1538 140.657 82.1538 140.104 81.6063 140.149C81.0589 140.193 81.2325 140.756 81.2191 141.11C81.2231 142.2 81.4924 143.278 82.0108 144.28C82.5293 145.282 83.2863 146.188 84.2367 146.943C86.5446 148.363 88.348 150.271 89.4575 152.466C91.3401 156.123 89.1504 156.885 87.1609 163.204C86.7336 164.519 88.8166 165.413 87.4413 166.098C85.7055 166.982 84.0498 168.021 82.2339 168.794C81.0583 169.404 80.0193 170.177 79.1629 171.081C78.9244 171.316 78.7479 171.59 78.6444 171.884C78.541 172.179 78.5129 172.489 78.562 172.793C78.562 173.997 79.2029 172.925 70.2035 176.693L69.9231 176.483C70.4497 175.601 71.0382 174.745 71.6856 173.92C72.7112 172.942 73.2601 171.683 73.2256 170.388C73.191 169.093 72.5754 167.856 71.4987 166.916C70.5373 165.888 69.9498 164.64 68.9617 163.602C65.2899 159.868 65.8373 157.393 54.8217 142.413C54.568 142.071 54.2742 141.828 54.7015 141.386C58.1731 137.851 59.2146 133.896 60.0424 132.128C60.6032 132.946 60.3629 133.565 60.6166 134.747C60.7501 135.409 60.8302 135.951 61.6847 136.161C62.5393 136.371 63.3404 135.774 63.8345 135.2C64.4835 134.542 64.9346 133.767 65.1504 132.937C65.3663 132.107 65.3409 131.247 65.0762 130.427C64.9115 130.031 64.8921 129.604 65.0204 129.199C65.1487 128.794 65.419 128.43 65.7972 128.151C69.3089 125.555 67.4529 124.495 68.8282 124.694C69.6516 124.762 70.4653 124.895 71.2583 125.091C74.7533 126.163 78.3604 126.965 82.0336 127.489C87.0274 128.339 89.7646 126.804 92.7154 129.698C96.7211 133.675 95.7864 139.762 97.4955 143.772C98.1342 145.556 99.1965 147.216 100.62 148.656C102.044 150.095 103.801 151.286 105.787 152.157C106.697 152.488 107.47 153.033 108.009 153.724C108.548 154.416 108.829 155.223 108.818 156.045C108.83 158.832 109.999 161.531 112.13 163.69C114.741 166.291 116.309 169.499 116.616 172.87C116.72 174.469 116.457 176.069 115.842 177.587L115.815 177.621ZM164.764 164.287C165.049 163.855 165.504 163.517 166.053 163.33C166.602 163.143 167.213 163.118 167.782 163.259C168.356 163.558 167.942 163.944 167.782 164.198C166.842 165.624 165.544 166.867 163.977 167.844C164.27 166.629 164.484 165.436 164.791 164.253L164.764 164.287ZM162.441 169.335C161.954 171.151 160.758 172.785 159.037 173.983C157.316 175.181 155.167 175.877 152.921 175.963C150.367 176.194 147.799 176.297 145.23 176.273C143.697 176.261 142.192 175.937 140.846 175.33C139.5 174.723 138.355 173.852 137.512 172.793C135.562 170.639 134.471 168.037 134.388 165.347C134.228 164.206 134.228 163.053 134.388 161.911C134.735 160.475 135.055 160.078 136.818 159.768C141.606 158.99 146.479 158.619 151.359 158.664C154.229 158.664 157.1 158.343 159.971 158.774C160.358 158.84 161.012 158.774 161.026 159.205C161.039 159.636 160.411 159.525 160.051 159.581C155.219 160.439 150.303 160.938 145.363 161.072C142.453 161.072 139.542 161.602 136.618 161.171C136.297 161.171 135.95 161.171 135.95 161.503C135.95 161.834 136.297 161.768 136.551 161.779C140.342 161.924 144.141 161.888 147.927 161.668C152.343 161.366 156.737 160.876 161.092 160.199C161.653 160.133 162.321 159.57 162.775 160.011C163.421 160.6 163.774 161.37 163.763 162.166C163.694 164.58 163.259 166.978 162.468 169.302L162.441 169.335ZM163.336 170.318C163.83 168.65 167.128 166.805 168.476 164.684C168.85 164.077 169.317 163.436 168.623 162.795C168.326 162.529 167.935 162.347 167.505 162.278C167.075 162.208 166.629 162.254 166.233 162.409C165.806 162.519 165.392 162.784 164.898 162.663C165.979 160.928 170.559 161.646 169.985 163.955C169.664 165.643 168.586 167.169 166.967 168.23C165.813 168.97 164.609 169.656 163.362 170.285L163.336 170.318ZM184.926 137.464C186.034 137.464 186.342 138.503 185.647 138.569H183.965C183.765 138.569 183.618 138.503 183.604 138.226C183.591 137.95 184.299 137.475 184.926 137.464ZM208.533 176.129C208.44 176.858 208.226 177.079 207.198 176.98C200.749 176.372 180.293 174.627 176.488 174.34C175.553 174.262 175.473 173.876 175.553 173.235C175.994 169.865 179.345 142.91 179.692 140.093C179.692 139.729 179.692 139.331 180.346 139.375C181.001 139.42 181.575 139.199 181.748 139.972C181.834 140.384 182.05 140.771 182.373 141.093C182.696 141.415 183.116 141.661 183.591 141.806C183.858 141.894 184.138 141.971 184.312 141.806C184.486 141.64 184.205 141.43 184.018 141.287C183.819 141.151 183.631 141.003 183.457 140.845C183.11 140.513 182.777 140.071 183.017 139.74C183.257 139.409 183.818 139.64 184.219 139.629C184.9 139.629 186.088 139.762 186.889 139.629C189.666 139.364 187.53 141.607 191.188 142.435C191.522 142.502 191.923 142.656 192.123 142.314C192.323 141.971 191.843 141.938 191.642 141.784C191.108 141.364 190.387 141.11 190.04 140.535C189.907 140.325 189.626 140.093 189.84 139.839C190.053 139.585 190.321 139.718 190.574 139.74C191.402 139.74 192.23 139.85 193.058 139.839C194.246 139.839 195.301 139.718 195.368 141.198C195.368 142.093 197.371 143.109 198.439 143.109C198.679 143.109 199 143.109 199.106 142.91C199.213 142.712 198.893 142.557 198.692 142.469C197.86 142.146 197.149 141.642 196.636 141.01C196.156 140.303 196.436 139.906 197.397 139.906C197.878 139.906 198.359 139.994 198.839 139.994C200.175 139.994 201.416 139.884 201.51 141.585C201.51 142.491 202.711 143.032 203.82 143.275C204.073 143.275 204.487 143.43 204.607 143.098C204.728 142.767 204.381 142.745 204.167 142.634C203.561 142.339 203.052 141.926 202.685 141.43C202.097 140.535 202.444 140.082 203.646 140.093H204.701C205.796 140.093 206.664 140.093 206.744 141.386C206.744 142.369 207.879 142.866 208.934 143.198C209.073 143.256 209.234 143.269 209.385 143.234C209.536 143.2 209.665 143.12 209.748 143.01C210.029 142.634 209.521 142.634 209.348 142.48C209.174 142.325 207.585 141.53 208.012 140.557C208.239 140.049 208.854 140.292 209.281 140.292C210.509 140.292 211.724 140.292 212.953 140.381C213.54 140.381 213.754 140.568 213.66 141.132C212.512 148.147 209.107 171.434 208.466 176.118L208.533 176.129ZM209.935 176.693C209.95 175.581 210.075 174.473 210.309 173.378C210.309 173.069 210.496 172.87 210.99 172.925C213.086 173.135 216.157 173.356 218.254 173.544C218.213 173.655 212.445 175.665 209.868 176.681L209.935 176.693ZM216.958 172.594C215.188 172.4 213.404 172.3 211.617 172.296C210.816 172.296 210.482 172.13 210.603 171.335C211.764 163.834 214.608 144.236 214.929 141.96H215.263C215.383 143.065 217.84 169.125 218.12 171.534C218.16 172.351 218.307 172.782 216.892 172.583L216.958 172.594Z" fill="#3C270B"/>
<path d="M66.9188 71.4137C76.5152 76.7034 84.3266 83.9266 89.6177 92.4032C97.2552 104.688 106.442 114.497 121.823 119.778C131.099 122.849 141.007 124.402 150.998 124.352C158.102 124.009 166.046 123.678 174.645 121.557C187.704 118.32 198.679 112.575 206.797 103.406C213.704 95.727 218.042 86.6774 219.375 77.1693C221.765 60.455 214.435 47.8612 200.148 35.7867C190.481 27.6229 178.651 23.6349 165.071 22.7622C154.443 22.3456 144.096 19.7979 134.922 15.3385C122.531 9.63821 109.125 8.50036 95.0254 10.4888C88.7365 11.3726 75.5845 13.2617 66.9856 18.3986C60.7501 22.1656 54.5012 30.8818 53.166 41.1777C51.537 53.6278 54.3544 64.3546 66.9188 71.4137ZM67.4262 20.1109C73.4214 15.692 86.8137 13.7367 93.6635 12.7756C99.0715 11.9343 104.558 11.4834 110.06 11.4278C118.739 11.4278 127.191 13.9797 134.855 17.5148C148.581 23.8448 155.805 23.0384 167.795 24.1431C179.316 25.0419 190.112 29.1922 198.372 35.8972C206.717 42.6139 213.22 50.2585 216.518 59.5491C220.523 70.9055 218.253 87.6309 206.517 101.528C193.338 117.116 173.016 122.904 150.037 123.203C140.204 123.287 130.456 121.685 121.409 118.497C104.559 112.52 96.9615 101.418 89.364 89.774C84.5116 82.4263 77.6536 76.1168 69.3356 71.3474C66.3113 69.6941 63.556 67.7263 61.1373 65.4925C57.2531 61.5428 54.9026 56.7139 54.3944 51.6394C52.4583 37.1676 59.0811 26.3304 67.4262 20.1109Z" fill="#3C270B"/>
<path d="M218.641 208.177C217.533 207.802 190.868 200.444 179.252 197.649C165.405 194.335 151.853 190.314 138.287 186.293C137.853 186.173 137.385 186.173 136.952 186.293C131.384 187.596 125.736 188.635 120.194 190.049C71.9527 202.433 40.428 208.089 34.6064 210.331C34.5449 210.348 34.4886 210.375 34.4412 210.411C34.3939 210.448 34.3569 210.492 34.3327 210.542C34.3085 210.591 34.2977 210.645 34.3012 210.698C34.3046 210.751 34.3222 210.803 34.3527 210.851C34.6865 211.381 35.4076 210.851 36.3556 210.641C42.057 209.216 80.2712 201.151 96.8013 197.185C109.927 194.059 122.878 190.413 136.204 187.895C136.685 187.806 137.165 187.53 137.713 187.795C139.334 188.411 141.013 188.917 142.733 189.309C151.279 191.794 159.744 194.479 168.436 196.556C195.915 203.096 215.637 209.05 218.067 209.558C218.654 209.558 219.028 209.492 219.175 209.116C219.219 209.026 219.24 208.929 219.237 208.832C219.234 208.734 219.206 208.638 219.156 208.55C219.106 208.462 219.034 208.383 218.945 208.319C218.857 208.255 218.753 208.207 218.641 208.177Z" fill="#3C270B"/>
<path d="M164.698 185.166C165.605 185.166 166.513 185.243 167.368 185.288C200.081 186.635 199.774 186.569 202.484 187.022L214.234 185.818C214.688 185.818 215.236 185.707 215.263 185.166C215.275 185.057 215.262 184.947 215.223 184.843C215.185 184.738 215.121 184.641 215.037 184.557C214.952 184.472 214.849 184.403 214.732 184.352C214.614 184.301 214.486 184.27 214.355 184.26C214.021 184.194 213.687 184.106 213.34 184.061C207.759 183.454 202.231 182.515 196.569 182.426C196.009 182.426 195.434 182.426 194.874 182.349C185.701 181.907 176.528 181.244 167.341 181.145C166.696 181.236 166.034 181.205 165.405 181.057C164.39 180.571 163.83 181.057 163.269 181.532C162.88 181.803 162.611 182.174 162.505 182.586C162.398 182.998 162.461 183.428 162.681 183.807C163.135 184.415 163.563 185.188 164.698 185.166ZM202.711 184.061C203.072 183.631 203.553 183.829 204.047 183.896C205.542 184.117 207.051 184.315 208.546 184.559C208.84 184.559 209.294 184.559 209.334 184.945C209.401 185.553 209.161 185.42 203.993 186.05C203.312 186.193 203.059 185.741 202.832 185.387C202.605 185.034 202.284 184.503 202.711 184.017V184.061ZM164.417 182.084C169.758 181.764 186.635 183.067 195.127 183.509C197.321 183.632 199.524 183.595 201.71 183.399C201.465 183.957 201.378 184.554 201.456 185.144C201.763 186.249 202.017 185.144 168.076 184.426C166.861 184.426 165.646 184.293 164.43 184.282C164.288 184.299 164.143 184.287 164.008 184.248C163.872 184.208 163.75 184.142 163.652 184.056C163.554 183.969 163.482 183.864 163.444 183.75C163.405 183.635 163.4 183.515 163.429 183.399C163.563 182.824 163.389 182.106 164.417 182.04V182.084Z" fill="#3C270B"/>
<path d="M169.665 204.322C169.531 204.068 169.224 204.156 168.997 204.233C161.52 206.664 157.848 208.365 151.853 210.508C150.317 211.049 148.795 212.055 147.233 211.944C145.67 211.834 144.135 210.718 142.626 209.989C131.263 204.465 131.197 204.156 118.512 198.798C118.704 198.688 118.905 198.588 119.113 198.5C124.28 196.898 129.367 195.186 134.588 193.694C135.776 193.352 136.778 193.087 137.846 193.904C138.419 194.231 139.063 194.464 139.742 194.589C151.492 197.903 147.406 196.379 168.757 203.615C169.357 203.825 170.332 204.366 170.666 203.615C171 202.864 169.811 202.841 169.211 202.643C162.534 200.378 155.765 198.146 148.928 196.114C145.016 194.954 140.917 194.39 137.112 192.8C136.371 192.548 135.545 192.528 134.788 192.744C129.14 194.07 123.746 195.97 118.245 197.638C117.751 197.793 116.91 197.782 116.91 198.367C116.91 198.953 117.524 199.108 118.005 199.329C130.663 205.206 112.664 196.523 145.777 212.662C146.699 213.115 147.647 213.767 148.528 212.563C148.661 212.397 149.075 212.375 149.342 212.276C168.222 205.327 169.998 204.863 169.665 204.322Z" fill="#3C270B"/>
<path d="M13.1358 124.595C14.0082 125.265 15.0384 125.778 16.162 126.103C17.2856 126.429 18.4782 126.558 19.6651 126.484C18.3299 125.876 16.9279 125.379 15.6594 124.738C10.639 122.131 9.46396 118.486 11.6537 114.21C13.4356 110.433 13.6655 106.275 12.308 102.379C10.3719 95.8611 12.081 90.1497 18.1296 85.4215C22.7666 81.8031 28.1356 78.8866 33.9921 76.8048C34.4728 76.628 35.1003 76.5728 35.3273 76.0315C34.6998 75.689 34.1657 76.0315 33.685 76.1641C29.0754 77.5069 24.7766 79.4907 20.9736 82.0301C17.8035 83.9571 15.1185 86.3775 13.0691 89.1555C10.0114 93.486 10.1316 98.0705 11.4134 102.754C13.2694 109.482 11.2665 111.228 9.74436 115.359C9.01901 116.994 8.95768 118.781 9.56969 120.447C10.1817 122.114 11.4337 123.57 13.1358 124.595Z" fill="#3C270B"/>
<path d="M70.2435 208.597C70.0453 208.355 69.7786 208.158 69.4667 208.021C69.1548 207.884 68.8073 207.813 68.4543 207.813C67.1473 207.776 65.8389 207.828 64.5421 207.967C60.3896 208.608 56.3305 209.569 52.258 210.453C46.9171 211.558 41.416 212.574 36.0751 213.911C35.3941 214.076 34.3793 214.209 34.7398 215.015C35.1004 215.822 35.9415 215.347 36.5691 215.17C41.8032 213.789 47.1441 212.762 52.4717 211.723C57.3853 210.762 62.1654 209.359 67.1592 208.984C67.6278 208.914 68.1108 208.963 68.5462 209.122C68.9815 209.282 69.3494 209.545 69.6026 209.878C71.9259 212.629 74.6231 215.137 77.1867 217.744C77.5739 218.131 78.0279 218.473 78.4552 218.849C78.8825 219.224 79.0827 218.849 79.3498 218.617C79.0293 218.031 80.3379 219.401 70.2435 208.597Z" fill="#3C270B"/>
<path d="M124.36 214.12C124.36 213.557 123.279 213.535 122.691 213.259C103.117 203.935 103.411 202.863 101.328 203.427C99.4315 203.946 97.5088 204.366 95.5994 204.852C94.2642 205.194 94.0372 205.956 95.0253 206.785C95.7329 207.404 97.9494 208.243 99.8054 209.392C103.304 211.535 107.189 213.203 110.394 215.7C111.175 216.323 112.034 216.875 112.957 217.346C113.411 217.578 113.879 217.346 113.545 217.114C112.769 216.645 112.033 216.131 111.342 215.579C119.647 213.126 119.353 212.419 120.288 212.85C121.222 213.281 122.397 213.811 123.612 214.363C115.601 217.622 114.266 216.661 114.64 217.534C114.84 218.031 115.374 217.655 115.748 217.534C118.16 217.083 120.477 216.339 122.624 215.324C123.279 215.015 124.387 214.894 124.36 214.12ZM99.4716 208.276C98.1364 207.514 96.8011 206.785 95.3591 205.945C97.6163 205.233 99.9211 204.628 102.262 204.134C102.716 204.023 103.063 204.333 103.437 204.509L107.056 206.211C104.786 207.05 102.636 207.757 100.38 208.42C100.226 208.46 100.062 208.468 99.9037 208.443C99.7452 208.418 99.5967 208.361 99.4716 208.276ZM105.32 211.723C103.985 210.872 102.529 210.044 101.007 209.116L107.269 206.774C107.414 206.701 107.58 206.662 107.75 206.662C107.92 206.662 108.086 206.701 108.231 206.774C109.947 207.533 111.614 208.366 113.224 209.271C105.72 211.546 106.148 212.275 105.293 211.723H105.32ZM111.115 215.037C110.92 215.113 110.699 215.129 110.491 215.083C110.283 215.036 110.102 214.93 109.98 214.783C108.954 213.979 107.856 213.241 106.695 212.574C108.922 211.539 111.213 210.603 113.558 209.768C113.972 209.591 113.638 209.547 119.366 212.309C116.509 213.347 113.772 214.12 111.088 215.015L111.115 215.037Z" fill="#3C270B"/>
<path d="M202.765 213.866C195.999 212.283 189.409 210.22 183.07 207.702C181.348 207.017 179.559 206.476 177.729 205.868C177.241 205.667 176.692 205.589 176.151 205.644C175.61 205.699 175.1 205.884 174.685 206.177C171.32 208.387 168.009 208.321 151.225 216.009C150.464 216.374 150.424 216.794 151.078 217.28C152.091 218.025 153.218 218.656 154.43 219.158C154.79 219.313 155.204 219.423 155.444 219.047C155.685 218.672 155.364 218.429 155.017 218.252L151.853 216.716C156.379 214.827 160.652 212.994 164.965 211.248C168.049 210.011 171.387 209.16 174.204 207.525C176.621 206.122 178.037 206.862 179.772 207.525C187.717 210.42 194.033 212.839 202.471 214.518C202.752 214.518 203.246 214.706 203.352 214.297C203.459 213.888 203.045 213.933 202.765 213.866Z" fill="#3C270B"/>
<path d="M136.858 204.94C139.529 206.178 145.377 209.415 147.3 209.547C152.297 208.144 157.155 206.419 161.827 204.388C162.254 204.222 162.802 204.057 162.802 203.604C162.802 202.83 161.293 203.526 151.679 200.367L144.576 198.003C144.367 197.921 144.139 197.879 143.908 197.879C143.677 197.879 143.449 197.921 143.24 198.003C140.036 199.362 136.791 200.665 133.747 202.278C131.811 203.283 133.56 203.449 136.858 204.94ZM140.864 199.98C141.631 199.738 142.358 199.415 143.027 199.019C143.388 198.754 143.842 198.592 144.323 198.556C144.803 198.52 145.285 198.613 145.697 198.82C148.167 199.704 150.664 200.488 153.121 201.361C156.023 202.331 158.998 203.143 162.027 203.792C157.24 205.67 152.337 207.34 147.34 208.796C147.185 208.849 147.018 208.868 146.852 208.853C146.686 208.837 146.528 208.787 146.392 208.708L134.655 202.974C136.725 201.958 138.621 200.798 140.784 199.969L140.864 199.98Z" fill="#3C270B"/>
<path d="M179.105 210.43C178.672 210.299 178.212 210.243 177.753 210.266C177.293 210.289 176.844 210.39 176.434 210.563C159.597 217.015 159.717 216.617 160.064 217.114C160.107 217.178 160.177 217.228 160.261 217.252C160.344 217.277 160.436 217.275 160.518 217.247C160.776 217.214 161.025 217.142 161.253 217.037C163.055 215.998 164.684 216.363 166.3 217.39C166.915 217.724 167.563 218.016 168.236 218.263C168.543 218.406 168.85 218.528 169.371 218.119L164.631 215.844L170.265 213.7C170.429 213.651 170.609 213.651 170.773 213.7C173.951 214.673 177.315 215.225 180.52 216.341C179.385 217.379 177.849 217.998 176.741 219.235C178.17 219.235 178.076 219.047 185.914 213.314C187.597 212.187 186.261 212.441 179.105 210.43ZM181.775 215.623C181.241 215.998 181.575 215.413 171.534 213.303C173.593 212.375 175.736 211.581 177.943 210.928C178.183 210.85 177.582 210.718 185.42 212.993C184.265 213.938 183.034 214.816 181.735 215.623H181.775Z" fill="#3C270B"/>
<path d="M58.9743 86.6587C57.0516 87.2221 56.4641 87.2884 56.6243 87.7635C56.7178 88.0396 57.0116 87.9844 57.2653 87.9513C58.4536 87.8408 59.1346 87.6309 60.1493 87.5867C63.5809 90.2159 65.0496 94.9109 66.1445 97.3413C66.3181 97.7169 66.3582 98.1588 66.9056 98.3466C67.1192 98.0704 67.0258 98.5013 66.505 96.5459C65.0032 90.9641 61.0489 86.0429 55.4093 82.737C53.1566 81.5545 50.5908 80.8418 47.932 80.6602C47.6917 80.6602 47.3579 80.6602 47.2644 80.8701C47.1709 81.0799 47.438 81.2567 47.7985 81.3451C51.9911 82.1957 54.4212 82.5492 58.9743 86.6587Z" fill="#3C270B"/>
<path d="M94.2376 105.781C93.2228 105.56 92.3682 106.102 91.4336 106.577C90.9755 106.751 90.5754 107.014 90.2677 107.345C89.96 107.675 89.7539 108.062 89.6672 108.473C89.5805 108.884 89.6158 109.306 89.77 109.703C89.9241 110.1 90.1926 110.46 90.5523 110.753C91.0843 111.255 91.7389 111.659 92.4731 111.937C93.2073 112.215 94.0043 112.361 94.8117 112.365C95.7557 112.403 96.6883 112.183 97.4671 111.74C98.2459 111.297 98.828 110.655 99.1245 109.913C99.3562 109.289 99.3341 108.619 99.0616 108.007C98.789 107.394 98.2811 106.872 97.6157 106.522C96.6282 105.957 95.4334 105.695 94.2376 105.781ZM94.7984 111.305C90.7927 111.305 89.2038 107.792 92.5552 107.339C92.6753 107.339 92.8756 107.339 92.9023 107.262C93.6501 105.737 94.8651 106.908 95.7864 106.997C96.3247 107.091 96.8177 107.314 97.2045 107.638C97.5913 107.962 97.8549 108.373 97.9628 108.819C98.3501 110.012 96.641 111.283 94.7984 111.294V111.305Z" fill="#3C270B"/>
<path d="M18.8374 115.735C18.2632 115.735 18.4368 116.21 18.4502 116.486C18.3893 119.486 19.5094 122.421 21.6414 124.849C21.9879 125.284 22.4661 125.636 23.0283 125.87C23.5905 126.105 24.2172 126.214 24.8459 126.185C26.6702 126.172 28.4926 126.287 30.2936 126.528C31.4774 126.814 32.7258 126.867 33.9388 126.683C32.6225 125.956 31.0875 125.546 29.5058 125.501C26.8354 125.434 25.874 123.435 24.4453 121.855C24.1916 121.59 24.1115 121.159 23.2837 121.17C24.0966 122.65 25.2431 123.989 26.6618 125.114C22.6561 125.545 22.6561 125.556 21.2141 123.147C18.1564 118.22 19.9056 115.801 18.8374 115.735Z" fill="#3C270B"/>
<path d="M96.1737 211.955C95.7333 211.924 95.2896 211.964 94.8683 212.075C94.4469 212.186 94.0562 212.364 93.7186 212.6C93.3811 212.836 93.1033 213.126 92.9013 213.451C92.6994 213.776 92.5772 214.132 92.5419 214.496C92.5007 214.899 92.565 215.305 92.7304 215.686C92.8959 216.067 93.1586 216.414 93.5007 216.704C93.8429 216.993 94.2563 217.218 94.713 217.363C95.1696 217.508 95.6587 217.57 96.147 217.545C101.675 217.523 100.353 211.955 96.1737 211.955ZM93.3697 214.585C93.4793 214.015 93.8345 213.497 94.3697 213.128C94.9048 212.758 95.5836 212.561 96.2805 212.574C97.2553 212.574 98.8308 214.22 98.8175 215.17C98.7507 217.28 93.3564 217.866 93.3697 214.585Z" fill="#3C270B"/>
<path d="M41.2692 96.8331C40.4413 96.9767 40.4947 97.7058 40.4547 98.3686C40.4366 99.537 40.8513 100.682 41.643 101.65C41.7738 101.861 41.9883 102.029 42.2507 102.126C42.5132 102.222 42.8077 102.241 43.0851 102.18C43.6592 102.058 43.726 101.594 43.7527 101.23C43.8401 99.8264 43.3713 98.4378 42.4175 97.275C42.3131 97.1058 42.1434 96.9705 41.9353 96.8904C41.7272 96.8103 41.4927 96.7901 41.2692 96.8331Z" fill="#3C270B"/>
<path d="M29.2654 97.4849C29.3755 103.35 26.9566 109.057 22.4424 113.581C27.0089 111.957 31.3751 100.545 29.2654 97.4849Z" fill="#3C270B"/>
<path d="M60.75 96.6451C61.5244 96.4684 61.5778 95.8829 61.6045 95.3305C61.5688 94.2167 61.2789 93.1184 60.75 92.0937C60.5096 91.6408 60.1491 91.2541 59.4815 91.3204C58.8139 91.3867 58.6136 91.917 58.5602 92.3588C58.4332 93.5471 58.6961 94.7417 59.3213 95.8166C59.5883 96.3137 59.9622 96.844 60.75 96.6451Z" fill="#3C270B"/>
<path d="M81.4329 112.608C81.5373 113.198 81.8995 113.735 82.4509 114.117C83.0022 114.5 83.7043 114.702 84.4238 114.685C85.1206 114.628 85.768 114.362 86.2431 113.936C86.7182 113.511 86.9878 112.956 87.0008 112.376C86.894 111.87 86.5843 111.409 86.1216 111.066C85.6589 110.723 85.0703 110.519 84.4505 110.487C83.7176 110.463 83.0007 110.668 82.4417 111.061C81.8828 111.454 81.5227 112.006 81.4329 112.608ZM85.7723 112.498C85.7723 114.553 82.2474 113.912 82.4476 112.432C82.5411 111.725 82.9417 111.327 83.9698 111.504C84.8777 111.415 85.7991 111.504 85.7723 112.498Z" fill="#3C270B"/>
<path d="M55.7297 100.147C56.7705 100.154 57.8015 100.315 58.774 100.622C59.6686 100.865 59.8154 101.318 59.1478 101.915C58.3247 102.566 57.383 103.107 56.3572 103.517C56.0768 103.638 55.6495 103.771 55.8498 104.146C56.0501 104.522 56.3839 104.345 56.6777 104.279C58.227 103.966 59.5737 103.176 60.443 102.07C60.6023 101.905 60.7108 101.71 60.7593 101.503C60.8077 101.296 60.7946 101.082 60.721 100.88C60.6475 100.678 60.5157 100.493 60.337 100.343C60.1583 100.192 59.9381 100.079 59.6953 100.015C58.4352 99.5567 57.0645 99.3451 55.6896 99.3961C55.2623 99.3961 54.7015 99.3299 54.7816 99.8933C54.8618 100.457 55.4092 100.158 55.7297 100.147Z" fill="#3C270B"/>
<path d="M93.0626 208.917C92.8757 207.989 91.7274 207.426 89.7913 207.404C89.2352 207.359 88.6747 207.438 88.1677 207.632C87.6607 207.826 87.2255 208.129 86.9072 208.509C86.3731 209.293 87.0674 209.956 87.6683 210.53C88.1981 210.957 88.8697 211.244 89.5973 211.354C90.3249 211.465 91.0758 211.393 91.7541 211.149C92.2472 210.956 92.6458 210.63 92.8838 210.224C93.1218 209.818 93.1849 209.357 93.0626 208.917ZM90.2987 210.873C89.0436 210.873 87.6282 209.967 87.5214 209.16C87.5214 207.923 92.3149 207.338 92.2615 209.326C92.2222 209.739 92.0001 210.125 91.6379 210.41C91.2756 210.696 90.7987 210.86 90.2987 210.873Z" fill="#3C270B"/>
<path d="M33.4313 109.99C33.5114 109.747 33.7784 109.46 33.4313 109.316C33.0841 109.173 32.8304 109.515 32.6568 109.747C32.4832 109.979 32.4298 110.134 32.3097 110.333C31.7532 111.419 30.8649 112.367 29.7319 113.084C28.5989 113.8 27.2602 114.261 25.8472 114.42C26.3149 114.635 26.8411 114.747 27.376 114.747C27.9109 114.747 28.4371 114.635 28.9048 114.42C30.0238 114.024 31.0155 113.417 31.8013 112.648C32.5871 111.879 33.1452 110.969 33.4313 109.99Z" fill="#3C270B"/>
<path d="M131.797 200.886C134.431 199.878 136.978 198.722 139.422 197.428C140.022 197.163 140.957 196.169 138.754 197.086C136.257 198.124 133.96 199.35 131.41 200.168C131.01 200.289 130.329 200.51 130.609 200.963C130.889 201.416 131.397 201.007 131.797 200.886Z" fill="#3C270B"/>
<path d="M136.711 195.838C136.578 195.252 136.177 195.661 135.963 195.738C133.413 196.633 130.876 197.561 128.326 198.478C127.939 198.61 127.378 198.754 127.605 199.196C127.832 199.638 128.286 199.295 128.646 199.196C131.317 198.4 133.667 197.263 136.177 196.268C136.391 196.18 136.684 196.103 136.711 195.838Z" fill="#3C270B"/>
<path d="M22.4559 108.875L19.959 112.001L20.2527 112.189C21.4809 111.404 22.4537 110.379 23.0834 109.206C23.1207 109.126 23.133 109.039 23.1189 108.954C23.1049 108.869 23.0652 108.789 23.0033 108.72C22.803 108.576 22.576 108.731 22.4559 108.875Z" fill="#3C270B"/>
<path d="M64.8359 175.334L57.3987 172.351C56.9715 172.186 56.5308 172.782 57.0115 172.992C59.4436 174.115 61.9538 175.119 64.5288 175.997C64.7558 176.063 65.0763 176.384 65.3033 175.997C65.5303 175.61 65.1564 175.467 64.8359 175.334Z" fill="#3C270B"/>
<path d="M64.4753 178.35C56.5974 175.411 59.2412 176.538 57.2917 175.555C56.9179 175.555 56.8511 175.765 57.0247 175.997C57.3388 176.343 57.7516 176.62 58.2264 176.803C60.1386 177.666 62.1351 178.394 64.1949 178.979C64.542 179.079 65.0227 179.421 65.2363 179.046C65.45 178.67 64.8224 178.482 64.4753 178.35Z" fill="#3C270B"/>
<path d="M91.033 169.788C90.9869 169.766 90.9322 169.76 90.8809 169.772C90.8296 169.783 90.7858 169.811 90.7592 169.849C90.7327 169.887 90.7255 169.932 90.7393 169.975C90.753 170.017 90.7866 170.054 90.8327 170.076C95.3631 172.718 99.4374 175.858 102.943 179.41C102.975 179.446 103.023 179.469 103.075 179.475C103.128 179.481 103.181 179.47 103.224 179.443C103.266 179.417 103.294 179.378 103.302 179.334C103.309 179.291 103.296 179.247 103.264 179.212C100.288 175.216 96.0618 171.96 91.033 169.788Z" fill="#3C270B"/>
<path d="M101.06 173.456C101.021 173.444 100.978 173.442 100.938 173.451C100.897 173.46 100.861 173.479 100.835 173.506C100.808 173.533 100.793 173.566 100.79 173.601C100.787 173.635 100.798 173.67 100.82 173.699C102.246 175.356 103.471 177.124 104.479 178.98C104.495 179.015 104.526 179.045 104.567 179.064C104.607 179.083 104.654 179.09 104.7 179.083C104.745 179.077 104.787 179.058 104.817 179.028C104.847 178.999 104.865 178.963 104.866 178.924C104.973 177.234 102.729 174.019 101.06 173.456Z" fill="#3C270B"/>
<path d="M209.334 145.12C192.537 144.7 190.2 144.601 184.632 144.446C181.641 144.369 181.561 144.181 181.147 147.065C180.44 151.848 179.879 156.653 179.238 161.426C179.051 162.785 179.238 162.994 180.92 163.094C183.497 163.238 198.452 163.967 203.366 164.276C204.554 164.353 205.061 164 205.355 163.061C207.118 157.603 208.96 152.157 210.776 146.711C211.23 145.363 211.043 145.164 209.334 145.12ZM204.193 162.409C204.182 162.531 204.139 162.649 204.067 162.755C203.995 162.862 203.896 162.954 203.776 163.025C203.657 163.097 203.52 163.146 203.375 163.169C203.231 163.193 203.082 163.189 202.938 163.16C198.372 162.895 184.245 162.133 181.802 162.055C180.987 162.055 180.667 161.868 180.76 161.105C181.321 156.852 182.496 147.297 182.536 146.799C182.63 145.319 182.63 145.341 184.365 145.407C192.377 145.706 209.134 146.335 209.534 146.369C208.68 148.931 204.434 161.591 204.193 162.409Z" fill="#3C270B"/>
<path d="M200.375 170.142L183.017 169.512C182.363 169.512 181.281 168.938 181.188 169.844C181.094 170.749 182.336 170.418 183.097 170.551C187.89 170.937 200.001 171.412 200.321 171.39C201.149 171.39 202.538 171.755 202.565 170.76C202.591 169.766 201.176 170.142 200.375 170.142Z" fill="#3C270B"/>
<path d="M200.949 167.137L184.005 166.342H181.655C181.388 166.342 181.121 166.419 181.148 166.717C181.174 167.016 181.375 167.005 181.615 167.027C184.753 167.469 198.319 168.043 200.869 168.131C201.523 168.131 202.658 168.485 202.685 167.634C202.712 166.784 201.51 167.17 200.949 167.137Z" fill="#3C270B"/>
</g>
</g>
<defs>
<clipPath id="clip0_52_91">
<rect width="240" height="212" fill="white" transform="translate(0 0.40625)"/>
</clipPath>
<clipPath id="clip1_52_91">
<rect width="235" height="211" fill="white" transform="translate(2 9.40625)"/>
</clipPath>
</defs>
</svg>
