<?xml version="1.0" standalone="no"?>
<!DOCTYPE svg PUBLIC "-//W3C//DTD SVG 20010904//EN"
 "http://www.w3.org/TR/2001/REC-SVG-20010904/DTD/svg10.dtd">
<svg version="1.0" xmlns="http://www.w3.org/2000/svg"
 width="612.000000pt" height="408.000000pt" viewBox="0 0 612.000000 408.000000"
 preserveAspectRatio="xMidYMid meet">

<g transform="translate(0.000000,408.000000) scale(0.100000,-0.100000)"
fill="#000000" stroke="none">
<path d="M0 3690 l0 -390 98 63 c141 92 322 197 441 257 108 55 105 55 132 7
5 -10 13 -15 17 -13 11 7 107 -71 107 -86 1 -7 6 -12 12 -11 11 2 88 -86 185
-212 108 -139 291 -373 402 -511 216 -270 240 -300 391 -499 l150 -198 18 41
17 41 -77 102 c-43 56 -93 123 -112 148 -51 69 -313 401 -406 516 -104 127
-195 252 -195 265 0 6 -4 9 -8 6 -4 -2 -14 4 -21 16 -10 16 -10 19 1 13 7 -3
4 0 -7 9 -38 29 -45 37 -45 48 0 7 7 3 16 -8 15 -18 15 -18 4 3 -5 12 -16 20
-23 17 -13 -5 -33 19 -188 221 -55 73 -71 101 -59 101 11 0 16 -6 12 -15 -3
-9 -1 -12 6 -7 6 3 14 1 18 -5 5 -8 3 -9 -6 -4 -8 5 -11 4 -6 -3 4 -6 14 -8
23 -5 10 4 14 2 10 -4 -4 -6 0 -16 8 -23 8 -7 15 -9 15 -5 0 4 8 1 18 -6 15
-13 16 -12 4 3 -8 10 -19 16 -25 15 -7 -1 -11 3 -10 10 4 17 -106 112 -149
130 -21 8 -38 18 -37 22 1 10 185 174 284 252 50 40 94 76 100 80 5 5 -239 9
-553 9 l-562 0 0 -390z"/>
<path d="M3387 4035 c20 -25 45 -45 55 -45 12 0 18 -7 18 -21 0 -19 90 -139
110 -147 5 -2 59 22 120 53 62 31 113 55 114 53 21 -30 187 -303 261 -428 53
-91 109 -183 124 -205 l26 -40 165 0 c91 0 364 -1 608 -2 l442 -3 0 -496 0
-497 -37 -41 c-20 -22 -40 -42 -45 -44 -4 -2 -8 21 -8 51 0 48 -3 56 -22 62
-23 7 -23 8 -2 12 19 4 22 13 28 100 4 53 4 98 1 101 -3 3 -40 -3 -83 -12 -42
-10 -107 -22 -144 -27 -37 -5 -79 -14 -94 -19 l-27 -10 22 -19 c21 -18 21 -20
4 -31 -16 -10 -16 -11 4 -7 17 4 29 -3 45 -25 20 -29 24 -30 76 -25 30 3 60
11 65 16 13 13 37 14 37 2 0 -5 -24 -20 -52 -35 l-53 -26 62 3 c34 1 65 -2 70
-6 13 -13 -19 -27 -64 -27 -56 0 -72 -7 -66 -30 4 -15 -2 -20 -34 -26 -35 -7
-36 -8 -13 -15 17 -5 19 -7 7 -8 -10 -1 -16 -5 -13 -10 4 -5 0 -12 -6 -15 -7
-3 -1 -4 15 -2 18 2 27 -1 27 -10 0 -9 13 -14 38 -14 27 0 33 -3 22 -10 -15
-10 -13 -10 52 -14 35 -3 18 -21 -27 -31 -26 -6 -43 -14 -38 -19 5 -5 0 -6
-10 -3 -11 4 -25 1 -33 -8 -11 -11 -40 -16 -97 -17 -46 -1 -63 -3 -39 -5 23
-2 42 -8 42 -14 0 -5 6 -9 14 -9 8 0 16 -6 19 -14 5 -12 -4 -15 -41 -14 -26 0
-87 -5 -137 -10 -87 -10 -270 0 -430 25 -52 8 -70 34 -30 42 11 2 22 6 25 10
3 4 28 14 55 23 l50 17 -46 0 c-25 1 -54 8 -65 16 -13 11 -14 14 -4 13 8 -2
14 3 12 10 -1 6 8 12 20 12 29 1 50 18 65 52 10 23 9 27 -9 32 -21 5 -21 5 3
26 13 11 18 19 10 18 -7 -2 -16 3 -19 11 -2 8 0 11 6 7 6 -3 13 -2 17 4 3 5
17 10 30 10 13 0 27 5 30 10 4 6 -7 10 -24 10 -17 0 -31 5 -31 10 0 6 4 10 9
10 5 0 16 16 25 35 9 19 23 35 31 35 8 0 15 5 15 10 0 6 -5 10 -12 10 -21 0
27 43 69 62 58 26 60 35 8 40 -36 2 -45 0 -45 -13 0 -8 -14 -22 -31 -30 -28
-13 -50 -51 -170 -289 -75 -151 -137 -276 -136 -277 1 -1 177 -5 390 -10 l388
-8 -115 -130 c-64 -71 -113 -136 -111 -143 3 -7 0 -10 -5 -7 -6 4 -22 -8 -37
-26 l-27 -32 -331 5 -330 6 -55 -115 c-30 -64 -60 -117 -66 -120 -7 -2 -107
44 -224 102 -117 59 -216 103 -220 98 -4 -4 -31 -61 -60 -126 -29 -64 -56
-120 -60 -122 -4 -3 -52 16 -106 41 -195 91 -225 104 -234 104 -6 0 -54 -35
-106 -77 -127 -103 -222 -173 -231 -172 -5 0 -30 27 -58 61 -27 33 -103 123
-168 201 -121 145 -159 193 -258 325 -50 66 -64 78 -129 108 -40 19 -74 34
-77 34 -2 0 1 -9 7 -19 18 -34 11 -37 -10 -4 -20 33 -96 78 -106 62 -3 -5 0
-9 5 -9 10 0 33 -16 71 -50 43 -39 63 -54 56 -42 -9 15 6 16 22 0 15 -15 16
-31 0 -22 -7 4 -8 3 -4 -5 4 -6 11 -9 16 -6 8 5 114 -122 186 -225 49 -70 307
-394 348 -438 28 -30 29 -34 14 -43 -10 -6 -18 -17 -18 -25 0 -8 -4 -13 -9
-10 -5 3 -14 -1 -21 -9 -10 -12 -10 -18 0 -30 9 -11 10 -19 3 -26 -8 -8 -13
-5 -18 10 -8 27 -14 26 -48 -5 -15 -14 -58 -48 -95 -77 -37 -28 -141 -110
-232 -182 -734 -584 -869 -692 -898 -717 l-33 -28 546 1 c418 0 545 3 545 12
0 9 2 9 8 0 9 -15 74 -14 84 1 5 8 8 7 8 -1 0 -10 386 -13 1800 -13 l1800 0 0
2040 0 2040 -1385 0 -1386 0 38 -45z m2553 -1340 c0 -7 -8 -19 -19 -29 -14
-13 -24 -14 -45 -7 -33 13 -32 18 1 53 25 26 28 27 45 11 10 -9 18 -21 18 -28z
m-78 -42 c20 -22 6 -75 -14 -55 -9 9 -8 15 6 25 18 13 18 14 0 14 -11 0 -22
-5 -26 -11 -12 -19 -20 2 -8 23 13 26 22 26 42 4z m-432 -850 l0 -266 -217 6
c-120 4 -226 7 -236 7 -15 0 -16 2 -5 13 7 8 72 80 143 162 127 144 152 165
200 165 20 0 24 6 30 53 6 41 15 60 43 90 20 20 37 37 39 37 2 0 3 -120 3
-267z m-292 200 c-10 -2 -26 -2 -35 0 -10 3 -2 5 17 5 19 0 27 -2 18 -5z
m-438 -606 c0 -2 -10 -12 -22 -23 l-23 -19 19 23 c18 21 26 27 26 19z m-275
-57 c3 -5 1 -10 -4 -10 -6 0 -11 5 -11 10 0 6 2 10 4 10 3 0 8 -4 11 -10z m98
-142 c-5 -26 -23 -40 -23 -18 0 10 23 51 26 47 1 -1 0 -14 -3 -29z m-48 -41
c-10 -8 -15 -19 -11 -25 4 -7 1 -12 -9 -12 -10 0 -13 5 -9 13 14 24 27 37 37
37 6 0 3 -6 -8 -13z m-35 -58 c0 -10 -41 -69 -66 -96 -6 -6 -19 -11 -29 -10
-10 1 -20 -5 -23 -13 -5 -13 -3 -13 11 -1 11 9 17 10 17 2 0 -10 -14 -15 -33
-12 -5 1 -7 -4 -4 -11 2 -7 -6 -26 -19 -41 -18 -21 -23 -37 -20 -67 2 -22 -1
-40 -6 -40 -5 0 -7 -4 -4 -9 3 -4 -6 -19 -21 -32 -14 -13 -23 -18 -19 -12 5 9
2 11 -8 7 -8 -3 -13 -11 -10 -18 6 -14 -85 -83 -122 -92 l-28 -7 36 49 c19 27
61 87 93 134 58 87 95 129 95 110 0 -5 5 -10 11 -10 6 0 9 8 7 18 -3 10 0 23
6 29 6 7 17 19 24 27 6 9 19 13 27 10 8 -4 15 -1 15 5 0 6 -6 11 -12 11 -7 0
5 18 27 39 42 41 55 48 55 30z m-623 -21 c-3 -8 -6 -5 -6 6 -1 11 2 17 5 13 3
-3 4 -12 1 -19z m23 -43 c0 -8 -2 -15 -4 -15 -2 0 -6 7 -10 15 -3 8 -1 15 4
15 6 0 10 -7 10 -15z m204 -11 c3 -8 2 -12 -4 -9 -6 3 -10 10 -10 16 0 14 7
11 14 -7z m-1420 -45 c-3 -5 -10 -7 -15 -3 -5 3 -7 10 -3 15 3 5 10 7 15 3 5
-3 7 -10 3 -15z m1676 -145 c0 -8 -5 -12 -10 -9 -6 4 -8 11 -5 16 9 14 15 11
15 -7z m-1310 -109 c0 -5 -5 -3 -10 5 -5 8 -10 20 -10 25 0 6 5 3 10 -5 5 -8
10 -19 10 -25z m-50 -30 c0 -5 -5 -3 -10 5 -5 8 -10 20 -10 25 0 6 5 3 10 -5
5 -8 10 -19 10 -25z m-232 -26 c-3 -8 -7 -3 -11 10 -4 17 -3 21 5 13 5 -5 8
-16 6 -23z m401 -13 c-3 -3 -11 5 -18 17 -13 21 -12 21 5 5 10 -10 16 -20 13
-22z m-385 -96 c4 -15 -2 -9 -14 14 -11 22 -20 44 -20 50 1 15 26 -33 34 -64z
m-404 39 c0 -6 -4 -7 -10 -4 -5 3 -10 2 -10 -3 0 -13 26 -33 33 -26 8 8 18
-55 13 -89 -4 -30 -16 -49 -17 -26 -2 40 -9 72 -23 101 -16 32 -13 73 5 63 5
-4 9 -11 9 -16z m1237 -1 c-3 -8 -6 -5 -6 6 -1 11 2 17 5 13 3 -3 4 -12 1 -19z
m-568 -20 c6 -18 7 -28 2 -23 -10 12 -25 55 -18 55 3 0 10 -15 16 -32z m-621
-19 c-3 -8 -7 -3 -11 10 -4 17 -3 21 5 13 5 -5 8 -16 6 -23z m79 9 c-3 -8 -6
-5 -6 6 -1 11 2 17 5 13 3 -3 4 -12 1 -19z m733 -8 c12 -16 23 -41 26 -55 2
-13 9 -36 14 -50 6 -15 6 -24 1 -20 -8 4 -21 45 -23 72 -1 5 -12 25 -25 46
-28 44 -23 50 7 7z m-905 -30 c5 -16 4 -22 -3 -15 -5 6 -12 24 -16 40 -7 34 7
15 19 -25z m126 23 c13 -16 12 -17 -3 -4 -10 7 -18 15 -18 17 0 8 8 3 21 -13z
m529 -38 c0 -5 -5 -3 -10 5 -5 8 -10 20 -10 25 0 6 5 3 10 -5 5 -8 10 -19 10
-25z m84 -1 c3 -8 2 -12 -4 -9 -6 3 -10 10 -10 16 0 14 7 11 14 -7z m-840 -20
c3 -8 2 -12 -4 -9 -6 3 -10 10 -10 16 0 14 7 11 14 -7z m136 -40 c24 -55 24
-61 5 -61 -9 0 -14 6 -11 13 3 8 -1 29 -9 48 -16 38 -18 46 -10 46 3 0 15 -21
25 -46z m64 15 c-2 -4 1 -19 8 -34 9 -19 9 -28 0 -37 -19 -19 -14 -33 6 -15
16 14 17 13 19 -16 1 -24 -1 -27 -6 -13 -6 15 -9 17 -16 6 -6 -9 -11 -7 -21
11 -15 27 -17 40 -6 38 19 -3 22 2 9 15 -8 9 -12 26 -9 46 3 22 7 28 13 19 4
-7 6 -16 3 -20z m666 -14 c0 -5 -5 -3 -10 5 -5 8 -10 20 -10 25 0 6 5 3 10 -5
5 -8 10 -19 10 -25z m70 -30 c0 -5 -5 -3 -10 5 -5 8 -10 20 -10 25 0 6 5 3 10
-5 5 -8 10 -19 10 -25z m-56 -1 c3 -8 2 -12 -4 -9 -6 3 -10 10 -10 16 0 14 7
11 14 -7z m-835 -43 c0 -14 -1 -14 -6 -1 -3 8 -10 24 -15 35 -9 20 -9 20 6 1
9 -11 16 -27 15 -35z m920 -26 c0 -5 -6 1 -14 15 -8 14 -14 30 -14 35 0 6 6
-1 14 -15 8 -14 14 -29 14 -35z m-55 -2 c9 -18 14 -33 12 -33 -6 0 -36 55 -36
66 0 11 5 3 24 -33z m-791 12 c-3 -9 -8 -14 -10 -11 -3 3 -2 9 2 15 9 16 15
13 8 -4z m747 -30 c0 -5 -5 -3 -10 5 -5 8 -10 20 -10 25 0 6 5 3 10 -5 5 -8
10 -19 10 -25z m-803 3 c-3 -8 -6 -5 -6 6 -1 11 2 17 5 13 3 -3 4 -12 1 -19z
m138 -48 c28 -73 27 -79 -3 -18 -23 45 -32 55 -42 45 -10 -10 -10 -7 0 12 14
27 21 21 45 -39z m25 15 c0 -5 -5 -3 -10 5 -5 8 -10 20 -10 25 0 6 5 3 10 -5
5 -8 10 -19 10 -25z m779 -50 l-1 -20 -8 20 c-4 11 -10 30 -15 43 -4 12 -12
22 -17 22 -5 0 -6 5 -2 11 9 15 43 -47 43 -76z m-937 60 c2 2 5 -6 5 -18 2
-14 -1 -17 -6 -9 -4 6 -16 19 -27 28 -18 15 -18 15 2 5 12 -6 23 -8 26 -6z
m74 -46 c2 -34 2 -34 -16 0 -10 19 -10 22 1 16 9 -6 10 -3 5 11 -4 10 -4 15 1
11 4 -5 8 -22 9 -38z m307 4 c-5 -11 -8 -12 -13 -2 -5 7 -6 19 -3 26 5 11 8
12 13 2 5 -7 6 -19 3 -26z m-63 -18 c0 -5 -5 -3 -10 5 -5 8 -10 20 -10 25 0 6
5 3 10 -5 5 -8 10 -19 10 -25z m-134 10 c-3 -8 1 -30 9 -49 22 -52 17 -58 -5
-8 -17 37 -18 72 -3 72 3 0 3 -7 -1 -15z m704 -30 c0 -5 -5 -3 -10 5 -5 8 -10
20 -10 25 0 6 5 3 10 -5 5 -8 10 -19 10 -25z m271 18 c13 -16 12 -17 -3 -4
-10 7 -18 15 -18 17 0 8 8 3 21 -13z m-766 -113 c12 -40 -10 -11 -30 40 -27
71 -28 78 -2 30 14 -25 28 -56 32 -70z m-368 68 c-3 -8 -6 -5 -6 6 -1 11 2 17
5 13 3 -3 4 -12 1 -19z m92 -31 c12 -26 16 -45 10 -42 -10 7 -19 27 -34 75
-11 38 1 21 24 -33z m55 2 c-6 -11 -24 -2 -24 11 0 5 7 7 15 4 8 -4 12 -10 9
-15z m920 5 c3 -8 2 -12 -4 -9 -6 3 -10 10 -10 16 0 14 7 11 14 -7z m-665 -24
c5 0 6 -12 3 -27 l-6 -28 -7 25 c-4 14 -7 34 -7 45 0 16 1 17 5 3 2 -10 8 -18
12 -18z m-99 -34 c-1 -6 -6 -1 -13 12 -7 12 -17 19 -22 15 -4 -4 -5 -2 0 6 7
12 10 11 22 -4 7 -11 13 -24 13 -29z m918 9 c-3 -3 -9 2 -12 12 -6 14 -5 15 5
6 7 -7 10 -15 7 -18z m-379 -60 c0 -5 -8 6 -19 25 -11 19 -19 40 -19 45 0 6 8
-6 19 -25 11 -19 19 -39 19 -45z m-1555 50 c-4 -8 -8 -15 -10 -15 -2 0 -4 7
-4 15 0 8 4 15 10 15 5 0 7 -7 4 -15z m875 -55 c0 -10 -3 -8 -9 5 -12 27 -12
43 0 25 5 -8 9 -22 9 -30z m159 -1 c-3 -8 -7 -3 -11 10 -4 17 -3 21 5 13 5 -5
8 -16 6 -23z m-178 0 c0 -5 -4 -9 -8 -9 -5 0 -9 7 -9 15 0 8 4 12 9 9 4 -3 8
-9 8 -15z m517 -1 c-3 -8 -6 -5 -6 6 -1 11 2 17 5 13 3 -3 4 -12 1 -19z m31
-3 c-3 -3 -9 2 -12 12 -6 14 -5 15 5 6 7 -7 10 -15 7 -18z m-449 -30 c0 -5 -4
-3 -9 5 -5 8 -9 22 -9 30 0 16 17 -16 18 -35z m-119 0 c0 -5 -5 -3 -10 5 -5 8
-10 20 -10 25 0 6 5 3 10 -5 5 -8 10 -19 10 -25z"/>
<path d="M5893 2693 c-9 -22 2 -25 20 -5 15 17 16 19 1 19 -9 0 -18 -7 -21
-14z"/>
<path d="M4380 1045 c-7 -9 -8 -15 -2 -15 5 0 12 7 16 15 3 8 4 15 2 15 -2 0
-9 -7 -16 -15z"/>
<path d="M4260 920 c-13 -8 -12 -10 3 -10 9 0 17 5 17 10 0 12 -1 12 -20 0z"/>
<path d="M2331 514 c0 -11 3 -14 6 -6 3 7 2 16 -1 19 -3 4 -6 -2 -5 -13z"/>
<path d="M3135 3864 c-358 -36 -979 -105 -983 -109 -2 -1 1 -43 6 -91 9 -77
14 -91 37 -111 14 -13 30 -21 35 -18 5 3 18 -3 30 -15 27 -27 38 -25 38 5 0
14 -6 25 -13 25 -8 0 -16 14 -20 30 -4 17 -10 28 -14 26 -6 -4 -7 18 -2 61 1
8 11 10 31 7 21 -5 30 -3 30 6 0 8 3 10 7 6 4 -4 8 -15 8 -24 0 -14 10 -17 55
-17 43 0 60 -5 79 -22 21 -20 22 -23 7 -29 -9 -4 -26 -25 -38 -48 l-20 -41 37
43 c46 52 91 58 130 16 32 -34 31 -59 -1 -89 -26 -24 -26 -25 -5 -25 19 0 32
-20 14 -20 -5 0 -38 -2 -75 -5 -80 -5 -82 0 -38 78 17 30 30 57 30 61 0 18
-20 -8 -46 -59 -22 -44 -32 -55 -47 -51 -10 2 -48 -2 -85 -9 -43 -9 -71 -11
-83 -4 -28 15 -34 11 -14 -11 30 -33 28 -69 -4 -88 -32 -18 -31 0 -5 -241 8
-74 14 -149 14 -169 l0 -35 41 7 c39 6 40 5 34 -16 -9 -28 -5 -24 -35 -33 -24
-7 -24 -7 -5 8 22 17 15 33 -10 24 -17 -7 -22 -77 -5 -77 6 0 38 14 71 31 34
17 63 29 65 27 2 -3 -28 -20 -67 -39 l-71 -34 6 -59 c3 -32 6 -73 6 -90 0 -20
3 -26 9 -18 4 7 6 -13 3 -44 l-5 -57 33 6 c18 4 43 7 55 7 16 0 24 7 27 25 3
16 1 25 -7 25 -31 0 -60 38 -61 79 0 26 4 41 11 41 7 0 18 7 25 15 7 8 16 13
20 10 4 -3 19 4 31 15 14 11 18 19 11 20 -7 0 -10 5 -6 11 8 13 -33 -7 -58
-28 -9 -8 -24 -13 -34 -11 -14 2 -9 9 19 28 28 19 33 27 24 38 -12 15 5 32 36
32 10 0 17 8 17 20 0 14 17 28 60 50 33 16 63 30 67 30 4 -1 -17 -14 -47 -29
l-55 -29 0 -108 c0 -80 -5 -123 -19 -162 -10 -29 -15 -56 -12 -59 3 -3 56 -1
118 5 253 25 433 45 437 48 6 5 -125 226 -134 226 -5 0 -11 -6 -14 -13 -2 -7
1 -9 9 -4 9 6 9 3 0 -15 -6 -12 -9 -27 -7 -35 4 -8 -13 -18 -51 -30 -31 -9
-67 -21 -79 -27 -36 -17 -70 -2 -79 34 l-8 33 -7 -35 -6 -35 -2 38 c-1 37 -1
37 -21 17 -11 -11 -26 -34 -33 -52 -8 -18 -21 -39 -30 -47 -15 -12 -17 -10
-19 15 0 16 -1 35 -1 42 1 19 -7 14 -17 -10 -7 -18 -9 -8 -9 39 -1 69 14 95
50 86 16 -4 20 -2 17 8 -3 8 7 21 26 31 17 9 25 17 18 18 -7 0 -10 5 -7 10 4
6 -5 5 -20 -2 -14 -6 -21 -14 -16 -18 6 -3 -9 -6 -32 -7 l-42 -1 65 30 c49 22
61 31 50 38 -10 7 -11 10 -3 10 7 0 12 3 12 8 -3 18 2 32 12 32 6 0 8 -7 5
-17 -6 -14 -3 -14 16 4 34 30 84 54 102 47 9 -3 16 -4 16 0 0 3 -32 60 -70
128 l-70 123 21 15 c30 20 514 286 672 368 l128 67 -7 75 c-7 77 -10 91 -22
89 -4 -1 -110 -12 -237 -25z m-330 -83 c11 -36 110 -62 160 -42 11 5 25 4 33
-1 8 -8 12 -6 12 6 0 9 6 16 14 16 8 0 16 6 19 13 2 6 7 9 11 6 8 -8 -28 -44
-58 -61 -13 -7 -16 -7 -12 1 8 12 1 13 -31 5 -13 -4 -20 -10 -18 -15 3 -4 13
-5 22 -2 11 4 14 2 9 -5 -22 -35 -154 -15 -197 31 -25 27 -24 47 2 47 11 0 17
5 14 10 -3 6 -2 10 4 10 5 0 12 -9 16 -19z m-80 -41 c-3 -5 -2 -10 4 -10 6 0
8 -8 5 -17 -5 -15 -4 -16 5 -3 7 11 13 12 21 4 8 -8 7 -14 -5 -24 -8 -7 -15
-19 -15 -26 0 -18 -27 -18 -45 0 -17 16 -8 57 10 50 10 -4 12 1 8 15 -3 13 -1
21 6 21 7 0 9 -4 6 -10z m-248 -38 l13 -32 -34 0 c-19 0 -41 7 -50 15 -8 8
-19 15 -25 15 -6 0 -11 5 -11 11 0 6 7 9 15 5 8 -3 15 -1 15 3 0 5 -6 11 -12
14 -7 3 7 4 31 3 40 -1 46 -4 58 -34z m76 18 c3 -11 1 -20 -4 -20 -5 0 -9 9
-9 20 0 11 2 20 4 20 2 0 6 -9 9 -20z m-293 -20 c8 -5 11 -10 5 -10 -5 0 -17
5 -25 10 -8 5 -10 10 -5 10 6 0 17 -5 25 -10z m380 -20 c0 -5 -4 -10 -10 -10
-5 0 -10 5 -10 10 0 6 5 10 10 10 6 0 10 -4 10 -10z m173 -20 c-3 -12 -8 -19
-11 -16 -5 6 5 36 12 36 2 0 2 -9 -1 -20z m-166 -16 c-3 -3 -12 -4 -19 -1 -8
3 -5 6 6 6 11 1 17 -2 13 -5z m418 -14 c3 -5 1 -10 -4 -10 -6 0 -11 5 -11 10
0 6 2 10 4 10 3 0 8 -4 11 -10z m-260 -10 c3 -5 12 -7 19 -4 8 3 17 0 22 -7 4
-7 3 -10 -3 -6 -6 4 -16 0 -23 -7 -6 -8 -25 -18 -42 -21 -18 -4 -26 -11 -21
-16 6 -6 42 -4 94 5 46 8 85 13 87 11 2 -2 -8 -9 -22 -17 -14 -7 -24 -17 -23
-22 3 -12 -151 -57 -183 -53 -22 2 -25 7 -25 42 0 33 5 42 25 52 14 6 34 21
45 32 22 22 41 26 50 11z m-601 -32 c-9 -14 -23 2 -17 18 4 12 8 13 14 3 4 -7
5 -17 3 -21z m446 18 c0 -2 -7 -6 -15 -10 -8 -3 -15 -1 -15 4 0 6 7 10 15 10
8 0 15 -2 15 -4z m0 -36 c0 -5 -7 -10 -15 -10 -8 0 -15 5 -15 10 0 6 7 10 15
10 8 0 15 -4 15 -10z m0 -40 c0 -5 -4 -10 -10 -10 -5 0 -10 5 -10 10 0 6 5 10
10 10 6 0 10 -4 10 -10z m0 -34 c0 -11 -19 -15 -25 -6 -3 5 1 10 9 10 9 0 16
-2 16 -4z m10 -56 c0 -11 -7 -20 -15 -20 -8 0 -15 9 -15 20 0 11 7 20 15 20 8
0 15 -9 15 -20z m-230 -25 c0 -8 8 -15 18 -17 28 -6 -21 -28 -97 -44 -89 -19
-91 -18 -91 15 0 34 7 40 70 62 49 17 100 9 100 -16z m210 -296 c0 -5 -4 -8
-9 -4 -6 3 -7 -9 -4 -31 5 -33 4 -37 -11 -31 -10 4 -29 10 -42 13 -26 7 -30
34 -6 42 7 2 10 -2 6 -12 -3 -9 -1 -16 5 -16 6 0 11 7 11 15 0 7 8 19 18 24
22 13 32 14 32 0z m-83 -76 c20 -5 38 -14 41 -22 3 -10 0 -11 -16 -2 -30 16
-108 13 -143 -4 l-30 -16 21 40 c15 30 29 43 53 49 29 8 32 6 35 -14 2 -16 13
-25 39 -31z m-157 13 c0 -2 -7 -6 -15 -10 -8 -3 -15 -1 -15 4 0 6 7 10 15 10
8 0 15 -2 15 -4z m-60 -26 c-8 -5 -19 -10 -25 -10 -5 0 -3 5 5 10 8 5 20 10
25 10 6 0 3 -5 -5 -10z m220 -37 c-1 -25 -64 -67 -138 -93 -24 -9 -25 -9 -9 4
16 13 16 14 0 27 -9 8 -14 10 -11 4 3 -5 -10 -20 -28 -32 -35 -23 -44 -19 -21
9 13 17 93 72 117 81 22 8 90 8 90 0z m-260 -147 c0 -2 -7 -7 -16 -10 -8 -3
-12 -2 -9 4 6 10 25 14 25 6z m10 -56 c0 -5 -9 -14 -21 -20 -19 -11 -20 -10
-9 9 11 22 30 29 30 11z m287 -157 c-3 -10 -5 -2 -5 17 0 19 2 27 5 18 2 -10
2 -26 0 -35z"/>
<path d="M2848 3713 c7 -3 16 -2 19 1 4 3 -2 6 -13 5 -11 0 -14 -3 -6 -6z"/>
<path d="M2292 3398 c-16 -16 -15 -29 2 -22 16 6 30 34 18 34 -5 0 -13 -5 -20
-12z"/>
<path d="M3660 3744 c-605 -317 -956 -510 -953 -524 3 -10 267 -472 288 -502
6 -10 15 -15 19 -11 4 4 5 1 2 -7 -5 -11 204 -389 303 -548 6 -11 84 28 327
161 522 286 730 401 752 417 l21 15 -33 55 c-18 30 -100 170 -181 310 -153
263 -312 528 -381 637 l-39 62 -125 -65z m217 -486 c-3 -8 -6 -5 -6 6 -1 11 2
17 5 13 3 -3 4 -12 1 -19z m-247 -18 c0 -5 -2 -10 -4 -10 -3 0 -8 5 -11 10 -3
6 -1 10 4 10 6 0 11 -4 11 -10z m108 -1 c-10 -5 -18 -16 -18 -24 0 -8 -10 -21
-22 -29 -22 -16 -22 -16 17 -17 35 -1 37 -2 15 -9 -14 -4 -20 -9 -15 -10 12
-2 -25 -18 -44 -19 -7 -1 -11 5 -8 13 3 8 3 17 -1 21 -4 4 -7 12 -7 18 0 7 -8
11 -18 9 -9 -2 -17 2 -17 9 0 7 9 9 26 5 23 -6 26 -4 21 13 -5 21 9 27 63 29
22 1 23 0 8 -9z m157 -29 c-3 -5 -13 -6 -21 -3 -12 4 -13 8 -3 14 15 9 32 2
24 -11z m-5 -34 c0 -8 -4 -17 -10 -21 -15 -9 0 -35 21 -35 10 0 19 -7 19 -15
0 -8 7 -15 16 -15 8 0 23 -7 32 -16 15 -15 14 -16 -6 -10 -17 6 -21 4 -16 -8
5 -12 0 -16 -20 -16 -14 0 -26 -4 -26 -10 0 -5 9 -10 20 -10 11 0 20 -5 20
-11 0 -5 -4 -7 -10 -4 -5 3 -10 2 -10 -3 0 -16 29 -22 37 -7 6 9 21 12 56 8
35 -4 45 -9 37 -18 -5 -6 -7 -15 -3 -18 3 -4 1 -7 -5 -7 -7 0 -12 -7 -12 -15
0 -17 -30 -35 -59 -35 -20 0 -26 -10 -21 -39 1 -9 -4 -12 -15 -7 -12 4 -16 2
-12 -8 4 -10 1 -13 -9 -9 -9 3 -14 -1 -14 -12 0 -9 5 -13 10 -10 6 3 10 4 10
1 0 -2 3 -11 6 -19 4 -11 -6 -19 -33 -28 -21 -6 -44 -20 -50 -29 -27 -38 -163
-103 -163 -78 0 6 -8 4 -19 -6 -11 -10 -25 -14 -36 -10 -13 5 -16 4 -11 -4 4
-7 3 -12 -2 -12 -5 0 -25 -3 -43 -6 -31 -5 -33 -4 -16 9 10 9 19 19 19 24 0 4
23 25 51 46 59 45 84 82 60 92 -19 7 -24 3 -27 -22 -2 -11 -10 -17 -22 -16
-11 2 -30 0 -42 -3 -19 -4 -23 -10 -18 -27 4 -17 -2 -27 -24 -42 -17 -11 -30
-24 -30 -29 0 -5 -6 -4 -13 2 -16 14 -84 19 -94 7 -4 -4 0 -5 10 -2 20 7 23
-6 4 -21 -9 -8 -19 -5 -37 8 -30 24 -44 25 -36 5 3 -8 2 -15 -3 -15 -11 0 -21
38 -14 56 3 8 11 14 17 14 16 0 66 52 66 68 0 7 8 12 19 12 10 0 24 7 31 15 7
8 18 15 25 15 7 0 18 7 25 15 10 12 9 16 -4 21 -9 3 -22 2 -29 -3 -6 -6 -22
-13 -34 -15 -16 -4 -20 -2 -16 8 3 8 -1 14 -11 14 -10 0 -16 9 -16 25 0 19 -8
28 -34 39 -18 8 -37 19 -41 26 -6 9 -10 9 -16 -1 -13 -21 -11 -29 6 -23 12 5
15 -3 15 -35 0 -26 5 -41 13 -41 6 -1 -4 -9 -23 -18 -19 -9 -33 -21 -32 -26 2
-4 -8 -14 -22 -22 -20 -10 -34 -10 -56 -2 -17 5 -30 14 -30 19 0 5 -5 9 -11 9
-5 0 -8 -4 -4 -9 3 -5 0 -13 -6 -17 -8 -4 -9 3 -4 27 4 25 3 30 -4 19 -9 -13
-11 -13 -11 3 0 9 -4 17 -10 17 -5 0 -10 7 -10 15 0 8 7 15 15 15 8 0 15 5 15
10 0 16 32 11 45 -7 11 -15 15 -15 29 -4 9 7 16 9 16 3 0 -5 11 -9 24 -8 18 1
23 6 22 26 0 14 -5 28 -11 33 -6 4 -5 10 3 16 8 4 12 17 10 27 -3 14 -11 18
-31 16 -15 -1 -27 0 -27 4 0 9 43 69 53 73 5 2 3 7 -4 12 -11 7 -9 9 7 9 11 0
24 4 30 9 5 5 19 12 32 16 16 5 22 2 22 -10 0 -24 24 -12 30 15 6 24 30 41 30
21 0 -13 62 -15 75 -2 6 5 32 11 59 14 30 3 43 1 35 -4 -8 -5 -22 -9 -31 -9
-20 0 -21 -4 -12 -37 4 -13 13 -23 20 -23 8 0 14 -7 14 -16 0 -10 -6 -14 -15
-10 -9 3 -15 0 -15 -9 0 -18 -5 -19 -30 -3 -23 15 -28 11 -36 -29 -6 -29 -5
-30 30 -29 23 1 41 9 50 21 11 16 17 17 29 7 11 -9 22 -10 41 -2 15 5 36 10
47 10 11 0 35 11 53 25 18 14 38 25 44 25 18 0 62 53 62 76 0 11 3 24 7 27 11
12 23 8 23 -7z m-240 -46 c0 -5 -7 -10 -16 -10 -8 0 -12 5 -9 10 3 6 10 10 16
10 5 0 9 -4 9 -10z m-15 -70 c3 -5 2 -10 -4 -10 -5 0 -18 -3 -28 -7 -16 -6
-16 -5 -4 10 15 19 27 22 36 7z m-520 -80 c3 -5 -1 -10 -9 -10 -9 0 -16 5 -16
10 0 6 4 10 9 10 6 0 13 -4 16 -10z m-40 -20 c-3 -5 1 -10 9 -10 9 0 16 -4 16
-10 0 -5 -7 -10 -15 -10 -8 0 -15 2 -15 4 0 2 -3 11 -6 20 -3 9 -1 16 6 16 6
0 8 -4 5 -10z m995 -24 c0 -3 -4 -8 -10 -11 -5 -3 -10 -1 -10 4 0 6 5 11 10
11 6 0 10 -2 10 -4z m-686 -100 c-10 -8 -21 -12 -24 -10 -5 6 21 24 34 24 6 0
1 -6 -10 -14z m-114 -160 c0 -3 -4 -8 -10 -11 -5 -3 -10 -1 -10 4 0 6 5 11 10
11 6 0 10 -2 10 -4z m350 -61 c0 -8 -7 -15 -16 -15 -14 0 -14 3 -4 15 7 8 14
15 16 15 2 0 4 -7 4 -15z m124 -50 c-10 -8 -26 -14 -34 -15 -8 0 -1 8 15 19
34 21 48 18 19 -4z m-68 -40 c-26 -19 -42 -19 -26 0 7 8 20 15 29 15 13 -1 13
-3 -3 -15z m-46 -20 c0 -7 -57 -35 -72 -35 -7 0 5 9 27 19 48 23 45 22 45 16z
m150 -22 c-1 -23 -70 -64 -70 -42 0 6 -7 9 -15 5 -8 -3 -15 -1 -15 5 0 5 6 11
13 13 6 2 26 8 42 14 39 13 45 14 45 5z"/>
<path d="M3805 3060 l-20 -9 20 -1 c11 -1 15 -4 8 -7 -15 -6 5 -43 24 -43 19
0 26 38 9 55 -8 8 -16 15 -18 14 -2 0 -12 -4 -23 -9z"/>
<path d="M3694 2836 c-10 -8 -16 -18 -11 -22 8 -8 57 15 57 28 0 13 -24 9 -46
-6z"/>
<path d="M3510 2818 c-22 -10 -23 -12 -6 -15 10 -3 26 2 34 11 19 18 8 20 -28
4z"/>
<path d="M3730 2800 c0 -5 7 -10 15 -10 8 0 15 5 15 10 0 6 -7 10 -15 10 -8 0
-15 -4 -15 -10z"/>
<path d="M3865 2790 c-3 -6 1 -7 9 -4 18 7 21 14 7 14 -6 0 -13 -4 -16 -10z"/>
<path d="M3735 2460 c-3 -6 1 -7 9 -4 18 7 21 14 7 14 -6 0 -13 -4 -16 -10z"/>
<path d="M2280 3614 c0 -8 5 -12 10 -9 6 3 10 10 10 16 0 5 -4 9 -10 9 -5 0
-10 -7 -10 -16z"/>
<path d="M956 3525 c-3 -8 -1 -15 4 -15 6 0 10 7 10 15 0 8 -2 15 -4 15 -2 0
-6 -7 -10 -15z"/>
<path d="M2310 3500 c0 -5 5 -10 11 -10 5 0 7 5 4 10 -3 6 -8 10 -11 10 -2 0
-4 -4 -4 -10z"/>
<path d="M2280 3460 c0 -5 5 -10 10 -10 6 0 10 5 10 10 0 6 -4 10 -10 10 -5 0
-10 -4 -10 -10z"/>
<path d="M2508 3463 c6 -2 18 -2 25 0 6 3 1 5 -13 5 -14 0 -19 -2 -12 -5z"/>
<path d="M1000 3456 c0 -2 7 -7 16 -10 8 -3 12 -2 9 4 -6 10 -25 14 -25 6z"/>
<path d="M1030 3421 c0 -6 4 -13 10 -16 6 -3 7 1 4 9 -7 18 -14 21 -14 7z"/>
<path d="M1056 3377 c3 -10 9 -15 12 -12 3 3 0 11 -7 18 -10 9 -11 8 -5 -6z"/>
<path d="M1077 3335 c3 -8 9 -12 14 -9 12 7 11 11 -5 17 -10 4 -13 1 -9 -8z"/>
<path d="M1060 3166 c0 -2 8 -10 18 -17 15 -13 16 -12 3 4 -13 16 -21 21 -21
13z"/>
<path d="M4280 3146 c0 -4 33 -63 73 -131 l72 -123 65 -22 c109 -38 103 -30
76 -106 l-24 -66 26 -44 c23 -38 43 -55 62 -53 3 0 17 -4 33 -10 24 -9 27 -8
27 10 0 13 4 18 12 13 11 -7 7 53 -6 87 -10 24 122 82 188 83 28 1 56 4 63 9
6 4 13 2 15 -5 3 -9 39 -14 124 -16 65 -1 145 -5 177 -8 88 -9 87 -12 87 197
l0 179 -143 0 c-79 0 -320 3 -535 7 -216 3 -392 3 -392 -1z"/>
<path d="M1140 3066 c0 -4 9 -19 20 -33 11 -14 20 -21 20 -16 0 6 -9 20 -20
33 -11 13 -20 20 -20 16z"/>
<path d="M1190 3005 c0 -4 24 -38 54 -74 58 -70 118 -137 100 -112 -9 13 -138
176 -150 190 -2 2 -4 1 -4 -4z"/>
<path d="M2800 2870 c6 -11 13 -20 16 -20 2 0 0 9 -6 20 -6 11 -13 20 -16 20
-2 0 0 -9 6 -20z"/>
<path d="M2345 2710 c-10 -11 -16 -22 -13 -25 3 -3 13 4 23 15 10 11 16 22 13
25 -3 3 -13 -4 -23 -15z"/>
<path d="M5301 2624 c0 -11 3 -14 6 -6 3 7 2 16 -1 19 -3 4 -6 -2 -5 -13z"/>
<path d="M5320 2630 c0 -5 5 -10 10 -10 6 0 10 5 10 10 0 6 -4 10 -10 10 -5 0
-10 -4 -10 -10z"/>
<path d="M5078 2483 c7 -3 16 -2 19 1 4 3 -2 6 -13 5 -11 0 -14 -3 -6 -6z"/>
<path d="M5128 2483 c7 -3 16 -2 19 1 4 3 -2 6 -13 5 -11 0 -14 -3 -6 -6z"/>
<path d="M2176 2360 c-20 -42 -23 -57 -15 -73 10 -17 9 -19 -5 -14 -11 4 -21
-3 -31 -24 -16 -29 -15 -29 14 -35 17 -4 32 -14 34 -23 3 -9 4 -2 3 16 0 17
-4 29 -8 26 -14 -8 -8 15 7 30 11 12 12 17 2 20 -9 4 -9 6 1 6 6 1 12 9 12 19
1 15 2 15 16 -3 13 -18 14 -15 8 40 -4 33 -8 62 -10 64 -2 2 -14 -20 -28 -49z"/>
<path d="M3135 2270 c-3 -5 -1 -10 6 -10 10 0 10 -3 1 -12 -17 -17 -144 -37
-159 -25 -12 9 -38 7 -93 -8 -23 -6 -23 -5 -8 8 10 8 59 20 109 27 50 6 88 14
85 17 -4 5 -267 -15 -273 -21 -7 -6 130 -200 140 -198 27 7 127 78 127 91 0 8
6 11 16 7 10 -4 13 -2 8 6 -5 8 -2 9 9 5 10 -4 16 -2 14 5 -1 5 5 12 14 13 35
6 59 17 59 27 0 11 -39 78 -45 78 -2 0 -7 -4 -10 -10z m-54 -92 c10 -18 9 -20
-6 -14 -11 4 -23 0 -32 -11 -8 -10 -11 -12 -7 -4 6 13 -6 11 -53 -6 -7 -3 -13
-1 -13 4 0 11 60 36 79 34 7 -1 10 2 6 8 -3 6 -2 11 4 11 6 0 15 -10 22 -22z"/>
<path d="M2198 2233 c7 -3 16 -2 19 1 4 3 -2 6 -13 5 -11 0 -14 -3 -6 -6z"/>
<path d="M2668 2232 c-15 -6 -73 -101 -66 -107 14 -12 260 -136 263 -133 5 5
-63 108 -71 108 -2 0 0 -8 5 -19 6 -10 7 -22 3 -26 -4 -5 -1 -5 7 0 10 6 12 4
7 -4 -6 -9 -13 -8 -29 6 -12 10 -25 22 -28 26 -3 5 -9 7 -12 5 -3 -1 -24 8
-46 22 -29 17 -40 30 -37 43 2 9 0 15 -5 11 -5 -3 -9 4 -9 15 0 12 5 21 10 21
17 0 73 -30 99 -54 l25 -21 -20 35 c-49 85 -54 89 -96 72z"/>
<path d="M3855 2039 c-165 -93 -225 -131 -185 -117 8 3 26 8 40 12 25 7 25 7
5 -11 -44 -40 -50 -56 -11 -29 40 27 62 34 51 16 -3 -5 2 -10 12 -10 10 0 42
-11 71 -25 30 -14 56 -25 58 -25 2 0 36 65 77 145 40 80 71 145 68 145 -3 -1
-87 -46 -186 -101z m15 -59 c0 -4 12 -11 26 -14 15 -4 24 -9 22 -12 -7 -6
-108 27 -108 36 0 3 14 5 30 2 17 -2 30 -8 30 -12z m7 -53 c10 -11 14 -18 8
-15 -5 3 -30 12 -55 18 -36 10 -41 14 -25 20 27 9 50 2 72 -23z"/>
<path d="M2478 2041 c-10 -20 -18 -43 -18 -49 0 -8 -9 -10 -24 -6 -18 4 -27 1
-35 -15 -15 -28 -30 -111 -20 -111 4 0 22 12 39 26 24 21 30 32 26 50 -5 17
-2 24 7 24 16 0 70 97 61 111 -10 16 -19 9 -36 -30z"/>
<path d="M2025 2039 c-8 -12 -6 -15 21 -23 16 -5 23 -2 27 14 4 16 0 20 -18
20 -13 0 -27 -5 -30 -11z"/>
<path d="M2090 2001 c0 -5 7 -12 16 -15 24 -9 28 -7 14 9 -14 17 -30 20 -30 6z"/>
<path d="M3288 1854 l-67 -44 155 -80 c86 -44 163 -81 172 -82 9 -2 23 -9 30
-15 7 -7 21 -13 30 -12 11 0 12 2 5 6 -7 2 -13 11 -13 18 0 8 -10 12 -27 10
-23 -2 -25 -1 -11 8 15 10 13 15 -14 55 -16 24 -34 59 -39 78 -11 38 -19 41
-55 18 -13 -9 -26 -15 -28 -13 -2 2 -15 25 -30 52 -16 26 -31 47 -34 46 -4 0
-37 -21 -74 -45z"/>
<path d="M3551 1854 c0 -11 3 -14 6 -6 3 7 2 16 -1 19 -3 4 -6 -2 -5 -13z"/>
<path d="M2935 1839 c-4 -6 -4 -13 -1 -16 3 -3 -6 -20 -19 -38 -14 -17 -25
-42 -25 -53 0 -12 -4 -22 -9 -22 -6 0 -7 -16 -4 -35 3 -22 2 -35 -5 -35 -6 0
-12 10 -15 23 -3 20 -4 20 -11 4 -5 -10 -7 -19 -5 -21 2 -2 78 -38 169 -79
l165 -75 42 87 c24 47 45 92 48 99 2 7 -19 24 -54 41 -46 23 -61 27 -71 18
-10 -9 -11 -9 -6 1 10 17 2 15 -45 -9 -23 -11 -42 -19 -44 -17 -1 2 -8 13 -14
26 -6 12 -19 22 -27 22 -9 0 -14 6 -11 13 2 6 0 20 -5 31 -8 15 -12 16 -19 5
-6 -10 -9 -6 -9 14 0 27 -13 36 -25 16z m-28 -111 c-3 -7 -5 -2 -5 12 0 14 2
19 5 13 2 -7 2 -19 0 -25z m283 -74 c0 -8 -7 -14 -15 -14 -15 0 -21 21 -9 33
10 9 24 -2 24 -19z m30 -13 c0 -5 -7 -14 -15 -21 -12 -10 -15 -10 -15 2 0 8 3
18 7 21 9 10 23 9 23 -2z m-73 -53 c-3 -8 -6 -5 -6 6 -1 11 2 17 5 13 3 -3 4
-12 1 -19z m65 0 c-7 -7 -12 -8 -12 -2 0 14 12 26 19 19 2 -3 -1 -11 -7 -17z
m-22 -2 c0 -3 -4 -8 -10 -11 -5 -3 -10 -1 -10 4 0 6 5 11 10 11 6 0 10 -2 10
-4z"/>
<path d="M2737 1715 c-4 -8 -2 -17 3 -20 6 -4 10 3 10 14 0 25 -6 27 -13 6z"/>
<path d="M3670 1596 c0 -2 7 -9 15 -16 12 -10 15 -10 15 4 0 9 -7 16 -15 16
-8 0 -15 -2 -15 -4z"/>
<path d="M1 321 l0 -319 37 1 c20 0 40 5 44 11 5 7 8 5 8 -4 0 -13 1 -13 10 0
6 10 10 11 10 3 0 -10 45 -13 191 -13 l191 0 -17 27 c-10 14 -50 68 -89 119
-39 50 -140 182 -225 293 -84 111 -155 201 -157 201 -2 0 -4 -144 -3 -319z
m64 209 c3 -5 1 -10 -4 -10 -6 0 -11 5 -11 10 0 6 2 10 4 10 3 0 8 -4 11 -10z
m146 -207 c13 -16 12 -17 -3 -4 -17 13 -22 21 -14 21 2 0 10 -8 17 -17z"/>
</g>
</svg>
